<svg width="512" height="256" viewBox="0 0 512 256" fill="none" xmlns="http://www.w3.org/2000/svg">
<path d="M393.008 91H118.992C111.817 91 106 96.8168 106 103.992V151.236C106 158.412 111.817 164.228 118.992 164.228H393.008C400.183 164.228 406 158.412 406 151.236V103.992C406 96.8168 400.183 91 393.008 91Z" fill="white" stroke="#798B96" stroke-width="2"/>
<path d="M188.431 118.165H189.991V115.005H191.45C193.704 115.005 194.809 113.729 194.809 112.113C194.809 110.37 193.676 109.236 191.365 109.236H188.431V118.165ZM191.422 110.583C192.499 110.583 193.208 111.121 193.208 112.128C193.208 113.12 192.669 113.658 191.465 113.658H189.991V110.583H191.422ZM200.099 118.378C202.664 118.378 204.776 116.408 204.776 113.701C204.776 110.994 202.65 109.024 200.099 109.024C197.562 109.024 195.436 110.994 195.436 113.701C195.436 116.408 197.548 118.378 200.099 118.378ZM200.099 116.932C198.327 116.932 197.023 115.614 197.023 113.701C197.023 111.787 198.327 110.469 200.099 110.469C201.871 110.469 203.203 111.787 203.203 113.701C203.203 115.614 201.871 116.932 200.099 116.932ZM206.75 109.236H205.049L207.672 118.165H209.698L211.484 111.589L213.284 118.165H215.311L217.933 109.236H216.275L214.333 116.535L212.391 109.236H210.634L208.692 116.535L206.75 109.236ZM218.993 118.165H224.789V116.791H220.552V114.339H224.577V112.964H220.552V110.611H224.789V109.236H218.993V118.165ZM226.079 118.165H227.638V114.891H229.495L231.167 118.165H232.981L231.04 114.565C232.117 114.098 232.656 113.162 232.656 112.057C232.656 110.356 231.522 109.236 229.211 109.236H226.079V118.165ZM229.268 110.583C230.345 110.583 231.054 111.107 231.054 112.071C231.054 113.035 230.515 113.545 229.311 113.545H227.638V110.583H229.268ZM234.259 118.165H240.056V116.791H235.819V114.339H239.844V112.964H235.819V110.611H240.056V109.236H234.259V118.165ZM241.346 118.165H243.77C247.214 118.165 249.184 116.38 249.184 113.701C249.184 111.022 247.214 109.236 243.77 109.236H241.346V118.165ZM243.954 116.762H242.905V110.639H243.954C246.151 110.639 247.611 111.66 247.611 113.701C247.611 115.742 246.151 116.762 243.954 116.762ZM253.18 118.165H256.78C258.82 118.165 259.784 117.06 259.784 115.529C259.784 114.792 259.487 113.913 258.197 113.446C259.076 113.02 259.387 112.283 259.387 111.589C259.387 110.214 258.509 109.236 256.482 109.236H253.18V118.165ZM256.283 110.526C257.247 110.526 257.786 110.894 257.786 111.759C257.786 112.652 257.389 113.006 256.298 113.006H254.739V110.526H256.283ZM256.567 114.254C257.687 114.254 258.183 114.693 258.183 115.572C258.183 116.436 257.701 116.876 256.581 116.876H254.739V114.254H256.567ZM263.114 118.165H264.673V114.466L267.791 109.236H266.062L263.893 112.978L261.753 109.236H259.953L263.114 114.551V118.165Z" fill="#798B96"/>
<path d="M188.772 146.512H193.165V139.482H200.139V146.512H204.532V128.654H200.139V135.655H193.165V128.654H188.772V146.512ZM206.502 140.276C206.502 144.556 208.968 146.937 211.888 146.937C213.56 146.937 215.063 146.257 215.97 144.868V146.512H220.335V134.039H215.97V135.683C215.063 134.294 213.56 133.614 211.888 133.614C208.968 133.614 206.502 135.995 206.502 140.276ZM213.447 137.157C215.006 137.157 216.026 138.291 216.026 140.276C216.026 142.26 214.977 143.394 213.447 143.394C211.803 143.394 210.867 142.061 210.867 140.276C210.867 138.49 211.803 137.157 213.447 137.157ZM226.589 140.276C226.589 138.093 227.667 137.016 228.97 137.016C229.991 137.016 230.926 137.668 231.04 139.057H235.518C234.923 134.946 231.635 133.614 228.97 133.614C225.626 133.614 222.224 135.683 222.224 140.276C222.224 144.868 225.626 146.937 228.97 146.937C231.663 146.937 234.952 145.605 235.518 141.494H231.04C230.898 142.855 229.991 143.535 228.97 143.535C227.667 143.535 226.589 142.458 226.589 140.276ZM237.298 146.512H241.664V141.126L245.717 146.512H251.046L245.774 139.935L250.65 134.039H245.887L241.664 138.943V127.236H237.298V146.512ZM270.473 139.482C269.878 142.402 267.979 142.969 266.278 142.969C263.613 142.969 261.799 140.701 261.799 137.583C261.799 134.465 263.585 132.197 266.278 132.197C268.064 132.197 269.878 132.934 270.417 135.683H274.924C273.818 129.816 270.105 128.228 266.278 128.228C260.92 128.228 257.406 132.169 257.406 137.583C257.406 142.997 261.091 146.937 266.278 146.937C270.105 146.937 273.79 145.52 274.924 139.482H270.473ZM276.8 146.512H281.166V127.236H276.8V146.512ZM287.889 134.039H283.523V141.976C283.523 145.151 285.309 146.937 287.974 146.937C289.334 146.937 290.667 146.257 291.489 144.896V146.512H295.854V134.039H291.489V140.361C291.489 142.373 290.695 143.252 289.674 143.252C288.597 143.252 287.889 142.43 287.889 140.729V134.039ZM312.226 140.276C312.226 135.995 309.76 133.614 306.841 133.614C305.168 133.614 303.666 134.294 302.759 135.683V127.236H298.393V146.512H302.759V144.868C303.666 146.257 305.168 146.937 306.841 146.937C309.76 146.937 312.226 144.556 312.226 140.276ZM305.282 137.157C306.926 137.157 307.861 138.49 307.861 140.276C307.861 142.061 306.926 143.394 305.282 143.394C303.751 143.394 302.702 142.231 302.702 140.276C302.702 138.32 303.722 137.157 305.282 137.157ZM319.847 146.512H327.529C331.837 146.512 333.907 144.272 333.907 141.154C333.907 139.737 333.311 138.008 330.477 137.157C332.489 136.335 333.198 134.833 333.198 133.387C333.198 130.808 331.497 128.654 326.99 128.654H319.847V146.512ZM326.537 131.913C327.954 131.913 328.776 132.48 328.776 133.813C328.776 135.287 328.067 135.882 326.367 135.882H324.241V131.913H326.537ZM327.019 139C328.578 139 329.485 139.709 329.485 141.154C329.485 142.543 328.549 143.252 326.962 143.252H324.241V139H327.019ZM335.306 140.276C335.306 144.556 337.772 146.937 340.692 146.937C342.365 146.937 343.867 146.257 344.774 144.868V146.512H349.139V134.039H344.774V135.683C343.867 134.294 342.365 133.614 340.692 133.614C337.772 133.614 335.306 135.995 335.306 140.276ZM342.251 137.157C343.81 137.157 344.831 138.291 344.831 140.276C344.831 142.26 343.782 143.394 342.251 143.394C340.607 143.394 339.672 142.061 339.672 140.276C339.672 138.49 340.607 137.157 342.251 137.157ZM351.681 146.512H356.046V139.68C356.046 137.923 356.869 137.157 358.201 137.157C359.42 137.157 360.072 137.98 360.072 139.68V146.512H364.437V139.255C364.437 135.712 362.623 133.614 359.703 133.614C358.116 133.614 356.84 134.351 356.046 135.683V134.039H351.681V146.512ZM366.796 146.512H371.161V141.126L375.215 146.512H380.544L375.271 139.935L380.147 134.039H375.385L371.161 138.943V127.236H366.796V146.512Z" fill="#17171D"/>
<path d="M147.339 154.189C162.015 154.189 173.913 142.291 173.913 127.614C173.913 112.937 162.015 101.039 147.339 101.039C132.662 101.039 120.764 112.937 120.764 127.614C120.764 142.291 132.662 154.189 147.339 154.189Z" stroke="#E42D42" stroke-width="3"/>
<path d="M131.394 141.787C131.394 140.809 132.187 140.016 133.165 140.016H161.512C162.49 140.016 163.283 140.809 163.283 141.787C163.283 142.765 162.49 143.559 161.512 143.559H133.165C132.187 143.559 131.394 142.765 131.394 141.787Z" fill="#E42D42"/>
<path fill-rule="evenodd" clip-rule="evenodd" d="M147.339 138.244C146.361 138.244 145.567 137.45 145.567 136.472V124.071C145.567 123.093 146.361 122.299 147.339 122.299C148.317 122.299 149.11 123.093 149.11 124.071V136.472C149.11 137.45 148.317 138.244 147.339 138.244Z" fill="#E42D42"/>
<path fill-rule="evenodd" clip-rule="evenodd" d="M156.197 138.244C155.219 138.244 154.425 137.45 154.425 136.472V124.071C154.425 123.093 155.219 122.299 156.197 122.299C157.175 122.299 157.969 123.093 157.969 124.071V136.472C157.969 137.45 157.175 138.244 156.197 138.244Z" fill="#E42D42"/>
<path fill-rule="evenodd" clip-rule="evenodd" d="M138.48 138.244C137.502 138.244 136.709 137.45 136.709 136.472V124.071C136.709 123.093 137.502 122.299 138.48 122.299C139.458 122.299 140.252 123.093 140.252 124.071V136.472C140.252 137.45 139.458 138.244 138.48 138.244Z" fill="#E42D42"/>
<path d="M147.339 113.473C147.412 113.498 147.523 113.54 147.683 113.611C148.106 113.794 148.609 114.056 149.256 114.426C150.571 115.177 152.216 116.238 154.068 117.546C157.79 120.171 157.968 120.528 162.031 123.552C162.722 124.244 163.846 124.244 164.536 123.552C165.229 122.861 165.229 121.738 164.536 121.047C160.626 117.87 159.92 117.34 156.112 114.651C154.199 113.301 152.411 112.148 151.013 111.349C150.303 110.943 149.632 110.596 149.105 110.365C148.641 110.162 147.973 109.898 147.339 109.898C146.705 109.898 146.037 110.162 145.573 110.365C145.047 110.596 144.375 110.943 143.665 111.349C142.267 112.148 140.479 113.301 138.566 114.651C134.759 117.34 134.052 117.87 130.142 121.047C129.449 121.738 129.449 122.861 130.142 123.552C130.833 124.244 131.956 124.244 132.647 123.552C136.71 120.528 136.888 120.171 140.61 117.546C142.462 116.238 144.108 115.177 145.422 114.426C146.069 114.056 146.572 113.794 146.995 113.611C147.155 113.54 147.266 113.498 147.339 113.473Z" fill="#E42D42"/>
</svg>
