<svg width="512" height="256" viewBox="0 0 512 256" fill="none" xmlns="http://www.w3.org/2000/svg">
<g clip-path="url(#clip0)">
<path d="M169.306 109.528H147.2V118.366H169.306V109.528Z" fill="#354E5C"/>
<path d="M112.935 109.528H104.086V138.275H112.935V109.528Z" fill="#354E5C"/>
<path d="M127.303 109.528H118.465V151.531H127.303V109.528Z" fill="#354E5C"/>
<path d="M98.5561 109.528H89.7184V151.531H98.5561V109.528Z" fill="#354E5C"/>
<path d="M156.038 123.907H147.2V151.543H156.038V123.907Z" fill="#354E5C"/>
<path d="M141.67 109.528H132.832V118.366H141.67V109.528Z" fill="#354E5C"/>
<path d="M141.67 123.907H132.832V151.543H141.67V123.907Z" fill="#41B19C"/>
<path d="M189.131 101.455V159.545" stroke="black" stroke-width="0.51" stroke-miterlimit="10"/>
<path d="M234.67 135.217C236.423 133.466 237.717 131.31 238.438 128.939C239.158 126.569 239.284 124.057 238.802 121.626C236.371 121.144 233.858 121.269 231.486 121.99C229.115 122.712 226.958 124.006 225.206 125.76C223.455 127.514 222.163 129.673 221.445 132.045C220.727 134.418 220.605 136.931 221.091 139.362C223.52 139.841 226.031 139.713 228.399 138.99C230.768 138.267 232.922 136.971 234.67 135.217" fill="#41B19C"/>
<path d="M222.811 123.37C224.733 121.448 227.056 119.975 229.614 119.057C232.173 118.138 234.902 117.796 237.608 118.055C236.873 116.516 235.879 115.114 234.67 113.911C231.829 111.16 228.021 109.636 224.066 109.667C220.111 109.698 216.327 111.282 213.53 114.078C210.733 116.873 209.147 120.656 209.113 124.611C209.08 128.566 210.602 132.375 213.352 135.217C214.555 136.427 215.957 137.42 217.496 138.155C217.236 135.45 217.578 132.72 218.497 130.162C219.416 127.604 220.889 125.28 222.811 123.358" fill="#354E5C"/>
<path d="M237.07 137.606C235.149 139.528 232.825 141.002 230.267 141.921C227.709 142.839 224.979 143.181 222.273 142.921C223.314 145.097 224.861 146.991 226.785 148.446C228.71 149.9 230.955 150.872 233.332 151.28C235.709 151.687 238.15 151.519 240.449 150.788C242.747 150.058 244.838 148.787 246.544 147.082C248.25 145.377 249.522 143.287 250.254 140.989C250.986 138.691 251.156 136.25 250.749 133.873C250.343 131.495 249.373 129.249 247.919 127.324C246.466 125.399 244.572 123.851 242.397 122.809C242.655 125.515 242.311 128.246 241.39 130.804C240.469 133.362 238.994 135.685 237.07 137.606Z" fill="#EEC94D"/>
<path d="M274.201 120.946C274.226 120.244 273.997 119.557 273.556 119.011C273.338 118.76 273.065 118.562 272.759 118.431C272.453 118.301 272.121 118.242 271.789 118.258C271.46 118.242 271.131 118.301 270.829 118.432C270.527 118.562 270.258 118.76 270.045 119.011C269.621 119.564 269.406 120.249 269.436 120.946V122.785C269.404 123.487 269.625 124.177 270.057 124.732C270.27 124.984 270.538 125.184 270.84 125.316C271.142 125.448 271.471 125.51 271.8 125.496C272.134 125.51 272.466 125.449 272.772 125.316C273.078 125.184 273.35 124.984 273.568 124.732C274.004 124.178 274.228 123.488 274.201 122.785V120.946ZM276.399 122.773C276.414 123.344 276.308 123.912 276.088 124.439C275.867 124.966 275.538 125.44 275.121 125.83C274.198 126.617 273.025 127.049 271.812 127.049C270.6 127.049 269.427 126.617 268.504 125.83C268.089 125.439 267.761 124.965 267.543 124.438C267.324 123.911 267.221 123.343 267.238 122.773V120.958C267.222 120.388 267.326 119.821 267.545 119.294C267.763 118.767 268.09 118.292 268.504 117.9C268.945 117.493 269.462 117.177 270.026 116.972C270.59 116.767 271.189 116.677 271.789 116.706C273.013 116.65 274.21 117.079 275.121 117.9C275.537 118.291 275.865 118.766 276.086 119.293C276.306 119.819 276.412 120.387 276.399 120.958V122.773Z" fill="#58595B"/>
<path d="M278.56 126.857V120.886H277.366V119.417H278.56V118.581C278.536 118.22 278.595 117.858 278.732 117.523C278.868 117.188 279.079 116.888 279.348 116.646C279.982 116.157 280.771 115.915 281.57 115.965H282.143L282.836 116.109L282.645 117.614H282.298H281.904C281.757 117.603 281.61 117.622 281.471 117.669C281.331 117.717 281.203 117.791 281.092 117.888C280.997 117.99 280.923 118.111 280.876 118.242C280.829 118.374 280.809 118.513 280.817 118.653V119.489H282.442V120.886H280.817V126.857H278.56Z" fill="#58595B"/>
<path d="M284.126 126.857V120.886H282.931V119.417H284.126V118.581C284.102 118.22 284.16 117.858 284.297 117.523C284.434 117.188 284.645 116.888 284.914 116.646C285.547 116.157 286.337 115.915 287.135 115.965H287.709L288.341 116.073L288.162 117.578H287.804H287.41C287.263 117.567 287.116 117.586 286.976 117.634C286.837 117.681 286.708 117.755 286.598 117.852C286.502 117.954 286.429 118.075 286.382 118.206C286.334 118.338 286.315 118.477 286.323 118.617V119.453H287.947V120.886H286.323V126.857H284.126Z" fill="#58595B"/>
<path d="M291.423 126.857H289.225V119.417H291.423V126.857ZM291.423 117.578H289.225V116.109H291.423V117.578Z" fill="#58595B"/>
<path d="M296.714 125.484C297.052 125.505 297.386 125.393 297.645 125.173C297.764 125.07 297.858 124.942 297.921 124.797C297.983 124.652 298.011 124.495 298.003 124.337H299.998C300.01 124.706 299.932 125.072 299.77 125.403C299.607 125.735 299.366 126.021 299.066 126.236C298.382 126.759 297.538 127.03 296.678 127.001C296.159 127.032 295.64 126.954 295.155 126.771C294.669 126.588 294.227 126.304 293.859 125.938C293.188 125.198 292.832 124.225 292.868 123.227V123.012C292.832 122.013 293.188 121.041 293.859 120.301C294.569 119.661 295.476 119.284 296.43 119.231C297.384 119.179 298.327 119.455 299.102 120.014C299.401 120.268 299.636 120.588 299.79 120.949C299.943 121.309 300.01 121.701 299.986 122.092V122.092H298.003C298.016 121.737 297.892 121.391 297.657 121.125C297.536 120.994 297.388 120.892 297.223 120.825C297.057 120.759 296.879 120.731 296.702 120.743C296.465 120.726 296.228 120.775 296.017 120.885C295.806 120.995 295.63 121.16 295.507 121.364C295.248 121.856 295.125 122.408 295.149 122.964V123.274C295.124 123.834 295.247 124.391 295.507 124.887C295.633 125.086 295.811 125.248 296.021 125.355C296.231 125.462 296.466 125.511 296.702 125.496" fill="#58595B"/>
<path d="M304.739 120.886C304.556 120.878 304.373 120.913 304.205 120.988C304.037 121.062 303.889 121.175 303.772 121.316C303.516 121.637 303.366 122.029 303.342 122.438H306.041V122.259C306.057 121.888 305.938 121.523 305.707 121.232C305.582 121.096 305.428 120.991 305.256 120.925C305.084 120.859 304.899 120.833 304.715 120.85L304.739 120.886ZM304.918 127.06C304.401 127.086 303.884 127.007 303.397 126.829C302.911 126.65 302.466 126.376 302.088 126.021C301.742 125.676 301.47 125.264 301.29 124.81C301.109 124.356 301.023 123.87 301.037 123.382V123.107C300.999 122.096 301.359 121.11 302.04 120.36C302.744 119.698 303.666 119.317 304.632 119.288C305.598 119.259 306.541 119.586 307.283 120.205C307.594 120.534 307.835 120.923 307.991 121.348C308.148 121.773 308.215 122.225 308.191 122.677V123.776H303.318C303.346 124.226 303.537 124.651 303.855 124.97C304.031 125.13 304.236 125.254 304.46 125.334C304.683 125.414 304.92 125.449 305.157 125.436C305.559 125.447 305.961 125.403 306.351 125.305C306.715 125.202 307.068 125.062 307.402 124.887L308 126.081C307.623 126.413 307.19 126.676 306.722 126.857C306.141 127.031 305.537 127.116 304.93 127.108" fill="#58595B"/>
<path d="M315.285 123.274C315.265 123.849 315.401 124.419 315.679 124.923C315.817 125.128 316.006 125.294 316.229 125.403C316.451 125.512 316.698 125.56 316.945 125.544C317.192 125.561 317.438 125.511 317.659 125.4C317.88 125.288 318.066 125.119 318.199 124.911C318.484 124.414 318.621 123.846 318.593 123.274V123.131C318.616 122.564 318.48 122.001 318.199 121.507C318.062 121.3 317.872 121.134 317.65 121.025C317.428 120.916 317.18 120.868 316.933 120.886C316.696 120.877 316.46 120.931 316.251 121.042C316.041 121.153 315.864 121.318 315.739 121.519C315.453 122.007 315.313 122.566 315.333 123.131L315.285 123.274ZM313.099 123.143C313.079 122.641 313.158 122.14 313.332 121.668C313.507 121.197 313.772 120.765 314.114 120.396C314.482 120.029 314.924 119.744 315.409 119.559C315.895 119.374 316.414 119.293 316.933 119.321C317.447 119.281 317.963 119.351 318.448 119.528C318.932 119.705 319.372 119.985 319.738 120.348C320.104 120.711 320.388 121.148 320.569 121.631C320.751 122.113 320.826 122.629 320.791 123.143V123.274C320.791 124.294 320.385 125.273 319.664 125.994C318.943 126.715 317.965 127.12 316.945 127.12C315.925 127.12 314.947 126.715 314.226 125.994C313.504 125.273 313.099 124.294 313.099 123.274V123.143Z" fill="#58595B"/>
<path d="M322.773 126.857V120.886H321.579V119.417H322.773V118.581C322.749 118.22 322.808 117.858 322.944 117.523C323.081 117.188 323.292 116.888 323.561 116.646C324.195 116.157 324.984 115.915 325.783 115.965H326.356L327.025 116.109L326.846 117.614H326.487H326.093C325.798 117.601 325.508 117.699 325.281 117.888C325.186 117.99 325.112 118.111 325.065 118.242C325.018 118.374 324.998 118.513 325.006 118.653V119.489H326.631V120.886H325.006V126.857H322.773Z" fill="#58595B"/>
<path d="M340.269 125.52C339.848 125.987 339.325 126.35 338.741 126.583C337.907 126.92 337.012 127.079 336.113 127.048C334.907 127.079 333.734 126.653 332.829 125.854C332.413 125.479 332.083 125.018 331.865 124.502C331.646 123.986 331.543 123.428 331.563 122.868V120.814C331.54 120.262 331.634 119.711 331.84 119.199C332.046 118.686 332.359 118.223 332.757 117.84C333.608 117.04 334.743 116.611 335.91 116.646C337.011 116.573 338.102 116.891 338.992 117.542C339.342 117.832 339.622 118.197 339.81 118.611C339.998 119.025 340.09 119.476 340.078 119.93H338.012C337.997 119.448 337.795 118.99 337.451 118.653C336.991 118.322 336.429 118.166 335.864 118.212C335.3 118.258 334.77 118.503 334.37 118.903C333.94 119.422 333.718 120.082 333.749 120.755V122.916C333.719 123.597 333.949 124.263 334.393 124.779C334.613 125.013 334.88 125.197 335.177 125.319C335.473 125.441 335.793 125.497 336.113 125.484C336.516 125.491 336.918 125.443 337.308 125.341C337.566 125.274 337.806 125.151 338.012 124.982V123.119H336.066V121.722H340.222L340.269 125.52Z" fill="#58595B"/>
<path d="M343.876 123.274C343.85 123.85 343.986 124.421 344.27 124.923C344.407 125.129 344.597 125.295 344.819 125.405C345.042 125.514 345.289 125.562 345.536 125.544C345.783 125.561 346.03 125.511 346.25 125.4C346.471 125.288 346.658 125.119 346.79 124.911C347.076 124.414 347.213 123.846 347.184 123.274V123.131C347.21 122.562 347.069 121.997 346.778 121.507C346.633 121.312 346.443 121.153 346.226 121.044C346.008 120.935 345.768 120.878 345.524 120.878C345.281 120.878 345.041 120.935 344.823 121.044C344.605 121.153 344.416 121.312 344.27 121.507C343.989 121.996 343.853 122.555 343.876 123.119V123.274ZM341.691 123.143C341.67 122.641 341.75 122.14 341.924 121.668C342.098 121.197 342.364 120.765 342.706 120.396C343.484 119.705 344.489 119.322 345.53 119.322C346.571 119.322 347.577 119.705 348.355 120.396C348.702 120.762 348.972 121.193 349.148 121.665C349.324 122.137 349.404 122.64 349.382 123.143V123.274C349.382 124.294 348.977 125.273 348.256 125.994C347.534 126.715 346.556 127.12 345.536 127.12C344.516 127.12 343.538 126.715 342.817 125.994C342.096 125.273 341.691 124.294 341.691 123.274V123.143Z" fill="#58595B"/>
<path d="M353.61 124.111L353.753 124.803H353.801L353.944 124.111L355.294 119.417H357.587L354.816 126.905H352.714L349.931 119.417H352.236L353.61 124.111Z" fill="#58595B"/>
<path d="M361.898 120.886C361.715 120.878 361.532 120.913 361.364 120.988C361.196 121.062 361.048 121.175 360.931 121.316C360.676 121.638 360.523 122.029 360.489 122.438V122.438H363.188V122.259C363.209 121.889 363.094 121.524 362.865 121.232C362.741 121.096 362.587 120.991 362.415 120.925C362.243 120.859 362.058 120.833 361.874 120.85L361.898 120.886ZM362.065 127.06C361.55 127.085 361.035 127.005 360.551 126.827C360.067 126.648 359.623 126.374 359.247 126.021C358.901 125.676 358.629 125.264 358.448 124.81C358.268 124.356 358.182 123.87 358.196 123.382V123.107C358.155 122.097 358.511 121.111 359.187 120.36C359.532 120 359.951 119.718 360.414 119.532C360.878 119.347 361.376 119.263 361.874 119.286C362.34 119.257 362.808 119.323 363.247 119.481C363.687 119.64 364.089 119.886 364.43 120.205C364.743 120.533 364.986 120.922 365.144 121.347C365.302 121.772 365.372 122.224 365.35 122.677V123.776H360.465C360.493 124.226 360.684 124.651 361.002 124.97C361.177 125.132 361.382 125.256 361.606 125.336C361.83 125.416 362.067 125.45 362.304 125.436C362.706 125.448 363.108 125.404 363.498 125.305C363.866 125.202 364.222 125.062 364.561 124.887L365.159 126.081C364.759 126.361 364.315 126.57 363.845 126.702C363.264 126.876 362.66 126.961 362.053 126.953" fill="#58595B"/>
<path d="M370.987 121.149H370.187C369.905 121.137 369.625 121.199 369.374 121.328C369.168 121.454 369.003 121.636 368.897 121.853V126.857H366.699V119.417H368.741L368.837 120.528C369.004 120.161 369.263 119.844 369.589 119.608C369.892 119.381 370.262 119.263 370.64 119.274H370.939H371.226L370.987 121.149Z" fill="#58595B"/>
<path d="M374.164 119.417L374.259 120.492C374.521 120.121 374.864 119.814 375.262 119.596C375.674 119.379 376.134 119.268 376.6 119.274C376.954 119.253 377.309 119.307 377.642 119.43C377.975 119.553 378.279 119.744 378.535 119.99C379.049 120.615 379.298 121.417 379.227 122.224V126.857H377.018V122.224C377.038 122.031 377.018 121.837 376.961 121.652C376.903 121.467 376.809 121.296 376.683 121.149C376.545 121.033 376.385 120.946 376.213 120.893C376.041 120.839 375.86 120.821 375.68 120.838C375.409 120.833 375.141 120.886 374.892 120.993C374.666 121.1 374.469 121.26 374.319 121.459V126.857H372.109V119.417H374.164Z" fill="#58595B"/>
<path d="M382.954 119.417L383.049 120.408C383.303 120.05 383.644 119.762 384.04 119.572C384.465 119.37 384.931 119.268 385.402 119.274C385.869 119.26 386.33 119.371 386.739 119.596C387.122 119.815 387.42 120.156 387.587 120.563C387.829 120.172 388.166 119.847 388.567 119.62C389.002 119.382 389.492 119.263 389.988 119.274C390.341 119.258 390.693 119.318 391.02 119.45C391.348 119.582 391.643 119.782 391.887 120.038C392.404 120.699 392.655 121.53 392.592 122.367V126.857H390.382V122.355C390.431 121.934 390.325 121.509 390.083 121.161C389.965 121.046 389.825 120.957 389.671 120.9C389.516 120.842 389.352 120.817 389.188 120.826C388.905 120.817 388.625 120.883 388.376 121.017C388.149 121.14 387.959 121.322 387.826 121.543C387.826 121.626 387.826 121.71 387.826 121.77C387.826 121.829 387.826 121.889 387.826 121.961V126.857H385.629V122.355C385.667 121.935 385.561 121.514 385.33 121.161C385.211 121.045 385.068 120.955 384.912 120.897C384.755 120.84 384.589 120.816 384.423 120.826C384.155 120.817 383.89 120.87 383.646 120.981C383.423 121.076 383.229 121.229 383.085 121.423V126.857H380.887V119.417H382.954Z" fill="#58595B"/>
<path d="M397.739 120.886C397.555 120.878 397.373 120.913 397.205 120.988C397.037 121.062 396.889 121.175 396.772 121.316C396.516 121.637 396.366 122.029 396.342 122.438V122.438H399.053V122.259C399.069 121.888 398.95 121.523 398.718 121.232C398.594 121.096 398.439 120.991 398.267 120.925C398.095 120.859 397.91 120.833 397.727 120.85L397.739 120.886ZM397.918 127.06C397.403 127.085 396.888 127.005 396.403 126.827C395.919 126.648 395.476 126.374 395.099 126.021C394.754 125.676 394.482 125.264 394.301 124.81C394.12 124.356 394.034 123.87 394.049 123.382V123.107C394.011 122.096 394.371 121.11 395.052 120.36C395.756 119.698 396.678 119.317 397.644 119.288C398.61 119.259 399.553 119.586 400.295 120.205C400.606 120.534 400.847 120.923 401.003 121.348C401.159 121.773 401.227 122.225 401.202 122.677V123.776H396.294C396.321 124.226 396.513 124.651 396.831 124.97C397.007 125.13 397.212 125.254 397.435 125.334C397.659 125.414 397.896 125.449 398.133 125.436C398.535 125.447 398.937 125.403 399.327 125.305C399.691 125.202 400.043 125.062 400.378 124.887L400.975 126.081C400.58 126.361 400.14 126.571 399.674 126.702C399.089 126.876 398.481 126.961 397.87 126.953" fill="#58595B"/>
<path d="M404.558 119.417L404.654 120.492C404.916 120.121 405.259 119.814 405.657 119.596C406.068 119.376 406.529 119.265 406.995 119.274C407.347 119.252 407.701 119.305 408.032 119.428C408.363 119.552 408.665 119.743 408.918 119.99C409.432 120.615 409.68 121.417 409.61 122.224V126.857H407.401V122.224C407.438 121.837 407.323 121.451 407.078 121.149C406.796 120.92 406.437 120.809 406.075 120.838C405.804 120.831 405.535 120.884 405.287 120.993C405.057 121.1 404.857 121.26 404.702 121.459V126.857H402.504V119.417H404.558Z" fill="#58595B"/>
<path d="M413.922 117.578V119.417H415.295V120.886H413.922V124.696C413.905 124.919 413.974 125.141 414.113 125.317C414.261 125.446 414.453 125.515 414.65 125.508H414.949C415.044 125.517 415.14 125.517 415.235 125.508L415.403 126.857C415.189 126.93 414.969 126.982 414.746 127.013C414.521 127.052 414.293 127.072 414.065 127.072C413.428 127.115 412.798 126.91 412.309 126.499C412.086 126.253 411.917 125.964 411.812 125.65C411.708 125.335 411.669 125.002 411.7 124.672V120.886H410.506V119.417H411.7V117.578H413.922Z" fill="#58595B"/>
<path d="M269.699 136.292C269.705 136.504 269.758 136.712 269.854 136.901C269.977 137.151 270.125 137.387 270.296 137.606L270.893 137.212C271.109 137.089 271.29 136.912 271.418 136.698C271.504 136.519 271.549 136.324 271.55 136.125C271.548 136.007 271.523 135.891 271.477 135.783C271.431 135.675 271.363 135.577 271.279 135.495C271.195 135.413 271.095 135.348 270.986 135.305C270.876 135.261 270.76 135.24 270.642 135.241C270.511 135.232 270.38 135.255 270.26 135.307C270.139 135.359 270.033 135.439 269.949 135.54C269.782 135.755 269.694 136.02 269.699 136.292V136.292ZM270.415 142.491C270.661 142.488 270.906 142.456 271.144 142.395C271.389 142.332 271.625 142.24 271.848 142.12L269.77 139.732L269.639 139.815C269.44 139.998 269.278 140.217 269.161 140.46C269.078 140.661 269.033 140.876 269.03 141.093C269.019 141.469 269.156 141.833 269.412 142.109C269.542 142.241 269.699 142.344 269.872 142.412C270.044 142.48 270.23 142.511 270.415 142.503V142.491ZM266.964 141.189C266.955 140.682 267.115 140.186 267.417 139.78C267.81 139.317 268.269 138.914 268.779 138.585C268.505 138.214 268.273 137.813 268.086 137.391C267.932 137.058 267.851 136.695 267.847 136.328C267.831 135.975 267.889 135.622 268.019 135.292C268.149 134.963 268.347 134.665 268.6 134.417C268.869 134.172 269.183 133.983 269.525 133.86C269.868 133.737 270.231 133.683 270.594 133.701C270.924 133.684 271.253 133.736 271.561 133.854C271.87 133.971 272.15 134.15 272.386 134.381C272.607 134.595 272.783 134.851 272.902 135.134C273.021 135.417 273.081 135.722 273.078 136.03C273.07 136.451 272.951 136.863 272.732 137.224C272.49 137.605 272.178 137.938 271.812 138.203L271.168 138.657L273.078 140.878C273.244 140.598 273.373 140.297 273.461 139.983C273.557 139.653 273.605 139.311 273.604 138.968H275.109C275.112 139.561 275.032 140.152 274.87 140.723C274.721 141.237 274.478 141.719 274.153 142.144L275.586 143.828H273.353L272.816 143.219C272.445 143.461 272.044 143.65 271.621 143.781C271.188 143.912 270.737 143.977 270.284 143.972C269.417 144.014 268.566 143.733 267.895 143.183C267.602 142.927 267.37 142.608 267.215 142.251C267.06 141.894 266.986 141.507 266.999 141.117" fill="#58595B"/>
<path d="M287.78 140.472C287.815 140.949 287.744 141.427 287.573 141.873C287.401 142.319 287.134 142.721 286.789 143.052C285.956 143.705 284.919 144.042 283.862 144.005C282.804 143.968 281.794 143.558 281.009 142.849C280.628 142.449 280.331 141.976 280.136 141.459C279.942 140.942 279.852 140.391 279.874 139.839V137.869C279.833 136.758 280.232 135.677 280.985 134.859C281.35 134.465 281.797 134.154 282.293 133.948C282.79 133.742 283.325 133.645 283.863 133.665C284.921 133.599 285.964 133.941 286.777 134.62C287.13 134.951 287.405 135.357 287.583 135.807C287.761 136.257 287.836 136.741 287.804 137.224V137.224H285.845C285.884 136.672 285.714 136.126 285.368 135.695C285.172 135.508 284.939 135.365 284.683 135.274C284.428 135.184 284.157 135.148 283.887 135.17C283.603 135.162 283.322 135.226 283.07 135.356C282.817 135.485 282.601 135.676 282.442 135.91C282.064 136.46 281.876 137.118 281.904 137.785V139.792C281.876 140.465 282.074 141.129 282.466 141.679C282.64 141.915 282.869 142.106 283.133 142.234C283.397 142.363 283.689 142.427 283.982 142.419C284.239 142.442 284.497 142.408 284.739 142.319C284.98 142.23 285.199 142.089 285.38 141.905C285.717 141.48 285.879 140.942 285.833 140.401L287.78 140.472Z" fill="#58595B"/>
<path d="M290.706 140.233C290.679 140.801 290.803 141.365 291.064 141.87C291.191 142.059 291.362 142.215 291.563 142.322C291.764 142.43 291.989 142.486 292.217 142.486C292.445 142.486 292.669 142.43 292.871 142.322C293.072 142.215 293.243 142.059 293.369 141.87C293.629 141.365 293.753 140.801 293.728 140.233V140.09C293.752 139.527 293.628 138.967 293.369 138.466C293.252 138.257 293.077 138.087 292.865 137.975C292.653 137.863 292.414 137.813 292.175 137.833C291.935 137.805 291.693 137.851 291.48 137.964C291.267 138.077 291.093 138.252 290.981 138.466C290.724 138.967 290.6 139.527 290.623 140.09L290.706 140.233ZM288.688 140.09C288.648 139.091 288.98 138.112 289.619 137.343C290.312 136.661 291.245 136.279 292.217 136.279C293.189 136.279 294.122 136.661 294.815 137.343C295.459 138.11 295.795 139.089 295.758 140.09V140.233C295.798 141.235 295.461 142.215 294.815 142.98C294.124 143.662 293.193 144.043 292.223 144.043C291.253 144.043 290.322 143.662 289.631 142.98C288.98 142.218 288.642 141.236 288.688 140.233V140.09Z" fill="#58595B"/>
<path d="M298.804 136.412L298.887 137.403C299.115 137.057 299.422 136.77 299.783 136.567C300.172 136.372 300.602 136.273 301.037 136.28C301.455 136.277 301.867 136.385 302.231 136.591C302.583 136.823 302.851 137.162 302.995 137.558C303.214 137.173 303.526 136.848 303.903 136.615C304.296 136.381 304.748 136.265 305.205 136.28C305.535 136.266 305.863 136.328 306.165 136.46C306.468 136.593 306.736 136.793 306.949 137.045C307.423 137.724 307.646 138.547 307.582 139.374V143.9H305.563V139.35C305.608 138.932 305.511 138.511 305.289 138.155C305.187 138.039 305.06 137.947 304.917 137.889C304.773 137.831 304.618 137.808 304.464 137.821C304.205 137.813 303.948 137.88 303.724 138.012C303.514 138.14 303.341 138.322 303.222 138.538C303.215 138.613 303.215 138.689 303.222 138.764V143.888H301.216V139.35C301.259 138.931 301.158 138.509 300.929 138.155C300.829 138.037 300.702 137.944 300.559 137.884C300.415 137.824 300.26 137.798 300.105 137.809C299.873 137.804 299.642 137.856 299.434 137.96C299.226 138.064 299.047 138.217 298.911 138.406V143.876H296.928V136.412H298.804Z" fill="#58595B"/>
<path d="M310.985 136.412L311.069 137.403C311.298 137.054 311.61 136.767 311.977 136.567C312.346 136.378 312.756 136.28 313.171 136.28C313.589 136.277 314.001 136.385 314.365 136.591C314.721 136.822 314.993 137.161 315.141 137.558C315.352 137.171 315.661 136.845 316.037 136.615C316.43 136.381 316.882 136.265 317.339 136.28C317.669 136.263 317.998 136.324 318.301 136.456C318.604 136.589 318.871 136.791 319.083 137.045C319.561 137.723 319.789 138.546 319.728 139.374V143.9H317.709V139.35C317.749 138.932 317.652 138.514 317.435 138.155C317.332 138.041 317.204 137.951 317.061 137.893C316.918 137.835 316.764 137.811 316.61 137.821C316.347 137.813 316.086 137.879 315.858 138.012C315.653 138.147 315.482 138.327 315.356 138.538C315.356 138.633 315.356 138.705 315.356 138.764C315.356 138.824 315.356 138.896 315.356 138.956V143.888H313.338V139.35C313.378 138.932 313.282 138.513 313.063 138.155C312.96 138.038 312.831 137.945 312.686 137.885C312.541 137.825 312.384 137.799 312.227 137.809C311.98 137.804 311.734 137.857 311.511 137.964C311.31 138.068 311.137 138.22 311.009 138.406V143.876H309.11V136.412H310.985Z" fill="#58595B"/>
<path d="M325.83 142.825C325.612 143.194 325.309 143.505 324.947 143.733C324.583 143.939 324.171 144.046 323.752 144.043C323.408 144.059 323.064 144 322.744 143.87C322.425 143.74 322.137 143.543 321.901 143.291C321.391 142.605 321.153 141.754 321.232 140.902V136.412H323.239V140.962C323.202 141.379 323.298 141.797 323.513 142.156C323.613 142.277 323.739 142.372 323.883 142.434C324.026 142.496 324.182 142.524 324.338 142.515C324.62 142.518 324.9 142.466 325.162 142.359C325.39 142.256 325.587 142.095 325.735 141.894V136.412H327.753V143.9H326.033L325.83 142.825Z" fill="#58595B"/>
<path d="M331.073 136.412L331.157 137.487C331.393 137.119 331.712 136.812 332.089 136.591C332.453 136.385 332.864 136.277 333.283 136.28C333.611 136.263 333.939 136.317 334.244 136.438C334.549 136.56 334.824 136.747 335.05 136.985C335.532 137.63 335.762 138.428 335.695 139.23V143.9H333.665V139.218C333.703 138.837 333.592 138.456 333.354 138.155C333.232 138.04 333.087 137.952 332.929 137.896C332.771 137.841 332.602 137.819 332.435 137.833C332.186 137.832 331.941 137.889 331.718 138C331.51 138.108 331.33 138.263 331.193 138.454V143.9H329.162V136.412H331.073Z" fill="#58595B"/>
<path d="M339.278 143.9H337.26V136.412H339.278V143.9ZM339.278 134.62H337.26V133.115H339.278V134.62Z" fill="#58595B"/>
<path d="M343.267 134.584V136.412H344.521V137.833H343.267V141.643C343.244 141.865 343.308 142.088 343.446 142.264C343.507 142.329 343.581 142.379 343.664 142.412C343.746 142.445 343.835 142.46 343.924 142.455H344.199H344.473L344.641 143.912C344.446 143.98 344.246 144.032 344.043 144.067C343.837 144.086 343.629 144.086 343.422 144.067C343.129 144.088 342.834 144.048 342.556 143.949C342.279 143.85 342.025 143.695 341.81 143.494C341.39 142.987 341.188 142.334 341.249 141.679V137.857H340.162V136.412H341.261V134.584H343.267Z" fill="#58595B"/>
<path d="M348.438 140.759L348.522 141.189L349.955 136.412H352.129L349.095 145.023C348.9 145.525 348.608 145.983 348.235 146.372C348.011 146.569 347.75 146.719 347.467 146.814C347.184 146.908 346.885 146.945 346.587 146.922C346.432 146.934 346.276 146.934 346.121 146.922L345.584 146.802L345.823 145.333H346.014H346.205C346.481 145.35 346.753 145.265 346.969 145.094C347.155 144.922 347.298 144.71 347.387 144.473L347.626 143.9L344.999 136.412H347.172L348.438 140.759Z" fill="#58595B"/>
<path d="M358.542 138.323H360.286C360.741 138.357 361.193 138.23 361.564 137.964C361.707 137.826 361.819 137.658 361.891 137.473C361.963 137.287 361.994 137.088 361.982 136.889C361.99 136.688 361.957 136.486 361.885 136.297C361.814 136.108 361.704 135.936 361.564 135.791C361.232 135.508 360.805 135.363 360.369 135.385H358.59L358.542 138.323ZM358.542 139.875V143.9H356.524V133.832H360.322C361.283 133.777 362.235 134.05 363.021 134.608C363.342 134.874 363.597 135.211 363.765 135.592C363.933 135.974 364.009 136.39 363.988 136.806C364.002 137.284 363.859 137.754 363.582 138.143C363.275 138.55 362.862 138.864 362.388 139.051C362.91 139.173 363.367 139.489 363.666 139.935C363.943 140.391 364.08 140.918 364.06 141.452V142.192C364.06 142.491 364.1 142.788 364.179 143.076C364.227 143.339 364.361 143.579 364.561 143.757V143.9H362.483C362.28 143.703 362.153 143.441 362.125 143.159C362.069 142.836 362.041 142.508 362.041 142.18V141.464C362.056 141.248 362.028 141.031 361.958 140.826C361.888 140.621 361.779 140.432 361.635 140.269C361.476 140.122 361.287 140.008 361.082 139.936C360.876 139.864 360.658 139.835 360.441 139.851L358.542 139.875Z" fill="#58595B"/>
<path d="M368.825 137.833C368.654 137.827 368.484 137.863 368.33 137.938C368.176 138.013 368.042 138.125 367.941 138.263C367.701 138.617 367.561 139.03 367.535 139.457V139.457H370.019V139.278C370.035 138.91 369.926 138.548 369.709 138.251C369.598 138.12 369.458 138.018 369.301 137.951C369.143 137.885 368.972 137.857 368.801 137.869L368.825 137.833ZM368.98 144.079C368.501 144.1 368.023 144.019 367.578 143.839C367.133 143.66 366.731 143.388 366.401 143.04C365.747 142.325 365.399 141.381 365.433 140.413V140.138C365.389 139.142 365.712 138.165 366.341 137.391C366.959 136.747 367.803 136.369 368.696 136.337C369.588 136.306 370.457 136.624 371.118 137.224C371.705 137.909 372.005 138.795 371.954 139.696V140.795H367.511C367.533 141.237 367.706 141.659 368.001 141.989C368.154 142.15 368.34 142.276 368.546 142.359C368.752 142.441 368.974 142.478 369.195 142.467C369.57 142.475 369.944 142.431 370.306 142.335C370.642 142.224 370.965 142.08 371.273 141.905L371.823 143.159C371.467 143.44 371.062 143.651 370.628 143.781C370.095 143.944 369.539 144.025 368.98 144.019" fill="#58595B"/>
<path d="M375.203 133.115H373.184V143.912H375.203V133.115Z" fill="#58595B"/>
<path d="M379.347 142.55C379.68 142.559 380.009 142.467 380.29 142.288C380.534 142.145 380.729 141.933 380.852 141.679V140.628H379.729C379.375 140.605 379.026 140.716 378.75 140.938C378.641 141.038 378.555 141.16 378.497 141.296C378.44 141.432 378.412 141.579 378.415 141.726C378.412 141.838 378.433 141.949 378.476 142.052C378.52 142.155 378.584 142.247 378.666 142.324C378.855 142.485 379.099 142.566 379.347 142.55V142.55ZM381.186 143.9C381.112 143.726 381.052 143.546 381.007 143.363C380.949 143.172 380.909 142.976 380.887 142.777C380.688 143.141 380.406 143.452 380.063 143.685C379.713 143.927 379.295 144.052 378.869 144.043C378.209 144.086 377.559 143.872 377.054 143.446C376.837 143.23 376.668 142.97 376.559 142.684C376.45 142.398 376.403 142.092 376.421 141.786C376.405 141.454 376.474 141.124 376.623 140.827C376.771 140.53 376.994 140.276 377.269 140.09C378.01 139.636 378.874 139.423 379.741 139.481H380.863V138.884C380.878 138.579 380.776 138.28 380.577 138.048C380.466 137.942 380.335 137.861 380.191 137.809C380.047 137.758 379.893 137.737 379.741 137.749C379.469 137.734 379.202 137.819 378.988 137.988C378.898 138.072 378.827 138.174 378.78 138.287C378.733 138.4 378.71 138.522 378.714 138.645H376.767C376.755 138.325 376.825 138.007 376.969 137.721C377.113 137.435 377.327 137.19 377.591 137.009C378.252 136.529 379.056 136.288 379.872 136.328C380.658 136.293 381.431 136.534 382.058 137.009C382.336 137.246 382.556 137.544 382.701 137.879C382.846 138.214 382.912 138.579 382.894 138.944V142.037C382.892 142.369 382.916 142.7 382.965 143.028C383.024 143.342 383.112 143.65 383.228 143.948L381.186 143.9Z" fill="#58595B"/>
<path d="M386.739 134.584V136.412H387.993V137.833H386.739V141.643C386.716 141.865 386.78 142.088 386.919 142.264C386.979 142.329 387.054 142.379 387.136 142.412C387.219 142.445 387.308 142.46 387.396 142.455H387.671H387.946L388.113 143.912C387.918 143.979 387.718 144.031 387.516 144.067C387.309 144.086 387.101 144.086 386.895 144.067C386.601 144.088 386.306 144.048 386.029 143.949C385.751 143.85 385.497 143.695 385.282 143.494C384.862 142.987 384.66 142.334 384.721 141.679V137.857H383.622V136.412H384.721V134.584H386.739Z" fill="#58595B"/>
<path d="M391.338 143.9H389.319V136.412H391.338V143.9ZM391.338 134.62H389.319V133.115H391.338V134.62Z" fill="#58595B"/>
<path d="M394.622 140.233C394.595 140.801 394.719 141.365 394.98 141.87C395.099 142.076 395.275 142.244 395.487 142.354C395.698 142.464 395.937 142.511 396.174 142.491C396.413 142.519 396.654 142.475 396.867 142.364C397.08 142.254 397.255 142.081 397.369 141.87C397.629 141.365 397.752 140.801 397.727 140.233V140.09C397.753 139.525 397.625 138.964 397.357 138.466C397.236 138.271 397.067 138.11 396.866 137.998C396.666 137.887 396.44 137.828 396.21 137.828C395.981 137.828 395.755 137.887 395.554 137.998C395.354 138.11 395.185 138.271 395.064 138.466C394.802 138.966 394.675 139.526 394.693 140.09L394.622 140.233ZM392.615 140.09C392.576 139.091 392.908 138.112 393.547 137.343C394.237 136.662 395.168 136.28 396.139 136.28C397.109 136.28 398.04 136.662 398.73 137.343C399.38 138.107 399.717 139.088 399.674 140.09V140.233C399.716 141.233 399.384 142.213 398.742 142.98C398.049 143.662 397.116 144.045 396.144 144.045C395.172 144.045 394.239 143.662 393.547 142.98C392.905 142.213 392.573 141.233 392.615 140.233V140.09Z" fill="#58595B"/>
<path d="M402.695 136.412L402.791 137.487C403.022 137.12 403.337 136.813 403.71 136.591C404.074 136.385 404.486 136.277 404.905 136.28C405.235 136.263 405.564 136.317 405.871 136.438C406.179 136.56 406.456 136.746 406.684 136.985C407.157 137.634 407.381 138.43 407.317 139.23V143.9H405.287V139.218C405.327 138.839 405.22 138.459 404.988 138.155C404.866 138.04 404.721 137.952 404.563 137.896C404.404 137.841 404.236 137.819 404.069 137.833C403.835 137.836 403.605 137.893 403.398 138.001C403.19 138.109 403.011 138.264 402.874 138.454V143.9H400.856V136.412H402.695Z" fill="#58595B"/>
<path d="M412.823 141.834C412.819 141.719 412.787 141.608 412.731 141.508C412.675 141.408 412.596 141.323 412.5 141.261C412.133 141.046 411.727 140.904 411.306 140.843C410.588 140.722 409.904 140.449 409.3 140.042C409.083 139.871 408.91 139.65 408.793 139.399C408.677 139.148 408.622 138.874 408.631 138.597C408.632 138.279 408.705 137.965 408.846 137.679C408.987 137.394 409.191 137.144 409.443 136.949C410.067 136.478 410.836 136.241 411.617 136.28C412.431 136.237 413.236 136.473 413.898 136.949C414.163 137.143 414.376 137.399 414.518 137.695C414.659 137.991 414.725 138.317 414.71 138.645V138.645H412.763C412.768 138.51 412.745 138.376 412.696 138.251C412.646 138.126 412.572 138.012 412.476 137.917C412.242 137.747 411.96 137.655 411.67 137.655C411.381 137.655 411.099 137.747 410.864 137.917C410.773 137.987 410.7 138.078 410.65 138.181C410.601 138.285 410.576 138.399 410.578 138.514C410.576 138.627 410.602 138.738 410.654 138.838C410.707 138.938 410.783 139.024 410.876 139.087C411.245 139.294 411.651 139.428 412.07 139.481C412.809 139.588 413.513 139.866 414.125 140.293C414.343 140.469 414.518 140.693 414.634 140.948C414.75 141.203 414.805 141.482 414.793 141.762C414.798 142.088 414.721 142.41 414.571 142.7C414.421 142.99 414.202 143.238 413.934 143.422C413.256 143.871 412.453 144.093 411.64 144.055C410.778 144.112 409.926 143.844 409.252 143.303C408.986 143.1 408.772 142.838 408.627 142.537C408.482 142.236 408.409 141.905 408.416 141.571V141.571H410.255C410.247 141.737 410.279 141.903 410.347 142.054C410.416 142.206 410.519 142.339 410.649 142.443C410.94 142.632 411.283 142.724 411.629 142.706C411.927 142.726 412.224 142.65 412.476 142.491C412.574 142.423 412.653 142.332 412.705 142.225C412.758 142.119 412.782 142 412.775 141.882" fill="#58595B"/>
</g>
<defs>
<clipPath id="clip0">
<rect width="350" height="62.5452" fill="white" transform="translate(81 97)"/>
</clipPath>
</defs>
</svg>
