<?xml version="1.0" encoding="UTF-8" standalone="no"?>
<svg
   xmlns:dc="http://purl.org/dc/elements/1.1/"
   xmlns:cc="http://creativecommons.org/ns#"
   xmlns:rdf="http://www.w3.org/1999/02/22-rdf-syntax-ns#"
   xmlns:svg="http://www.w3.org/2000/svg"
   xmlns="http://www.w3.org/2000/svg"
   xmlns:sodipodi="http://sodipodi.sourceforge.net/DTD/sodipodi-0.dtd"
   xmlns:inkscape="http://www.inkscape.org/namespaces/inkscape"
   version="1.1"
   id="svg2"
   xml:space="preserve"
   width="203.28"
   height="109.44"
   viewBox="0 0 203.28 109.44"
   sodipodi:docname="CIC logo orange.eps"><metadata
     id="metadata8"><rdf:RDF><cc:Work
         rdf:about=""><dc:format>image/svg+xml</dc:format><dc:type
           rdf:resource="http://purl.org/dc/dcmitype/StillImage" /></cc:Work></rdf:RDF></metadata><defs
     id="defs6" /><sodipodi:namedview
     pagecolor="#ffffff"
     bordercolor="#666666"
     borderopacity="1"
     objecttolerance="10"
     gridtolerance="10"
     guidetolerance="10"
     inkscape:pageopacity="0"
     inkscape:pageshadow="2"
     inkscape:window-width="640"
     inkscape:window-height="480"
     id="namedview4" /><g
     id="g10"
     inkscape:groupmode="layer"
     inkscape:label="ink_ext_XXXXXX"
     transform="matrix(1.3333333,0,0,-1.3333333,0,109.44)"><g
       id="g12"
       transform="scale(0.1)"><path
         d="m 322.984,629.336 c 72.438,0 216.106,-29.664 216.106,-131.805 V 435.797 H 434.602 v 33.273 c 0,42.731 -67.668,61.739 -111.618,61.739 -117.554,0 -205.429,-87.871 -205.429,-214.899 0,-136.59 99.765,-213.777 211.351,-213.777 112.813,0 186.422,83.144 186.422,83.144 l 49.895,-81.961 c 0,0 -85.524,-103.31209375 -244.629,-103.31209375 C 131.797,0.00390625 0,134.176 0,314.672 0,491.59 129.426,629.336 322.984,629.336"
         style="fill:#f68313;fill-opacity:1;fill-rule:nonzero;stroke:none"
         id="path14" /><path
         d="m 697.023,490.414 c 0,17.836 -9.472,26.113 -26.113,26.113 H 622.191 V 615.07 H 735 c 53.441,0 76.027,-22.523 76.027,-75.961 V 138.988 c 0,-17.84 9.473,-26.152 26.114,-26.152 h 48.675 V 14.2813 H 773.004 c -53.441,0 -75.981,22.5468 -75.981,75.9882 V 490.414"
         style="fill:#f68313;fill-opacity:1;fill-rule:nonzero;stroke:none"
         id="path16" /><path
         d="m 1282.39,629.336 c 72.45,0 216.12,-29.664 216.12,-131.805 v -61.734 h -104.49 v 33.273 c 0,42.731 -67.71,61.739 -111.63,61.739 -117.54,0 -205.41,-87.871 -205.41,-214.899 0,-136.59 99.74,-213.777 211.38,-213.777 112.78,0 186.41,83.144 186.41,83.144 l 49.85,-81.961 c 0,0 -85.47,-103.31209375 -244.6,-103.31209375 -188.8,0 -320.575,134.17209375 -320.575,314.66809375 0,176.918 129.405,314.664 322.945,314.664"
         style="fill:#f68313;fill-opacity:1;fill-rule:nonzero;stroke:none"
         id="path18" /><path
         d="m 809.098,762.773 c 0,-32.035 -26.032,-58.023 -58.086,-58.023 -32.016,0 -58.004,25.988 -58.004,58.023 0,32.036 25.988,58.043 58.004,58.043 32.054,0 58.086,-26.007 58.086,-58.043"
         style="fill:#f68313;fill-opacity:1;fill-rule:nonzero;stroke:none"
         id="path20" /><path
         d="m 610.262,806.992 c 24.429,0.192 44.386,-19.492 44.535,-43.902 0.164,-24.434 -19.52,-44.363 -43.926,-44.578 -24.43,-0.129 -44.391,19.496 -44.574,43.929 -0.129,24.469 19.512,44.403 43.965,44.551"
         style="fill:#f68313;fill-opacity:1;fill-rule:nonzero;stroke:none"
         id="path22" /><path
         d="m 488.336,802.016 c 21.609,0.269 39.43,-17.016 39.766,-38.696 0.273,-21.656 -16.993,-39.429 -38.672,-39.785 -21.66,-0.254 -39.453,17.035 -39.766,38.715 -0.297,21.613 17.012,39.41 38.672,39.766"
         style="fill:#f68313;fill-opacity:1;fill-rule:nonzero;stroke:none"
         id="path24" /><path
         d="m 380.758,793.359 c 16.89,0.043 30.648,-13.632 30.691,-30.523 0.024,-16.91 -13.636,-30.629 -30.57,-30.688 -16.883,-0.043 -30.649,13.61 -30.664,30.536 -0.024,16.961 13.613,30.675 30.543,30.675"
         style="fill:#f68313;fill-opacity:1;fill-rule:nonzero;stroke:none"
         id="path26" /></g></g></svg>
