<?xml version="1.0" encoding="utf-8"?>
<!-- Generator: Adobe Illustrator 24.0.0, SVG Export Plug-In . SVG Version: 6.00 Build 0)  -->
<svg version="1.1" id="Art" xmlns="http://www.w3.org/2000/svg" xmlns:xlink="http://www.w3.org/1999/xlink" x="0px" y="0px"
	 viewBox="0 0 573.5 193.8" style="enable-background:new 0 0 573.5 193.8;" xml:space="preserve">
<style type="text/css">
	.st0{fill:#314FFF;}
</style>
<g>
	<g>
		<path class="st0" d="M132.4,70c-13.5,0-24.7,10-26.5,23.1V56.2c0-0.4-0.4-0.5-0.7-0.3L89.6,72.1c-3.2-1.4-6.7-2.1-10.4-2.1
			c-14.8,0-26.7,12-26.7,26.7s12,26.7,26.7,26.7c13.5,0,24.7-10,26.5-23.1v36.8c0,0.4,0.4,0.5,0.7,0.3l15.6-16.2
			c3.2,1.4,6.7,2.1,10.4,2.1c14.8,0,26.7-12,26.7-26.7S147.2,70,132.4,70z"/>
	</g>
	<g>
		<path class="st0" d="M377.7,70c-7,0-12.7,2.8-16.8,7.4v-5.3c0-0.4-0.3-0.7-0.7-0.7h-8.4c-0.4,0-0.7,0.3-0.7,0.7v68.7
			c0,0.4,0.3,0.7,0.7,0.7h8.4c0.4,0,0.7-0.3,0.7-0.7v-24.7c4,4.6,9.7,7.4,16.8,7.4c14.5,0,26.2-12,26.2-26.8
			C403.9,82,392.1,70,377.7,70z M377.1,113.6c-9.1,0-15.3-7.6-15.3-16.9c0-9.3,6.2-16.9,15.3-16.9s16.1,7.6,16.1,16.9
			C393.2,106,386.2,113.6,377.1,113.6z"/>
		<path class="st0" d="M309.7,72.1v5.3c-4-4.6-9.7-7.4-16.8-7.4c-14.5,0-26.2,12-26.2,26.8c0,14.8,11.8,26.8,26.2,26.8
			c7,0,12.7-2.8,16.8-7.4v5.9c0,0.4,0.3,0.7,0.7,0.7h8.4c0.4,0,0.7-0.3,0.7-0.7v-50c0-0.4-0.3-0.7-0.7-0.7h-8.4
			C310,71.4,309.7,71.7,309.7,72.1z M293.5,113.6c-9.1,0-16.1-7.6-16.1-16.9c0-9.3,7-16.9,16.1-16.9c9.1,0,15.3,7.6,15.3,16.9
			S302.6,113.6,293.5,113.6z"/>
		<path class="st0" d="M452.1,72.1l0,5.3c-4-4.6-9.7-7.4-16.8-7.4c-14.5,0-26.2,12-26.2,26.8c0,14.8,11.8,26.8,26.2,26.8
			c7,0,12.7-2.8,16.8-7.4l0,5.9c0,0.4,0.3,0.7,0.7,0.7h8.4c0.4,0,0.7-0.3,0.7-0.7v-50c0-0.4-0.3-0.7-0.7-0.7h-8.4
			C452.4,71.4,452.1,71.7,452.1,72.1z M435.9,113.6c-9.1,0-16.1-7.6-16.1-16.9c0-9.3,7-16.9,16.1-16.9s15.3,7.6,15.3,16.9
			S445,113.6,435.9,113.6z"/>
		<path class="st0" d="M228.6,53.3l0,24.1c-4-4.6-9.7-7.4-16.8-7.4c-14.5,0-26.2,12-26.2,26.8c0,14.8,11.8,26.8,26.2,26.8
			c7,0,12.7-2.8,16.8-7.4l0,5.9c0,0.4,0.3,0.7,0.7,0.7h8.4c0.4,0,0.7-0.3,0.7-0.7V53.3c0-0.4-0.3-0.7-0.7-0.7h-8.4
			C228.9,52.7,228.6,53,228.6,53.3z M212.4,113.6c-9.1,0-16.1-7.6-16.1-16.9c0-9.3,7-16.9,16.1-16.9c9.1,0,15.3,7.6,15.3,16.9
			S221.5,113.6,212.4,113.6z"/>
		<path class="st0" d="M511.3,53.3v24.1c-4-4.6-9.7-7.4-16.8-7.4c-14.5,0-26.2,12-26.2,26.8c0,14.8,11.8,26.8,26.2,26.8
			c7,0,12.7-2.8,16.8-7.4v5.9c0,0.4,0.3,0.7,0.7,0.7h8.4c0.4,0,0.7-0.3,0.7-0.7V53.3c0-0.4-0.3-0.7-0.7-0.7H512
			C511.6,52.7,511.3,53,511.3,53.3z M495.1,113.6c-9.1,0-16.1-7.6-16.1-16.9c0-9.3,7-16.9,16.1-16.9c9.1,0,15.3,7.6,15.3,16.9
			S504.2,113.6,495.1,113.6z"/>
		<path class="st0" d="M249.3,72.1V122c0,0.4,0.3,0.7,0.7,0.7h8.4c0.4,0,0.7-0.3,0.7-0.7V72.1c0-0.4-0.3-0.7-0.7-0.7H250
			C249.6,71.4,249.3,71.7,249.3,72.1z"/>
		<path class="st0" d="M330.5,53.3V122c0,0.4,0.3,0.7,0.7,0.7h8.4c0.4,0,0.7-0.3,0.7-0.7V53.3c0-0.4-0.3-0.7-0.7-0.7h-8.4
			C330.8,52.7,330.5,52.9,330.5,53.3z"/>
		<circle class="st0" cx="254.2" cy="58.4" r="6"/>
	</g>
</g>
</svg>
