<!DOCTYPE svg PUBLIC "-//W3C//DTD SVG 20010904//EN" "http://www.w3.org/TR/2001/REC-SVG-20010904/DTD/svg10.dtd">
<svg version="1.0" xmlns="http://www.w3.org/2000/svg" width="792px" height="612px" viewBox="0 0 7920 6120" preserveAspectRatio="xMidYMid meet">
<g id="layer101" fill="#1c295c" fill-rule="evenodd">
<path d="M1170 3300 L1170 3294C1170 3291,1172 3276,1176 3261 C1179 3247,1191 3217,1201 3197 C1212 3176,1236 3141,1255 3119 L1290 3080L1290 3080 L1294 3080C1296 3080,1319 3068,1344 3055 C1370 3042,1412 3028,1437 3025 C1463 3022,1501 3017,1522 3014 L1560 3010L1560 3010 L1604 3019C1628 3024,1665 3036,1686 3044 C1706 3053,1738 3071,1756 3085 C1774 3099,1800 3125,1814 3143 C1828 3161,1840 3179,1840 3183 L1840 3190L1840 3190 L1840 3192C1840 3193,1848 3208,1857 3225 C1870 3247,1874 3280,1874 3355 C1874 3442,1871 3462,1848 3511 C1833 3542,1803 3586,1780 3608 C1757 3631,1712 3661,1681 3676 C1631 3701,1613 3704,1525 3704 C1435 3704,1418 3701,1362 3676 C1325 3659,1283 3629,1259 3603 C1237 3579,1209 3538,1198 3512 C1185 3483,1175 3435,1173 3390 C1170 3348,1169 3311,1169 3307 L1170 3300M1310 3290 L1309 3282C1308 3278,1319 3254,1332 3230 C1348 3200,1373 3174,1403 3155 C1435 3135,1468 3125,1505 3122 C1542 3118,1574 3122,1605 3134 C1630 3144,1663 3165,1680 3181 C1696 3198,1710 3213,1710 3215 L1710 3220L1710 3220 L1715 3220C1718 3220,1725 3232,1730 3247 C1736 3262,1745 3294,1751 3320 C1757 3351,1757 3381,1750 3414 C1744 3440,1733 3473,1725 3488 C1717 3503,1696 3529,1678 3547 C1659 3564,1625 3586,1601 3594 C1577 3603,1542 3610,1524 3610 C1507 3610,1472 3603,1448 3594 C1424 3586,1390 3564,1371 3547 C1353 3529,1331 3502,1324 3487 C1316 3473,1305 3437,1299 3409 C1292 3381,1290 3343,1294 3324 C1298 3305,1302 3290,1305 3290 L1310 3290" />
<path d="M4640 3360 L4640 3357C4640 3356,4644 3329,4649 3298 C4654 3267,4669 3219,4683 3192 C4697 3164,4729 3124,4755 3101 C4781 3079,4827 3050,4858 3038 C4902 3021,4935 3016,5010 3016 C5084 3016,5117 3021,5160 3038 C5190 3050,5225 3068,5238 3078 L5261 3096 5221 3140 C5186 3179,5179 3183,5163 3172 C5153 3165,5131 3152,5115 3143 C5098 3134,5055 3124,5020 3122 C4962 3118,4948 3121,4900 3146 C4861 3167,4837 3189,4816 3221 C4801 3247,4786 3286,4784 3308 L4780 3350L4780 3350 L4779 3352C4778 3353,4776 3360,4773 3367 C4770 3374,4775 3404,4784 3435 C4795 3472,4814 3506,4841 3535 C4872 3569,4896 3584,4938 3596 C4973 3606,5012 3610,5044 3607 C5072 3604,5107 3596,5122 3590 C5150 3580,5150 3579,5147 3497 L5145 3415 5077 3412 L5010 3409 5010 3374 C5010 3355,5007 3340,5005 3340 L5000 3340L5000 3340 L5000 3335C5000 3332,5000 3327,5000 3325 C5000 3322,5056 3320,5125 3320 L5250 3320L5250 3320 L5255 3320C5257 3320,5260 3395,5260 3488 L5260 3656 5233 3668 C5218 3675,5179 3687,5146 3695 C5112 3703,5053 3709,5014 3709 C4975 3709,4919 3702,4890 3694 C4860 3685,4824 3671,4810 3662 C4796 3653,4767 3630,4746 3610 C4725 3591,4696 3552,4683 3525 C4668 3497,4655 3451,4652 3418 C4649 3386,4645 3360,4643 3360 L4640 3360" />
<path d="M260 3170 L260 3165C260 3162,260 3130,260 3095 L260 3030 310 3030 L360 3030L360 3030 L405 3030C438 3030,450 3033,450 3045 C450 3053,452 3060,455 3060 L460 3060L460 3060 L500 3175L540 3290L545 3295 550 3300 L550 3300 L550 3307C550 3311,564 3353,581 3400 C598 3446,615 3488,619 3492 C622 3496,640 3459,657 3411 C675 3362,690 3319,690 3316 L690 3310L690 3310 L730 3205L770 3100L770 3100 L774 3092C776 3087,781 3072,785 3057 C792 3030,792 3030,886 3030 L980 3030 980 3065 C980 3084,980 3102,980 3105 L980 3110L980 3110 L980 3160C980 3187,980 3212,980 3215 C980 3217,980 3240,980 3265 L980 3310L980 3310 L980 3315C980 3317,980 3403,980 3505 L980 3690 925 3690 L870 3690 870 3505 C870 3403,867 3320,865 3320 L860 3320L860 3320 L860 3312C860 3308,859 3278,857 3245 L855 3185 827 3252 L800 3320L800 3320 L799 3322C798 3323,778 3376,753 3440 C729 3503,697 3585,683 3622 L658 3690 616 3690 L574 3690 497 3481 C454 3366,419 3269,419 3266 L420 3260L410 3255 407 3252 L405 3245 L400 3240 L400 3235C400 3232,400 3227,400 3225 L400 3220L395 3215 L390 3210 L390 3205C390 3202,390 3197,390 3195 L390 3190L385 3185 385 3185 L380 3190 L380 3205C380 3213,380 3222,380 3225 C380 3227,380 3234,380 3240 L380 3250L380 3250 L375 3250C372 3250,370 3349,370 3470 L370 3690 315 3690 L260 3690 260 3430 L260 3170" />
<path d="M2070 3130 L2070 3125C2070 3122,2070 3099,2070 3075 L2070 3030 2215 3030 L2360 3030L2360 3030 L2397 3040C2418 3046,2451 3061,2470 3074 C2490 3087,2514 3113,2523 3133 C2532 3152,2540 3191,2540 3219 C2540 3247,2533 3283,2525 3299 C2517 3314,2496 3339,2479 3353 C2462 3368,2437 3382,2424 3386 C2410 3389,2400 3397,2400 3403 C2400 3409,2436 3474,2480 3548 C2524 3621,2560 3683,2560 3685 C2560 3688,2529 3689,2492 3689 L2425 3689 2350 3552 L2275 3415 2227 3411 L2180 3408 2180 3549 L2180 3690 2125 3690 L2070 3690 2070 3415 C2070 3263,2070 3137,2070 3135 L2070 3130M2185 3313 C2182 3309,2180 3266,2180 3218 L2180 3130 2262 3130 C2369 3130,2411 3148,2424 3202 C2432 3234,2430 3244,2413 3267 C2402 3282,2378 3300,2361 3307 C2328 3320,2193 3324,2185 3313 " />
<path d="M2730 3360 L2730 3030 2808 3030 L2887 3030 3028 3257 C3106 3382,3176 3494,3184 3505 C3197 3522,3199 3499,3199 3277 L3200 3030 3260 3030 L3320 3030 3320 3360 L3320 3690 3242 3690 L3164 3690 3009 3437 L2855 3185 2852 3437 L2850 3690 2790 3690 L2730 3690 2730 3360 " />
<path d="M3650 3030 L3650 3045L3650 3060L3650 3060 L3650 3375L3650 3690 3595 3690 L3540 3690 3540 3360 L3540 3030 3595 3030 L3650 3030" />
<path d="M3870 3240 L3870 3134L3870 3029 3951 3032 L4033 3035 4124 3182 C4174 3263,4216 3329,4217 3329 L4220 3330L4220 3330 L4220 3335C4220 3337,4243 3377,4271 3422 C4299 3467,4326 3509,4331 3514 C4336 3520,4340 3487,4340 3437 C4340 3389,4340 3347,4340 3345 L4340 3340L4340 3340 L4340 3185L4340 3030 4400 3030 L4460 3030 4460 3185 C4460 3270,4460 3342,4460 3345 L4460 3350L4460 3350 L4460 3355C4460 3357,4460 3434,4460 3525 L4460 3690 4382 3689 L4305 3689 4187 3499 L4070 3310L4070 3310 L4069 3307C4069 3306,4052 3280,4031 3250 L3995 3195 3992 3235 C3990 3257,3989 3278,3989 3282 L3990 3290L3990 3290 L3990 3295C3990 3297,3990 3387,3990 3495 L3990 3690 3930 3690 L3870 3690 3870 3465 L3870 3240" />
<path d="M5560 3250 L5560 3245C5560 3242,5560 3215,5560 3185 L5560 3130 5460 3130 L5360 3130 5360 3080 L5360 3030 5625 3030 L5890 3030 5890 3079 L5890 3129 5787 3132 L5685 3135 5682 3177 L5680 3220L5680 3220 L5680 3455L5680 3690 5625 3690 L5570 3690 5570 3470 C5570 3349,5567 3250,5565 3250 L5560 3250" />
<path d="M6030 3120 L6030 3115C6030 3112,6030 3092,6030 3070 L6030 3030 6090 3030 C6147 3030,6150 3031,6150 3055 L6150 3080L6150 3080 L6150 3385L6150 3690 6095 3690 L6040 3690 6040 3405 C6040 3248,6037 3120,6035 3120 L6030 3120" />
<path d="M6370 3360 L6370 3030 6507 3030 C6763 3030,6872 3075,6940 3209 C6971 3268,6979 3397,6955 3467 C6933 3534,6889 3592,6832 3628 C6752 3679,6697 3690,6525 3690 L6370 3690 6370 3360 M6490 3363 L6490 3127 6588 3131 C6713 3136,6770 3162,6814 3234 C6841 3277,6845 3292,6845 3359 C6845 3451,6824 3499,6766 3541 C6715 3578,6678 3588,6575 3595 L6490 3600 6490 3363 " />
<path d="M7160 3360 L7160 3030 7380 3030 L7600 3030 7600 3080 L7600 3130 7440 3130 L7280 3130 7280 3220 L7280 3310 7430 3310 L7580 3310 7580 3355 L7580 3400 7430 3400 L7280 3400 7280 3495 L7280 3590 7450 3590 L7620 3590 7620 3640 L7620 3690 7390 3690 L7160 3690 7160 3360 " />
</g>
<g id="layer102" fill="#6d6e71" fill-rule="evenodd">
<path d="M2957 4445 C2902 4426,2835 4369,2807 4316 C2777 4260,2775 4113,2803 4060 C2829 4010,2878 3961,2924 3937 C3010 3893,3156 3907,3210 3965 C3232 3989,3233 3990,3214 4003 C3198 4016,3192 4015,3165 3995 C3095 3943,3005 3939,2932 3986 C2824 4056,2799 4217,2879 4327 C2947 4422,3100 4440,3180 4364 C3197 4348,3212 4341,3223 4345 C3246 4354,3244 4363,3207 4399 C3150 4454,3042 4474,2957 4445 " />
<path d="M5052 4451 C4934 4415,4866 4333,4853 4211 C4840 4083,4914 3963,5029 3925 C5105 3900,5202 3908,5265 3944 C5309 3970,5310 3972,5294 3990 C5277 4008,5276 4008,5236 3985 C5146 3933,5046 3944,4974 4014 C4843 4139,4907 4376,5080 4407 C5127 4416,5196 4409,5242 4391 C5269 4380,5270 4378,5270 4300 L5270 4220 5210 4220 C5152 4220,5150 4218,5150 4195 C5150 4170,5151 4170,5235 4170 L5320 4170 5320 4288 L5320 4406 5282 4423 C5203 4457,5110 4469,5052 4451 " />
<path d="M6159 4441 C6055 4403,5990 4305,5990 4188 C5989 4074,6033 3993,6121 3944 C6169 3918,6184 3915,6260 3915 C6334 3915,6350 3918,6391 3942 C6549 4035,6577 4251,6447 4380 C6379 4449,6252 4475,6159 4441 M6217 4411 C6066 4373,5995 4211,6067 4069 C6123 3959,6246 3921,6359 3979 C6412 4006,6446 4051,6466 4118 C6495 4217,6458 4325,6378 4375 C6329 4406,6259 4422,6217 4411 " />
<path d="M6814 4445 C6766 4426,6740 4402,6718 4355 C6702 4320,6700 4287,6700 4117 L6700 3920 6725 3920 L6750 3920 6750 4107 C6750 4317,6761 4364,6816 4393 C6906 4439,7005 4398,7028 4305 C7034 4281,7040 4184,7040 4090 L7040 3920 7065 3920 L7090 3920 7090 4089 C7090 4182,7085 4281,7079 4310 C7054 4425,6927 4490,6814 4445 " />
<path d="M260 4180 L260 3920 420 3920 L580 3920 580 3945 L580 3970 445 3970 L310 3970 310 4060 L310 4150 435 4150 L560 4150 560 4175 L560 4200 435 4200 L310 4200 310 4320 L310 4440 285 4440 L260 4440 260 4180 " />
<path d="M740 4180 L740 3920 765 3920 L790 3920 790 4180 L790 4440 765 4440 L740 4440 740 4180 " />
<path d="M990 4179 L990 3918 1021 3921 C1049 3924,1065 3943,1194 4132 C1272 4247,1341 4345,1348 4352 C1357 4361,1360 4310,1360 4142 L1360 3920 1385 3920 L1410 3920 1410 4180 L1410 4440 1375 4440 C1341 4440,1337 4435,1193 4220 C1111 4099,1041 4000,1037 4000 C1033 4000,1030 4099,1030 4220 C1030 4433,1029 4440,1010 4440 C990 4440,990 4433,990 4179 " />
<path d="M1563 4407 C1570 4389,1621 4272,1675 4146 C1805 3844,1788 3842,1931 4175 C1990 4312,2039 4428,2039 4433 C2039 4437,2027 4439,2013 4438 C1990 4435,1982 4425,1960 4372 L1935 4310 1795 4310 L1655 4310 1627 4370 C1606 4415,1593 4431,1575 4435 C1550 4439,1550 4439,1563 4407 M1680 4256 C1680 4239,1787 3998,1795 3998 C1802 3999,1910 4239,1910 4256 C1910 4258,1858 4260,1795 4260 C1731 4260,1680 4258,1680 4256 " />
<path d="M2180 4180 L2180 3920 2214 3920 C2247 3920,2251 3925,2396 4139 C2478 4260,2548 4359,2552 4359 C2556 4359,2560 4261,2560 4140 L2560 3920 2585 3920 L2610 3920 2610 4180 L2610 4441 2572 4438 C2536 4435,2532 4430,2390 4217 C2310 4098,2241 4000,2237 4000 C2233 4000,2230 4099,2230 4220 L2230 4440 2205 4440 L2180 4440 2180 4180 " />
<path d="M3400 4180 L3400 3920 3425 3920 L3450 3920 3450 4180 L3450 4440 3425 4440 L3400 4440 3400 4180 " />
<path d="M3590 4435 C3590 4432,3639 4316,3699 4177 C3844 3841,3825 3841,3970 4179 C4030 4319,4080 4435,4080 4437 C4080 4438,4067 4439,4052 4439 C4028 4439,4022 4432,3999 4377 L3973 4315 3833 4312 L3693 4309 3666 4369 C3646 4415,3634 4431,3615 4435 C3601 4437,3590 4437,3590 4435 M3720 4253 C3720 4238,3825 3990,3831 3990 C3836 3990,3901 4134,3941 4237 L3950 4260 3835 4260 C3771 4260,3720 4256,3720 4253 " />
<path d="M4220 4180 L4220 3920 4245 3920 L4270 3920 4270 4160 L4270 4400 4395 4400 C4513 4400,4520 4401,4520 4420 C4520 4439,4513 4440,4370 4440 L4220 4440 4220 4180 " />
<path d="M5510 4178 L5510 3917 5627 3922 C5796 3929,5840 3956,5840 4056 C5840 4117,5810 4161,5754 4181 C5735 4188,5720 4198,5720 4203 C5720 4208,5746 4256,5779 4308 C5857 4436,5859 4440,5823 4439 C5797 4439,5788 4428,5725 4319 L5655 4200 5607 4200 L5560 4200 5560 4320 L5560 4440 5535 4440 L5510 4440 5510 4178 M5565 4153 C5562 4149,5560 4104,5560 4053 L5560 3960 5607 3960 C5731 3961,5790 3994,5790 4061 C5790 4107,5767 4133,5715 4149 C5676 4161,5572 4163,5565 4153 " />
<path d="M7280 4178 L7280 3917 7392 3921 C7555 3928,7604 3960,7603 4059 C7601 4154,7551 4191,7417 4198 L7330 4202 7330 4321 L7330 4440 7305 4440 L7280 4440 7280 4178 M7335 4153 C7332 4149,7330 4104,7330 4051 L7330 3957 7405 3963 C7494 3970,7532 3988,7549 4029 C7565 4067,7552 4107,7516 4131 C7489 4150,7345 4167,7335 4153 " />
</g>
<g id="layer103" fill="#b4c6d1" fill-rule="evenodd">
<path d="M4460 3350 L4460 3345C4460 3342,4460 3270,4460 3185 L4460 3030 4400 3030 L4340 3030 4340 3185 L4340 3340L4340 3340 L4312 3340C4297 3340,4270 3338,4252 3335 L4220 3330L4220 3330 L4217 3329C4216 3329,4174 3263,4124 3182 L4033 3035 3951 3032 L3870 3029 3870 3134 L3870 3240L3870 3240 L3862 3237C3858 3235,3838 3226,3817 3215 C3796 3205,3761 3181,3739 3161 C3716 3142,3687 3112,3674 3093 L3650 3060L3650 3060 L3650 3045L3650 3030L3650 3030 L3648 3022C3648 3018,3647 2996,3647 2973 C3648 2950,3657 2914,3668 2892 C3679 2870,3700 2839,3713 2823 C3727 2807,3762 2780,3791 2764 C3839 2738,3855 2735,3957 2731 C4037 2728,4090 2732,4145 2744 C4187 2754,4251 2772,4288 2784 C4324 2797,4364 2811,4375 2815 C4388 2820,4381 2808,4355 2780 C4333 2757,4281 2716,4240 2689 C4199 2661,4129 2625,4085 2608 C4041 2591,3964 2569,3915 2558 C3865 2548,3790 2540,3747 2540 C3705 2540,3625 2548,3571 2559 C3516 2569,3425 2594,3368 2613 C3311 2632,3161 2694,3035 2750 C2908 2806,2706 2892,2585 2941 C2464 2989,2363 3029,2362 3029 L2360 3030L2360 3030 L2215 3030L2070 3030 2070 3075 C2070 3099,2070 3122,2070 3125 L2070 3130L2070 3130 L2065 3130C2062 3130,2013 3143,1956 3160 C1899 3176,1849 3190,1846 3190 L1840 3190L1840 3190 L1840 3183C1840 3179,1828 3161,1814 3143 C1800 3125,1774 3099,1756 3085 C1738 3071,1706 3053,1686 3044 C1665 3036,1628 3024,1604 3019 L1560 3010L1560 3010 L1560 3006C1560 3005,1601 2987,1652 2966 C1703 2945,1832 2881,1940 2822 C2047 2764,2288 2626,2475 2517 C2662 2407,2893 2273,2990 2220 C3086 2166,3210 2099,3266 2071 C3322 2043,3428 1995,3501 1963 C3575 1932,3713 1881,3810 1849 C3906 1817,4057 1775,4145 1756 C4233 1736,4367 1711,4444 1700 C4521 1689,4672 1675,4781 1668 C4930 1659,5003 1659,5081 1667 C5138 1674,5208 1686,5237 1694 C5265 1703,5308 1725,5331 1743 C5359 1764,5381 1792,5394 1822 C5409 1859,5411 1876,5404 1897 C5394 1924,5391 1924,5324 1924 C5286 1924,5211 1918,5158 1911 C5086 1902,5040 1901,4975 1909 C4928 1915,4860 1931,4824 1944 C4789 1956,4735 1982,4704 2001 C4673 2019,4621 2060,4589 2091 C4552 2126,4520 2169,4504 2202 C4491 2232,4477 2276,4473 2301 C4469 2331,4473 2367,4484 2405 C4493 2438,4516 2487,4535 2515 C4553 2542,4590 2581,4617 2601 C4643 2621,4685 2648,4710 2662 C4734 2676,4798 2704,4851 2723 C4904 2743,5003 2770,5071 2783 C5139 2797,5249 2813,5316 2819 C5383 2825,5514 2829,5606 2829 C5699 2829,5829 2825,5895 2819 C5961 2814,6082 2800,6165 2789 C6247 2778,6459 2744,6635 2714 C6811 2685,7008 2654,7073 2645 C7139 2637,7240 2627,7298 2623 C7360 2620,7444 2622,7500 2629 C7552 2635,7611 2645,7632 2650 C7652 2656,7682 2671,7697 2684 C7722 2706,7723 2709,7708 2725 C7696 2738,7660 2743,7543 2750 C7461 2755,7343 2767,7280 2775 C7216 2784,7112 2802,7048 2815 C6984 2829,6865 2858,6783 2880 C6701 2903,6528 2957,6397 3000 C6267 3044,6157 3080,6155 3080 L6150 3080L6150 3080 L6150 3055C6150 3031,6147 3030,6090 3030 L6030 3030 6030 3070 C6030 3092,6030 3112,6030 3115 L6030 3120L6030 3120 L5902 3159C5832 3181,5753 3203,5727 3209 L5680 3220L5680 3220 L5682 3177L5685 3135 5787 3132 L5890 3129 5890 3079 L5890 3030 5625 3030 L5360 3030 5360 3080 L5360 3130 5460 3130 L5560 3130 5560 3185 C5560 3215,5560 3242,5560 3245 L5560 3250L5560 3250 L5547 3254C5540 3257,5472 3271,5395 3285 C5318 3299,5254 3312,5253 3315 L5250 3320L5250 3320 L5125 3320C5056 3320,5000 3322,5000 3325 C5000 3327,5000 3332,5000 3335 L5000 3340L5000 3340 L4942 3345C4910 3348,4861 3350,4832 3350 L4780 3350L4780 3350 L4784 3308C4786 3286,4801 3247,4816 3221 C4837 3189,4861 3167,4900 3146 C4948 3121,4962 3118,5020 3122 C5055 3124,5098 3134,5115 3143 C5131 3152,5153 3165,5163 3172 C5179 3183,5186 3179,5221 3140 L5261 3096 5238 3078 C5225 3068,5190 3050,5160 3038 C5117 3021,5084 3016,5010 3016 C4935 3016,4902 3021,4858 3038 C4827 3050,4781 3079,4755 3101 C4729 3124,4697 3164,4683 3192 C4669 3219,4654 3267,4649 3298 C4644 3329,4640 3356,4640 3357 L4640 3360L4640 3360 L4550 3355L4460 3350" />
<path d="M860 3320 L850 3320C844 3320,837 3320,835 3320 C832 3320,823 3320,815 3320 L800 3320L800 3320 L827 3252L855 3185 857 3245 C859 3278,860 3308,860 3312 L860 3320" />
<path d="M550 3300 L545 3295 L540 3290 L500 3175L460 3060L460 3060 L492 3065C510 3068,565 3077,615 3085 C665 3093,720 3100,738 3100 L770 3100L770 3100 L730 3205L690 3310L690 3310 L627 3304C593 3301,561 3299,557 3299 L550 3300" />
<path d="M980 3110 L1014 3110C1033 3110,1099 3103,1162 3095 C1224 3086,1278 3080,1282 3080 L1290 3080L1290 3080 L1255 3119C1236 3141,1212 3176,1201 3197 C1191 3217,1179 3247,1176 3261 C1172 3276,1170 3291,1170 3294 L1170 3300L1170 3300 L1122 3305C1096 3308,1053 3310,1027 3310 L980 3310L980 3310 L980 3265C980 3240,980 3217,980 3215 C980 3212,980 3187,980 3160 L980 3110" />
<path d="M4060 3300 L4052 3300C4048 3300,4032 3298,4017 3295 L3990 3290L3990 3290 L3989 3282C3989 3278,3990 3257,3992 3235 L3995 3195 4031 3250 C4052 3280,4069 3306,4069 3307 L4070 3310L4065 3305 4063 3298 " />
<path d="M1710 3220 L1642 3235C1605 3244,1518 3259,1450 3270 C1381 3281,1321 3289,1317 3289 L1310 3290L1310 3290 L1309 3282C1308 3278,1319 3254,1332 3230 C1348 3200,1373 3174,1403 3155 C1435 3135,1468 3125,1505 3122 C1542 3118,1574 3122,1605 3134 C1630 3144,1663 3165,1680 3181 C1696 3198,1710 3213,1710 3215 L1710 3220" />
<path d="M380 3250 L380 3245C380 3242,380 3228,380 3213 C380 3198,382 3188,385 3191 C387 3194,390 3199,390 3203 L390 3210L395 3215 L400 3220 L400 3225C400 3227,400 3232,400 3235 L400 3240L402 3250 L407 3252 410 3255 L400 3260 L400 3255C400 3252,397 3250,395 3250 L390 3250" />
<path d="M360 3030 L310 3030L260 3030 260 3095 C260 3130,260 3162,260 3165 L260 3170L260 3170 L255 3170C252 3170,241 3159,230 3147 C218 3135,206 3115,203 3103 C200 3091,203 3072,209 3060 C216 3048,237 3031,257 3023 C279 3014,306 3010,326 3014 C344 3018,360 3022,360 3025 L360 3030" />
</g>

</svg>