<!DOCTYPE svg PUBLIC "-//W3C//DTD SVG 20010904//EN" "http://www.w3.org/TR/2001/REC-SVG-20010904/DTD/svg10.dtd">
<svg version="1.0" xmlns="http://www.w3.org/2000/svg" width="1052px" height="109px" viewBox="0 0 10520 1090" preserveAspectRatio="xMidYMid meet">
<g id="layer101" fill="#333333" fill-rule="evenodd">
<path d="M0 545 L0 0 5260 0 L10520 0 10520 545 L10520 1090 5260 1090 L0 1090 0 545 M287 856 C257 840,238 819,220 784 C195 736,195 730,195 520 C195 309,195 303,220 255 C251 194,309 159,382 160 C437 160,472 175,511 216 C536 242,570 333,559 343 C557 346,532 349,505 351 C457 354,456 353,444 319 C429 273,391 251,355 267 C341 274,324 292,317 307 C303 341,302 681,316 725 C321 741,338 761,353 770 C391 791,431 768,443 717 L451 680 507 680 L562 680 557 720 C539 853,405 921,287 856 M690 520 L690 160 745 160 L800 160 800 315 L800 470 870 470 L940 470 940 315 L940 160 995 160 L1050 160 1050 520 L1050 880 995 880 L940 880 940 725 L940 570 870 570 L800 570 800 725 L800 880 745 880 L690 880 690 520 M1174 787 C1187 736,1226 582,1259 445 C1293 307,1323 187,1326 177 C1330 163,1342 160,1384 160 L1438 160 1453 212 C1461 241,1471 280,1475 300 C1478 319,1508 443,1540 575 C1571 707,1600 829,1604 847 L1611 880 1552 880 L1493 880 1481 829 C1475 801,1470 769,1470 759 C1470 741,1462 740,1385 740 L1301 740 1290 790 C1284 818,1280 849,1280 860 C1280 877,1272 880,1215 880 L1150 880 1174 787 M1330 622 C1330 604,1363 440,1378 385 C1384 360,1390 377,1413 490 C1427 564,1440 628,1440 632 C1440 636,1415 640,1385 640 C1338 640,1330 637,1330 622 M1710 520 L1710 160 1830 160 C1932 160,1957 163,1991 180 C2049 210,2069 260,2069 372 C2070 465,2059 499,2021 534 C2009 544,2000 560,2000 569 C2000 578,2020 646,2045 720 C2069 793,2090 859,2090 867 C2090 876,2072 879,2032 879 L1975 879 1929 732 C1884 585,1884 585,1854 585 L1825 585 1822 732 L1820 880 1765 880 L1710 880 1710 520 M1820 370 L1820 260 1863 259 C1892 259,1916 266,1931 279 C1951 295,1954 306,1954 367 C1955 459,1939 480,1870 480 L1820 480 1820 370 M2220 520 L2220 160 2275 160 L2330 160 2330 470 L2330 780 2425 780 L2520 780 2520 830 L2520 880 2370 880 L2220 880 2220 520 M2640 520 L2640 160 2790 160 L2940 160 2940 210 L2940 260 2845 260 L2750 260 2750 365 L2750 470 2830 470 L2910 470 2910 520 L2910 570 2829 570 L2749 570 2752 672 L2755 775 2847 777 L2940 780 2940 830 L2940 880 2790 880 L2640 880 2640 520 M3127 857 C3078 831,3054 793,3045 727 L3038 680 3099 680 C3159 680,3160 680,3160 708 C3160 746,3178 768,3216 775 C3265 785,3300 746,3299 682 C3299 609,3284 590,3201 554 C3100 510,3072 488,3059 437 C3043 377,3052 278,3079 236 C3111 183,3176 155,3252 162 C3345 171,3391 216,3405 312 L3412 359 3351 360 L3290 360 3290 330 C3290 296,3259 259,3231 260 C3220 260,3201 268,3188 279 C3169 294,3165 307,3165 348 C3165 410,3182 430,3258 458 C3391 507,3414 542,3408 688 C3405 749,3398 793,3389 808 C3364 847,3315 869,3240 875 C3180 879,3163 876,3127 857 M3760 520 L3760 160 3877 160 C4075 160,4119 198,4119 367 C4120 458,4106 501,4067 538 C4042 561,4041 563,4056 603 C4064 626,4088 698,4109 762 L4148 880 4086 877 L4025 875 3979 730 C3934 586,3933 585,3904 585 L3875 585 3872 732 L3870 880 3815 880 L3760 880 3760 520 M3870 370 L3870 260 3913 259 C3942 259,3966 266,3981 279 C4001 295,4004 306,4004 367 C4005 459,3989 480,3920 480 L3870 480 3870 370 M4347 857 C4316 840,4298 821,4280 785 C4255 736,4255 729,4255 519 C4255 309,4255 303,4280 254 C4344 127,4535 127,4599 254 C4624 303,4625 308,4625 524 L4625 745 4596 793 C4546 878,4438 905,4347 857 M4399 762 C4384 749,4376 724,4368 670 C4356 584,4363 348,4378 308 C4401 250,4467 247,4497 302 C4511 329,4514 362,4514 515 C4514 646,4511 703,4501 727 C4479 779,4436 794,4399 762 M4827 857 C4778 831,4754 793,4745 727 L4738 680 4799 680 C4859 680,4860 680,4860 709 C4860 728,4868 745,4886 759 C4921 786,4945 785,4976 754 C4999 731,5001 722,4997 667 C4992 596,4980 582,4892 549 C4774 506,4742 456,4752 333 C4762 215,4833 153,4950 161 C5043 168,5091 215,5105 312 L5112 359 5051 360 L4990 360 4990 330 C4990 296,4959 259,4931 260 C4920 260,4901 268,4889 278 C4871 293,4866 307,4865 348 C4864 411,4877 425,4982 469 C5094 517,5105 534,5105 675 C5105 766,5101 789,5086 813 C5059 852,5020 869,4940 875 C4880 879,4863 876,4827 857 M5250 520 L5250 160 5400 160 L5550 160 5550 210 L5550 260 5455 260 L5360 260 5360 365 L5360 470 5440 470 L5520 470 5520 520 L5520 570 5440 570 L5360 570 5360 675 L5360 780 5455 780 L5550 780 5550 830 L5550 880 5400 880 L5250 880 5250 520 M5910 557 C5954 380,5995 218,6000 197 C6010 160,6010 160,6064 160 L6118 160 6132 212 C6150 275,6290 863,6290 873 C6290 876,6263 880,6231 880 L6173 880 6159 812 L6145 745 6064 742 L5983 739 5971 790 C5965 818,5960 850,5960 860 C5960 877,5952 880,5895 880 L5830 880 5910 557 M6010 622 C6010 604,6043 440,6058 385 C6064 360,6070 377,6093 490 C6107 564,6120 628,6120 632 C6120 636,6095 640,6065 640 C6018 640,6010 637,6010 622 M6390 520 L6390 160 6507 160 C6705 160,6749 198,6749 367 C6750 460,6734 510,6695 541 L6671 560 6725 720 L6778 880 6716 880 L6654 880 6631 802 C6565 580,6566 585,6534 585 L6505 585 6502 732 L6500 880 6445 880 L6390 880 6390 520 M6502 372 L6505 265 6550 262 C6616 257,6634 281,6634 369 C6635 459,6619 480,6550 480 L6500 480 6502 372 M6987 856 C6957 840,6938 819,6920 784 C6895 736,6895 730,6895 520 C6895 309,6895 303,6920 254 C6962 171,7064 137,7157 175 C7204 195,7235 234,7251 293 C7265 345,7263 350,7223 352 C7158 354,7149 351,7143 319 C7130 253,7055 242,7022 302 C7007 330,7005 361,7006 515 C7006 614,7011 708,7016 725 C7021 741,7038 761,7053 770 C7091 791,7131 768,7144 717 L7153 680 7208 680 L7262 680 7256 726 C7252 751,7240 788,7228 807 C7184 878,7070 902,6987 856 M7390 520 L7390 160 7445 160 L7500 160 7500 315 L7500 470 7570 470 L7640 470 7640 315 L7640 160 7695 160 L7750 160 7750 520 L7750 880 7695 880 L7640 880 7640 725 L7640 570 7570 570 L7500 570 7500 725 L7500 880 7445 880 L7390 880 7390 520 M7910 520 L7910 160 7965 160 L8020 160 8020 520 L8020 880 7965 880 L7910 880 7910 520 M8250 570 L8250 260 8190 260 L8130 260 8130 210 L8130 160 8305 160 L8480 160 8480 210 L8480 260 8420 260 L8360 260 8360 570 L8360 880 8305 880 L8250 880 8250 570 M8600 520 L8600 160 8750 160 L8900 160 8900 209 L8900 259 8807 262 L8715 265 8712 367 L8709 470 8792 470 L8875 470 8875 520 L8875 570 8792 570 L8709 570 8712 672 L8715 775 8807 777 L8900 780 8900 830 L8900 880 8750 880 L8600 880 8600 520 M9107 856 C9077 840,9058 819,9040 784 C9015 736,9015 730,9015 520 C9015 309,9015 303,9040 255 C9072 193,9129 159,9204 160 C9297 160,9376 235,9379 327 C9379 348,9375 350,9325 350 C9271 350,9270 349,9262 317 C9257 298,9242 278,9226 270 C9202 256,9197 256,9173 270 C9137 289,9129 321,9123 470 C9113 684,9138 780,9205 780 C9231 780,9270 733,9270 700 C9270 682,9275 680,9326 680 L9382 680 9376 726 C9367 790,9342 829,9292 856 C9235 887,9164 887,9107 856 M9590 570 L9590 260 9530 260 L9470 260 9470 210 L9470 160 9645 160 L9820 160 9820 209 L9820 259 9762 262 L9705 265 9702 572 L9700 880 9645 880 L9590 880 9590 570 M9997 857 C9948 831,9924 793,9916 727 L9910 680 9970 680 C10029 680,10030 680,10030 708 C10030 745,10048 768,10085 775 C10134 785,10162 755,10166 689 C10172 612,10158 591,10071 554 C9970 510,9942 488,9929 437 C9913 377,9922 278,9949 236 C9989 171,10092 142,10179 173 C10228 190,10267 244,10275 307 L10282 360 10221 360 L10160 360 10160 330 C10160 296,10129 259,10101 260 C10090 260,10071 268,10059 278 C10041 293,10036 307,10035 349 C10034 412,10051 429,10159 473 C10262 514,10275 535,10275 675 C10275 765,10271 789,10256 812 C10212 877,10078 900,9997 857 " />
</g>
<g id="layer102" fill="#faca32" fill-rule="evenodd">
<path d="M287 856 C257 840,238 819,220 784 C195 736,195 730,195 520 C195 309,195 303,220 255 C251 194,309 159,382 160 C437 160,472 175,511 216 C536 242,570 333,559 343 C557 346,532 349,505 351 C457 354,456 353,444 319 C429 273,391 251,355 267 C341 274,324 292,317 307 C303 341,302 681,316 725 C321 741,338 761,353 770 C391 791,431 768,443 717 L451 680 507 680 L562 680 557 720 C539 853,405 921,287 856 " />
<path d="M690 520 L690 160 745 160 L800 160 800 315 L800 470 870 470 L940 470 940 315 L940 160 995 160 L1050 160 1050 520 L1050 880 995 880 L940 880 940 725 L940 570 870 570 L800 570 800 725 L800 880 745 880 L690 880 690 520 " />
<path d="M1174 787 C1187 736,1226 582,1259 445 C1293 307,1323 187,1326 177 C1330 163,1342 160,1384 160 L1438 160 1453 212 C1461 241,1471 280,1475 300 C1478 319,1508 443,1540 575 C1571 707,1600 829,1604 847 L1611 880 1552 880 L1493 880 1481 829 C1475 801,1470 769,1470 759 C1470 741,1462 740,1385 740 L1301 740 1290 790 C1284 818,1280 849,1280 860 C1280 877,1272 880,1215 880 L1150 880 1174 787 M1330 622 C1330 604,1363 440,1378 385 C1384 360,1390 377,1413 490 C1427 564,1440 628,1440 632 C1440 636,1415 640,1385 640 C1338 640,1330 637,1330 622 " />
<path d="M1710 520 L1710 160 1830 160 C1932 160,1957 163,1991 180 C2049 210,2069 260,2069 372 C2070 465,2059 499,2021 534 C2009 544,2000 560,2000 569 C2000 578,2020 646,2045 720 C2069 793,2090 859,2090 867 C2090 876,2072 879,2032 879 L1975 879 1929 732 C1884 585,1884 585,1854 585 L1825 585 1822 732 L1820 880 1765 880 L1710 880 1710 520 M1820 370 L1820 260 1863 259 C1892 259,1916 266,1931 279 C1951 295,1954 306,1954 367 C1955 459,1939 480,1870 480 L1820 480 1820 370 " />
<path d="M2220 520 L2220 160 2275 160 L2330 160 2330 470 L2330 780 2425 780 L2520 780 2520 830 L2520 880 2370 880 L2220 880 2220 520 " />
<path d="M2640 520 L2640 160 2790 160 L2940 160 2940 210 L2940 260 2845 260 L2750 260 2750 365 L2750 470 2830 470 L2910 470 2910 520 L2910 570 2829 570 L2749 570 2752 672 L2755 775 2847 777 L2940 780 2940 830 L2940 880 2790 880 L2640 880 2640 520 " />
<path d="M3127 857 C3078 831,3054 793,3045 727 L3038 680 3099 680 C3159 680,3160 680,3160 708 C3160 746,3178 768,3216 775 C3265 785,3300 746,3299 682 C3299 609,3284 590,3201 554 C3100 510,3072 488,3059 437 C3043 377,3052 278,3079 236 C3111 183,3176 155,3252 162 C3345 171,3391 216,3405 312 L3412 359 3351 360 L3290 360 3290 330 C3290 296,3259 259,3231 260 C3220 260,3201 268,3188 279 C3169 294,3165 307,3165 348 C3165 410,3182 430,3258 458 C3391 507,3414 542,3408 688 C3405 749,3398 793,3389 808 C3364 847,3315 869,3240 875 C3180 879,3163 876,3127 857 " />
<path d="M3760 520 L3760 160 3877 160 C4075 160,4119 198,4119 367 C4120 458,4106 501,4067 538 C4042 561,4041 563,4056 603 C4064 626,4088 698,4109 762 L4148 880 4086 877 L4025 875 3979 730 C3934 586,3933 585,3904 585 L3875 585 3872 732 L3870 880 3815 880 L3760 880 3760 520 M3870 370 L3870 260 3913 259 C3942 259,3966 266,3981 279 C4001 295,4004 306,4004 367 C4005 459,3989 480,3920 480 L3870 480 3870 370 " />
<path d="M4347 857 C4316 840,4298 821,4280 785 C4255 736,4255 729,4255 519 C4255 309,4255 303,4280 254 C4344 127,4535 127,4599 254 C4624 303,4625 308,4625 524 L4625 745 4596 793 C4546 878,4438 905,4347 857 M4399 762 C4384 749,4376 724,4368 670 C4356 584,4363 348,4378 308 C4401 250,4467 247,4497 302 C4511 329,4514 362,4514 515 C4514 646,4511 703,4501 727 C4479 779,4436 794,4399 762 " />
<path d="M4827 857 C4778 831,4754 793,4745 727 L4738 680 4799 680 C4859 680,4860 680,4860 709 C4860 728,4868 745,4886 759 C4921 786,4945 785,4976 754 C4999 731,5001 722,4997 667 C4992 596,4980 582,4892 549 C4774 506,4742 456,4752 333 C4762 215,4833 153,4950 161 C5043 168,5091 215,5105 312 L5112 359 5051 360 L4990 360 4990 330 C4990 296,4959 259,4931 260 C4920 260,4901 268,4889 278 C4871 293,4866 307,4865 348 C4864 411,4877 425,4982 469 C5094 517,5105 534,5105 675 C5105 766,5101 789,5086 813 C5059 852,5020 869,4940 875 C4880 879,4863 876,4827 857 " />
<path d="M5250 520 L5250 160 5400 160 L5550 160 5550 210 L5550 260 5455 260 L5360 260 5360 365 L5360 470 5440 470 L5520 470 5520 520 L5520 570 5440 570 L5360 570 5360 675 L5360 780 5455 780 L5550 780 5550 830 L5550 880 5400 880 L5250 880 5250 520 " />
<path d="M5910 557 C5954 380,5995 218,6000 197 C6010 160,6010 160,6064 160 L6118 160 6132 212 C6150 275,6290 863,6290 873 C6290 876,6263 880,6231 880 L6173 880 6159 812 L6145 745 6064 742 L5983 739 5971 790 C5965 818,5960 850,5960 860 C5960 877,5952 880,5895 880 L5830 880 5910 557 M6010 622 C6010 604,6043 440,6058 385 C6064 360,6070 377,6093 490 C6107 564,6120 628,6120 632 C6120 636,6095 640,6065 640 C6018 640,6010 637,6010 622 " />
<path d="M6390 520 L6390 160 6507 160 C6705 160,6749 198,6749 367 C6750 460,6734 510,6695 541 L6671 560 6725 720 L6778 880 6716 880 L6654 880 6631 802 C6565 580,6566 585,6534 585 L6505 585 6502 732 L6500 880 6445 880 L6390 880 6390 520 M6502 372 L6505 265 6550 262 C6616 257,6634 281,6634 369 C6635 459,6619 480,6550 480 L6500 480 6502 372 " />
<path d="M6987 856 C6957 840,6938 819,6920 784 C6895 736,6895 730,6895 520 C6895 309,6895 303,6920 254 C6962 171,7064 137,7157 175 C7204 195,7235 234,7251 293 C7265 345,7263 350,7223 352 C7158 354,7149 351,7143 319 C7130 253,7055 242,7022 302 C7007 330,7005 361,7006 515 C7006 614,7011 708,7016 725 C7021 741,7038 761,7053 770 C7091 791,7131 768,7144 717 L7153 680 7208 680 L7262 680 7256 726 C7252 751,7240 788,7228 807 C7184 878,7070 902,6987 856 " />
<path d="M7390 520 L7390 160 7445 160 L7500 160 7500 315 L7500 470 7570 470 L7640 470 7640 315 L7640 160 7695 160 L7750 160 7750 520 L7750 880 7695 880 L7640 880 7640 725 L7640 570 7570 570 L7500 570 7500 725 L7500 880 7445 880 L7390 880 7390 520 " />
<path d="M7910 520 L7910 160 7965 160 L8020 160 8020 520 L8020 880 7965 880 L7910 880 7910 520 " />
<path d="M8250 570 L8250 260 8190 260 L8130 260 8130 210 L8130 160 8305 160 L8480 160 8480 210 L8480 260 8420 260 L8360 260 8360 570 L8360 880 8305 880 L8250 880 8250 570 " />
<path d="M8600 520 L8600 160 8750 160 L8900 160 8900 209 L8900 259 8807 262 L8715 265 8712 367 L8709 470 8792 470 L8875 470 8875 520 L8875 570 8792 570 L8709 570 8712 672 L8715 775 8807 777 L8900 780 8900 830 L8900 880 8750 880 L8600 880 8600 520 " />
<path d="M9107 856 C9077 840,9058 819,9040 784 C9015 736,9015 730,9015 520 C9015 309,9015 303,9040 255 C9072 193,9129 159,9204 160 C9297 160,9376 235,9379 327 C9379 348,9375 350,9325 350 C9271 350,9270 349,9262 317 C9257 298,9242 278,9226 270 C9202 256,9197 256,9173 270 C9137 289,9129 321,9123 470 C9113 684,9138 780,9205 780 C9231 780,9270 733,9270 700 C9270 682,9275 680,9326 680 L9382 680 9376 726 C9367 790,9342 829,9292 856 C9235 887,9164 887,9107 856 " />
<path d="M9590 570 L9590 260 9530 260 L9470 260 9470 210 L9470 160 9645 160 L9820 160 9820 209 L9820 259 9762 262 L9705 265 9702 572 L9700 880 9645 880 L9590 880 9590 570 " />
<path d="M9997 857 C9948 831,9924 793,9916 727 L9910 680 9970 680 C10029 680,10030 680,10030 708 C10030 745,10048 768,10085 775 C10134 785,10162 755,10166 689 C10172 612,10158 591,10071 554 C9970 510,9942 488,9929 437 C9913 377,9922 278,9949 236 C9989 171,10092 142,10179 173 C10228 190,10267 244,10275 307 L10282 360 10221 360 L10160 360 10160 330 C10160 296,10129 259,10101 260 C10090 260,10071 268,10059 278 C10041 293,10036 307,10035 349 C10034 412,10051 429,10159 473 C10262 514,10275 535,10275 675 C10275 765,10271 789,10256 812 C10212 877,10078 900,9997 857 " />
</g>

</svg>