<?xml version="1.0" encoding="UTF-8" standalone="no"?>
<!DOCTYPE svg PUBLIC "-//W3C//DTD SVG 1.1//EN" "http://www.w3.org/Graphics/SVG/1.1/DTD/svg11.dtd">
<svg xmlns="http://www.w3.org/2000/svg" xmlns:xlink="http://www.w3.org/1999/xlink" version="1.1" width="864pt" height="864pt" viewBox="0 0 864 864">
<g enable-background="new">
<g id="Layer-1" data-name="Layer">
<clipPath id="cp0">
<path transform="matrix(1,0,0,-1,0,864)" d="M 0 864 L 864 864 L 864 0 L 0 0 Z "/>
</clipPath>
<g clip-path="url(#cp0)">
<path transform="matrix(1,0,0,-1,180.4937,496.5645)" d="M 0 0 C -.949 3.506 -2.372 6.789 -4.269 9.854 C -6.169 12.92 -8.414 15.584 -11.003 17.848 C -13.595 20.107 -16.515 21.896 -19.762 23.213 C -23.011 24.527 -26.46 25.184 -30.109 25.184 C -35.146 25.184 -39.634 24.051 -43.576 21.789 C -47.519 19.525 -50.823 16.535 -53.486 12.811 C -56.151 9.088 -58.193 4.871 -59.617 .164 C -61.04 -4.545 -61.753 -9.381 -61.753 -14.344 C -61.753 -19.596 -61.004 -24.523 -59.507 -29.125 C -58.013 -33.723 -55.877 -37.719 -53.103 -41.115 C -50.33 -44.508 -46.971 -47.191 -43.028 -49.162 C -39.088 -51.133 -34.708 -52.117 -29.891 -52.117 C -26.096 -52.117 -22.537 -51.424 -19.215 -50.037 C -15.895 -48.65 -12.938 -46.826 -10.346 -44.564 C -7.756 -42.301 -5.567 -39.689 -3.777 -36.734 C -1.989 -33.779 -.766 -30.73 -.109 -27.59 L 1.205 -27.59 L .876 -51.68 L -.437 -51.68 C -1.313 -50.439 -2.227 -49.307 -3.174 -48.287 C -4.124 -47.266 -4.781 -46.752 -5.145 -46.752 C -5.292 -46.752 -5.95 -47.135 -7.117 -47.904 C -8.284 -48.668 -9.963 -49.51 -12.153 -50.422 C -14.343 -51.332 -17.008 -52.137 -20.146 -52.83 C -23.285 -53.521 -26.897 -53.869 -30.984 -53.869 C -37.773 -53.869 -43.905 -52.902 -49.38 -50.969 C -54.853 -49.035 -59.507 -46.297 -63.34 -42.756 C -67.172 -39.217 -70.111 -34.982 -72.153 -30.055 C -74.198 -25.129 -75.22 -19.709 -75.22 -13.795 C -75.22 -12.482 -75.129 -10.988 -74.946 -9.307 C -74.765 -7.629 -74.436 -5.84 -73.96 -3.941 C -73.487 -2.045 -72.83 -.053 -71.99 2.027 C -71.151 4.105 -70.074 6.203 -68.759 8.322 C -67.227 10.801 -65.329 13.176 -63.066 15.439 C -60.804 17.701 -58.139 19.691 -55.073 21.404 C -52.007 23.121 -48.542 24.49 -44.672 25.512 C -40.803 26.531 -36.46 27.045 -31.643 27.045 C -27.262 27.045 -23.43 26.645 -20.146 25.842 C -16.861 25.035 -14.124 24.16 -11.934 23.213 C -9.744 22.262 -8.066 21.387 -6.897 20.584 C -5.73 19.781 -5.073 19.379 -4.926 19.379 C -4.781 19.379 -4.507 19.543 -4.105 19.873 C -3.705 20.201 -3.266 20.602 -2.792 21.078 C -2.317 21.553 -1.825 22.1 -1.313 22.719 C -.803 23.338 -.328 23.979 .111 24.637 L 1.315 24.637 L 1.315 .109 Z " fill="#231f20"/>
<path transform="matrix(1,0,0,-1,227.9023,483.6445)" d="M 0 0 C -.437 -.949 -1.077 -2.445 -1.916 -4.488 C -2.755 -6.533 -3.796 -9.018 -5.037 -11.934 C -6.278 -14.855 -7.646 -18.158 -9.142 -21.844 C -10.639 -25.529 -12.263 -29.525 -14.015 -33.834 L 13.249 -33.834 C 12.007 -30.547 10.748 -27.264 9.471 -23.979 C 8.194 -20.693 6.954 -17.535 5.749 -14.508 C 4.544 -11.479 3.45 -8.705 2.463 -6.187 C 1.478 -3.666 .658 -1.605 0 0 M 14.344 -66.352 L 14.344 -65.256 C 14.563 -65.256 15.091 -65.184 15.932 -65.037 C 16.77 -64.891 17.646 -64.635 18.559 -64.271 C 19.471 -63.908 20.274 -63.395 20.968 -62.736 C 21.661 -62.082 22.007 -61.244 22.007 -60.221 C 22.007 -59.563 21.807 -58.484 21.407 -56.988 C 21.004 -55.494 20.437 -53.67 19.709 -51.516 C 18.979 -49.363 18.139 -46.971 17.191 -44.346 C 16.242 -41.715 15.22 -38.979 14.125 -36.131 L -15 -36.131 C -16.094 -38.908 -17.154 -41.553 -18.174 -44.07 C -19.198 -46.59 -20.219 -49.125 -21.241 -51.678 C -22.773 -55.621 -23.54 -58.395 -23.54 -60 C -23.54 -60.951 -23.25 -61.734 -22.665 -62.354 C -22.081 -62.977 -21.333 -63.488 -20.419 -63.889 C -19.507 -64.291 -18.522 -64.584 -17.463 -64.764 C -16.406 -64.947 -15.401 -65.111 -14.452 -65.256 L -14.452 -66.352 L -37.773 -66.352 L -37.773 -65.146 C -35.875 -64.928 -34.253 -64.418 -32.902 -63.615 C -31.551 -62.813 -30.767 -62.264 -30.547 -61.971 C -30.038 -61.461 -29.198 -60.256 -28.029 -58.357 C -26.862 -56.461 -25.439 -53.652 -23.759 -49.928 C -22.226 -46.498 -20.512 -42.592 -18.613 -38.213 C -16.715 -33.834 -14.763 -29.326 -12.755 -24.689 C -10.748 -20.055 -8.759 -15.383 -6.787 -10.676 C -4.816 -5.965 -2.956 -1.57 -1.203 2.52 L -2.299 4.928 C -.985 5.51 .201 6.203 1.261 7.006 C 2.317 7.809 3.248 8.65 4.052 9.525 C 4.854 10.402 5.529 11.24 6.077 12.043 C 6.625 12.846 7.043 13.504 7.336 14.016 L 8.213 14.016 C 10.474 7.957 12.627 2.209 14.672 -3.23 C 16.714 -8.668 18.669 -13.904 20.53 -18.943 C 22.392 -23.979 24.199 -28.85 25.95 -33.561 C 27.702 -38.266 29.453 -42.92 31.206 -47.52 C 32.009 -49.783 32.755 -51.662 33.449 -53.156 C 34.142 -54.654 34.928 -56.352 35.804 -58.25 C 35.949 -58.543 36.278 -59.053 36.79 -59.779 C 37.3 -60.512 37.976 -61.258 38.816 -62.027 C 39.653 -62.795 40.694 -63.469 41.937 -64.053 C 43.177 -64.635 44.635 -64.965 46.316 -65.037 L 46.316 -66.352 Z " fill="#231f20"/>
<path transform="matrix(1,0,0,-1,331.7549,482.1113)" d="M 0 0 C -2.154 3.285 -4.981 5.766 -8.484 7.443 C -10.237 8.246 -12.099 8.795 -14.069 9.088 C -16.042 9.377 -18.084 9.525 -20.201 9.525 C -21.734 9.525 -22.921 9.471 -23.761 9.361 C -24.6 9.252 -25.276 9.16 -25.785 9.088 C -25.858 8.648 -25.95 8.266 -26.059 7.939 C -26.168 7.609 -26.261 7.189 -26.333 6.678 C -26.406 6.168 -26.48 5.455 -26.552 4.543 C -26.626 3.631 -26.699 2.336 -26.771 .656 C -26.845 -1.898 -26.899 -5 -26.935 -8.652 C -26.973 -12.299 -26.99 -15.875 -26.99 -19.381 L -26.99 -28.578 L -26.99 -33.395 C -23.997 -33.395 -21.187 -33.305 -18.559 -33.119 C -15.931 -32.939 -13.487 -32.447 -11.222 -31.645 C -6.551 -30.037 -2.976 -27.393 -.494 -23.703 C 1.987 -20.02 3.229 -15.875 3.229 -11.277 C 3.229 -7.045 2.152 -3.285 0 0 M 13.742 -19.16 C 12.864 -21.352 11.716 -23.287 10.29 -24.965 C 8.87 -26.645 7.206 -28.084 5.31 -29.287 C 3.412 -30.492 1.479 -31.461 -.494 -32.189 C -2.537 -32.922 -4.726 -33.467 -7.063 -33.832 C -9.4 -34.199 -11.753 -34.473 -14.125 -34.654 C -16.496 -34.838 -18.815 -34.928 -21.077 -34.928 L -26.99 -34.928 L -26.99 -40.951 L -26.99 -45.219 C -26.99 -46.463 -26.973 -47.611 -26.935 -48.67 C -26.899 -49.729 -26.881 -50.877 -26.881 -52.119 C -26.809 -54.453 -26.734 -56.461 -26.661 -58.139 C -26.59 -59.82 -26.188 -61.205 -25.457 -62.301 C -24.873 -63.25 -23.743 -64.199 -22.063 -65.148 C -20.385 -66.098 -18.048 -66.645 -15.056 -66.789 L -15.056 -67.885 L -50.093 -67.885 L -50.093 -66.789 C -48.269 -66.498 -46.517 -66.061 -44.838 -65.475 C -43.158 -64.893 -41.845 -64.016 -40.896 -62.85 C -40.531 -62.408 -40.239 -61.754 -40.019 -60.879 C -39.8 -60 -39.636 -59.018 -39.526 -57.922 C -39.417 -56.826 -39.326 -55.658 -39.253 -54.416 C -39.182 -53.178 -39.143 -51.973 -39.143 -50.803 C -39.143 -49.781 -39.126 -48.396 -39.088 -46.645 C -39.052 -44.893 -39.017 -42.975 -38.979 -40.895 C -38.943 -38.814 -38.925 -36.682 -38.925 -34.49 L -38.925 -28.139 L -38.925 -6.791 C -38.925 -5.473 -38.943 -4.145 -38.979 -2.793 C -39.017 -1.443 -39.088 -.162 -39.197 1.041 C -39.308 2.246 -39.49 3.34 -39.745 4.324 C -40.002 5.311 -40.348 6.021 -40.786 6.461 C -41.881 7.627 -43.287 8.412 -45.001 8.814 C -46.717 9.215 -48.56 9.561 -50.53 9.854 L -50.53 10.949 L -47.902 10.949 C -46.517 10.949 -44.892 10.969 -43.03 11.004 C -41.169 11.039 -39.143 11.059 -36.954 11.059 C -34.764 11.059 -32.593 11.076 -30.439 11.113 C -28.286 11.148 -26.261 11.166 -24.362 11.166 L -19.435 11.166 C -14.617 11.166 -10.347 10.93 -6.624 10.457 C -2.901 9.98 .602 8.832 3.887 7.008 C 7.099 5.256 9.763 2.771 11.881 -.437 C 13.998 -3.652 15.056 -7.447 15.056 -11.826 C 15.056 -14.527 14.619 -16.971 13.742 -19.16 " fill="#231f20"/>
<path transform="matrix(1,0,0,-1,414.4194,537.8418)" d="M 0 0 C -1.426 -2.775 -3.395 -5.148 -5.914 -7.119 C -8.432 -9.088 -11.441 -10.551 -14.946 -11.496 C -18.45 -12.443 -22.282 -12.92 -26.444 -12.92 C -30.021 -12.92 -33.087 -12.701 -35.639 -12.264 C -38.198 -11.824 -40.311 -11.299 -41.992 -10.676 C -43.67 -10.055 -44.931 -9.49 -45.768 -8.979 C -46.608 -8.469 -47.137 -8.213 -47.354 -8.213 C -47.575 -8.213 -48.052 -8.648 -48.78 -9.527 C -49.508 -10.402 -50.166 -11.242 -50.751 -12.045 L -51.734 -12.045 L -52.064 9.744 L -50.969 9.744 C -50.311 7.773 -49.474 5.857 -48.45 3.998 C -47.43 2.137 -46.316 .383 -45.111 -1.26 C -43.907 -2.902 -42.63 -4.346 -41.279 -5.582 C -39.928 -6.828 -38.633 -7.773 -37.392 -8.432 C -36.152 -9.088 -34.508 -9.744 -32.464 -10.402 C -30.421 -11.059 -28.452 -11.389 -26.554 -11.389 C -21.153 -11.389 -16.774 -9.91 -13.415 -6.953 C -10.056 -3.996 -8.376 0 -8.376 5.037 C -8.376 7.078 -8.705 8.869 -9.362 10.4 C -10.02 11.934 -10.916 13.264 -12.046 14.396 C -13.178 15.529 -14.507 16.496 -16.042 17.299 C -17.574 18.102 -19.217 18.832 -20.969 19.49 C -22.722 20.145 -24.253 20.693 -25.566 21.133 C -26.881 21.568 -28.104 21.988 -29.236 22.391 C -30.366 22.791 -31.534 23.193 -32.739 23.594 C -33.942 23.996 -35.386 24.525 -37.064 25.182 C -38.963 25.91 -40.787 26.916 -42.54 28.195 C -44.29 29.471 -45.824 30.965 -47.137 32.684 C -48.45 34.396 -49.508 36.297 -50.311 38.377 C -51.114 40.455 -51.517 42.664 -51.517 45 C -51.517 48.939 -50.799 52.336 -49.357 55.184 C -47.919 58.029 -45.983 60.4 -43.556 62.299 C -41.125 64.197 -38.322 65.604 -35.148 66.514 C -31.972 67.426 -28.632 67.885 -25.128 67.885 C -21.844 67.885 -19.036 67.609 -16.699 67.063 C -14.363 66.514 -12.447 65.914 -10.95 65.256 C -9.456 64.6 -8.322 63.996 -7.557 63.449 C -6.789 62.902 -6.371 62.629 -6.296 62.629 C -6.079 62.629 -5.624 63.066 -4.927 63.943 C -4.235 64.818 -3.598 65.695 -3.012 66.57 L -1.809 66.57 L -1.809 46.313 L -3.012 46.313 C -3.887 48.723 -5.021 51.113 -6.406 53.484 C -7.794 55.857 -9.4 57.977 -11.224 59.838 C -13.05 61.699 -15.13 63.213 -17.464 64.379 C -19.801 65.545 -22.392 66.131 -25.239 66.131 C -27.502 66.131 -29.638 65.805 -31.643 65.148 C -33.653 64.49 -35.406 63.504 -36.899 62.191 C -38.397 60.877 -39.563 59.252 -40.404 57.316 C -41.241 55.383 -41.662 53.174 -41.662 50.693 C -41.662 46.824 -40.497 43.723 -38.167 41.387 C -35.836 39.049 -32.815 37.188 -29.101 35.803 C -27.649 35.217 -26.282 34.711 -25.008 34.27 C -23.732 33.832 -22.477 33.412 -21.237 33.01 C -20.001 32.609 -18.746 32.189 -17.473 31.752 C -16.196 31.312 -14.866 30.838 -13.484 30.328 C -8.533 28.504 -4.693 25.857 -1.961 22.391 C .769 18.922 2.133 14.6 2.133 9.416 C 2.133 5.912 1.423 2.773 0 0 " fill="#231f20"/>
<path transform="matrix(1,0,0,-1,509.2959,491.7461)" d="M 0 0 C -.586 1.312 -1.279 2.682 -2.082 4.105 C -2.887 5.527 -3.708 6.861 -4.545 8.102 C -5.386 9.342 -6.207 10.492 -7.008 11.551 C -7.812 12.609 -8.505 13.395 -9.09 13.904 C -10.621 15.363 -12.284 16.332 -14.069 16.807 C -15.858 17.281 -18.142 17.555 -20.914 17.627 C -22.302 17.627 -23.508 17.646 -24.528 17.682 C -25.549 17.717 -26.572 17.738 -27.595 17.738 L -30.769 17.738 L -34.818 17.738 C -34.818 15.91 -34.838 13.428 -34.875 10.291 C -34.911 7.152 -34.931 3.869 -34.931 .437 L -34.931 -9.746 L -34.931 -18.066 L -34.931 -42.371 C -34.931 -44.49 -34.875 -46.518 -34.766 -48.451 C -34.656 -50.383 -34.312 -51.754 -33.726 -52.557 C -32.63 -54.162 -31.079 -55.258 -29.073 -55.84 C -27.064 -56.426 -25.256 -56.863 -23.65 -57.154 L -23.65 -58.25 L -59.236 -58.25 L -59.236 -57.154 C -57.339 -56.936 -55.514 -56.572 -53.763 -56.059 C -52.009 -55.551 -50.294 -54.346 -48.616 -52.447 C -48.253 -52.084 -47.978 -51.479 -47.795 -50.641 C -47.614 -49.801 -47.465 -48.852 -47.356 -47.795 C -47.247 -46.736 -47.175 -45.586 -47.138 -44.346 C -47.102 -43.104 -47.082 -41.898 -47.082 -40.73 C -47.082 -39.711 -47.067 -38.359 -47.029 -36.68 C -46.991 -35 -46.954 -33.141 -46.917 -31.096 C -46.882 -29.053 -46.864 -26.936 -46.864 -24.746 L -46.864 -18.504 L -46.864 17.738 L -50.913 17.738 L -54.09 17.738 C -55.038 17.738 -56.044 17.717 -57.103 17.682 C -58.16 17.646 -59.384 17.627 -60.769 17.627 C -63.546 17.555 -65.823 17.227 -67.612 16.643 C -69.403 16.059 -71.062 15.037 -72.595 13.576 C -73.178 13.064 -73.854 12.299 -74.62 11.275 C -75.386 10.252 -76.192 9.143 -77.029 7.937 C -77.868 6.732 -78.673 5.437 -79.438 4.049 C -80.204 2.664 -80.804 1.312 -81.244 0 L -82.23 .328 L -78.943 21.131 C -77.265 20.766 -75.714 20.475 -74.29 20.256 C -72.867 20.035 -70.807 19.891 -68.104 19.818 C -65.331 19.742 -62.851 19.689 -60.659 19.652 C -58.468 19.615 -56.354 19.6 -54.31 19.6 L -48.069 19.6 L -40.733 19.6 L -33.505 19.6 C -31.316 19.6 -29.2 19.615 -27.154 19.652 C -25.113 19.689 -22.994 19.725 -20.806 19.762 C -18.614 19.801 -16.134 19.818 -13.36 19.818 C -10.951 19.891 -8.962 20.092 -7.393 20.418 C -5.824 20.748 -4.2 21.166 -2.519 21.68 L .982 .328 Z " fill="#231f20"/>
<path transform="matrix(1,0,0,-1,585.334,496.6738)" d="M 0 0 C -1.134 4.525 -2.846 8.633 -5.146 12.316 C -7.446 16.002 -10.31 18.998 -13.739 21.297 C -17.172 23.598 -21.223 24.746 -25.894 24.746 C -30.641 24.746 -34.746 23.598 -38.212 21.297 C -41.679 18.998 -44.525 16.021 -46.752 12.373 C -48.98 8.723 -50.621 4.58 -51.679 -.055 C -52.737 -4.689 -53.267 -9.381 -53.267 -14.125 C -53.267 -19.09 -52.685 -23.869 -51.514 -28.467 C -50.348 -33.066 -48.612 -37.119 -46.313 -40.623 C -44.016 -44.125 -41.131 -46.936 -37.664 -49.053 C -34.198 -51.172 -30.165 -52.227 -25.565 -52.227 C -20.968 -52.227 -16.971 -51.059 -13.577 -48.725 C -10.183 -46.389 -7.354 -43.377 -5.09 -39.691 C -2.829 -36.006 -1.134 -31.861 0 -27.264 C 1.133 -22.666 1.698 -18.066 1.698 -13.469 C 1.698 -9.018 1.133 -4.525 0 0 M 11.989 -29.562 C 9.801 -34.527 6.826 -38.832 3.066 -42.484 C -.693 -46.135 -5.073 -48.941 -10.073 -50.912 C -15.072 -52.883 -20.386 -53.869 -26.003 -53.869 C -31.554 -53.869 -36.807 -52.902 -41.769 -50.969 C -46.736 -49.035 -51.076 -46.297 -54.798 -42.754 C -58.521 -39.215 -61.462 -34.982 -63.612 -30.055 C -65.767 -25.127 -66.844 -19.709 -66.844 -13.795 C -66.844 -7.52 -65.714 -1.881 -63.447 3.119 C -61.188 8.119 -58.138 12.354 -54.307 15.82 C -50.476 19.287 -45.986 21.953 -40.838 23.814 C -35.693 25.676 -30.273 26.607 -24.58 26.607 C -18.377 26.607 -12.809 25.512 -7.882 23.322 C -2.954 21.131 1.223 18.193 4.652 14.508 C 8.084 10.82 10.713 6.57 12.537 1.754 C 14.361 -3.066 15.275 -8.102 15.275 -13.359 C 15.275 -19.197 14.18 -24.6 11.989 -29.562 " fill="#231f20"/>
<path transform="matrix(1,0,0,-1,696.3604,474.3379)" d="M 0 0 C -1.64 -1.023 -2.901 -2.594 -3.776 -4.709 C -4.289 -5.801 -4.616 -7.828 -4.762 -10.785 C -4.909 -13.742 -5.055 -16.898 -5.202 -20.258 C -5.348 -23.395 -5.472 -27.098 -5.585 -31.367 C -5.692 -35.639 -5.747 -40.221 -5.747 -45.109 L -5.747 -52.117 C -5.747 -54.672 -5.73 -57.281 -5.692 -59.945 C -5.656 -62.611 -5.637 -65.256 -5.637 -67.883 L -5.637 -75 C -5.637 -75.293 -5.73 -75.529 -5.912 -75.713 C -6.095 -75.895 -6.368 -75.988 -6.732 -75.988 C -7.318 -75.988 -7.976 -75.621 -8.703 -74.893 C -14.909 -67.738 -20.565 -61.168 -25.676 -55.182 C -30.784 -49.197 -35.658 -43.486 -40.293 -38.049 C -44.928 -32.611 -49.472 -27.301 -53.924 -22.117 C -58.377 -16.936 -63.084 -11.57 -68.049 -6.021 L -68.049 -52.227 C -68.049 -55.949 -67.959 -59.307 -67.774 -62.299 C -67.594 -65.293 -67.136 -67.518 -66.405 -68.979 C -65.603 -70.658 -64.345 -71.92 -62.629 -72.756 C -60.913 -73.598 -58.56 -74.197 -55.567 -74.563 L -55.567 -75.658 L -82.501 -75.658 L -82.501 -74.563 C -80.748 -74.344 -78.998 -73.891 -77.246 -73.195 C -75.493 -72.502 -74.107 -71.354 -73.084 -69.744 C -72.063 -68.211 -71.406 -65.949 -71.113 -62.959 C -70.822 -59.965 -70.604 -56.389 -70.458 -52.227 C -70.311 -49.09 -70.202 -45.385 -70.127 -41.113 C -70.056 -36.844 -70.02 -32.264 -70.02 -27.373 L -70.02 -22.117 L -70.02 -18.066 L -70.02 -14.014 C -70.02 -12.557 -70.056 -10.768 -70.127 -8.648 C -70.348 -6.533 -70.858 -4.799 -71.663 -3.449 C -72.464 -2.098 -73.414 -1.039 -74.507 -.273 C -75.603 .492 -76.791 1.041 -78.067 1.369 C -79.345 1.697 -80.567 1.934 -81.733 2.08 L -81.733 3.176 L -59.507 3.176 L -7.607 -57.484 L -7.607 -20.258 C -7.607 -17.336 -7.648 -14.545 -7.719 -11.881 C -7.791 -9.217 -8.121 -7.117 -8.703 -5.584 C -9.435 -3.541 -10.729 -1.881 -12.591 -.602 C -14.452 .674 -17.136 1.568 -20.637 2.08 L -20.637 3.176 L 6.515 3.176 L 6.515 2.08 C 3.813 1.717 1.644 1.021 0 0 " fill="#231f20"/>
<path transform="matrix(1,0,0,-1,784.0049,549.9961)" d="M 0 0 L -67.009 0 L -67.009 1.096 C -65.184 1.387 -63.487 1.861 -61.916 2.52 C -60.348 3.176 -59.052 4.088 -58.028 5.256 C -57.664 5.693 -57.371 6.332 -57.153 7.172 C -56.935 8.01 -56.733 8.977 -56.55 10.072 C -56.368 11.168 -56.241 12.316 -56.166 13.521 C -56.096 14.727 -56.058 15.912 -56.058 17.082 C -56.058 18.104 -56.041 19.488 -56.004 21.24 C -55.968 22.992 -55.934 24.91 -55.893 26.99 C -55.858 29.07 -55.841 31.203 -55.841 33.395 L -55.841 39.746 L -55.841 61.094 C -55.841 62.412 -55.858 63.76 -55.893 65.146 C -55.934 66.533 -56.004 67.848 -56.113 69.088 C -56.223 70.33 -56.406 71.445 -56.661 72.428 C -56.917 73.416 -57.262 74.127 -57.701 74.563 C -58.797 75.73 -59.963 76.48 -61.203 76.807 C -62.447 77.137 -64.052 77.445 -66.021 77.738 L -66.021 78.834 L -5.583 78.834 L 1.861 60.768 L .769 60.221 C -5.145 67.592 -10.693 72.555 -15.874 75.111 C -17.116 75.693 -19.415 76.207 -22.771 76.645 C -26.13 77.082 -30.217 77.303 -35.035 77.303 C -36.569 77.303 -38.157 77.246 -39.797 77.137 C -41.44 77.027 -42.63 76.896 -43.357 76.754 C -43.505 75.584 -43.632 73.176 -43.741 69.525 C -43.85 65.877 -43.905 61.645 -43.905 56.828 L -43.905 49.818 C -43.905 47.92 -43.888 46.369 -43.85 45.164 C -43.813 43.961 -43.794 43.029 -43.794 42.373 L -43.794 41.168 L -41.605 41.168 C -40.511 41.168 -39.253 41.205 -37.827 41.279 C -36.405 41.352 -34.982 41.441 -33.557 41.551 C -32.134 41.662 -30.948 41.824 -29.999 42.045 C -27.812 42.555 -25.986 43.25 -24.524 44.125 C -23.063 45.002 -21.881 46.059 -20.966 47.299 C -20.055 48.541 -19.322 49.982 -18.777 51.627 C -18.229 53.268 -17.735 55.109 -17.299 57.154 L -15.985 57.154 L -15.985 22.666 L -17.299 22.666 C -17.884 25 -18.777 27.41 -19.979 29.891 C -21.185 32.371 -22.444 34.232 -23.759 35.475 C -24.925 36.496 -26.333 37.336 -27.974 37.992 C -29.616 38.65 -31.533 39.053 -33.722 39.197 C -34.817 39.27 -35.729 39.326 -36.461 39.363 C -37.188 39.396 -37.92 39.418 -38.649 39.418 L -40.841 39.418 L -43.685 39.418 C -43.832 38.395 -43.905 36.896 -43.905 34.928 L -43.905 28.795 L -43.905 25.512 L -43.905 21.789 C -43.905 20.621 -43.888 19.508 -43.85 18.449 C -43.813 17.391 -43.794 16.496 -43.794 15.766 C -43.722 13.432 -43.595 11.225 -43.411 9.143 C -43.229 7.062 -42.812 5.51 -42.153 4.49 C -41.496 3.465 -39.928 2.736 -37.444 2.299 C -34.963 1.861 -32.262 1.645 -29.342 1.645 C -28.103 1.645 -26.516 1.678 -24.58 1.752 C -22.646 1.824 -20.62 2.008 -18.504 2.299 C -16.167 2.592 -14.012 3.156 -12.043 3.998 C -10.072 4.834 -8.174 6.023 -6.35 7.555 C -4.524 9.088 -2.754 10.967 -1.04 13.195 C .676 15.42 2.446 18.104 4.271 21.24 L 5.476 20.914 Z " fill="#231f20"/>
<path transform="matrix(1,0,0,-1,164.021,670.4102)" d="M 0 0 L 0 1.104 C 2.876 1.234 5.283 1.84 7.225 2.908 C 9.165 3.98 10.469 5.217 11.139 6.623 C 11.541 7.488 11.841 8.58 12.042 9.883 C 12.242 11.189 12.375 12.506 12.443 13.846 C 12.576 18.262 12.644 22.475 12.644 26.492 L 12.644 38.932 L 12.644 67.33 C 10.435 62.381 8.412 57.83 6.573 53.684 C 4.732 49.535 2.911 45.486 1.104 41.541 C -.702 37.592 -2.526 33.564 -4.365 29.449 C -6.205 25.338 -8.229 20.803 -10.436 15.852 C -10.771 15.186 -11.238 14.129 -11.841 12.693 C -12.443 11.252 -13.045 9.781 -13.646 8.277 C -14.249 6.771 -14.817 5.4 -15.353 4.162 C -15.889 2.924 -16.223 2.105 -16.356 1.705 L -16.958 1.705 C -19.1 6.654 -21.223 11.57 -23.331 16.455 C -25.437 21.338 -27.495 26.039 -29.501 30.555 C -31.509 35.068 -33.382 39.301 -35.121 43.25 C -36.862 47.195 -38.433 50.707 -39.836 53.783 C -41.242 56.861 -42.396 59.436 -43.299 61.51 C -44.202 63.582 -44.821 64.99 -45.155 65.725 C -45.155 61.309 -45.172 57.412 -45.205 54.033 C -45.24 50.656 -45.273 47.313 -45.305 44.002 C -45.339 40.688 -45.356 37.191 -45.356 33.514 L -45.356 20.67 C -45.356 17.525 -45.256 14.799 -45.055 12.492 C -44.854 10.184 -44.352 8.242 -43.55 6.672 C -42.748 5.1 -41.526 3.863 -39.888 2.957 C -38.25 2.057 -35.99 1.402 -33.113 1.002 L -33.113 0 L -59.304 0 L -59.304 1.002 C -56.962 1.469 -55.056 2.154 -53.584 3.061 C -52.114 3.963 -50.942 5.217 -50.073 6.822 C -49.204 8.428 -48.566 10.418 -48.167 12.791 C -47.765 15.166 -47.531 18.061 -47.463 21.473 C -47.331 24.348 -47.229 27.744 -47.162 31.658 C -47.096 35.572 -47.062 39.768 -47.062 44.25 L -47.062 49.168 L -47.062 52.98 L -47.062 56.895 C -47.062 58.232 -47.096 59.869 -47.162 61.811 C -47.229 63.684 -47.63 65.207 -48.366 66.377 C -49.104 67.547 -49.972 68.467 -50.975 69.137 C -51.979 69.805 -53.05 70.291 -54.187 70.592 C -55.324 70.893 -56.294 71.109 -57.097 71.244 L -57.097 72.248 L -35.723 72.248 L -11.74 17.66 C -8.797 24.016 -5.921 30.336 -3.111 36.625 C -.301 42.912 2.223 48.598 4.466 53.684 C 6.706 58.768 8.545 62.998 9.985 66.377 C 11.422 69.754 12.242 71.711 12.443 72.248 L 33.817 72.248 L 33.817 71.244 C 31.072 71.176 28.982 70.607 27.545 69.539 C 26.105 68.467 25.119 67.195 24.584 65.725 C 24.183 64.588 23.916 62.813 23.781 60.408 C 23.647 57.998 23.548 55.623 23.481 53.281 C 23.413 50.072 23.381 46.961 23.381 43.949 L 23.381 34.818 L 23.381 23.98 C 23.381 20.434 23.413 16.689 23.481 12.744 C 23.481 11.469 23.564 10.184 23.732 8.881 C 23.898 7.574 24.183 6.555 24.584 5.82 C 24.651 5.684 24.902 5.367 25.337 4.865 C 25.771 4.365 26.391 3.828 27.194 3.26 C 27.996 2.689 29 2.189 30.204 1.754 C 31.409 1.316 32.813 1.068 34.418 1.002 L 34.418 0 Z " fill="#231f20"/>
<path transform="matrix(1,0,0,-1,271.7427,621.54299)" d="M 0 0 C -1.039 4.148 -2.61 7.91 -4.717 11.287 C -6.823 14.664 -9.451 17.408 -12.593 19.518 C -15.739 21.623 -19.452 22.68 -23.732 22.68 C -28.081 22.68 -31.845 21.623 -35.021 19.518 C -38.199 17.408 -40.808 14.684 -42.848 11.338 C -44.89 7.994 -46.394 4.195 -47.364 -.051 C -48.334 -4.301 -48.818 -8.598 -48.818 -12.943 C -48.818 -17.494 -48.284 -21.875 -47.213 -26.09 C -46.145 -30.305 -44.554 -34.018 -42.447 -37.227 C -40.34 -40.439 -37.698 -43.016 -34.519 -44.955 C -31.343 -46.896 -27.645 -47.865 -23.431 -47.865 C -19.218 -47.865 -15.555 -46.795 -12.443 -44.652 C -9.332 -42.514 -6.742 -39.752 -4.667 -36.375 C -2.594 -32.998 -1.039 -29.201 0 -24.986 C 1.036 -20.773 1.556 -16.559 1.556 -12.344 C 1.556 -8.262 1.036 -4.148 0 0 M 10.987 -27.094 C 8.98 -31.643 6.254 -35.59 2.809 -38.936 C -.637 -42.279 -4.651 -44.855 -9.233 -46.662 C -13.816 -48.467 -18.682 -49.371 -23.832 -49.371 C -28.918 -49.371 -33.735 -48.484 -38.283 -46.713 C -42.833 -44.938 -46.812 -42.43 -50.224 -39.184 C -53.635 -35.941 -56.329 -32.061 -58.302 -27.547 C -60.274 -23.029 -61.261 -18.062 -61.261 -12.645 C -61.261 -6.893 -60.226 -1.723 -58.151 2.859 C -56.079 7.439 -53.284 11.322 -49.771 14.5 C -46.26 17.678 -42.145 20.117 -37.429 21.826 C -32.713 23.529 -27.747 24.383 -22.528 24.383 C -16.843 24.383 -11.742 23.381 -7.225 21.373 C -2.71 19.365 1.119 16.672 4.263 13.295 C 7.408 9.916 9.816 6.02 11.489 1.605 C 13.161 -2.811 13.997 -7.426 13.997 -12.242 C 13.997 -17.596 12.995 -22.543 10.987 -27.094 " fill="#231f20"/>
<path transform="matrix(1,0,0,-1,344.0396,607.8965)" d="M 0 0 C -1.672 2.607 -4.114 4.682 -7.323 6.223 C -8.929 6.955 -10.62 7.494 -12.391 7.828 C -14.166 8.16 -16.021 8.328 -17.961 8.328 C -19.366 8.328 -20.503 8.293 -21.373 8.229 C -22.243 8.16 -22.913 8.094 -23.379 8.027 C -23.447 7.625 -23.514 7.273 -23.581 6.975 C -23.646 6.674 -23.697 6.289 -23.73 5.82 C -23.765 5.354 -23.798 4.699 -23.831 3.863 C -23.866 3.025 -23.915 1.84 -23.982 .299 C -24.049 -2.041 -24.1 -4.684 -24.133 -7.627 C -24.167 -10.57 -24.182 -13.412 -24.182 -16.154 L -24.182 -23.381 L -24.182 -27.195 C -21.44 -27.195 -18.881 -27.078 -16.507 -26.842 C -14.132 -26.609 -11.839 -26.123 -9.632 -25.387 C -7.494 -24.719 -5.654 -23.814 -4.114 -22.678 C -2.574 -21.541 -1.322 -20.256 -.351 -18.812 C .62 -17.379 1.337 -15.822 1.809 -14.15 C 2.274 -12.477 2.51 -10.738 2.51 -8.93 C 2.51 -5.588 1.672 -2.609 0 0 M 9.935 -62.514 C 9.333 -61.914 8.897 -61.463 8.632 -61.162 C 8.363 -60.859 8.063 -60.508 7.727 -60.105 C 7.392 -59.705 6.975 -59.119 6.472 -58.352 C 5.972 -57.582 5.186 -56.428 4.116 -54.889 C 2.843 -53.018 1.723 -51.324 .752 -49.82 C -.217 -48.316 -1.202 -46.828 -2.208 -45.355 C -3.208 -43.885 -4.297 -42.396 -5.468 -40.891 C -6.637 -39.387 -8.025 -37.699 -9.632 -35.824 C -10.971 -34.283 -12.426 -32.848 -13.997 -31.508 C -15.57 -30.17 -17.226 -29.336 -18.965 -29 C -20.235 -28.734 -21.206 -28.598 -21.875 -28.598 C -22.476 -28.598 -23.246 -28.564 -24.182 -28.498 L -24.182 -39.836 C -24.182 -43.047 -24.149 -45.758 -24.082 -47.965 C -24.016 -50.107 -23.95 -51.945 -23.88 -53.484 C -23.816 -55.025 -23.447 -56.293 -22.777 -57.297 C -22.243 -58.168 -21.206 -59.053 -19.666 -59.957 C -18.127 -60.859 -15.989 -61.379 -13.245 -61.512 L -13.245 -62.514 L -45.355 -62.514 L -45.355 -61.512 C -43.683 -61.244 -42.078 -60.842 -40.539 -60.309 C -39 -59.773 -37.796 -58.971 -36.926 -57.898 C -36.593 -57.496 -36.324 -56.896 -36.124 -56.094 C -35.923 -55.291 -35.772 -54.385 -35.671 -53.385 C -35.572 -52.381 -35.488 -51.311 -35.421 -50.172 C -35.355 -49.037 -35.32 -47.934 -35.32 -46.861 C -35.32 -45.926 -35.304 -44.654 -35.269 -43.047 C -35.238 -41.441 -35.205 -39.688 -35.17 -37.779 C -35.137 -35.873 -35.119 -33.916 -35.119 -31.91 L -35.119 -26.09 L -35.119 -6.523 C -35.119 -5.318 -35.137 -4.098 -35.17 -2.857 C -35.205 -1.623 -35.269 -.453 -35.372 .654 C -35.47 1.758 -35.639 2.76 -35.872 3.662 C -36.107 4.564 -36.423 5.219 -36.826 5.619 C -37.829 6.689 -38.95 7.408 -40.188 7.777 C -41.426 8.145 -42.946 8.463 -44.753 8.73 L -44.753 9.734 L -40.639 9.734 C -38.365 9.734 -35.79 9.75 -32.913 9.785 C -30.037 9.816 -27.16 9.834 -24.283 9.834 L -17.259 9.834 C -12.777 9.834 -8.796 9.699 -5.317 9.434 C -1.84 9.166 1.337 8.262 4.215 6.725 C 7.158 5.186 9.532 3.094 11.341 .451 C 13.146 -2.191 14.05 -5.518 14.05 -9.533 C 14.05 -12.01 13.598 -14.234 12.695 -16.205 C 11.792 -18.182 10.589 -19.92 9.083 -21.424 C 7.578 -22.93 5.821 -24.217 3.813 -25.287 C 1.809 -26.357 -.3 -27.262 -2.508 -27.996 L -2.508 -28.299 C -1.372 -28.898 -.266 -29.768 .803 -30.906 C 1.872 -32.045 2.912 -33.316 3.915 -34.719 C 5.652 -37.262 7.543 -40.006 9.583 -42.947 C 11.623 -45.893 13.447 -48.502 15.053 -50.775 C 17.526 -54.254 19.935 -56.795 22.278 -58.402 C 24.618 -60.008 27.361 -61.045 30.504 -61.512 L 30.504 -62.514 Z " fill="#231f20"/>
<path transform="matrix(1,0,0,-1,451.3057,617.0293)" d="M 0 0 C -.534 1.205 -1.169 2.461 -1.906 3.764 C -2.644 5.068 -3.396 6.289 -4.163 7.428 C -4.933 8.563 -5.685 9.617 -6.421 10.586 C -7.158 11.559 -7.793 12.275 -8.327 12.746 C -9.731 14.084 -11.255 14.969 -12.893 15.404 C -14.533 15.838 -16.624 16.088 -19.167 16.158 C -20.437 16.158 -21.541 16.174 -22.476 16.209 C -23.416 16.24 -24.351 16.258 -25.287 16.258 L -28.196 16.258 L -31.908 16.258 C -31.908 14.584 -31.927 12.311 -31.958 9.432 C -31.993 6.555 -32.01 3.545 -32.01 .402 L -32.01 -8.928 L -32.01 -16.555 L -32.01 -38.832 C -32.01 -40.773 -31.958 -42.629 -31.858 -44.402 C -31.759 -46.174 -31.441 -47.43 -30.907 -48.164 C -29.901 -49.635 -28.481 -50.641 -26.641 -51.176 C -24.801 -51.709 -23.147 -52.111 -21.673 -52.379 L -21.673 -53.381 L -54.288 -53.381 L -54.288 -52.379 C -52.548 -52.178 -50.876 -51.844 -49.27 -51.375 C -47.663 -50.91 -46.091 -49.803 -44.553 -48.064 C -44.216 -47.729 -43.967 -47.178 -43.799 -46.406 C -43.634 -45.639 -43.499 -44.77 -43.398 -43.799 C -43.296 -42.83 -43.233 -41.775 -43.199 -40.637 C -43.165 -39.502 -43.148 -38.398 -43.148 -37.326 C -43.148 -36.391 -43.133 -35.154 -43.098 -33.615 C -43.065 -32.074 -43.031 -30.371 -42.996 -28.496 C -42.965 -26.623 -42.947 -24.684 -42.947 -22.674 L -42.947 -16.957 L -42.947 16.258 L -46.662 16.258 L -49.57 16.258 C -50.439 16.258 -51.359 16.24 -52.33 16.209 C -53.3 16.174 -54.419 16.158 -55.691 16.158 C -58.233 16.088 -60.322 15.789 -61.961 15.254 C -63.602 14.719 -65.123 13.783 -66.529 12.445 C -67.063 11.975 -67.682 11.273 -68.385 10.338 C -69.088 9.398 -69.823 8.381 -70.592 7.277 C -71.36 6.172 -72.097 4.984 -72.799 3.715 C -73.502 2.443 -74.054 1.205 -74.457 0 L -75.357 .303 L -72.348 19.367 C -70.811 19.031 -69.388 18.766 -68.082 18.566 C -66.779 18.363 -64.888 18.229 -62.413 18.166 C -59.871 18.096 -57.597 18.047 -55.59 18.014 C -53.582 17.979 -51.645 17.963 -49.77 17.963 L -44.05 17.963 L -37.327 17.963 L -30.704 17.963 C -28.699 17.963 -26.758 17.979 -24.885 18.014 C -23.013 18.047 -21.073 18.08 -19.064 18.115 C -17.058 18.146 -14.784 18.166 -12.241 18.166 C -10.035 18.229 -8.21 18.416 -6.772 18.715 C -5.335 19.016 -3.847 19.4 -2.308 19.869 L .905 .303 Z " fill="#231f20"/>
<path transform="matrix(1,0,0,-1,532.4873,637.8496)" d="M 0 0 C -1.341 -.434 -2.309 -1.121 -2.912 -2.057 C -3.38 -2.795 -3.648 -3.932 -3.712 -5.469 C -3.781 -7.008 -3.813 -8.545 -3.813 -10.086 L -3.813 -24.736 C -4.283 -25.135 -5.437 -25.805 -7.274 -26.74 C -9.115 -27.68 -11.357 -28.631 -14 -29.604 C -16.644 -30.572 -19.568 -31.393 -22.78 -32.061 C -25.989 -32.729 -29.201 -33.064 -32.412 -33.064 C -38.77 -33.064 -44.453 -32.246 -49.473 -30.604 C -54.487 -28.967 -58.72 -26.557 -62.164 -23.381 C -65.61 -20.203 -68.253 -16.322 -70.093 -11.74 C -71.934 -7.16 -72.851 -2.025 -72.851 3.662 C -72.851 5.334 -72.685 7.258 -72.351 9.432 C -72.016 11.605 -71.431 13.898 -70.593 16.307 C -69.757 18.715 -68.588 21.158 -67.079 23.633 C -65.575 26.105 -63.688 28.447 -61.411 30.654 C -58.202 33.801 -54.256 36.326 -49.57 38.232 C -44.891 40.139 -39.202 41.092 -32.513 41.092 C -28.501 41.092 -24.952 40.74 -21.876 40.039 C -18.799 39.336 -16.207 38.566 -14.098 37.73 C -11.992 36.893 -10.37 36.125 -9.232 35.422 C -8.098 34.721 -7.461 34.369 -7.326 34.369 C -7.192 34.369 -6.823 34.77 -6.223 35.572 C -5.621 36.375 -4.884 37.344 -4.015 38.484 L -3.111 38.484 L -3.111 16.607 L -4.315 16.607 C -5.052 19.617 -6.155 22.461 -7.626 25.137 C -9.1 27.812 -10.671 30.018 -12.344 31.758 C -14.483 34.031 -17.229 35.875 -20.569 37.279 C -23.918 38.684 -27.661 39.387 -31.81 39.387 C -36.224 39.387 -40.204 38.398 -43.753 36.424 C -47.296 34.453 -50.307 31.809 -52.782 28.498 C -55.259 25.187 -57.165 21.375 -58.502 17.059 C -59.843 12.744 -60.51 8.213 -60.51 3.463 C -60.51 -1.756 -59.874 -6.521 -58.603 -10.838 C -57.333 -15.152 -55.492 -18.85 -53.082 -21.926 C -50.673 -25.002 -47.733 -27.395 -44.252 -29.1 C -40.774 -30.807 -36.793 -31.658 -32.313 -31.658 C -29.101 -31.658 -26.106 -31.107 -23.33 -30.004 C -20.555 -28.9 -18.363 -27.111 -16.758 -24.635 C -16.224 -23.766 -15.821 -22.227 -15.553 -20.02 C -15.286 -17.812 -15.154 -15.537 -15.154 -13.197 C -15.154 -10.854 -15.271 -8.748 -15.504 -6.871 C -15.738 -5 -16.425 -3.461 -17.561 -2.256 C -19.101 -.518 -21.81 .518 -25.689 .852 L -25.689 1.857 L 3.712 1.857 L 3.712 .852 C 2.574 .719 1.337 .434 0 0 " fill="#231f20"/>
<path transform="matrix(1,0,0,-1,576.9395,609.60159)" d="M 0 0 C -.402 -.873 -.989 -2.244 -1.758 -4.115 C -2.526 -5.988 -3.48 -8.264 -4.617 -10.939 C -5.755 -13.613 -7.01 -16.643 -8.38 -20.02 C -9.752 -23.4 -11.24 -27.062 -12.847 -31.008 L 12.141 -31.008 C 11.003 -27.996 9.849 -24.988 8.678 -21.977 C 7.509 -18.967 6.371 -16.074 5.268 -13.295 C 4.163 -10.521 3.159 -7.977 2.257 -5.67 C 1.354 -3.363 .6 -1.473 0 0 M 13.143 -60.809 L 13.143 -59.807 C 13.346 -59.807 13.829 -59.74 14.598 -59.605 C 15.366 -59.473 16.169 -59.238 17.006 -58.902 C 17.843 -58.568 18.578 -58.1 19.214 -57.5 C 19.849 -56.896 20.169 -56.127 20.169 -55.191 C 20.169 -54.588 19.982 -53.602 19.615 -52.229 C 19.249 -50.859 18.729 -49.188 18.06 -47.215 C 17.392 -45.24 16.621 -43.051 15.752 -40.641 C 14.883 -38.23 13.946 -35.725 12.943 -33.117 L -13.748 -33.117 C -14.753 -35.658 -15.724 -38.082 -16.66 -40.389 C -17.596 -42.697 -18.532 -45.023 -19.467 -47.363 C -20.875 -50.977 -21.575 -53.52 -21.575 -54.988 C -21.575 -55.859 -21.31 -56.58 -20.772 -57.148 C -20.238 -57.717 -19.553 -58.186 -18.715 -58.553 C -17.881 -58.92 -16.976 -59.188 -16.006 -59.355 C -15.038 -59.523 -14.117 -59.674 -13.249 -59.807 L -13.249 -60.809 L -34.621 -60.809 L -34.621 -59.705 C -32.88 -59.506 -31.393 -59.039 -30.154 -58.303 C -28.918 -57.566 -28.197 -57.063 -27.998 -56.797 C -27.529 -56.328 -26.761 -55.227 -25.689 -53.484 C -24.621 -51.746 -23.315 -49.168 -21.775 -45.756 C -20.372 -42.613 -18.801 -39.035 -17.061 -35.021 C -15.321 -31.008 -13.532 -26.877 -11.692 -22.629 C -9.853 -18.383 -8.028 -14.098 -6.223 -9.785 C -4.417 -5.471 -2.711 -1.441 -1.104 2.309 L -2.109 4.516 C -.904 5.051 .183 5.686 1.154 6.422 C 2.122 7.156 2.975 7.928 3.711 8.73 C 4.448 9.533 5.065 10.301 5.568 11.039 C 6.069 11.771 6.453 12.375 6.723 12.844 L 7.525 12.844 C 9.6 7.291 11.571 2.021 13.443 -2.961 C 15.317 -7.945 17.108 -12.744 18.812 -17.361 C 20.52 -21.977 22.176 -26.441 23.78 -30.756 C 25.386 -35.07 26.992 -39.336 28.598 -43.551 C 29.332 -45.623 30.018 -47.348 30.654 -48.719 C 31.289 -50.092 32.009 -51.646 32.813 -53.383 C 32.945 -53.652 33.246 -54.123 33.714 -54.789 C 34.181 -55.461 34.801 -56.143 35.572 -56.846 C 36.338 -57.549 37.292 -58.166 38.432 -58.703 C 39.569 -59.238 40.903 -59.539 42.446 -59.605 L 42.446 -60.809 Z " fill="#231f20"/>
<path transform="matrix(1,0,0,-1,697.7568,637.8496)" d="M 0 0 C -1.341 -.434 -2.309 -1.121 -2.912 -2.057 C -3.38 -2.795 -3.649 -3.932 -3.712 -5.469 C -3.782 -7.008 -3.814 -8.545 -3.814 -10.086 L -3.814 -24.736 C -4.284 -25.135 -5.438 -25.805 -7.275 -26.74 C -9.115 -27.68 -11.357 -28.631 -14.001 -29.604 C -16.644 -30.572 -19.569 -31.393 -22.781 -32.061 C -25.989 -32.729 -29.203 -33.064 -32.412 -33.064 C -38.77 -33.064 -44.455 -32.246 -49.473 -30.604 C -54.487 -28.967 -58.722 -26.557 -62.164 -23.381 C -65.61 -20.203 -68.253 -16.322 -70.094 -11.74 C -71.934 -7.16 -72.851 -2.025 -72.851 3.662 C -72.851 5.334 -72.686 7.258 -72.351 9.432 C -72.017 11.605 -71.431 13.898 -70.594 16.307 C -69.759 18.715 -68.588 21.158 -67.081 23.633 C -65.576 26.105 -63.688 28.447 -61.412 30.654 C -58.202 33.801 -54.256 36.326 -49.57 38.232 C -44.891 40.139 -39.204 41.092 -32.513 41.092 C -28.501 41.092 -24.952 40.74 -21.877 40.039 C -18.801 39.336 -16.208 38.566 -14.1 37.73 C -11.992 36.893 -10.371 36.125 -9.232 35.422 C -8.098 34.721 -7.461 34.369 -7.326 34.369 C -7.194 34.369 -6.823 34.77 -6.223 35.572 C -5.621 36.375 -4.886 37.344 -4.016 38.484 L -3.111 38.484 L -3.111 16.607 L -4.317 16.607 C -5.053 19.617 -6.157 22.461 -7.626 25.137 C -9.101 27.812 -10.672 30.018 -12.344 31.758 C -14.484 34.031 -17.229 35.875 -20.571 37.279 C -23.919 38.684 -27.663 39.387 -31.812 39.387 C -36.225 39.387 -40.206 38.398 -43.753 36.424 C -47.298 34.453 -50.308 31.809 -52.784 28.498 C -55.259 25.187 -57.165 21.375 -58.502 17.059 C -59.843 12.744 -60.511 8.213 -60.511 3.463 C -60.511 -1.756 -59.875 -6.521 -58.604 -10.838 C -57.333 -15.152 -55.493 -18.85 -53.084 -21.926 C -50.675 -25.002 -47.733 -27.395 -44.253 -29.1 C -40.775 -30.807 -36.795 -31.658 -32.313 -31.658 C -29.102 -31.658 -26.106 -31.107 -23.332 -30.004 C -20.555 -28.9 -18.364 -27.111 -16.758 -24.635 C -16.224 -23.766 -15.823 -22.227 -15.554 -20.02 C -15.287 -17.812 -15.155 -15.537 -15.155 -13.197 C -15.155 -10.854 -15.272 -8.748 -15.506 -6.871 C -15.74 -5 -16.426 -3.461 -17.561 -2.256 C -19.101 -.518 -21.81 .518 -25.689 .852 L -25.689 1.857 L 3.711 1.857 L 3.711 .852 C 2.573 .719 1.337 .434 0 0 " fill="#231f20"/>
<path transform="matrix(1,0,0,-1,776.3242,670.4102)" d="M 0 0 L -61.411 0 L -61.411 1.002 C -59.739 1.27 -58.184 1.705 -56.745 2.307 C -55.307 2.908 -54.121 3.746 -53.182 4.814 C -52.85 5.217 -52.581 5.801 -52.379 6.572 C -52.179 7.34 -51.996 8.227 -51.829 9.23 C -51.661 10.234 -51.544 11.285 -51.479 12.393 C -51.41 13.496 -51.376 14.58 -51.376 15.652 C -51.376 16.588 -51.361 17.859 -51.326 19.467 C -51.293 21.072 -51.259 22.826 -51.225 24.734 C -51.193 26.641 -51.177 28.598 -51.177 30.604 L -51.177 36.424 L -51.177 55.99 C -51.177 57.195 -51.193 58.432 -51.225 59.705 C -51.259 60.973 -51.326 62.178 -51.427 63.316 C -51.527 64.453 -51.695 65.473 -51.93 66.377 C -52.164 67.281 -52.48 67.934 -52.882 68.334 C -53.884 69.404 -54.956 70.09 -56.094 70.393 C -57.232 70.693 -58.702 70.977 -60.508 71.244 L -60.508 72.248 L -5.117 72.248 L 1.706 55.689 L .702 55.188 C -4.715 61.943 -9.802 66.494 -14.552 68.836 C -15.689 69.371 -17.795 69.84 -20.872 70.24 C -23.949 70.643 -27.695 70.842 -32.112 70.842 C -33.516 70.842 -34.97 70.793 -36.476 70.693 C -37.98 70.592 -39.067 70.475 -39.738 70.342 C -39.87 69.27 -39.987 67.063 -40.09 63.719 C -40.187 60.373 -40.238 56.492 -40.238 52.078 L -40.238 45.654 C -40.238 43.916 -40.222 42.496 -40.187 41.393 C -40.155 40.287 -40.139 39.436 -40.139 38.832 L -40.139 37.729 L -38.132 37.729 C -37.127 37.729 -35.973 37.764 -34.67 37.83 C -33.364 37.895 -32.061 37.979 -30.755 38.078 C -29.452 38.18 -28.364 38.332 -27.495 38.531 C -25.487 38.998 -23.815 39.635 -22.478 40.438 C -21.141 41.24 -20.053 42.209 -19.215 43.346 C -18.381 44.484 -17.71 45.807 -17.21 47.313 C -16.707 48.816 -16.255 50.504 -15.854 52.379 L -14.649 52.379 L -14.649 20.771 L -15.854 20.771 C -16.392 22.908 -17.21 25.119 -18.314 27.393 C -19.418 29.666 -20.572 31.373 -21.775 32.512 C -22.844 33.447 -24.132 34.215 -25.639 34.818 C -27.145 35.42 -28.898 35.787 -30.907 35.924 C -31.909 35.99 -32.747 36.041 -33.415 36.072 C -34.084 36.105 -34.755 36.123 -35.422 36.123 L -37.43 36.123 L -40.038 36.123 C -40.172 35.186 -40.238 33.814 -40.238 32.01 L -40.238 26.389 L -40.238 23.381 L -40.238 19.969 C -40.238 18.896 -40.222 17.875 -40.187 16.908 C -40.155 15.938 -40.139 15.115 -40.139 14.449 C -40.073 12.309 -39.956 10.283 -39.786 8.377 C -39.621 6.471 -39.235 5.049 -38.632 4.111 C -38.03 3.178 -36.592 2.506 -34.318 2.105 C -32.045 1.705 -29.569 1.504 -26.892 1.504 C -25.756 1.504 -24.302 1.537 -22.529 1.605 C -20.755 1.672 -18.898 1.84 -16.958 2.105 C -14.817 2.373 -12.844 2.893 -11.038 3.66 C -9.23 4.428 -7.494 5.52 -5.819 6.924 C -4.149 8.326 -2.526 10.049 -.952 12.09 C .619 14.129 2.24 16.588 3.914 19.467 L 5.017 19.166 Z " fill="#231f20"/>
<path transform="matrix(1,0,0,-1,0,864)" d="M 610.434 440.078 L 258.84004 440.078 L 258.84004 699.016 L 610.434 699.016 Z " fill="#a7a9ac"/>
<path transform="matrix(1,0,0,-1,0,864)" d="M 610.43 694.386 L 258.84 694.386 L 258.84 723.073 L 610.43 723.073 Z " fill="#a30134"/>
<path transform="matrix(1,0,0,-1,570.5156,246.60248)" d="M 0 0 C 0 8.251 -10.085 12.379 -30.248 12.379 C -36.55 12.379 -44.049 11.675 -52.743 10.267 C -37.746 2.012 -25.331 -7.6 -15.5 -18.57 C -5.171 -11.527 0 -5.336 0 0 M -18.338 -20.08 C -28.043 -8.908 -41.089 1.006 -57.47 9.662 C -81.038 4.529 -104.039 -4.303 -126.472 -16.834 C -148.905 -29.365 -167.306 -43.632 -181.674 -59.636 C -155.333 -59.636 -126.187 -55.785 -94.238 -48.086 C -62.29 -40.385 -36.991 -31.05 -18.338 -20.08 M -62.763 12.379 C -101.078 30.095 -141.848 38.952 -185.074 38.952 C -211.796 38.952 -235.144 33.918 -255.117 23.855 C -275.094 13.789 -285.081 2.012 -285.081 -11.473 C -285.081 -35.531 -259.497 -51.081 -208.329 -58.125 C -176.568 -22.797 -128.049 .704 -62.763 12.379 M 3.025 0 C 3.025 -6.543 -2.646 -13.337 -13.99 -20.381 C -3.656 -32.561 1.513 -43.782 1.513 -54.048 C 1.513 -56.565 .568 -57.823 -1.322 -57.823 C -2.836 -57.823 -3.591 -56.163 -3.591 -52.842 C -3.591 -42.778 -8.005 -32.561 -16.825 -22.193 C -35.101 -33.064 -59.961 -42.45 -91.403 -50.35 C -122.85 -58.252 -150.735 -62.201 -175.055 -62.201 C -178.459 -62.201 -181.42 -62.104 -183.942 -61.899 C -204.108 -84.345 -214.188 -105.984 -214.188 -126.819 C -214.188 -141.01 -208.677 -152.235 -197.647 -160.487 C -186.62 -168.738 -171.59 -172.867 -152.56 -172.867 C -116.641 -172.867 -84.631 -159.129 -56.525 -131.65 C -39.51 -115.043 -31.003 -99.293 -31.003 -84.395 C -31.003 -76.544 -33.959 -70.305 -39.873 -65.674 C -45.788 -61.045 -53.649 -58.728 -63.463 -58.728 C -79.19 -58.728 -96.084 -65.349 -114.136 -78.582 C -132.191 -91.82 -141.216 -104.174 -141.216 -115.648 C -141.216 -116.654 -140.841 -117.156 -140.091 -117.156 C -139.469 -117.057 -138.969 -116.855 -138.594 -116.553 C -135.221 -114.137 -132.098 -112.93 -129.225 -112.93 C -122.853 -112.93 -119.666 -115.699 -119.666 -121.233 C -119.666 -128.683 -124.203 -132.406 -133.276 -132.406 C -141.596 -132.406 -145.755 -128.381 -145.755 -120.328 C -145.755 -105.936 -136.619 -91.668 -118.343 -77.525 C -100.069 -63.385 -81.544 -56.315 -62.763 -56.315 C -38.565 -56.315 -26.467 -66.934 -26.467 -88.17 C -26.467 -110.113 -39.605 -130.117 -65.882 -148.183 C -92.158 -166.25 -121.305 -175.282 -153.318 -175.282 C -175.624 -175.282 -194.37 -169.293 -209.556 -157.316 C -224.745 -145.34 -232.337 -130.544 -232.337 -112.93 C -232.337 -95.82 -224.841 -78.256 -209.841 -60.24 C -264.413 -52.188 -291.697 -34.977 -291.697 -8.605 C -291.697 7.096 -281.555 20.231 -261.261 30.799 C -240.972 41.368 -215.701 46.651 -185.455 46.651 C -143.233 46.651 -100.572 35.427 -57.47 12.984 C -50.034 14.192 -42.411 14.796 -34.596 14.796 C -9.518 14.796 3.025 9.863 3.025 0 " fill="#231f20"/>
</g>
<g id="Layer-1" data-name="Layer">
<g id="Layer-2" data-name="AltAI8">
</g>
</g>
<g id="Layer-1" data-name="Layer">
<g id="Layer-2" data-name="AltAI8">
</g>
</g>
<g id="Layer-1" data-name="Layer">
<g id="Layer-2" data-name="AltAI8">
</g>
</g>
</g>
</g>
</svg>
