<svg width="512" height="256" viewBox="0 0 512 256" fill="none" xmlns="http://www.w3.org/2000/svg">
<path fill-rule="evenodd" clip-rule="evenodd" d="M150.318 137V136.773C150.318 136.659 150.394 136.091 150.545 135.523C150.659 134.992 151.114 133.856 151.492 133.098C151.909 132.303 152.818 130.977 153.538 130.144L154.864 128.667H155.015C155.091 128.667 155.962 128.212 156.909 127.72C157.894 127.227 159.485 126.697 160.432 126.583C161.417 126.47 162.856 126.28 163.652 126.167L165.091 126.015L166.758 126.356C167.667 126.545 169.068 127 169.864 127.303C170.621 127.644 171.833 128.326 172.515 128.856C173.197 129.386 174.182 130.371 174.712 131.053C175.242 131.735 175.697 132.417 175.697 132.568V132.833V132.909C175.697 132.947 176 133.515 176.341 134.159C176.833 134.992 176.985 136.242 176.985 139.083C176.985 142.379 176.871 143.136 176 144.992C175.432 146.167 174.295 147.833 173.424 148.667C172.553 149.538 170.848 150.674 169.674 151.242C167.78 152.189 167.098 152.303 163.765 152.303C160.356 152.303 159.712 152.189 157.591 151.242C156.189 150.598 154.598 149.462 153.689 148.477C152.856 147.568 151.795 146.015 151.379 145.03C150.886 143.932 150.508 142.114 150.432 140.409C150.318 138.818 150.28 137.417 150.28 137.265L150.318 137ZM155.621 136.621L155.583 136.318C155.545 136.167 155.962 135.258 156.455 134.348C157.061 133.212 158.008 132.227 159.144 131.508C160.356 130.75 161.606 130.371 163.008 130.258C164.409 130.106 165.621 130.258 166.795 130.712C167.742 131.091 168.992 131.886 169.636 132.492C170.242 133.136 170.773 133.705 170.773 133.78V133.97H170.962C171.076 133.97 171.341 134.424 171.53 134.992C171.758 135.561 172.098 136.773 172.326 137.758C172.553 138.932 172.553 140.068 172.288 141.318C172.061 142.303 171.644 143.553 171.341 144.121C171.038 144.689 170.242 145.674 169.561 146.356C168.841 147 167.553 147.833 166.644 148.136C165.735 148.477 164.409 148.742 163.727 148.742C163.083 148.742 161.758 148.477 160.848 148.136C159.939 147.833 158.652 147 157.932 146.356C157.25 145.674 156.417 144.651 156.152 144.083C155.848 143.553 155.432 142.189 155.205 141.129C154.939 140.068 154.864 138.629 155.015 137.909C155.167 137.189 155.318 136.621 155.432 136.621H155.621Z" fill="#1C295C"/>
<path fill-rule="evenodd" clip-rule="evenodd" d="M281.758 139.273V139.159C281.758 139.121 281.909 138.098 282.098 136.924C282.288 135.75 282.856 133.932 283.386 132.909C283.917 131.848 285.129 130.333 286.114 129.462C287.098 128.629 288.841 127.53 290.015 127.076C291.682 126.432 292.932 126.242 295.773 126.242C298.576 126.242 299.826 126.432 301.455 127.076C302.591 127.53 303.917 128.212 304.409 128.591L305.28 129.273L303.765 130.939C302.439 132.417 302.174 132.568 301.568 132.152C301.189 131.886 300.356 131.394 299.75 131.053C299.106 130.712 297.477 130.333 296.152 130.258C293.955 130.106 293.424 130.22 291.606 131.167C290.129 131.962 289.22 132.795 288.424 134.008C287.856 134.992 287.288 136.47 287.212 137.303L287.061 138.894L287.023 138.97C286.985 139.008 286.909 139.273 286.795 139.538C286.682 139.803 286.871 140.939 287.212 142.114C287.629 143.515 288.348 144.803 289.371 145.902C290.545 147.189 291.455 147.758 293.045 148.212C294.371 148.591 295.848 148.742 297.061 148.629C298.121 148.515 299.447 148.212 300.015 147.985C301.076 147.606 301.076 147.568 300.962 144.462L300.886 141.356L298.311 141.242L295.773 141.129V139.803C295.773 139.083 295.659 138.515 295.583 138.515H295.394V138.326C295.394 138.212 295.394 138.023 295.394 137.947C295.394 137.833 297.515 137.758 300.129 137.758H304.864H305.053C305.129 137.758 305.242 140.598 305.242 144.121V150.485L304.22 150.939C303.652 151.205 302.174 151.659 300.924 151.962C299.636 152.265 297.402 152.492 295.924 152.492C294.447 152.492 292.326 152.227 291.227 151.924C290.091 151.583 288.727 151.053 288.197 150.712C287.667 150.371 286.568 149.5 285.773 148.742C284.977 148.023 283.879 146.545 283.386 145.523C282.818 144.462 282.326 142.72 282.212 141.47C282.098 140.258 281.947 139.273 281.871 139.273H281.758Z" fill="#1C295C"/>
<path fill-rule="evenodd" clip-rule="evenodd" d="M115.848 132.076V131.886C115.848 131.773 115.848 130.561 115.848 129.235V126.773H117.742H119.636H121.341C122.591 126.773 123.045 126.886 123.045 127.341C123.045 127.644 123.121 127.909 123.235 127.909H123.424L124.939 132.265L126.455 136.621L126.644 136.811L126.833 137V137.265C126.833 137.417 127.364 139.008 128.008 140.788C128.652 142.53 129.295 144.121 129.447 144.273C129.561 144.424 130.242 143.023 130.886 141.205C131.568 139.348 132.136 137.72 132.136 137.606V137.379L133.652 133.402L135.167 129.424L135.318 129.121C135.394 128.932 135.583 128.364 135.735 127.795C136 126.773 136 126.773 139.561 126.773H143.121V128.098C143.121 128.818 143.121 129.5 143.121 129.614V129.803V131.697C143.121 132.72 143.121 133.667 143.121 133.78C143.121 133.856 143.121 134.727 143.121 135.674V137.379V137.568C143.121 137.644 143.121 140.902 143.121 144.765V151.773H141.038H138.955V144.765C138.955 140.902 138.841 137.758 138.765 137.758H138.576V137.455C138.576 137.303 138.538 136.167 138.462 134.917L138.386 132.644L137.326 135.182L136.303 137.758L136.265 137.833C136.227 137.871 135.47 139.879 134.523 142.303C133.614 144.689 132.402 147.795 131.871 149.197L130.924 151.773H129.333H127.742L124.826 143.856C123.197 139.5 121.871 135.826 121.871 135.712L121.909 135.485L121.53 135.295L121.417 135.182L121.341 134.917L121.152 134.727V134.538C121.152 134.424 121.152 134.235 121.152 134.159V133.97L120.962 133.78L120.773 133.591V133.402C120.773 133.288 120.773 133.098 120.773 133.023V132.833L120.583 132.644L120.394 132.833V133.402C120.394 133.705 120.394 134.045 120.394 134.159C120.394 134.235 120.394 134.5 120.394 134.727V135.106H120.205C120.091 135.106 120.015 138.856 120.015 143.439V151.773H117.932H115.848V141.924V132.076Z" fill="#1C295C"/>
<path fill-rule="evenodd" clip-rule="evenodd" d="M184.409 130.561V130.371C184.409 130.258 184.409 129.386 184.409 128.477V126.773H189.902H195.394L196.795 127.152C197.591 127.379 198.841 127.947 199.561 128.439C200.318 128.932 201.227 129.917 201.568 130.674C201.909 131.394 202.212 132.871 202.212 133.932C202.212 134.992 201.947 136.356 201.644 136.962C201.341 137.53 200.545 138.477 199.902 139.008C199.258 139.576 198.311 140.106 197.818 140.258C197.288 140.371 196.909 140.674 196.909 140.902C196.909 141.129 198.273 143.591 199.939 146.394C201.606 149.159 202.97 151.508 202.97 151.583C202.97 151.697 201.795 151.735 200.394 151.735H197.856L195.015 146.545L192.174 141.356L190.356 141.205L188.576 141.091V146.432V151.773H186.492H184.409V141.356C184.409 135.598 184.409 130.826 184.409 130.75V130.561ZM188.765 137.492C188.652 137.341 188.576 135.712 188.576 133.894V130.561H191.682C195.735 130.561 197.326 131.242 197.818 133.288C198.121 134.5 198.045 134.879 197.402 135.75C196.985 136.318 196.076 137 195.432 137.265C194.182 137.758 189.068 137.909 188.765 137.492Z" fill="#1C295C"/>
<path fill-rule="evenodd" clip-rule="evenodd" d="M209.409 139.273V126.773H212.364H215.356L220.697 135.371C223.651 140.106 226.303 144.348 226.606 144.765C227.098 145.409 227.174 144.538 227.174 136.129L227.212 126.773H229.485H231.758V139.273V151.773H228.803H225.848L219.977 142.189L214.144 132.644L214.03 142.189L213.955 151.773H211.682H209.409V139.273Z" fill="#1C295C"/>
<path fill-rule="evenodd" clip-rule="evenodd" d="M244.258 126.773V127.341V127.909V139.841V151.773H242.174H240.091V139.273V126.773H242.174H244.258Z" fill="#1C295C"/>
<path fill-rule="evenodd" clip-rule="evenodd" d="M252.591 134.727V130.712V126.735L255.659 126.848L258.765 126.962L262.212 132.53C264.106 135.598 265.697 138.098 265.735 138.098L265.848 138.136V138.326C265.848 138.402 266.72 139.917 267.78 141.621C268.841 143.326 269.864 144.917 270.053 145.106C270.242 145.333 270.394 144.083 270.394 142.189C270.394 140.371 270.394 138.78 270.394 138.705V138.515V132.644V126.773H272.667H274.939V132.644C274.939 135.864 274.939 138.591 274.939 138.705V138.894V139.083C274.939 139.159 274.939 142.076 274.939 145.523V151.773L271.985 151.735H269.068L264.598 144.538L260.167 137.379L260.129 137.265C260.129 137.227 259.485 136.242 258.689 135.106L257.326 133.023L257.212 134.538C257.136 135.371 257.098 136.167 257.098 136.318L257.136 136.621V136.811C257.136 136.886 257.136 140.295 257.136 144.386V151.773H254.864H252.591V143.25V134.727Z" fill="#1C295C"/>
<path fill-rule="evenodd" clip-rule="evenodd" d="M316.606 135.106V134.917C316.606 134.803 316.606 133.78 316.606 132.644V130.561H312.818H309.03V128.667V126.773H319.068H329.106V128.629V130.523L325.205 130.636L321.341 130.75L321.227 132.341L321.152 133.97V142.871V151.773H319.068H316.985V143.439C316.985 138.856 316.871 135.106 316.795 135.106H316.606Z" fill="#1C295C"/>
<path fill-rule="evenodd" clip-rule="evenodd" d="M334.409 130.182V129.992C334.409 129.879 334.409 129.121 334.409 128.288V126.773H336.682C338.841 126.773 338.955 126.811 338.955 127.72V128.667V140.22V151.773H336.871H334.788V140.977C334.788 135.03 334.674 130.182 334.598 130.182H334.409Z" fill="#1C295C"/>
<path fill-rule="evenodd" clip-rule="evenodd" d="M347.288 139.273V126.773H352.477C362.174 126.773 366.303 128.477 368.879 133.553C370.053 135.788 370.356 140.674 369.447 143.326C368.614 145.864 366.947 148.061 364.788 149.424C361.758 151.356 359.674 151.773 353.159 151.773H347.288V139.273ZM351.833 139.386V130.447L355.545 130.598C360.28 130.788 362.439 131.773 364.106 134.5C365.129 136.129 365.28 136.697 365.28 139.235C365.28 142.72 364.485 144.538 362.288 146.129C360.356 147.53 358.955 147.909 355.053 148.174L351.833 148.364V139.386Z" fill="#1C295C"/>
<path fill-rule="evenodd" clip-rule="evenodd" d="M377.212 139.273V126.773H385.545H393.879V128.667V130.561H387.818H381.758V133.97V137.379H387.439H393.121V139.083V140.788H387.439H381.758V144.386V147.985H388.197H394.636V149.879V151.773H385.924H377.212V139.273Z" fill="#1C295C"/>
<path fill-rule="evenodd" clip-rule="evenodd" d="M218.008 180.371C215.924 179.652 213.386 177.492 212.326 175.485C211.189 173.364 211.114 167.795 212.174 165.788C213.159 163.894 215.015 162.038 216.758 161.129C220.015 159.462 225.545 159.992 227.591 162.189C228.424 163.098 228.462 163.136 227.742 163.629C227.136 164.121 226.909 164.083 225.886 163.326C223.235 161.356 219.826 161.205 217.061 162.985C212.97 165.636 212.023 171.735 215.053 175.902C217.629 179.5 223.424 180.182 226.455 177.303C227.098 176.697 227.667 176.432 228.083 176.583C228.955 176.924 228.879 177.265 227.477 178.629C225.318 180.712 221.227 181.47 218.008 180.371Z" fill="#6D6E71"/>
<path fill-rule="evenodd" clip-rule="evenodd" d="M297.364 180.598C292.894 179.235 290.318 176.129 289.826 171.508C289.333 166.659 292.136 162.114 296.492 160.674C299.371 159.727 303.045 160.03 305.432 161.394C307.098 162.379 307.136 162.455 306.53 163.136C305.886 163.818 305.848 163.818 304.333 162.947C300.924 160.977 297.136 161.394 294.409 164.045C289.447 168.78 291.871 177.758 298.424 178.932C300.205 179.273 302.818 179.008 304.561 178.326C305.583 177.909 305.621 177.833 305.621 174.879V171.848H303.348C301.152 171.848 301.076 171.773 301.076 170.902C301.076 169.955 301.114 169.955 304.295 169.955H307.515V174.424V178.894L306.076 179.538C303.083 180.826 299.561 181.28 297.364 180.598Z" fill="#6D6E71"/>
<path fill-rule="evenodd" clip-rule="evenodd" d="M339.295 180.22C335.356 178.78 332.894 175.068 332.894 170.636C332.856 166.318 334.523 163.25 337.856 161.394C339.674 160.409 340.242 160.295 343.121 160.295C345.924 160.295 346.53 160.409 348.083 161.318C354.068 164.841 355.129 173.023 350.205 177.909C347.629 180.523 342.818 181.508 339.295 180.22ZM341.492 179.083C335.773 177.644 333.083 171.508 335.811 166.129C337.932 161.962 342.591 160.523 346.871 162.72C348.879 163.742 350.167 165.447 350.924 167.985C352.023 171.735 350.621 175.826 347.591 177.72C345.735 178.894 343.083 179.5 341.492 179.083Z" fill="#6D6E71"/>
<path fill-rule="evenodd" clip-rule="evenodd" d="M364.106 180.371C362.288 179.651 361.303 178.742 360.47 176.962C359.864 175.636 359.788 174.386 359.788 167.947V160.485H360.735H361.682V167.568C361.682 175.523 362.098 177.303 364.182 178.401C367.591 180.144 371.341 178.591 372.212 175.068C372.439 174.159 372.667 170.485 372.667 166.924V160.485H373.614H374.561V166.886C374.561 170.409 374.371 174.159 374.144 175.258C373.197 179.614 368.386 182.076 364.106 180.371Z" fill="#6D6E71"/>
<path fill-rule="evenodd" clip-rule="evenodd" d="M115.848 170.333V160.485H121.909H127.97V161.432V162.379H122.856H117.742V165.788V169.197H122.477H127.212V170.144V171.091H122.477H117.742V175.636V180.182H116.795H115.848V170.333Z" fill="#6D6E71"/>
<path fill-rule="evenodd" clip-rule="evenodd" d="M134.03 170.333V160.485H134.977H135.924V170.333V180.182H134.977H134.03V170.333Z" fill="#6D6E71"/>
<path fill-rule="evenodd" clip-rule="evenodd" d="M143.5 170.295V160.409L144.674 160.523C145.735 160.636 146.341 161.356 151.227 168.515C154.182 172.871 156.795 176.583 157.061 176.848C157.402 177.189 157.515 175.258 157.515 168.894V160.485H158.462H159.409V170.333V180.182H158.083C156.795 180.182 156.644 179.992 151.189 171.848C148.083 167.265 145.432 163.515 145.28 163.515C145.129 163.515 145.015 167.265 145.015 171.848C145.015 179.917 144.977 180.182 144.258 180.182C143.5 180.182 143.5 179.917 143.5 170.295Z" fill="#6D6E71"/>
<path fill-rule="evenodd" clip-rule="evenodd" d="M165.205 178.932C165.47 178.25 167.402 173.818 169.447 169.045C174.371 157.606 173.727 157.53 179.144 170.144C181.379 175.333 183.235 179.727 183.235 179.917C183.235 180.068 182.78 180.144 182.25 180.106C181.379 179.992 181.076 179.614 180.242 177.606L179.295 175.258H173.992H168.689L167.629 177.53C166.833 179.235 166.341 179.841 165.659 179.992C164.712 180.144 164.712 180.144 165.205 178.932ZM169.636 173.212C169.636 172.568 173.689 163.439 173.992 163.439C174.258 163.477 178.348 172.568 178.348 173.212C178.348 173.288 176.379 173.364 173.992 173.364C171.568 173.364 169.636 173.288 169.636 173.212Z" fill="#6D6E71"/>
<path fill-rule="evenodd" clip-rule="evenodd" d="M188.576 170.333V160.485H189.864C191.114 160.485 191.265 160.674 196.758 168.78C199.864 173.364 202.515 177.114 202.667 177.114C202.818 177.114 202.97 173.402 202.97 168.818V160.485H203.917H204.864V170.333V180.22L203.424 180.106C202.061 179.992 201.909 179.803 196.53 171.735C193.5 167.227 190.886 163.515 190.735 163.515C190.583 163.515 190.47 167.265 190.47 171.848V180.182H189.523H188.576V170.333Z" fill="#6D6E71"/>
<path fill-rule="evenodd" clip-rule="evenodd" d="M234.788 170.333V160.485H235.735H236.682V170.333V180.182H235.735H234.788V170.333Z" fill="#6D6E71"/>
<path fill-rule="evenodd" clip-rule="evenodd" d="M241.985 179.992C241.985 179.879 243.841 175.485 246.114 170.22C251.606 157.492 250.886 157.492 256.379 170.295C258.652 175.598 260.545 179.992 260.545 180.068C260.545 180.106 260.053 180.144 259.485 180.144C258.576 180.144 258.348 179.879 257.477 177.795L256.492 175.447L251.189 175.333L245.886 175.22L244.864 177.492C244.106 179.235 243.652 179.841 242.932 179.992C242.402 180.068 241.985 180.068 241.985 179.992ZM246.909 173.098C246.909 172.53 250.886 163.136 251.114 163.136C251.303 163.136 253.765 168.591 255.28 172.492L255.621 173.364H251.265C248.841 173.364 246.909 173.212 246.909 173.098Z" fill="#6D6E71"/>
<path fill-rule="evenodd" clip-rule="evenodd" d="M265.848 170.333V160.485H266.795H267.742V169.576V178.667H272.477C276.947 178.667 277.212 178.705 277.212 179.424C277.212 180.144 276.947 180.182 271.53 180.182H265.848V170.333Z" fill="#6D6E71"/>
<path fill-rule="evenodd" clip-rule="evenodd" d="M314.712 170.258V160.371L319.144 160.561C325.545 160.826 327.212 161.848 327.212 165.636C327.212 167.947 326.076 169.614 323.955 170.371C323.235 170.636 322.667 171.015 322.667 171.205C322.667 171.394 323.651 173.212 324.901 175.182C327.856 180.03 327.932 180.182 326.568 180.144C325.583 180.144 325.242 179.727 322.856 175.599L320.205 171.091H318.386H316.606V175.636V180.182H315.659H314.712V170.258ZM316.795 169.311C316.682 169.159 316.606 167.455 316.606 165.523V162H318.386C323.083 162.038 325.318 163.288 325.318 165.826C325.318 167.568 324.447 168.553 322.477 169.159C321 169.614 317.061 169.689 316.795 169.311Z" fill="#6D6E71"/>
<path fill-rule="evenodd" clip-rule="evenodd" d="M381.758 170.258V160.371L386 160.523C392.174 160.788 394.03 162 393.992 165.75C393.917 169.348 392.023 170.75 386.947 171.015L383.652 171.167V175.674V180.182H382.705H381.758V170.258ZM383.841 169.311C383.727 169.159 383.652 167.455 383.652 165.447V161.886L386.492 162.114C389.864 162.379 391.303 163.061 391.947 164.614C392.553 166.053 392.061 167.568 390.697 168.477C389.674 169.197 384.22 169.841 383.841 169.311Z" fill="#6D6E71"/>
<path fill-rule="evenodd" clip-rule="evenodd" d="M274.939 138.894V138.705C274.939 138.591 274.939 135.864 274.939 132.644V126.773H272.667H270.394V132.644V138.515H269.333C268.765 138.515 267.742 138.439 267.061 138.326L265.848 138.136L265.735 138.098C265.697 138.098 264.106 135.598 262.212 132.53L258.765 126.962L255.659 126.848L252.591 126.735V130.712V134.727L252.288 134.614C252.136 134.538 251.379 134.197 250.583 133.78C249.788 133.401 248.462 132.492 247.629 131.735C246.758 131.015 245.659 129.879 245.167 129.159L244.258 127.909V127.341V126.773L244.182 126.47C244.182 126.318 244.144 125.485 244.144 124.614C244.182 123.742 244.523 122.379 244.939 121.545C245.356 120.712 246.152 119.538 246.644 118.932C247.174 118.326 248.5 117.303 249.598 116.697C251.417 115.712 252.023 115.598 255.886 115.447C258.917 115.333 260.924 115.485 263.008 115.939C264.598 116.318 267.023 117 268.424 117.455C269.788 117.947 271.303 118.477 271.72 118.629C272.212 118.818 271.947 118.364 270.962 117.303C270.129 116.432 268.159 114.879 266.606 113.856C265.053 112.795 262.402 111.432 260.735 110.788C259.068 110.144 256.152 109.311 254.295 108.894C252.402 108.515 249.561 108.212 247.932 108.212C246.341 108.212 243.311 108.515 241.265 108.932C239.182 109.311 235.735 110.258 233.576 110.977C231.417 111.697 225.735 114.045 220.962 116.167C216.152 118.288 208.5 121.545 203.917 123.401C199.333 125.22 195.508 126.735 195.47 126.735L195.394 126.773H189.902H184.409V128.477C184.409 129.386 184.409 130.258 184.409 130.371V130.561H184.22C184.106 130.561 182.25 131.053 180.091 131.697C177.932 132.303 176.038 132.833 175.924 132.833H175.697V132.568C175.697 132.417 175.242 131.735 174.712 131.053C174.182 130.371 173.197 129.386 172.515 128.856C171.833 128.326 170.621 127.644 169.864 127.303C169.068 127 167.667 126.545 166.758 126.356L165.091 126.015V125.864C165.091 125.826 166.644 125.144 168.576 124.348C170.508 123.553 175.394 121.129 179.485 118.894C183.538 116.697 192.667 111.47 199.75 107.341C206.833 103.174 215.583 98.0985 219.258 96.0909C222.894 94.0454 227.591 91.5076 229.712 90.447C231.833 89.3864 235.848 87.5682 238.614 86.3561C241.417 85.1818 246.644 83.25 250.318 82.0379C253.955 80.8258 259.674 79.2348 263.008 78.5152C266.341 77.7576 271.417 76.8106 274.333 76.3939C277.25 75.9773 282.97 75.447 287.098 75.1818C292.742 74.8409 295.508 74.8409 298.462 75.1439C300.621 75.4091 303.273 75.8636 304.371 76.1667C305.432 76.5076 307.061 77.3409 307.932 78.0227C308.992 78.8182 309.826 79.8788 310.318 81.0152C310.886 82.4167 310.962 83.0606 310.697 83.8561C310.318 84.8788 310.205 84.8788 307.667 84.8788C306.227 84.8788 303.386 84.6515 301.379 84.3864C298.652 84.0455 296.909 84.0076 294.447 84.3106C292.667 84.5379 290.091 85.1439 288.727 85.6364C287.402 86.0909 285.356 87.0758 284.182 87.7955C283.008 88.4773 281.038 90.0303 279.826 91.2045C278.424 92.5303 277.212 94.1591 276.606 95.4091C276.114 96.5454 275.583 98.2121 275.432 99.1591C275.28 100.295 275.432 101.659 275.848 103.098C276.189 104.348 277.061 106.205 277.78 107.265C278.462 108.288 279.864 109.765 280.886 110.523C281.871 111.28 283.462 112.303 284.409 112.833C285.318 113.364 287.742 114.424 289.75 115.144C291.758 115.901 295.508 116.924 298.083 117.417C300.659 117.947 304.826 118.553 307.364 118.78C309.902 119.008 314.864 119.159 318.348 119.159C321.871 119.159 326.795 119.008 329.295 118.78C331.795 118.591 336.379 118.061 339.523 117.644C342.629 117.227 350.659 115.939 357.326 114.803C363.992 113.705 371.455 112.53 373.917 112.189C376.417 111.886 380.242 111.508 382.439 111.356C384.788 111.242 387.97 111.318 390.091 111.583C392.061 111.811 394.295 112.189 395.091 112.379C395.848 112.606 396.985 113.174 397.553 113.667C398.5 114.5 398.538 114.614 397.97 115.22C397.515 115.712 396.152 115.901 391.72 116.167C388.614 116.356 384.144 116.811 381.758 117.114C379.333 117.455 375.394 118.136 372.97 118.629C370.545 119.159 366.038 120.258 362.932 121.091C359.826 121.962 353.273 124.008 348.311 125.636C343.386 127.303 339.22 128.667 339.144 128.667H338.955V127.72C338.955 126.811 338.841 126.773 336.682 126.773H334.409V128.288C334.409 129.121 334.409 129.879 334.409 129.992V130.182L329.561 131.659C326.909 132.492 323.917 133.326 322.932 133.553L321.152 133.97L321.227 132.341L321.341 130.75L325.205 130.636L329.106 130.523V128.629V126.773H319.068H309.03V128.667V130.561H312.818H316.606V132.644C316.606 133.78 316.606 134.803 316.606 134.917V135.106L316.114 135.258C315.848 135.371 313.273 135.901 310.356 136.432C307.439 136.962 305.015 137.455 304.977 137.568L304.864 137.758H300.129C297.515 137.758 295.394 137.833 295.394 137.947C295.394 138.023 295.394 138.212 295.394 138.326V138.515L293.197 138.705C291.985 138.818 290.129 138.894 289.03 138.894H287.061L287.212 137.303C287.288 136.47 287.856 134.992 288.424 134.008C289.22 132.795 290.129 131.962 291.606 131.167C293.424 130.22 293.955 130.106 296.152 130.258C297.477 130.333 299.106 130.712 299.75 131.053C300.356 131.394 301.189 131.886 301.568 132.151C302.174 132.568 302.439 132.417 303.765 130.939L305.28 129.273L304.409 128.591C303.917 128.212 302.591 127.53 301.455 127.076C299.826 126.432 298.576 126.242 295.773 126.242C292.932 126.242 291.682 126.432 290.015 127.076C288.841 127.53 287.098 128.629 286.114 129.462C285.129 130.333 283.917 131.848 283.386 132.909C282.856 133.932 282.288 135.75 282.098 136.924C281.909 138.098 281.758 139.121 281.758 139.159V139.273L278.348 139.083L274.939 138.894Z" fill="#B4C6D1"/>
<path fill-rule="evenodd" clip-rule="evenodd" d="M138.576 137.758H138.197C137.97 137.758 137.705 137.758 137.629 137.758C137.515 137.758 137.174 137.758 136.871 137.758H136.303L137.326 135.182L138.386 132.644L138.462 134.917C138.538 136.167 138.576 137.303 138.576 137.455V137.758Z" fill="#B4C6D1"/>
<path fill-rule="evenodd" clip-rule="evenodd" d="M126.833 137L126.644 136.811L126.455 136.621L124.939 132.265L123.424 127.909L124.636 128.098C125.318 128.212 127.402 128.553 129.295 128.856C131.189 129.159 133.273 129.424 133.955 129.424H135.167L133.652 133.402L132.136 137.379L129.75 137.152C128.462 137.038 127.25 136.962 127.098 136.962L126.833 137Z" fill="#B4C6D1"/>
<path fill-rule="evenodd" clip-rule="evenodd" d="M143.121 129.803H144.409C145.129 129.803 147.629 129.538 150.015 129.235C152.364 128.894 154.409 128.667 154.561 128.667H154.864L153.538 130.144C152.818 130.977 151.909 132.303 151.492 133.098C151.114 133.856 150.659 134.992 150.545 135.523C150.394 136.091 150.318 136.659 150.318 136.773V137L148.5 137.189C147.515 137.303 145.886 137.379 144.902 137.379H143.121V135.674C143.121 134.727 143.121 133.856 143.121 133.78C143.121 133.667 143.121 132.72 143.121 131.697V129.803Z" fill="#B4C6D1"/>
<path fill-rule="evenodd" clip-rule="evenodd" d="M259.788 137H259.485C259.333 137 258.727 136.924 258.159 136.811L257.136 136.621L257.098 136.318C257.098 136.167 257.136 135.371 257.212 134.538L257.326 133.023L258.689 135.106C259.485 136.242 260.129 137.227 260.129 137.265L260.167 137.379L259.977 137.189L259.902 136.924" fill="#B4C6D1"/>
<path fill-rule="evenodd" clip-rule="evenodd" d="M170.773 133.97L168.197 134.538C166.795 134.879 163.5 135.447 160.924 135.864C158.311 136.28 156.038 136.583 155.886 136.583L155.621 136.621L155.583 136.318C155.545 136.167 155.962 135.258 156.455 134.348C157.061 133.212 158.008 132.227 159.144 131.508C160.356 130.75 161.606 130.371 163.008 130.258C164.409 130.106 165.621 130.258 166.795 130.712C167.742 131.091 168.992 131.886 169.636 132.492C170.242 133.136 170.773 133.705 170.773 133.78V133.97Z" fill="#B4C6D1"/>
<path fill-rule="evenodd" clip-rule="evenodd" d="M120.394 135.106V134.917C120.394 134.803 120.394 134.273 120.394 133.705C120.394 133.136 120.47 132.758 120.583 132.871C120.659 132.985 120.773 133.174 120.773 133.326V133.591L120.962 133.78L121.152 133.97V134.159C121.152 134.235 121.152 134.424 121.152 134.538V134.727L121.227 135.106L121.417 135.182L121.53 135.295L121.152 135.485V135.295C121.152 135.182 121.038 135.106 120.962 135.106H120.773" fill="#B4C6D1"/>
<path fill-rule="evenodd" clip-rule="evenodd" d="M119.636 126.773H117.742H115.848V129.235C115.848 130.561 115.848 131.773 115.848 131.886V132.076H115.659C115.545 132.076 115.129 131.659 114.712 131.205C114.258 130.75 113.803 129.992 113.689 129.538C113.576 129.083 113.689 128.364 113.917 127.909C114.182 127.455 114.977 126.811 115.735 126.508C116.568 126.167 117.591 126.015 118.348 126.167C119.03 126.318 119.636 126.47 119.636 126.583V126.773Z" fill="#B4C6D1"/>
</svg>
