<?xml version="1.0" encoding="UTF-8"?>
<svg width="122px" height="45px" viewBox="0 0 122 45" version="1.1" xmlns="http://www.w3.org/2000/svg" xmlns:xlink="http://www.w3.org/1999/xlink">
    <!-- Generator: Sketch 52.5 (67469) - http://www.bohemiancoding.com/sketch -->
    <title>Logo/DCU/Green</title>
    <desc>Created with Sketch.</desc>
    <g id="Logo/DCU/Green" stroke="none" stroke-width="1" fill="none" fill-rule="evenodd">
        <path d="M118.475323,0.893429204 L118.475323,3.80488938 L118.842491,3.80488938 L118.842491,1.38285398 L118.850058,1.38285398 L119.760013,3.80488938 L120.090146,3.80488938 L120.999305,1.38285398 L121.00727,1.38285398 L121.00727,3.80488938 L121.374438,3.80488938 L121.374438,0.893429204 L120.844394,0.893429204 L119.922889,3.34015487 L119.005367,0.893429204 L118.475323,0.893429204 Z M117.508819,1.74564159 L117.875987,1.74564159 C117.870412,1.58515487 117.839748,1.44736726 117.784394,1.33188053 C117.673288,1.10170354 117.460633,0.944004425 117.219704,0.87710177 C116.959659,0.805022124 116.674527,0.805022124 116.414084,0.875110619 C116.040942,0.975464602 115.747447,1.27493363 115.747447,1.67634956 C115.747447,1.90254425 115.848199,2.10365044 116.038951,2.22471239 C116.26196,2.36688053 116.546695,2.42223451 116.80196,2.47918142 C117.09904,2.54568584 117.620721,2.61059735 117.615544,3.02037611 C117.613553,3.18564159 117.520765,3.35847345 117.374217,3.44011062 C116.986341,3.65634956 116.322093,3.58307522 116.095898,3.16254425 C116.048509,3.0745354 116.025013,2.96900442 116.025013,2.84674779 L115.657845,2.84674779 C115.657845,3.02356195 115.689704,3.17608407 115.75342,3.30550885 C115.88165,3.56396018 116.123774,3.73201327 116.397757,3.80887168 C116.998686,3.97652655 117.998642,3.79772124 117.998642,3.00564159 C117.998642,2.76630531 117.905456,2.55086283 117.706739,2.41028761 C117.43873,2.22073009 117.07196,2.16975664 116.75696,2.10564159 C116.512845,2.05626106 116.134925,1.96028761 116.134925,1.64767699 C116.134925,1.09174779 116.931385,1.03639381 117.282624,1.29126106 C117.41165,1.38484513 117.487314,1.53617257 117.508819,1.74564159 Z M12.7926239,32.9931637 L12.7926239,31.7403319 L-0.000119469027,44.4984292 L3.25979204,44.4984292 L14.7789956,32.9931637 L12.7926239,32.9931637 Z M18.1755,12.3305973 C24.4942168,12.3305973 26.450323,16.5904646 26.9783761,20.1641814 L27.061208,20.7256858 L37.0388628,10.7591814 L36.9285531,10.5688274 C36.5904558,9.98581858 36.2655,9.47767699 35.9345708,9.01652655 C33.131031,5.14413717 29.7365177,2.81807522 25.2516504,1.69586283 L25.0947478,1.65683628 L14.4205885,12.3305973 L18.1755,12.3305973 Z M12.7926239,12.1705088 L23.6189071,1.34462389 L23.0645708,1.25780973 C21.2187743,0.96789823 19.1424027,0.827721239 16.7171814,0.827721239 L-0.000119469027,0.827721239 L-0.000119469027,39.842323 L12.7926239,27.048385 L12.7926239,12.1705088 Z M88.9740398,0.437057522 L87.1835973,0.437057522 L76.5675796,10.9061283 C73.7966947,6.34519912 69.4412522,2.84077434 64.2555,1.13873894 L52.8031991,12.5209513 C54.0894823,11.838385 55.5227124,11.4453319 57.0415619,11.4453319 C60.8398805,11.4453319 64.1328451,13.8359071 65.7886858,17.3379425 L76.5655885,17.3379425 L76.5807212,27.8858628 L65.6473142,27.8858628 C65.0790398,29.0064823 64.3371372,30.0012611 63.4670044,30.8347566 L63.5677566,30.8021018 L50.4711637,43.9413053 C52.5793938,44.5824558 54.8174469,44.9289159 57.1379336,44.9289159 C65.9985531,44.9289159 73.6549248,39.8885177 77.3879336,32.5531195 C77.390323,32.5618805 88.9740398,21.0709513 88.9740398,21.0709513 L88.9740398,0.437057522 Z M53.9266062,32.9262611 L45.2208982,41.5790044 C45.9978451,42.0548894 46.8070487,42.4837832 47.6429336,42.8656858 L57.0120929,33.4917478 C55.9332876,33.4881637 54.8978894,33.2862611 53.9266062,32.9262611 Z M113.864217,27.2737832 L113.856252,0.437057522 L110.753642,0.437057522 L101.452978,9.68873894 L101.452978,26.1894027 C101.452978,32.0796239 98.2691283,33.383031 95.1175354,33.3698894 C94.7746593,33.3682965 94.4329779,33.3507743 94.0944823,33.3177212 L84.8702788,42.4698451 C87.4412522,43.9389159 90.8007212,44.9022345 95.2135088,44.9022345 C114.140987,44.9022345 113.864217,27.2737832 113.864217,27.2737832 Z M89.079969,27.9479867 L79.5650575,37.4047566 C80.6506327,39.1000221 82.1356327,40.7208186 84.1526681,42.0246239 L93.0961195,33.1544469 C91.1324469,32.6964823 89.4913407,31.3568363 89.079969,27.9479867 Z M101.452978,0.437057522 L101.452978,8.53108407 L109.591606,0.437057522 L101.452978,0.437057522 Z M88.9740398,26.4828982 L88.9740398,22.5201106 L77.675854,33.7541814 C78.0318717,34.7987389 78.499792,35.8954646 79.121031,36.9818363 L88.9963407,27.1698451 C88.9867832,26.9440487 88.9740398,26.7242257 88.9740398,26.4828982 Z M47.2606327,23.997146 C47.1981106,23.4965708 47.1547035,22.9892257 47.1547035,22.4695354 C47.1547035,20.3242699 47.7130221,18.3291372 48.6631991,16.6358628 L38.1734204,27.0619248 L38.1734204,25.9038717 L63.3702345,0.868738938 C61.3898363,0.307234513 59.3011195,-0.000199115044 57.1379336,-0.000199115044 C48.5130664,-0.000199115044 41.0135973,4.76701327 37.1770487,11.7850221 C37.1750575,11.7758628 37.1722699,11.7671018 37.1702788,11.7579425 C37.160323,11.7774558 37.1479779,11.7949779 37.1376239,11.8144912 L27.1400575,21.7969248 L27.1452345,21.921969 C27.1559867,22.1967478 27.1619602,22.4643584 27.1619602,22.7192257 C27.1619602,29.5369248 24.1194823,32.9939602 18.1193496,32.9939602 L15.9270929,32.9939602 L4.40430531,44.4984292 L17.5032876,44.4984292 C27.5084204,44.4984292 34.5367832,40.6710398 37.8345265,33.428031 L38.6951018,32.5674558 C38.6951018,32.5670575 38.6951018,32.5670575 38.6955,32.5666593 L47.2606327,23.997146 Z M48.0678451,27.0758628 L39.0957212,36.0762611 C40.6078009,38.0383407 42.4364735,39.7487389 44.5100575,41.1274115 L53.1102345,32.5821903 C50.8805442,31.5029867 49.0841283,29.5325442 48.0678451,27.0758628 Z M85.7161195,0.437057522 L76.5679779,9.45139381 L76.569969,0.437057522 L85.7161195,0.437057522 Z" id="DCU_Green" fill="#006759"></path>
    </g>
</svg>