<svg width="512" height="512" viewBox="0 0 512 512" fill="none" xmlns="http://www.w3.org/2000/svg">
<path d="M56 274.534H62.7076V262.023H69.795C78.3468 262.023 82.9391 256.888 82.9391 249.764C82.9391 242.695 78.401 237.506 69.8854 237.506H56V274.534ZM62.7076 256.508V243.111H68.8548C73.881 243.111 76.1049 245.823 76.1049 249.764C76.1049 253.706 73.881 256.508 68.891 256.508H62.7076ZM88.7653 274.534H95.4729V260.974H102.307L109.575 274.534H117.06L109.051 259.853C113.408 258.099 115.704 254.375 115.704 249.349C115.704 242.279 111.148 237.506 102.651 237.506H88.7653V274.534ZM95.4729 255.405V243.111H101.62C106.628 243.111 108.87 245.407 108.87 249.349C108.87 253.29 106.628 255.405 101.656 255.405H95.4729ZM154.965 256.02C154.965 244.051 147.661 237 137.952 237C128.225 237 120.938 244.051 120.938 256.02C120.938 267.971 128.225 275.04 137.952 275.04C147.661 275.04 154.965 267.989 154.965 256.02ZM148.221 256.02C148.221 264.445 143.991 269.02 137.952 269.02C131.931 269.02 127.682 264.445 127.682 256.02C127.682 247.595 131.931 243.021 137.952 243.021C143.991 243.021 148.221 247.595 148.221 256.02ZM175.915 237.506V263.541C175.897 267.446 174.089 269.526 170.871 269.526C167.87 269.526 165.863 267.7 165.809 264.698H159.137C159.137 271.533 164.127 275.04 170.618 275.04C177.759 275.04 182.551 270.701 182.569 263.541V237.506H175.915ZM189.846 274.534H214.073V268.911H196.553V258.804H212.68V253.182H196.553V243.129H213.928V237.506H189.846V274.534ZM252.466 249.999C251.326 241.773 244.999 237 236.79 237C227.118 237 219.831 244.051 219.831 256.02C219.831 267.971 227.027 275.04 236.79 275.04C245.595 275.04 251.435 269.345 252.466 262.276L245.704 262.24C244.854 266.579 241.31 269.02 236.88 269.02C230.878 269.02 226.575 264.518 226.575 256.02C226.575 247.667 230.841 243.021 236.899 243.021C241.401 243.021 244.926 245.57 245.704 249.999H252.466ZM256.981 243.129H268.425V274.534H275.079V243.129H286.523V237.506H256.981V243.129ZM304.847 274.534H319.836C328.315 274.534 332.474 270.213 332.474 264.445C332.474 258.841 328.496 255.55 324.555 255.351V254.989C328.171 254.14 331.027 251.609 331.027 247.107C331.027 241.592 327.049 237.506 319.022 237.506H304.847V274.534ZM311.555 268.929V258.081H318.95C323.09 258.081 325.658 260.612 325.658 263.921C325.658 266.868 323.632 268.929 318.769 268.929H311.555ZM311.555 253.254V243.039H318.335C322.277 243.039 324.32 245.118 324.32 247.975C324.32 251.229 321.68 253.254 318.19 253.254H311.555ZM371.395 256.02C371.395 244.051 364.091 237 354.382 237C344.655 237 337.369 244.051 337.369 256.02C337.369 267.971 344.655 275.04 354.382 275.04C364.091 275.04 371.395 267.989 371.395 256.02ZM364.651 256.02C364.651 264.445 360.421 269.02 354.382 269.02C348.361 269.02 344.112 264.445 344.112 256.02C344.112 247.595 348.361 243.021 354.382 243.021C360.421 243.021 364.651 247.595 364.651 256.02ZM410.823 256.02C410.823 244.051 403.518 237 393.81 237C384.083 237 376.796 244.051 376.796 256.02C376.796 267.971 384.083 275.04 393.81 275.04C403.518 275.04 410.823 267.989 410.823 256.02ZM404.079 256.02C404.079 264.445 399.849 269.02 393.81 269.02C387.789 269.02 383.54 264.445 383.54 256.02C383.54 247.595 387.789 243.021 393.81 243.021C399.849 243.021 404.079 247.595 404.079 256.02ZM417.164 237.506V274.534H423.601V249.041H423.945L434.177 274.425H438.987L449.22 249.095H449.564V274.534H456V237.506H447.792L436.799 264.337H436.366L425.373 237.506H417.164Z" fill="#2347A9"/>
</svg>
