<svg width="512" height="256" viewBox="0 0 512 256" fill="none" xmlns="http://www.w3.org/2000/svg">
<path d="M145.175 105C138.859 105 133.155 107.616 129.087 111.821C135.239 114.314 139.579 120.34 139.579 127.386C139.579 134.432 135.239 140.459 129.087 142.951C133.158 147.157 138.861 149.772 145.175 149.772C157.538 149.772 167.561 139.749 167.561 127.386C167.561 115.023 157.54 105 145.175 105Z" fill="#6333FF"/>
<path d="M129.087 111.821C127.142 111.033 125.018 110.595 122.789 110.595C113.515 110.595 106 118.113 106 127.384C106 136.655 113.517 144.173 122.789 144.173C125.016 144.173 127.14 143.735 129.087 142.947C125.189 138.918 122.789 133.431 122.789 127.382C122.791 121.337 125.189 115.85 129.087 111.821Z" fill="#6333FF"/>
<path d="M197.676 112.482C189.134 112.482 182.915 118.495 182.915 128.031C182.915 135.743 187.724 142.419 196.93 142.419C205.514 142.419 211.691 136.406 211.691 126.87C211.689 119.157 206.879 112.482 197.676 112.482ZM197.51 140.43C193.156 140.43 191.496 134.333 191.496 126.953C191.496 120.857 192.907 114.471 197.094 114.471C201.448 114.471 203.107 120.567 203.107 127.948C203.107 134.044 201.697 140.43 197.51 140.43Z" fill="#1D053D"/>
<path d="M228.787 119.24C225.262 119.24 222.983 121.396 221.822 123.261L221.988 119.24H220.538H214.152V150.877H221.822V141.548C222.527 142.129 223.854 142.419 225.431 142.419C231.983 142.419 237.165 137.939 237.165 129.441C237.165 122.64 233.682 119.24 228.787 119.24ZM224.766 140.47C222.568 140.47 221.822 138.811 221.822 136.116V124.465C222.57 123.969 223.399 123.76 224.27 123.76C227.422 123.76 229.369 126.288 229.369 131.762C229.369 136.655 227.752 140.47 224.766 140.47Z" fill="#1D053D"/>
<path d="M252.043 137.36C248.268 137.36 245.533 134.291 245.616 129.358H258.844V128.32C258.844 123.055 255.774 119.24 249.764 119.24C243.793 119.24 238.692 123.967 238.692 131.347C238.692 138.314 243.335 142.419 249.472 142.419C254.697 142.419 257.889 139.392 259.008 134.83L258.22 134.331C256.646 136.406 254.697 137.36 252.043 137.36ZM249.265 120.982C251.504 120.982 252.292 123.43 252.292 127.451H245.657C245.863 123.594 246.984 120.982 249.265 120.982Z" fill="#1D053D"/>
<path d="M276.811 119.24C273.079 119.24 270.675 121.396 269.098 123.387L269.264 119.24H267.854H261.469V142.003H269.098V124.672C270.176 124.133 271.337 123.76 272.664 123.76C274.819 123.76 275.441 124.838 275.441 126.663V142.006H283.112V126.041C283.114 121.479 280.833 119.24 276.811 119.24Z" fill="#1D053D"/>
<path d="M297.828 112.897H286.507V142.006H294.635V130.768H297.495C305.707 130.768 309.645 127.409 309.645 121.687C309.645 116.669 305.913 112.897 297.828 112.897ZM295.589 128.61H294.635V114.844H295.589C299.321 114.844 301.685 117.415 301.685 121.685C301.685 125.958 299.57 128.61 295.589 128.61Z" fill="#1D053D"/>
<path d="M327.235 119.24C323.463 119.24 321.099 121.396 319.522 123.387V112.897H318.238H311.852V142.006H319.522V124.674C320.56 124.135 321.721 123.762 323.048 123.762C325.203 123.762 325.825 124.84 325.825 126.665V142.008H333.495V126.043C333.497 121.521 331.216 119.24 327.235 119.24Z" fill="#1D053D"/>
<path d="M347.569 119.24C340.768 119.24 335.958 124.299 335.958 131.264C335.958 138.065 340.685 142.419 347.526 142.419C354.328 142.419 359.137 137.36 359.137 130.395C359.137 123.594 354.411 119.24 347.569 119.24ZM347.735 140.676C345.081 140.676 344.087 136.24 344.087 129.441C344.087 124.175 344.875 120.982 347.362 120.982C350.057 120.982 351.011 125.419 351.011 132.22C351.011 137.484 350.223 140.676 347.735 140.676Z" fill="#1D053D"/>
<path d="M376.941 119.24C373.209 119.24 370.804 121.396 369.228 123.387L369.394 119.24H367.984H361.598V142.003H369.228V124.672C370.306 124.133 371.466 123.76 372.793 123.76C374.949 123.76 375.571 124.838 375.571 126.663V142.006H383.241V126.041C383.243 121.479 380.962 119.24 376.941 119.24Z" fill="#1D053D"/>
<path d="M405.214 134.333C403.638 136.406 401.689 137.36 399.035 137.36C395.263 137.36 392.526 134.291 392.609 129.358H405.836V128.32C405.836 123.055 402.767 119.24 396.756 119.24C390.785 119.24 385.684 123.967 385.684 131.347C385.684 138.314 390.327 142.419 396.464 142.419C401.689 142.419 404.882 139.392 406 134.83L405.214 134.333ZM396.257 120.982C398.496 120.982 399.284 123.43 399.284 127.451H392.649C392.858 123.594 393.978 120.982 396.257 120.982Z" fill="#1D053D"/>
</svg>
