<svg width="512" height="256" viewBox="0 0 512 256" fill="none" xmlns="http://www.w3.org/2000/svg">
<path d="M157.152 110.268C148.51 110.268 141.339 116.67 140.187 125.056V101.433C140.187 101.177 139.931 101.113 139.739 101.241L129.752 111.612C127.703 110.716 125.462 110.268 123.093 110.268C113.618 110.268 106 117.95 106 127.361C106 136.772 113.682 144.455 123.093 144.455C131.736 144.455 138.907 138.053 140.059 129.666V153.225C140.059 153.481 140.315 153.545 140.507 153.417L150.494 143.046C152.543 143.942 154.784 144.391 157.152 144.391C166.627 144.391 174.246 136.708 174.246 127.297C174.246 117.886 166.627 110.268 157.152 110.268Z" fill="#314FFF"/>
<path d="M314.195 110.268C309.713 110.268 306.064 112.06 303.439 115.005V111.612C303.439 111.356 303.247 111.164 302.991 111.164H297.613C297.357 111.164 297.165 111.356 297.165 111.612V155.594C297.165 155.85 297.357 156.042 297.613 156.042H302.991C303.247 156.042 303.439 155.85 303.439 155.594V139.781C306 142.726 309.649 144.519 314.195 144.519C323.478 144.519 330.968 136.836 330.968 127.361C330.968 117.95 323.414 110.268 314.195 110.268ZM313.81 138.181C307.985 138.181 304.015 133.315 304.015 127.361C304.015 121.407 307.985 116.542 313.81 116.542C319.636 116.542 324.118 121.407 324.118 127.361C324.118 133.315 319.636 138.181 313.81 138.181Z" fill="#314FFF"/>
<path d="M270.661 111.612V115.005C268.1 112.06 264.451 110.268 259.905 110.268C250.622 110.268 243.132 117.95 243.132 127.425C243.132 136.9 250.686 144.583 259.905 144.583C264.387 144.583 268.036 142.79 270.661 139.845V143.622C270.661 143.878 270.853 144.07 271.109 144.07H276.486C276.743 144.07 276.935 143.878 276.935 143.622V111.612C276.935 111.356 276.743 111.164 276.486 111.164H271.109C270.853 111.164 270.661 111.356 270.661 111.612ZM260.289 138.181C254.463 138.181 249.982 133.315 249.982 127.361C249.982 121.407 254.463 116.542 260.289 116.542C266.115 116.542 270.084 121.407 270.084 127.361C270.084 133.315 266.115 138.181 260.289 138.181Z" fill="#314FFF"/>
<path d="M361.826 111.612V115.005C359.265 112.06 355.616 110.268 351.07 110.268C341.787 110.268 334.297 117.95 334.297 127.425C334.297 136.9 341.851 144.583 351.07 144.583C355.552 144.583 359.201 142.79 361.826 139.845V143.622C361.826 143.878 362.018 144.07 362.274 144.07H367.652C367.908 144.07 368.1 143.878 368.1 143.622V111.612C368.1 111.356 367.908 111.164 367.652 111.164H362.274C362.018 111.164 361.826 111.356 361.826 111.612ZM351.454 138.181C345.629 138.181 341.147 133.315 341.147 127.361C341.147 121.407 345.629 116.542 351.454 116.542C357.28 116.542 361.25 121.407 361.25 127.361C361.25 133.315 357.28 138.181 351.454 138.181Z" fill="#314FFF"/>
<path d="M218.74 99.5762V115.005C216.179 112.06 212.53 110.268 207.985 110.268C198.702 110.268 191.211 117.95 191.211 127.425C191.211 136.9 198.766 144.583 207.985 144.583C212.466 144.583 216.115 142.79 218.74 139.845V143.622C218.74 143.878 218.932 144.07 219.188 144.07H224.566C224.822 144.07 225.014 143.878 225.014 143.622V99.5762C225.014 99.3201 224.822 99.128 224.566 99.128H219.188C218.932 99.1921 218.74 99.3841 218.74 99.5762ZM208.369 138.181C202.543 138.181 198.061 133.315 198.061 127.361C198.061 121.407 202.543 116.542 208.369 116.542C214.195 116.542 218.164 121.407 218.164 127.361C218.164 133.315 214.195 138.181 208.369 138.181Z" fill="#314FFF"/>
<path d="M399.726 99.5762V115.005C397.165 112.06 393.516 110.268 388.97 110.268C379.688 110.268 372.197 117.95 372.197 127.425C372.197 136.9 379.752 144.583 388.97 144.583C393.452 144.583 397.101 142.79 399.726 139.845V143.622C399.726 143.878 399.918 144.07 400.174 144.07H405.552C405.808 144.07 406 143.878 406 143.622V99.5762C406 99.3201 405.808 99.128 405.552 99.128H400.174C399.918 99.1921 399.726 99.3841 399.726 99.5762ZM389.355 138.181C383.529 138.181 379.047 133.315 379.047 127.361C379.047 121.407 383.529 116.542 389.355 116.542C395.18 116.542 399.15 121.407 399.15 127.361C399.15 133.315 395.18 138.181 389.355 138.181Z" fill="#314FFF"/>
<path d="M231.992 111.612V143.558C231.992 143.814 232.184 144.006 232.44 144.006H237.818C238.074 144.006 238.266 143.814 238.266 143.558V111.612C238.266 111.356 238.074 111.164 237.818 111.164H232.44C232.184 111.164 231.992 111.356 231.992 111.612Z" fill="#314FFF"/>
<path d="M283.977 99.5762V143.558C283.977 143.814 284.169 144.006 284.425 144.006H289.803C290.059 144.006 290.251 143.814 290.251 143.558V99.5762C290.251 99.3201 290.059 99.128 289.803 99.128H284.425C284.169 99.1921 283.977 99.3201 283.977 99.5762Z" fill="#314FFF"/>
<path d="M235.129 106.682C237.251 106.682 238.97 104.963 238.97 102.841C238.97 100.72 237.251 99 235.129 99C233.008 99 231.288 100.72 231.288 102.841C231.288 104.963 233.008 106.682 235.129 106.682Z" fill="#314FFF"/>
</svg>
