<svg width="5840" height="513" viewBox="0 0 5840 513" fill="none" xmlns="http://www.w3.org/2000/svg">
<path d="M0.86084 412.774H74.5998V275.234H152.513C246.525 275.234 297.01 218.787 297.01 140.476C297.01 62.762 247.121 5.71868 153.506 5.71868H0.86084V412.774ZM74.5998 214.613V67.3334H142.177C197.432 67.3334 221.879 97.1468 221.879 140.476C221.879 183.805 197.432 214.613 142.575 214.613H74.5998ZM361.059 412.774H434.797V263.706H509.928L589.83 412.774H672.115L584.065 251.383C631.966 232.103 657.208 191.159 657.208 135.905C657.208 58.1906 607.12 5.71868 513.706 5.71868H361.059V412.774ZM434.797 202.489V67.3334H502.376C557.432 67.3334 582.078 92.5754 582.078 135.905C582.078 179.234 557.432 202.489 502.773 202.489H434.797ZM1088.81 209.246C1088.81 77.6687 1008.51 0.153381 901.779 0.153381C794.848 0.153381 714.746 77.6687 714.746 209.246C714.746 340.624 794.848 418.338 901.779 418.338C1008.51 418.338 1088.81 340.824 1088.81 209.246ZM1014.67 209.246C1014.67 301.867 968.164 352.154 901.779 352.154C835.594 352.154 788.883 301.867 788.883 209.246C788.883 116.625 835.594 66.3394 901.779 66.3394C968.164 66.3394 1014.67 116.625 1014.67 209.246ZM1319.12 5.71868V291.929C1318.92 334.859 1299.05 357.718 1263.67 357.718C1230.67 357.718 1208.61 337.643 1208.01 304.65H1134.67C1134.67 379.779 1189.53 418.338 1260.88 418.338C1339.39 418.338 1392.06 370.638 1392.26 291.929V5.71868H1319.12ZM1472.26 412.774H1738.6V350.959H1546V239.855H1723.29V178.041H1546V67.5321H1737.01V5.71868H1472.26V412.774ZM2160.66 143.06C2148.14 52.6253 2078.57 0.153381 1988.34 0.153381C1882 0.153381 1801.9 77.6687 1801.9 209.246C1801.9 340.624 1881.01 418.338 1988.34 418.338C2085.13 418.338 2149.33 355.731 2160.66 278.016L2086.33 277.619C2076.98 325.321 2038.02 352.154 1989.33 352.154C1923.34 352.154 1876.04 302.662 1876.04 209.246C1876.04 117.42 1922.94 66.3394 1989.53 66.3394C2039.02 66.3394 2077.78 94.3646 2086.33 143.06H2160.66ZM2210.3 67.5321H2336.11V412.774H2409.25V67.5321H2535.07V5.71868H2210.3V67.5321ZM2736.51 412.774H2901.28C2994.5 412.774 3040.21 365.269 3040.21 301.867C3040.21 240.252 2996.48 204.079 2953.15 201.892V197.917C2992.91 188.575 3024.31 160.749 3024.31 111.259C3024.31 50.6379 2980.58 5.71868 2892.33 5.71868H2736.51V412.774ZM2810.25 351.16V231.905H2891.54C2937.06 231.905 2965.28 259.731 2965.28 296.103C2965.28 328.501 2943.02 351.16 2889.55 351.16H2810.25ZM2810.25 178.837V66.5381H2884.78C2928.11 66.5381 2950.57 89.3954 2950.57 120.799C2950.57 156.575 2921.55 178.837 2883.19 178.837H2810.25ZM3468.09 209.246C3468.09 77.6687 3387.79 0.153381 3281.05 0.153381C3174.12 0.153381 3094.03 77.6687 3094.03 209.246C3094.03 340.624 3174.12 418.338 3281.05 418.338C3387.79 418.338 3468.09 340.824 3468.09 209.246ZM3393.95 209.246C3393.95 301.867 3347.44 352.154 3281.05 352.154C3214.87 352.154 3168.16 301.867 3168.16 209.246C3168.16 116.625 3214.87 66.3394 3281.05 66.3394C3347.44 66.3394 3393.95 116.625 3393.95 209.246ZM3901.52 209.246C3901.52 77.6687 3821.23 0.153381 3714.5 0.153381C3607.56 0.153381 3527.46 77.6687 3527.46 209.246C3527.46 340.624 3607.56 418.338 3714.5 418.338C3821.23 418.338 3901.52 340.824 3901.52 209.246ZM3827.39 209.246C3827.39 301.867 3780.88 352.154 3714.5 352.154C3648.31 352.154 3601.6 301.867 3601.6 209.246C3601.6 116.625 3648.31 66.3394 3714.5 66.3394C3780.88 66.3394 3827.39 116.625 3827.39 209.246ZM3971.24 5.71868V412.774H4042V132.526H4045.77L4158.27 411.58H4211.14L4323.64 133.122H4327.41V412.774H4398.17V5.71868H4307.93L4187.09 300.675H4182.32L4061.48 5.71868H3971.24ZM4559.76 357.121H4496.16L4494.77 379.383C4491.39 433.245 4477.27 488.105 4471.51 512.153H4520.01C4529.55 487.111 4551.61 429.07 4557.18 378.987L4559.76 357.121ZM4843.54 5.71868H4769.8V412.774H4843.54V5.71868ZM5257.91 5.71868H5184.54V283.184H5181L4989.39 5.71868H4923.39V412.774H4997.13V135.507H5000.49L5192.28 412.774H5257.91V5.71868ZM5686.69 143.06C5674.14 52.6253 5604.6 0.153381 5514.34 0.153381C5408 0.153381 5327.92 77.6687 5327.92 209.246C5327.92 340.624 5407.02 418.338 5514.34 418.338C5611.13 418.338 5675.35 355.731 5686.69 278.016L5612.34 277.619C5603.01 325.321 5564.02 352.154 5515.32 352.154C5449.33 352.154 5402.03 302.662 5402.03 209.246C5402.03 117.42 5448.95 66.3394 5515.56 66.3394C5565.04 66.3394 5603.8 94.3646 5612.34 143.06H5686.69ZM5795.31 417.149C5818.78 417.149 5838.88 397.667 5839.06 373.418C5838.88 349.57 5818.78 330.092 5795.31 330.092C5771.11 330.092 5751.42 349.57 5751.61 373.418C5751.42 397.667 5771.11 417.149 5795.31 417.149Z" fill="#2347A9"/>
</svg>
