<svg width="512" height="512" viewBox="0 0 512 512" fill="none" xmlns="http://www.w3.org/2000/svg">
<path d="M56 274.532H62.7074V262.022H69.7945C78.3459 262.022 82.9381 256.887 82.9381 249.764C82.9381 242.695 78.4001 237.506 69.8848 237.506H56V274.532ZM62.7074 256.508V243.111H68.8543C73.8804 243.111 76.1041 245.823 76.1041 249.764C76.1041 253.705 73.8804 256.508 68.8905 256.508H62.7074ZM88.7641 274.532H95.4714V260.973H102.305L109.573 274.532H117.058L109.049 259.852C113.406 258.098 115.702 254.374 115.702 249.348C115.702 242.279 111.146 237.506 102.649 237.506H88.7641V274.532ZM95.4714 255.405V243.111H101.618C106.626 243.111 108.868 245.407 108.868 249.348C108.868 253.289 106.626 255.405 101.655 255.405H95.4714ZM154.961 256.019C154.961 244.051 147.657 237 137.949 237C128.222 237 120.936 244.051 120.936 256.019C120.936 267.97 128.222 275.039 137.949 275.039C147.657 275.039 154.961 267.988 154.961 256.019ZM148.218 256.019C148.218 264.444 143.987 269.018 137.949 269.018C131.929 269.018 127.679 264.444 127.679 256.019C127.679 247.594 131.929 243.02 137.949 243.02C143.987 243.02 148.218 247.594 148.218 256.019ZM175.911 237.506V263.54C175.892 267.445 174.085 269.525 170.866 269.525C167.866 269.525 165.859 267.699 165.805 264.697H159.133C159.133 271.531 164.123 275.039 170.613 275.039C177.754 275.039 182.545 270.7 182.564 263.54V237.506H175.911ZM189.841 274.532H214.067V268.91H196.548V258.804H212.675V253.181H196.548V243.129H213.922V237.506H189.841V274.532ZM252.458 249.999C251.319 241.773 244.992 237 236.783 237C227.111 237 219.825 244.051 219.825 256.019C219.825 267.97 227.021 275.039 236.783 275.039C245.588 275.039 251.427 269.344 252.458 262.275L245.697 262.239C244.847 266.578 241.303 269.018 236.874 269.018C230.871 269.018 226.568 264.517 226.568 256.019C226.568 247.667 230.835 243.02 236.892 243.02C241.393 243.02 244.919 245.57 245.697 249.999H252.458ZM256.973 243.129H268.418V274.532H275.071V243.129H286.515V237.506H256.973V243.129ZM304.838 274.532H319.825C328.305 274.532 332.463 270.211 332.463 264.444C332.463 258.84 328.486 255.549 324.545 255.35V254.989C328.16 254.139 331.017 251.608 331.017 247.106C331.017 241.592 327.039 237.506 319.012 237.506H304.838V274.532ZM311.545 268.928V258.08H318.94C323.08 258.08 325.647 260.612 325.647 263.92C325.647 266.867 323.623 268.928 318.759 268.928H311.545ZM311.545 253.253V243.038H318.325C322.267 243.038 324.309 245.118 324.309 247.974C324.309 251.228 321.67 253.253 318.181 253.253H311.545ZM371.383 256.019C371.383 244.051 364.079 237 354.371 237C344.644 237 337.358 244.051 337.358 256.019C337.358 267.97 344.644 275.039 354.371 275.039C364.079 275.039 371.383 267.988 371.383 256.019ZM364.64 256.019C364.64 264.444 360.409 269.018 354.371 269.018C348.351 269.018 344.102 264.444 344.102 256.019C344.102 247.594 348.351 243.02 354.371 243.02C360.409 243.02 364.64 247.594 364.64 256.019ZM410.81 256.019C410.81 244.051 403.505 237 393.797 237C384.071 237 376.785 244.051 376.785 256.019C376.785 267.97 384.071 275.039 393.797 275.039C403.505 275.039 410.81 267.988 410.81 256.019ZM404.066 256.019C404.066 264.444 399.836 269.018 393.797 269.018C387.776 269.018 383.528 264.444 383.528 256.019C383.528 247.594 387.776 243.02 393.797 243.02C399.836 243.02 404.066 247.594 404.066 256.019ZM417.151 237.506V274.532H423.587V249.041H423.931L434.163 274.424H438.972L449.205 249.095H449.549V274.532H455.985V237.506H447.777L436.785 264.336H436.351L425.359 237.506H417.151Z" fill="black"/>
</svg>
