<svg width="512" height="256" viewBox="0 0 512 256" fill="none" xmlns="http://www.w3.org/2000/svg">
<path fill-rule="evenodd" clip-rule="evenodd" d="M277.446 146.788C271.96 145.491 268.868 143.197 266.773 138.908C265.077 135.616 264.978 132.424 264.978 105.392C264.978 71.9751 265.277 69.7806 271.561 65.99C278.943 61.601 293.706 62.5985 298.893 67.9851C301.486 70.6783 301.885 71.8753 302.185 78.4589L302.584 85.8404H296.997L291.411 85.9402V81.5511C291.411 75.6659 288.419 71.8753 283.83 71.8753C276.249 71.9751 275.252 76.3641 275.651 107.786C275.85 131.227 276.05 132.823 278.045 135.417C279.84 137.91 280.838 138.309 285.726 138.509L291.411 138.808V126.339V113.87H287.92C284.429 113.87 284.429 113.771 284.429 109.382V104.893H293.406H302.384V125.242V145.591L296.898 146.19C293.805 146.489 289.117 146.988 286.424 147.287C283.631 147.486 279.641 147.287 277.446 146.788Z" fill="black"/>
<path fill-rule="evenodd" clip-rule="evenodd" d="M362.234 146.788C356.748 145.491 353.656 143.197 351.561 138.908C349.965 135.716 349.666 132.025 349.367 109.082C349.067 81.3516 349.666 74.8678 353.257 69.7806C356.449 65.2918 360.738 63.596 368.718 63.4963C377.696 63.4963 382.384 65.6908 385.377 71.2768C387.571 75.2668 387.671 76.4638 387.671 104.394C387.671 132.723 387.571 133.322 385.277 138.01C383.581 141.401 381.786 143.396 378.993 144.793C374.205 147.187 367.421 147.985 362.234 146.788ZM362.933 136.214C360.738 133.721 360.638 133.022 360.439 106.489C360.14 82.1496 360.339 79.0574 361.935 75.9651C363.431 72.8728 364.229 72.3741 367.721 72.1746C371.012 71.8753 372.21 72.2743 374.205 74.4688L376.698 77.0624V105.392C376.698 133.222 376.599 133.621 374.404 136.214C371.312 139.706 366.025 139.706 362.933 136.214Z" fill="black"/>
<path fill-rule="evenodd" clip-rule="evenodd" d="M74.9526 105.392V63.995H80.3392H85.8255L86.1247 100.603L86.424 137.312L95.601 137.511L104.878 137.81V142.299V146.788H89.9152H74.9526V105.392Z" fill="black"/>
<path fill-rule="evenodd" clip-rule="evenodd" d="M111.86 105.392V63.995H127.322H142.783V68.4838V72.9726H132.808H122.833V86.4389V99.9052H132.309H141.786V104.394V108.883H132.21H122.733L123.032 123.047L123.332 137.312L133.008 137.511L142.783 137.81V142.299V146.788H127.322H111.86V105.392Z" fill="black"/>
<path fill-rule="evenodd" clip-rule="evenodd" d="M145.776 145.89C145.776 145.392 149.566 135.716 154.254 124.344L162.833 103.696L154.753 84.4439C150.364 73.7706 146.773 64.793 146.773 64.4938C146.773 64.0948 149.267 63.995 152.359 64.1945L158.045 64.4938L163.132 78.0599C165.925 85.6409 168.419 91.9252 168.718 92.2245C169.017 92.5237 171.611 86.2394 174.504 78.3591L179.79 63.8953H185.177L190.464 63.995L182.584 83.6459C178.194 94.419 174.703 103.796 174.703 104.494C174.703 105.192 178.294 114.569 182.683 125.242C187.072 136.015 190.663 145.292 190.663 145.791C190.663 146.289 188.17 146.788 185.177 146.788H179.79L177.297 140.005C175.9 136.314 173.506 129.83 171.91 125.641C170.414 121.451 168.718 118.06 168.219 118.06C167.621 118.06 164.628 124.244 161.436 131.925L155.751 145.791L150.763 146.289C147.97 146.489 145.776 146.389 145.776 145.89Z" fill="black"/>
<path fill-rule="evenodd" clip-rule="evenodd" d="M195.651 105.392V63.995H201.137H206.623V105.392V146.788H201.137H195.651V105.392Z" fill="black"/>
<path fill-rule="evenodd" clip-rule="evenodd" d="M215.601 105.392V63.995H223.382H231.262L238.244 98.6085L245.227 133.322L245.327 98.6085L245.526 63.995H250.514H255.501V105.392V146.788H247.721H239.94L233.556 114.569C230.165 96.9127 226.973 81.0524 226.474 79.4564C226.075 77.7606 225.676 91.8254 225.576 111.576V146.788H220.589H215.601V105.392Z" fill="black"/>
<path fill-rule="evenodd" clip-rule="evenodd" d="M321.037 110.08L320.838 73.4713L314.055 73.1721L307.372 72.8728V68.384V63.995H326.324H345.277V68.4838V72.9726H338.793H332.309V109.88V146.788H326.823H321.337L321.037 110.08Z" fill="black"/>
<path fill-rule="evenodd" clip-rule="evenodd" d="M396.15 105.392V63.995H403.93H411.811L418.793 98.6085L425.776 133.322L425.875 98.6085L426.075 63.995H431.062H436.05V105.392V146.788H428.269H420.489L414.105 114.569C410.713 96.9127 407.521 81.0524 407.022 79.4564C406.623 77.7606 406.224 91.8254 406.125 111.576V146.788H401.137H396.15V105.392Z" fill="black"/>
<path fill-rule="evenodd" clip-rule="evenodd" d="M147.671 188.185C146.075 187.387 144.18 185.491 143.581 183.895C141.985 180.304 141.985 160.055 143.581 156.464C145.077 152.673 150.763 150.279 155.451 151.377C161.137 152.773 162.933 156.264 163.531 166.239C164.03 177.312 162.434 185.192 159.142 187.187C155.451 189.382 151.062 189.781 147.671 188.185ZM149.466 186.389C145.776 184.195 144.778 180.803 144.778 169.93C144.678 155.267 147.571 151.077 155.451 153.771C159.641 155.267 160.738 158.359 160.738 170.229C160.738 181.9 159.641 185.092 155.551 186.589C152.06 187.885 152.16 187.885 149.466 186.389Z" fill="#EC221E"/>
<path fill-rule="evenodd" clip-rule="evenodd" d="M285.327 188.185C283.731 187.387 281.835 185.491 281.237 183.895C279.641 180.304 279.641 160.055 281.237 156.464C282.733 152.673 288.419 150.279 293.107 151.377C298.793 152.773 300.588 156.264 301.187 166.239C301.686 177.312 300.09 185.192 296.798 187.187C293.107 189.382 288.718 189.781 285.327 188.185ZM287.122 186.389C283.431 184.195 282.434 180.803 282.434 169.93C282.334 155.267 285.227 151.077 293.107 153.771C297.297 155.267 298.394 158.359 298.394 170.229C298.394 181.9 297.297 185.092 293.207 186.589C289.716 187.885 289.815 187.885 287.122 186.389Z" fill="#EC221E"/>
<path fill-rule="evenodd" clip-rule="evenodd" d="M83.6309 171.426L83.4314 154.269L79.1422 153.87C76.8479 153.771 74.9526 153.172 74.9526 152.673C74.9526 152.175 79.4414 151.776 85.4265 151.776C91.7107 151.776 95.9003 152.075 95.9003 152.773C95.9003 153.272 93.8055 153.771 91.4115 153.771H86.9227V171.227C86.9227 185.99 86.6235 188.683 85.4265 188.683C84.1297 188.683 83.8304 185.99 83.6309 171.426Z" fill="#EC221E"/>
<path fill-rule="evenodd" clip-rule="evenodd" d="M219.292 179.905C218.993 171.825 218.594 170.429 214.304 161.451C210.913 154.369 210.015 151.776 211.112 151.776C211.91 151.776 214.304 155.466 216.898 160.953L221.187 170.229L225.875 160.953C228.469 155.865 230.963 151.776 231.461 151.776C232.559 151.776 230.763 156.264 225.875 165.94C222.883 171.825 222.584 173.521 222.584 180.604C222.584 187.087 222.284 188.683 221.087 188.683C219.89 188.683 219.491 186.888 219.292 179.905Z" fill="#EC221E"/>
<path fill-rule="evenodd" clip-rule="evenodd" d="M355.95 171.426L355.751 154.269L351.461 153.87C349.167 153.771 347.272 153.172 347.272 152.673C347.272 152.175 351.761 151.776 357.746 151.776C364.03 151.776 368.219 152.075 368.219 152.773C368.219 153.272 366.125 153.771 363.731 153.771H359.242V171.227C359.242 185.99 358.943 188.683 357.746 188.683C356.449 188.683 356.15 185.99 355.95 171.426Z" fill="#EC221E"/>
<path fill-rule="evenodd" clip-rule="evenodd" d="M410.115 187.387C410.115 186.688 412.509 178.509 415.402 169.232C419.791 155.367 421.087 152.274 422.584 152.274C424.08 152.274 425.377 155.367 429.666 169.232C432.559 178.509 434.953 186.788 434.953 187.486C435.052 190.479 432.459 187.686 431.162 183.297L429.865 178.609L422.284 178.908L414.604 179.207L413.307 183.895C412.21 188.185 410.015 190.479 410.115 187.387ZM416.599 175.815C416 174.818 420.788 157.561 421.985 156.364C422.783 155.566 427.771 170.329 427.97 173.92C427.97 175.317 426.973 175.716 422.584 176.214C419.491 176.414 416.798 176.314 416.599 175.815Z" fill="#EC221E"/>
</svg>
