<svg width="512" height="256" viewBox="0 0 512 256" fill="none" xmlns="http://www.w3.org/2000/svg">
<g clip-path="url(#clip0)">
<path d="M106 128.287V71H256H406V128.287V185.574H256H106V128.287Z" fill="#010101"/>
<path d="M106 128.287V71H256H406V128.287V185.574H256H106V128.287ZM209.512 173.722V166.61H208.59H207.668V171.43L207.642 176.224L202.532 170.956L197.422 165.688L197.396 173.011V180.306H198.318H199.24L199.292 175.407L199.371 170.508L204.244 175.644C206.931 178.489 209.196 180.807 209.327 180.807C209.433 180.833 209.512 177.646 209.512 173.722ZM270.355 173.722V166.61H269.433H268.511V171.483V176.356L265.429 173.116C263.717 171.351 261.399 168.954 260.293 167.795L258.239 165.688V173.011V180.306H259.161H260.083L260.135 175.434L260.214 170.535L265.087 175.697C267.773 178.515 270.039 180.833 270.144 180.833C270.276 180.833 270.355 177.646 270.355 173.722ZM377.554 173.722V166.61H376.632H375.71V171.43L375.684 176.224L370.574 170.956L365.464 165.688L365.438 173.011V180.306H366.36H367.282L367.335 175.407L367.414 170.508L372.286 175.644C374.973 178.489 377.238 180.807 377.37 180.807C377.475 180.833 377.554 177.646 377.554 173.722ZM149.354 179.911C150.091 179.49 150.644 178.884 151.013 178.12C151.514 177.093 151.566 176.514 151.566 171.799V166.61H150.644H149.723V171.219C149.723 177.435 149.196 178.726 146.562 178.726C145.087 178.726 144.507 178.357 143.902 177.067C143.48 176.119 143.401 175.302 143.401 171.299V166.61H142.479H141.558V171.799C141.558 177.857 141.795 178.726 143.744 179.911C145.298 180.833 147.773 180.833 149.354 179.911ZM165.921 176.435C166.922 174.143 167.791 172.168 167.896 172.062C168.002 171.957 168.16 172.405 168.265 173.09C168.344 173.801 168.687 175.697 168.976 177.33L169.529 180.306H170.557C171.505 180.306 171.584 180.254 171.478 179.727C171.399 179.385 170.794 176.329 170.135 172.932C169.477 169.534 168.845 166.531 168.739 166.268C168.581 165.899 167.949 167.137 166.316 170.93C165.078 173.774 164.025 176.092 163.946 176.092C163.867 176.092 162.813 173.774 161.575 170.956C160.363 168.138 159.284 165.925 159.178 166.031C159.099 166.136 158.467 169.112 157.782 172.668C157.097 176.224 156.465 179.385 156.386 179.727C156.255 180.254 156.334 180.306 157.308 180.306H158.362L158.809 177.752C159.047 176.329 159.389 174.406 159.573 173.458L159.863 171.773L161.812 176.171C162.892 178.594 163.84 180.57 163.946 180.57C164.051 180.57 164.946 178.7 165.921 176.435ZM224.209 180.148C226.421 179.227 227.923 176.988 227.949 174.591V173.195H225.183H222.418V174.117V175.039H224.13C226.079 175.039 226.211 175.223 225.236 176.645C224.314 178.015 223.076 178.726 221.575 178.726C220.074 178.726 219.178 178.331 218.019 177.093C215.096 174.064 216.518 169.27 220.653 168.164C222.076 167.795 223.814 168.27 225.078 169.428L226.053 170.324L226.817 169.665L227.554 169.033L226.79 168.217C224.999 166.347 221.206 165.662 218.73 166.795C214.068 168.928 213.041 175.197 216.781 178.779C217.361 179.306 218.23 179.938 218.73 180.148C219.942 180.675 222.945 180.675 224.209 180.148ZM392.435 180.069C394.516 179.095 395.754 177.251 396.123 174.591L396.307 173.195H393.384H390.46V174.117V175.039H392.198H393.937L393.752 175.776C393.542 176.619 392.462 177.831 391.461 178.357C390.618 178.805 388.537 178.831 387.747 178.436C385.666 177.383 384.165 174.591 384.56 172.563C384.824 171.14 386.088 169.323 387.22 168.77C389.486 167.611 391.356 167.822 393.12 169.428L394.174 170.377L394.885 169.692L395.57 168.981L394.832 168.217C393.173 166.505 389.644 165.741 387.194 166.584C385.772 167.084 383.928 168.849 383.191 170.429C382.321 172.247 382.321 174.67 383.191 176.487C383.849 177.91 385.535 179.622 386.878 180.201C388.09 180.728 391.171 180.649 392.435 180.069ZM120.486 177.567V174.828L122.067 174.644C124.885 174.327 126.413 172.668 126.202 170.219C125.965 167.611 124.49 166.61 120.829 166.61H118.379V173.458V180.306H119.433H120.486V177.567ZM137.08 179.385V178.463H135.104H133.129V172.536V166.61H132.076H131.022V173.458V180.306H134.051H137.08V179.385ZM182.356 179.832C184.911 178.542 185.201 175.118 182.91 173.406C182.172 172.879 182.146 172.8 182.567 172.352C182.804 172.089 183.041 171.272 183.094 170.482C183.305 167.795 181.83 166.61 178.3 166.61H176.325V173.458V180.306H178.906C180.829 180.306 181.698 180.201 182.356 179.832ZM191.601 173.458V166.61H190.68H189.758V173.458V180.306H190.68H191.601V173.458ZM243.463 178.594L244.253 176.882H247.176H250.1L250.89 178.594C251.68 180.28 251.707 180.306 252.76 180.306C253.656 180.306 253.788 180.227 253.656 179.859C253.155 178.542 247.282 165.846 247.176 165.82C247.071 165.82 241.145 178.621 240.697 179.859C240.565 180.227 240.697 180.306 241.593 180.306C242.646 180.306 242.673 180.28 243.463 178.594ZM282.181 179.885C283.946 179.385 285.895 177.514 286.369 175.934C287.159 173.248 286.579 170.219 284.946 168.612C283.445 167.137 282.365 166.768 278.994 166.663L275.886 166.558V173.432V180.306H278.335C279.81 180.306 281.364 180.148 282.181 179.885ZM302.488 177.014V173.722H305.649H308.809V177.014V180.306H309.731H310.653V173.458V166.61H309.731H308.809V169.244V171.878H305.649H302.488V169.244V166.61H301.566H300.644V173.458V180.306H301.566H302.488V177.014ZM324.086 179.385V178.463H321.32H318.555V176.092V173.722H321.189H323.823V172.8V171.878H321.189H318.555V170.034V168.191H321.32H324.086V167.4V166.61H320.267H316.448V173.458V180.306H320.267H324.086V179.385ZM331.04 178.594L331.803 176.882H334.753H337.703L338.467 178.594C339.231 180.28 339.231 180.28 340.337 180.306H341.443L341.075 179.464C339.942 176.751 334.938 166.057 334.78 166.004C334.648 165.952 329.881 176.04 328.432 179.464L328.063 180.306H329.169C330.276 180.28 330.276 180.28 331.04 178.594ZM349.898 174.248V168.191H351.478H353.059V167.4V166.61H348.845H344.63V167.4V168.191H346.211H347.791V174.248V180.306H348.845H349.898V174.248ZM359.644 173.458V166.61H358.722H357.8V173.458V180.306H358.722H359.644V173.458ZM218.836 161.896C224.262 159.235 226.184 151.544 222.681 146.461C222.234 145.829 220.864 144.512 219.652 143.564C217.124 141.588 216.36 140.719 216.36 139.85C216.36 139.112 217.519 138.164 218.414 138.164C219.521 138.164 221.285 139.191 222.418 140.456L223.471 141.667V136.663V131.632L222.181 131.079C219.389 129.894 215.701 129.867 213.094 131.026C209.96 132.396 207.694 136.452 207.668 140.693C207.668 144.143 209.117 146.698 212.778 149.595C215.175 151.492 215.57 151.966 215.57 152.967C215.57 155.627 211.882 155.574 209.169 152.861C208.485 152.176 207.853 151.597 207.8 151.597C207.536 151.597 207.668 161.579 207.932 161.737C208.063 161.817 209.038 162.133 210.091 162.396C211.566 162.791 212.62 162.896 214.569 162.844C216.808 162.765 217.335 162.633 218.836 161.896ZM381.795 162.264L383.006 161.843L383.164 158.498C383.27 156.654 383.349 154.573 383.349 153.862V152.572L382.769 153.125C381.32 154.468 378.924 155.074 377.37 154.468C373.814 153.125 372.444 145.987 374.815 141.114C376.29 138.112 379.951 137.506 382.506 139.824L383.085 140.35V135.583V130.816L381.979 130.5C380.53 130.131 377.001 130.131 375.315 130.526C371.628 131.369 368.309 134.003 366.65 137.4C365.122 140.535 364.78 142.22 364.78 146.724C364.78 151.255 365.122 152.914 366.676 156.075C368.283 159.367 371.075 161.658 374.525 162.58C376.211 163.002 380.188 162.844 381.795 162.264ZM394.174 162.001C396.597 160.421 396.992 156.786 394.99 154.679C392.567 152.124 388.511 152.624 387.036 155.68C385.719 158.419 387.089 161.764 389.881 162.686C391.04 163.054 393.068 162.738 394.174 162.001ZM236.641 156.075V149.753H238.485H240.328V156.075V162.396H244.806H249.284V146.593V130.789H244.806H240.328V136.32V141.852H238.485H236.641V136.32V130.789H232.295H227.949V146.593V162.396H232.295H236.641V156.075ZM260.425 161.948C260.504 161.685 260.636 161 260.741 160.421C261.057 158.34 260.873 158.445 263.875 158.445H266.588L266.773 159.841C267.141 162.659 266.641 162.396 271.698 162.396C275.359 162.396 276.149 162.317 276.149 162.027C276.149 161.658 269.933 132.106 269.67 131.263C269.538 130.842 269.038 130.789 264.218 130.789H258.897L255.236 146.013C253.261 154.363 251.549 161.474 251.47 161.817L251.338 162.396H255.816C259.872 162.396 260.32 162.343 260.425 161.948ZM291.426 162.317C291.426 162.264 291.9 158.814 292.479 154.652C293.059 150.491 293.533 146.645 293.533 146.066C293.533 144.275 293.981 144.696 294.165 146.672C294.27 147.699 294.903 151.65 295.587 155.416L296.825 162.264L301.119 162.343C303.463 162.37 305.385 162.37 305.385 162.343C305.385 162.159 311.417 132.185 311.575 131.527L311.759 130.789H307.387C304.99 130.789 303.015 130.868 303.015 131C303.015 131.105 302.541 134.635 301.935 138.823C301.356 143.037 300.802 146.988 300.723 147.646L300.565 148.831L300.355 147.383C300.223 146.593 299.565 142.536 298.88 138.375L297.615 130.789H293.796H289.977L288.713 138.243C288.028 142.326 287.422 146.356 287.317 147.198C287.238 148.015 287.08 148.7 286.975 148.7C286.843 148.7 286.817 148.436 286.869 148.094C286.975 147.646 285.658 137.874 284.683 131.922L284.499 130.789H280.179C276.176 130.789 275.833 130.816 275.939 131.263C275.991 131.5 277.572 138.612 279.468 147.04L282.866 162.396H287.159C289.503 162.396 291.426 162.343 291.426 162.317ZM334.358 146.593V130.789H330.012H325.666V146.593V162.396H330.012H334.358V146.593ZM347.185 154.705C347.08 150.464 346.948 146.566 346.869 146.066C346.79 145.565 347.791 148.173 349.108 151.86C350.399 155.548 351.795 159.446 352.163 160.5L352.848 162.396H357.036H361.224V146.593V130.789H357.01H352.795V135.873C352.795 138.638 352.98 142.51 353.191 144.459C353.401 146.408 353.559 148.041 353.507 148.068C353.428 148.147 352.874 146.593 348.818 135.346L347.212 130.789H343.024H338.836V146.593V162.396H343.076H347.343L347.185 154.705ZM198.186 122.229V82.5891H158.019H117.853V122.229V161.869H158.019H198.186V122.229ZM286.527 126.944C286.685 126.338 286.79 126.285 287.949 126.364C289.003 126.443 289.187 126.522 289.266 127.049C289.345 127.602 289.477 127.629 291.584 127.629C292.795 127.629 293.796 127.55 293.796 127.444C293.796 127.313 293.112 124.81 292.242 121.834L290.715 116.435H288.107H285.526L283.867 121.571C282.945 124.389 282.128 126.917 282.049 127.181C281.917 127.576 282.128 127.629 284.13 127.629C286.316 127.629 286.369 127.602 286.527 126.944ZM298.827 125.074L298.853 122.493L300.065 125.074L301.277 127.629H303.331H305.385V121.966V116.303H303.384H301.382L301.487 119.227L301.566 122.15L300.197 119.227L298.827 116.303H296.825H294.85V121.966V127.629H296.825H298.801L298.827 125.074ZM314.367 127.339C317.659 126.338 319.003 122.282 317.106 119.042C316.053 117.251 314.288 116.54 310.522 116.356L307.493 116.224V121.939V127.629H310.416C312.049 127.629 313.814 127.497 314.367 127.339ZM273.963 123.888C276.018 122.756 276.518 120.675 275.069 119.227C274.648 118.779 273.831 118.305 273.252 118.147C272.567 117.962 261.637 117.91 239.749 117.936C207.668 118.015 207.273 118.015 206.351 118.542C203.612 120.148 204.323 123.414 207.563 124.178C208.169 124.31 222.049 124.415 240.855 124.389C270.908 124.336 273.173 124.31 273.963 123.888ZM395.464 123.836C396.808 123.125 397.308 122.414 397.308 121.097C397.308 119.701 396.36 118.621 394.78 118.173C393.331 117.778 330.17 117.778 328.722 118.173C327.141 118.621 326.193 119.701 326.193 121.097C326.219 122.73 327.141 123.73 329.222 124.231C329.67 124.336 344.525 124.389 362.277 124.389C393.173 124.336 394.569 124.31 395.464 123.836ZM216.149 106.426L216.228 99.4197L218.704 106.215C220.074 109.955 221.259 113.09 221.364 113.221C221.443 113.327 223.682 113.379 226.29 113.353L231.031 113.274L227.212 105.109C225.131 100.631 223.392 96.8385 223.392 96.6804C223.392 96.4697 225.447 91.755 229.503 82.7735L230.293 81.0088H225.5H220.706L218.467 87.4355L216.228 93.8885L216.149 87.4355L216.097 81.0088H211.619H207.141V97.2072V113.406H211.619H216.097L216.149 106.426ZM242.962 97.2072V81.0088H238.353H233.744V97.2072V113.406H238.353H242.962V97.2072ZM256.342 107.084C256.29 103.608 256.342 100.974 256.421 101.237C256.527 101.474 257.501 104.24 258.608 107.348C259.74 110.456 260.741 113.09 260.846 113.221C260.952 113.327 263.191 113.379 265.798 113.353L270.565 113.274L267.405 106.689L264.218 100.131L264.85 99.7094C267.51 97.9974 268.748 95.8376 268.959 92.5716C269.222 88.8051 268.221 85.6708 266.14 83.8007C263.638 81.5356 261.189 81.0088 253.182 81.0088H247.176V97.2072V113.406H251.812H256.448L256.342 107.084ZM281.68 106.241V99.0509L282.471 101.29C282.918 102.528 284.077 105.715 285.078 108.401L286.869 113.274L291.795 113.353L296.72 113.406L296.325 112.694C294.85 109.797 288.976 96.8648 289.003 96.5487C289.003 96.338 290.504 92.8613 292.321 88.8314C294.165 84.7752 295.64 81.3775 295.64 81.2458C295.64 81.1141 293.559 81.0088 290.952 81.0088H286.237L284.025 87.4091L281.812 93.7831L281.733 87.3828L281.68 81.0088H277.203H272.725V97.2072V113.406H277.203H281.68V106.241ZM314.867 109.455V105.504H311.707H308.546V93.2564V81.0088H303.937H299.327V97.2072V113.406H307.097H314.867V109.455ZM325.008 112.563C325.087 112.089 325.245 111.167 325.35 110.508L325.561 109.323L328.353 109.244L331.145 109.165L331.277 110.034C331.356 110.508 331.514 111.457 331.619 112.168L331.777 113.406H336.465C340.811 113.406 341.154 113.379 341.048 112.958C340.706 111.43 334.358 81.3775 334.358 81.2195C334.358 81.0878 331.882 81.0088 328.827 81.0088C325.798 81.0088 323.296 81.0351 323.296 81.0878C323.296 81.1405 321.584 88.331 319.477 97.0492C317.37 105.794 315.658 113.037 315.658 113.169C315.658 113.3 317.738 113.406 320.267 113.406H324.85L325.008 112.563ZM351.926 105.978C351.821 101.869 351.689 97.8657 351.584 97.0755C351.426 95.6269 351.637 96.2063 356.536 110.324L357.615 113.406H361.935H366.228V97.2072V81.0088H361.83H357.457L357.615 87.2511C357.721 90.7015 357.958 94.8367 358.169 96.417C358.379 98.0237 358.537 99.3406 358.511 99.367C358.485 99.367 356.983 95.2581 355.166 90.2011L351.874 81.0088H347.607H343.313V97.2072V113.406H347.686H352.084L351.926 105.978ZM384.507 112.668C386.746 111.825 388.063 111.009 389.459 109.507C392.093 106.689 393.147 103.291 393.199 97.4706C393.226 93.1247 392.91 91.439 391.54 88.5154C390.565 86.4083 388.248 83.9324 386.272 82.8788C383.48 81.4039 381.294 81.0088 375.658 81.0088H370.706V97.2335V113.458L376.843 113.353C382.295 113.248 383.112 113.169 384.507 112.668Z" fill="#282828"/>
<path d="M263.032 146.54C263.454 143.88 263.849 141.325 263.928 140.877C264.007 140.403 264.139 140.008 264.244 140.008C264.376 140.008 264.402 140.403 264.376 140.877C264.323 141.325 264.56 143.88 264.903 146.54L265.508 151.334H263.902H262.295L263.032 146.54Z" fill="#282828"/>
<path d="M106 128.287V71H256H406V128.287V185.574H256H106V128.287ZM209.512 173.722V166.61H208.59H207.668V171.43L207.642 176.224L202.532 170.956L197.422 165.688L197.396 173.011V180.306H198.318H199.24L199.292 175.407L199.371 170.508L204.244 175.644C206.931 178.489 209.196 180.807 209.327 180.807C209.433 180.833 209.512 177.646 209.512 173.722ZM270.355 173.722V166.61H269.433H268.511V171.483V176.356L265.429 173.116C263.717 171.351 261.399 168.954 260.293 167.795L258.239 165.688V173.011V180.306H259.161H260.083L260.135 175.434L260.214 170.535L265.087 175.697C267.773 178.515 270.039 180.833 270.144 180.833C270.276 180.833 270.355 177.646 270.355 173.722ZM377.554 173.722V166.61H376.632H375.71V171.43L375.684 176.224L370.574 170.956L365.464 165.688L365.438 173.011V180.306H366.36H367.282L367.335 175.407L367.414 170.508L372.286 175.644C374.973 178.489 377.238 180.807 377.37 180.807C377.475 180.833 377.554 177.646 377.554 173.722ZM149.354 179.911C150.091 179.49 150.644 178.884 151.013 178.12C151.514 177.093 151.566 176.514 151.566 171.799V166.61H150.644H149.723V171.219C149.723 177.435 149.196 178.726 146.562 178.726C145.087 178.726 144.507 178.357 143.902 177.067C143.48 176.119 143.401 175.302 143.401 171.299V166.61H142.479H141.558V171.799C141.558 177.857 141.795 178.726 143.744 179.911C145.298 180.833 147.773 180.833 149.354 179.911ZM165.921 176.435C166.922 174.143 167.791 172.168 167.896 172.062C168.002 171.957 168.16 172.405 168.265 173.09C168.344 173.801 168.687 175.697 168.976 177.33L169.529 180.306H170.557C171.505 180.306 171.584 180.254 171.478 179.727C171.399 179.385 170.794 176.329 170.135 172.932C169.477 169.534 168.845 166.531 168.739 166.268C168.581 165.899 167.949 167.137 166.316 170.93C165.078 173.774 164.025 176.092 163.946 176.092C163.867 176.092 162.813 173.774 161.575 170.956C160.363 168.138 159.284 165.925 159.178 166.031C159.099 166.136 158.467 169.112 157.782 172.668C157.097 176.224 156.465 179.385 156.386 179.727C156.255 180.254 156.334 180.306 157.308 180.306H158.362L158.809 177.752C159.047 176.329 159.389 174.406 159.573 173.458L159.863 171.773L161.812 176.171C162.892 178.594 163.84 180.57 163.946 180.57C164.051 180.57 164.946 178.7 165.921 176.435ZM224.209 180.148C226.421 179.227 227.923 176.988 227.949 174.591V173.195H225.183H222.418V174.117V175.039H224.13C226.079 175.039 226.211 175.223 225.236 176.645C224.314 178.015 223.076 178.726 221.575 178.726C220.074 178.726 219.178 178.331 218.019 177.093C215.096 174.064 216.518 169.27 220.653 168.164C222.076 167.795 223.814 168.27 225.078 169.428L226.053 170.324L226.817 169.665L227.554 169.033L226.79 168.217C224.999 166.347 221.206 165.662 218.73 166.795C214.068 168.928 213.041 175.197 216.781 178.779C217.361 179.306 218.23 179.938 218.73 180.148C219.942 180.675 222.945 180.675 224.209 180.148ZM392.435 180.069C394.516 179.095 395.754 177.251 396.123 174.591L396.307 173.195H393.384H390.46V174.117V175.039H392.198H393.937L393.752 175.776C393.542 176.619 392.462 177.831 391.461 178.357C390.618 178.805 388.537 178.831 387.747 178.436C385.666 177.383 384.165 174.591 384.56 172.563C384.824 171.14 386.088 169.323 387.22 168.77C389.486 167.611 391.356 167.822 393.12 169.428L394.174 170.377L394.885 169.692L395.57 168.981L394.832 168.217C393.173 166.505 389.644 165.741 387.194 166.584C385.772 167.084 383.928 168.849 383.191 170.429C382.321 172.247 382.321 174.67 383.191 176.487C383.849 177.91 385.535 179.622 386.878 180.201C388.09 180.728 391.171 180.649 392.435 180.069ZM120.486 177.567V174.828L122.067 174.644C124.885 174.327 126.413 172.668 126.202 170.219C125.965 167.611 124.49 166.61 120.829 166.61H118.379V173.458V180.306H119.433H120.486V177.567ZM137.08 179.385V178.463H135.104H133.129V172.536V166.61H132.076H131.022V173.458V180.306H134.051H137.08V179.385ZM182.356 179.832C184.911 178.542 185.201 175.118 182.91 173.406C182.172 172.879 182.146 172.8 182.567 172.352C182.804 172.089 183.041 171.272 183.094 170.482C183.305 167.795 181.83 166.61 178.3 166.61H176.325V173.458V180.306H178.906C180.829 180.306 181.698 180.201 182.356 179.832ZM191.601 173.458V166.61H190.68H189.758V173.458V180.306H190.68H191.601V173.458ZM243.463 178.594L244.253 176.882H247.176H250.1L250.89 178.594C251.68 180.28 251.707 180.306 252.76 180.306C253.656 180.306 253.788 180.227 253.656 179.859C253.155 178.542 247.282 165.846 247.176 165.82C247.071 165.82 241.145 178.621 240.697 179.859C240.565 180.227 240.697 180.306 241.593 180.306C242.646 180.306 242.673 180.28 243.463 178.594ZM282.181 179.885C283.946 179.385 285.895 177.514 286.369 175.934C287.159 173.248 286.579 170.219 284.946 168.612C283.445 167.137 282.365 166.768 278.994 166.663L275.886 166.558V173.432V180.306H278.335C279.81 180.306 281.364 180.148 282.181 179.885ZM302.488 177.014V173.722H305.649H308.809V177.014V180.306H309.731H310.653V173.458V166.61H309.731H308.809V169.244V171.878H305.649H302.488V169.244V166.61H301.566H300.644V173.458V180.306H301.566H302.488V177.014ZM324.086 179.385V178.463H321.32H318.555V176.092V173.722H321.189H323.823V172.8V171.878H321.189H318.555V170.034V168.191H321.32H324.086V167.4V166.61H320.267H316.448V173.458V180.306H320.267H324.086V179.385ZM331.04 178.594L331.803 176.882H334.753H337.703L338.467 178.594C339.231 180.28 339.231 180.28 340.337 180.306H341.443L341.075 179.464C339.942 176.751 334.938 166.057 334.78 166.004C334.648 165.952 329.881 176.04 328.432 179.464L328.063 180.306H329.169C330.276 180.28 330.276 180.28 331.04 178.594ZM349.898 174.248V168.191H351.478H353.059V167.4V166.61H348.845H344.63V167.4V168.191H346.211H347.791V174.248V180.306H348.845H349.898V174.248ZM359.644 173.458V166.61H358.722H357.8V173.458V180.306H358.722H359.644V173.458ZM218.836 161.896C224.262 159.235 226.184 151.544 222.681 146.461C222.234 145.829 220.864 144.512 219.652 143.564C217.124 141.588 216.36 140.719 216.36 139.85C216.36 139.112 217.519 138.164 218.414 138.164C219.521 138.164 221.285 139.191 222.418 140.456L223.471 141.667V136.663V131.632L222.181 131.079C219.389 129.894 215.701 129.867 213.094 131.026C209.96 132.396 207.694 136.452 207.668 140.693C207.668 144.143 209.117 146.698 212.778 149.595C215.175 151.492 215.57 151.966 215.57 152.967C215.57 155.627 211.882 155.574 209.169 152.861C208.485 152.176 207.853 151.597 207.8 151.597C207.536 151.597 207.668 161.579 207.932 161.737C208.063 161.817 209.038 162.133 210.091 162.396C211.566 162.791 212.62 162.896 214.569 162.844C216.808 162.765 217.335 162.633 218.836 161.896ZM381.795 162.264L383.006 161.843L383.164 158.498C383.27 156.654 383.349 154.573 383.349 153.862V152.572L382.769 153.125C381.32 154.468 378.924 155.074 377.37 154.468C373.814 153.125 372.444 145.987 374.815 141.114C376.29 138.112 379.951 137.506 382.506 139.824L383.085 140.35V135.583V130.816L381.979 130.5C380.53 130.131 377.001 130.131 375.315 130.526C371.628 131.369 368.309 134.003 366.65 137.4C365.122 140.535 364.78 142.22 364.78 146.724C364.78 151.255 365.122 152.914 366.676 156.075C368.283 159.367 371.075 161.658 374.525 162.58C376.211 163.002 380.188 162.844 381.795 162.264ZM394.174 162.001C396.597 160.421 396.992 156.786 394.99 154.679C392.567 152.124 388.511 152.624 387.036 155.68C385.719 158.419 387.089 161.764 389.881 162.686C391.04 163.054 393.068 162.738 394.174 162.001ZM236.641 156.075V149.753H238.485H240.328V156.075V162.396H244.806H249.284V146.593V130.789H244.806H240.328V136.32V141.852H238.485H236.641V136.32V130.789H232.295H227.949V146.593V162.396H232.295H236.641V156.075ZM260.425 161.948C260.504 161.685 260.636 161 260.741 160.421C261.057 158.34 260.873 158.445 263.875 158.445H266.588L266.773 159.841C267.141 162.659 266.641 162.396 271.698 162.396C275.359 162.396 276.149 162.317 276.149 162.027C276.149 161.658 269.933 132.106 269.67 131.263C269.538 130.842 269.038 130.789 264.218 130.789H258.897L255.236 146.013C253.261 154.363 251.549 161.474 251.47 161.817L251.338 162.396H255.816C259.872 162.396 260.32 162.343 260.425 161.948ZM291.426 162.317C291.426 162.264 291.9 158.814 292.479 154.652C293.059 150.491 293.533 146.645 293.533 146.066C293.533 144.275 293.981 144.696 294.165 146.672C294.27 147.699 294.903 151.65 295.587 155.416L296.825 162.264L301.119 162.343C303.463 162.37 305.385 162.37 305.385 162.343C305.385 162.159 311.417 132.185 311.575 131.527L311.759 130.789H307.387C304.99 130.789 303.015 130.868 303.015 131C303.015 131.105 302.541 134.635 301.935 138.823C301.356 143.037 300.802 146.988 300.723 147.646L300.565 148.831L300.355 147.383C300.223 146.593 299.565 142.536 298.88 138.375L297.615 130.789H293.796H289.977L288.713 138.243C288.028 142.326 287.396 146.382 287.291 147.251C287.159 148.331 287.08 148.594 287.027 148.041C286.896 147.119 284.946 133.555 284.683 131.922L284.499 130.789H280.179C276.176 130.789 275.833 130.816 275.939 131.263C275.991 131.5 277.572 138.612 279.468 147.04L282.866 162.396H287.159C289.503 162.396 291.426 162.343 291.426 162.317ZM334.358 146.593V130.789H330.012H325.666V146.593V162.396H330.012H334.358V146.593ZM347.185 154.705C347.08 150.464 346.948 146.566 346.869 146.066C346.79 145.565 347.791 148.173 349.108 151.86C350.399 155.548 351.795 159.446 352.163 160.5L352.848 162.396H357.036H361.224V146.593V130.789H357.01H352.795V135.873C352.795 138.638 352.98 142.51 353.191 144.459C353.401 146.408 353.559 148.041 353.507 148.068C353.428 148.147 352.874 146.593 348.818 135.346L347.212 130.789H343.024H338.836V146.593V162.396H343.076H347.343L347.185 154.705ZM198.186 122.229V82.5891H158.019H117.853V122.229V161.869H158.019H198.186V122.229ZM286.527 126.944C286.685 126.338 286.79 126.285 287.949 126.364C289.003 126.443 289.187 126.522 289.266 127.049C289.345 127.602 289.477 127.629 291.584 127.629C292.795 127.629 293.796 127.55 293.796 127.444C293.796 127.313 293.112 124.81 292.242 121.834L290.715 116.435H288.107H285.526L283.867 121.571C282.945 124.389 282.128 126.917 282.049 127.181C281.917 127.576 282.128 127.629 284.13 127.629C286.316 127.629 286.369 127.602 286.527 126.944ZM298.827 125.074L298.853 122.493L300.065 125.074L301.277 127.629H303.331H305.385V121.966V116.303H303.384H301.382L301.487 119.227L301.566 122.15L300.197 119.227L298.827 116.303H296.825H294.85V121.966V127.629H296.825H298.801L298.827 125.074ZM314.367 127.339C317.659 126.338 319.003 122.282 317.106 119.042C316.053 117.251 314.288 116.54 310.522 116.356L307.493 116.224V121.939V127.629H310.416C312.049 127.629 313.814 127.497 314.367 127.339ZM273.963 123.888C276.018 122.756 276.518 120.675 275.069 119.227C274.648 118.779 273.831 118.305 273.252 118.147C272.567 117.962 261.637 117.91 239.749 117.936C207.668 118.015 207.273 118.015 206.351 118.542C203.612 120.148 204.323 123.414 207.563 124.178C208.169 124.31 222.049 124.415 240.855 124.389C270.908 124.336 273.173 124.31 273.963 123.888ZM395.464 123.836C396.808 123.125 397.308 122.414 397.308 121.097C397.308 119.701 396.36 118.621 394.78 118.173C393.331 117.778 330.17 117.778 328.722 118.173C327.141 118.621 326.193 119.701 326.193 121.097C326.219 122.73 327.141 123.73 329.222 124.231C329.67 124.336 344.525 124.389 362.277 124.389C393.173 124.336 394.569 124.31 395.464 123.836ZM216.149 106.426L216.228 99.4197L218.704 106.215C220.074 109.955 221.259 113.09 221.364 113.221C221.443 113.327 223.682 113.379 226.29 113.353L231.031 113.274L227.212 105.109C225.131 100.631 223.392 96.8385 223.392 96.6804C223.392 96.4697 225.447 91.755 229.503 82.7735L230.293 81.0088H225.5H220.706L218.467 87.4355L216.228 93.8885L216.149 87.4355L216.097 81.0088H211.619H207.141V97.2072V113.406H211.619H216.097L216.149 106.426ZM242.962 97.2072V81.0088H238.353H233.744V97.2072V113.406H238.353H242.962V97.2072ZM256.342 107.084C256.29 103.608 256.342 100.974 256.421 101.237C256.527 101.474 257.501 104.24 258.608 107.348C259.74 110.456 260.741 113.09 260.846 113.221C260.952 113.327 263.191 113.379 265.798 113.353L270.565 113.274L267.405 106.689L264.218 100.131L264.85 99.7094C267.51 97.9974 268.748 95.8376 268.959 92.5716C269.222 88.8051 268.221 85.6708 266.14 83.8007C263.638 81.5356 261.189 81.0088 253.182 81.0088H247.176V97.2072V113.406H251.812H256.448L256.342 107.084ZM281.733 106.452L281.812 99.4723L284.314 106.347C285.684 110.113 286.948 113.248 287.08 113.3C287.238 113.379 289.45 113.379 291.979 113.353L296.588 113.274L292.716 104.977C289.793 98.7085 288.897 96.5487 289.055 96.1536C289.187 95.8639 290.715 92.4399 292.453 88.5417C294.218 84.6699 295.64 81.3775 295.64 81.2458C295.64 81.1141 293.533 81.0088 290.952 81.0088H286.237L284.025 87.4091L281.812 93.7831L281.733 87.3828L281.68 81.0088H277.203H272.725V97.2072V113.406H277.203H281.68L281.733 106.452ZM314.867 109.455V105.504H311.707H308.546V93.2564V81.0088H303.937H299.327V97.2072V113.406H307.097H314.867V109.455ZM325.008 112.563C325.087 112.089 325.245 111.167 325.35 110.508L325.561 109.323L328.353 109.244L331.145 109.165L331.277 110.034C331.356 110.508 331.514 111.457 331.619 112.168L331.777 113.406H336.465C340.811 113.406 341.154 113.379 341.048 112.958C340.706 111.43 334.358 81.3775 334.358 81.2195C334.358 81.0878 331.882 81.0088 328.827 81.0088C325.798 81.0088 323.296 81.0351 323.296 81.0878C323.296 81.1405 321.584 88.331 319.477 97.0492C317.37 105.794 315.658 113.037 315.658 113.169C315.658 113.3 317.738 113.406 320.267 113.406H324.85L325.008 112.563ZM351.9 105.846C351.795 101.658 351.663 97.734 351.584 97.0755C351.531 96.3644 352.69 99.367 354.56 104.661L357.615 113.406H361.935H366.228V97.2072V81.0088H361.83H357.457L357.615 87.2511C357.721 90.7015 357.958 94.8367 358.169 96.417C358.379 98.0237 358.537 99.3406 358.511 99.367C358.485 99.367 356.983 95.2581 355.166 90.2011L351.874 81.0088H347.607H343.313V97.2072V113.406H347.686H352.084L351.9 105.846ZM384.507 112.668C386.746 111.825 388.063 111.009 389.459 109.507C392.093 106.689 393.147 103.291 393.199 97.4706C393.226 93.1247 392.91 91.439 391.54 88.5154C390.565 86.4083 388.248 83.9324 386.272 82.8788C383.48 81.4039 381.294 81.0088 375.658 81.0088H370.706V97.2335V113.458L376.843 113.353C382.295 113.248 383.112 113.169 384.507 112.668Z" fill="#D8D8D8"/>
<path d="M245.491 174.064C245.728 173.511 246.149 172.51 246.439 171.825C246.755 171.114 247.071 170.561 247.176 170.561C247.282 170.561 247.598 171.114 247.914 171.825C248.204 172.51 248.625 173.511 248.862 174.064L249.284 175.039H247.176H245.069L245.491 174.064Z" fill="#D8D8D8"/>
<path d="M263.032 146.408C263.454 143.669 263.902 141.114 264.033 140.666C264.244 139.876 264.244 139.903 264.27 140.93C264.297 141.509 264.587 144.09 264.929 146.672L265.508 151.334H263.902H262.295L263.032 146.408Z" fill="#D8D8D8"/>
<path d="M106 128.287V71H256H406V128.287V185.574H256H106V128.287ZM209.512 173.722V166.61H208.59H207.668V171.43L207.642 176.224L202.532 170.956L197.422 165.688L197.396 173.011V180.306H198.318H199.24L199.292 175.407L199.371 170.508L204.244 175.644C206.931 178.489 209.196 180.807 209.327 180.807C209.433 180.833 209.512 177.646 209.512 173.722ZM270.355 173.722V166.61H269.433H268.511V171.483V176.356L265.429 173.116C263.717 171.351 261.399 168.954 260.293 167.795L258.239 165.688V173.011V180.306H259.161H260.083L260.135 175.434L260.214 170.535L265.087 175.697C267.773 178.515 270.039 180.833 270.144 180.833C270.276 180.833 270.355 177.646 270.355 173.722ZM377.554 173.722V166.61H376.632H375.71V171.43L375.684 176.224L370.574 170.956L365.464 165.688L365.438 173.011V180.306H366.36H367.282L367.335 175.407L367.414 170.508L372.286 175.644C374.973 178.489 377.238 180.807 377.37 180.807C377.475 180.833 377.554 177.646 377.554 173.722ZM149.354 179.911C150.091 179.49 150.644 178.884 151.013 178.12C151.514 177.093 151.566 176.514 151.566 171.799V166.61H150.644H149.723V171.219C149.723 177.435 149.196 178.726 146.562 178.726C145.087 178.726 144.507 178.357 143.902 177.067C143.48 176.119 143.401 175.302 143.401 171.299V166.61H142.479H141.558V171.799C141.558 177.857 141.795 178.726 143.744 179.911C145.298 180.833 147.773 180.833 149.354 179.911ZM165.921 176.435C166.922 174.143 167.791 172.168 167.896 172.062C168.002 171.957 168.16 172.405 168.265 173.09C168.344 173.801 168.687 175.697 168.976 177.33L169.529 180.306H170.557C171.505 180.306 171.584 180.254 171.478 179.727C171.399 179.385 170.794 176.329 170.135 172.932C169.477 169.534 168.845 166.531 168.739 166.268C168.581 165.899 167.949 167.137 166.316 170.93C165.078 173.774 164.025 176.092 163.946 176.092C163.867 176.092 162.813 173.774 161.575 170.956C160.363 168.138 159.284 165.925 159.178 166.031C159.099 166.136 158.467 169.112 157.782 172.668C157.097 176.224 156.465 179.385 156.386 179.727C156.255 180.254 156.334 180.306 157.308 180.306H158.362L158.809 177.752C159.047 176.329 159.389 174.406 159.573 173.458L159.863 171.773L161.812 176.171C162.892 178.594 163.84 180.57 163.946 180.57C164.051 180.57 164.946 178.7 165.921 176.435ZM224.209 180.148C226.421 179.227 227.923 176.988 227.949 174.591V173.195H225.183H222.418V174.117V175.039H224.13C226.079 175.039 226.211 175.223 225.236 176.645C224.314 178.015 223.076 178.726 221.575 178.726C220.074 178.726 219.178 178.331 218.019 177.093C215.096 174.064 216.518 169.27 220.653 168.164C222.076 167.795 223.814 168.27 225.078 169.428L226.053 170.324L226.817 169.665L227.554 169.033L226.79 168.217C224.999 166.347 221.206 165.662 218.73 166.795C214.068 168.928 213.041 175.197 216.781 178.779C217.361 179.306 218.23 179.938 218.73 180.148C219.942 180.675 222.945 180.675 224.209 180.148ZM392.435 180.069C394.516 179.095 395.754 177.251 396.123 174.591L396.307 173.195H393.384H390.46V174.117V175.039H392.198H393.937L393.752 175.776C393.542 176.619 392.462 177.831 391.461 178.357C390.618 178.805 388.537 178.831 387.747 178.436C385.666 177.383 384.165 174.591 384.56 172.563C384.824 171.14 386.088 169.323 387.22 168.77C389.486 167.611 391.356 167.822 393.12 169.428L394.174 170.377L394.885 169.692L395.57 168.981L394.832 168.217C393.173 166.505 389.644 165.741 387.194 166.584C385.772 167.084 383.928 168.849 383.191 170.429C382.321 172.247 382.321 174.67 383.191 176.487C383.849 177.91 385.535 179.622 386.878 180.201C388.09 180.728 391.171 180.649 392.435 180.069ZM120.486 177.567V174.828L122.067 174.644C124.885 174.327 126.413 172.668 126.202 170.219C125.965 167.611 124.49 166.61 120.829 166.61H118.379V173.458V180.306H119.433H120.486V177.567ZM137.08 179.385V178.463H135.104H133.129V172.536V166.61H132.076H131.022V173.458V180.306H134.051H137.08V179.385ZM182.356 179.832C184.911 178.542 185.201 175.118 182.91 173.406C182.172 172.879 182.146 172.8 182.567 172.352C182.804 172.089 183.041 171.272 183.094 170.482C183.305 167.795 181.83 166.61 178.3 166.61H176.325V173.458V180.306H178.906C180.829 180.306 181.698 180.201 182.356 179.832ZM191.601 173.458V166.61H190.68H189.758V173.458V180.306H190.68H191.601V173.458ZM243.463 178.594L244.253 176.882H247.176H250.1L250.89 178.594C251.68 180.28 251.707 180.306 252.76 180.306C253.656 180.306 253.788 180.227 253.656 179.859C253.155 178.542 247.282 165.846 247.176 165.82C247.071 165.82 241.145 178.621 240.697 179.859C240.565 180.227 240.697 180.306 241.593 180.306C242.646 180.306 242.673 180.28 243.463 178.594ZM282.181 179.885C283.946 179.385 285.895 177.514 286.369 175.934C287.159 173.248 286.579 170.219 284.946 168.612C283.445 167.137 282.365 166.768 278.994 166.663L275.886 166.558V173.432V180.306H278.335C279.81 180.306 281.364 180.148 282.181 179.885ZM302.488 177.014V173.722H305.649H308.809V177.014V180.306H309.731H310.653V173.458V166.61H309.731H308.809V169.244V171.878H305.649H302.488V169.244V166.61H301.566H300.644V173.458V180.306H301.566H302.488V177.014ZM324.086 179.385V178.463H321.32H318.555V176.092V173.722H321.189H323.823V172.8V171.878H321.189H318.555V170.034V168.191H321.32H324.086V167.4V166.61H320.267H316.448V173.458V180.306H320.267H324.086V179.385ZM331.04 178.594L331.803 176.882H334.753H337.703L338.467 178.594C339.231 180.28 339.231 180.28 340.337 180.306H341.443L341.075 179.464C339.942 176.751 334.938 166.057 334.78 166.004C334.648 165.952 329.881 176.04 328.432 179.464L328.063 180.306H329.169C330.276 180.28 330.276 180.28 331.04 178.594ZM349.898 174.248V168.191H351.478H353.059V167.4V166.61H348.845H344.63V167.4V168.191H346.211H347.791V174.248V180.306H348.845H349.898V174.248ZM359.644 173.458V166.61H358.722H357.8V173.458V180.306H358.722H359.644V173.458ZM218.836 161.896C224.262 159.235 226.184 151.544 222.681 146.461C222.234 145.829 220.864 144.512 219.652 143.564C217.124 141.588 216.36 140.719 216.36 139.85C216.36 139.112 217.519 138.164 218.414 138.164C219.521 138.164 221.285 139.191 222.418 140.456L223.471 141.667V136.663V131.632L222.181 131.079C219.389 129.894 215.701 129.867 213.094 131.026C209.96 132.396 207.694 136.452 207.668 140.693C207.668 144.143 209.117 146.698 212.778 149.595C215.175 151.492 215.57 151.966 215.57 152.967C215.57 155.627 211.882 155.574 209.169 152.861C208.485 152.176 207.853 151.597 207.8 151.597C207.536 151.597 207.668 161.579 207.932 161.737C208.063 161.817 209.038 162.133 210.091 162.396C211.566 162.791 212.62 162.896 214.569 162.844C216.808 162.765 217.335 162.633 218.836 161.896ZM381.795 162.264L383.006 161.843L383.164 158.498C383.27 156.654 383.349 154.573 383.349 153.862V152.572L382.769 153.125C381.32 154.468 378.924 155.074 377.37 154.468C373.814 153.125 372.444 145.987 374.815 141.114C376.29 138.112 379.951 137.506 382.506 139.824L383.085 140.35V135.583V130.816L381.979 130.5C380.53 130.131 377.001 130.131 375.315 130.526C371.628 131.369 368.309 134.003 366.65 137.4C365.122 140.535 364.78 142.22 364.78 146.724C364.78 151.255 365.122 152.914 366.676 156.075C368.283 159.367 371.075 161.658 374.525 162.58C376.211 163.002 380.188 162.844 381.795 162.264ZM394.174 162.001C396.597 160.421 396.992 156.786 394.99 154.679C392.567 152.124 388.511 152.624 387.036 155.68C385.719 158.419 387.089 161.764 389.881 162.686C391.04 163.054 393.068 162.738 394.174 162.001ZM236.641 156.075V149.753H238.485H240.328V156.075V162.396H244.806H249.284V146.593V130.789H244.806H240.328V136.32V141.852H238.485H236.641V136.32V130.789H232.295H227.949V146.593V162.396H232.295H236.641V156.075ZM260.425 161.948C260.504 161.685 260.636 161 260.741 160.421C261.057 158.34 260.873 158.445 263.875 158.445H266.588L266.773 159.841C267.141 162.659 266.641 162.396 271.698 162.396C275.359 162.396 276.149 162.317 276.149 162.027C276.149 161.658 269.933 132.106 269.67 131.263C269.538 130.842 269.038 130.789 264.218 130.789H258.897L255.236 146.013C253.261 154.363 251.549 161.474 251.47 161.817L251.338 162.396H255.816C259.872 162.396 260.32 162.343 260.425 161.948ZM291.426 162.317C291.426 162.264 291.9 158.814 292.479 154.652C293.059 150.491 293.533 146.698 293.533 146.198C293.533 144.565 293.981 144.986 294.165 146.803C294.27 147.778 294.903 151.65 295.587 155.416L296.825 162.264L301.119 162.343C303.463 162.37 305.385 162.37 305.385 162.343C305.385 162.159 311.417 132.185 311.575 131.527L311.759 130.789H307.387C304.99 130.789 303.015 130.868 303.015 131C303.015 131.105 302.541 134.635 301.935 138.823C301.356 143.037 300.802 146.988 300.723 147.646L300.565 148.831L300.355 147.383C300.223 146.593 299.565 142.536 298.88 138.375L297.615 130.789H293.796H289.977L288.713 138.112C288.028 142.115 287.475 145.723 287.475 146.092C287.475 146.487 287.396 147.198 287.291 147.673C287.159 148.331 286.896 147.014 286.237 142.51C285.763 139.191 285.183 135.188 284.946 133.634L284.525 130.789H280.179C276.176 130.789 275.833 130.816 275.939 131.263C275.991 131.5 277.572 138.612 279.468 147.04L282.866 162.396H287.159C289.503 162.396 291.426 162.343 291.426 162.317ZM334.358 146.593V130.789H330.012H325.666V146.593V162.396H330.012H334.358V146.593ZM347.185 154.705C347.08 150.464 346.948 146.566 346.869 146.066C346.79 145.565 347.791 148.173 349.108 151.86C350.399 155.548 351.795 159.446 352.163 160.5L352.848 162.396H357.036H361.224V146.593V130.789H357.01H352.795V135.873C352.795 138.638 352.98 142.51 353.191 144.459C353.401 146.408 353.559 148.041 353.507 148.068C353.428 148.147 352.874 146.593 348.818 135.346L347.212 130.789H343.024H338.836V146.593V162.396H343.076H347.343L347.185 154.705ZM198.186 122.229V82.5891H158.019H117.853V122.229V161.869H158.019H198.186V122.229ZM286.527 126.944C286.685 126.338 286.79 126.285 287.949 126.364C289.003 126.443 289.187 126.522 289.266 127.049C289.345 127.602 289.477 127.629 291.584 127.629C292.795 127.629 293.796 127.55 293.796 127.444C293.796 127.313 293.112 124.81 292.242 121.834L290.715 116.435H288.107H285.526L283.867 121.571C282.945 124.389 282.128 126.917 282.049 127.181C281.917 127.576 282.128 127.629 284.13 127.629C286.316 127.629 286.369 127.602 286.527 126.944ZM298.827 125.074L298.853 122.493L300.065 125.074L301.277 127.629H303.331H305.385V121.966V116.303H303.384H301.382L301.487 119.227L301.566 122.15L300.197 119.227L298.827 116.303H296.825H294.85V121.966V127.629H296.825H298.801L298.827 125.074ZM314.367 127.339C317.659 126.338 319.003 122.282 317.106 119.042C316.053 117.251 314.288 116.54 310.522 116.356L307.493 116.224V121.939V127.629H310.416C312.049 127.629 313.814 127.497 314.367 127.339ZM273.963 123.888C276.018 122.756 276.518 120.675 275.069 119.227C274.648 118.779 273.831 118.305 273.252 118.147C272.567 117.962 261.637 117.91 239.749 117.936C207.668 118.015 207.273 118.015 206.351 118.542C203.612 120.148 204.323 123.414 207.563 124.178C208.169 124.31 222.049 124.415 240.855 124.389C270.908 124.336 273.173 124.31 273.963 123.888ZM395.464 123.836C396.808 123.125 397.308 122.414 397.308 121.097C397.308 119.701 396.36 118.621 394.78 118.173C393.331 117.778 330.17 117.778 328.722 118.173C327.141 118.621 326.193 119.701 326.193 121.097C326.219 122.73 327.141 123.73 329.222 124.231C329.67 124.336 344.525 124.389 362.277 124.389C393.173 124.336 394.569 124.31 395.464 123.836ZM216.149 106.426L216.228 99.4197L218.704 106.215C220.074 109.955 221.259 113.09 221.364 113.221C221.443 113.327 223.682 113.379 226.29 113.353L231.031 113.274L227.212 105.109C225.131 100.631 223.392 96.8385 223.392 96.6804C223.392 96.4697 225.447 91.755 229.503 82.7735L230.293 81.0088H225.5H220.706L218.467 87.4355L216.228 93.8885L216.149 87.4355L216.097 81.0088H211.619H207.141V97.2072V113.406H211.619H216.097L216.149 106.426ZM242.962 97.2072V81.0088H238.353H233.744V97.2072V113.406H238.353H242.962V97.2072ZM256.342 107.084C256.29 103.608 256.342 100.974 256.421 101.237C256.527 101.474 257.501 104.24 258.608 107.348C259.74 110.456 260.741 113.09 260.846 113.221C260.952 113.327 263.191 113.379 265.798 113.353L270.565 113.274L267.405 106.689L264.218 100.131L264.85 99.7094C267.51 97.9974 268.748 95.8376 268.959 92.5716C269.222 88.8051 268.221 85.6708 266.14 83.8007C263.638 81.5356 261.189 81.0088 253.182 81.0088H247.176V97.2072V113.406H251.812H256.448L256.342 107.084ZM281.68 106.505C281.68 102.712 281.733 99.6831 281.812 99.7621C281.891 99.8147 283.05 102.896 284.393 106.584L286.869 113.274L291.795 113.353L296.72 113.406L296.325 112.694C294.85 109.797 288.976 96.8648 289.003 96.5487C289.003 96.338 290.504 92.8613 292.321 88.8314C294.165 84.7752 295.64 81.3775 295.64 81.2458C295.64 81.1141 293.559 81.0088 290.952 81.0088H286.237L284.025 87.4091L281.812 93.7831L281.733 87.3828L281.68 81.0088H277.203H272.725V97.2072V113.406H277.203H281.68V106.505ZM314.867 109.455V105.504H311.707H308.546V93.2564V81.0088H303.937H299.327V97.2072V113.406H307.097H314.867V109.455ZM325.008 112.563C325.087 112.089 325.245 111.167 325.35 110.508L325.561 109.323L328.353 109.244L331.145 109.165L331.277 110.034C331.356 110.508 331.514 111.457 331.619 112.168L331.777 113.406H336.465C340.811 113.406 341.154 113.379 341.048 112.958C340.706 111.43 334.358 81.3775 334.358 81.2195C334.358 81.0878 331.882 81.0088 328.827 81.0088C325.798 81.0088 323.296 81.0351 323.296 81.0878C323.296 81.1405 321.584 88.331 319.477 97.0492C317.37 105.794 315.658 113.037 315.658 113.169C315.658 113.3 317.738 113.406 320.267 113.406H324.85L325.008 112.563ZM351.9 105.846C351.795 101.658 351.663 97.734 351.584 97.0755C351.531 96.3644 352.69 99.367 354.56 104.661L357.615 113.406H361.935H366.228V97.2072V81.0088H361.83H357.457L357.615 87.1194C357.694 90.4908 357.905 94.2836 358.063 95.5478C358.221 96.8121 358.327 98.05 358.274 98.2608C358.221 98.4715 356.773 94.6787 355.034 89.8323L351.874 81.0088H347.607H343.313V97.2072V113.406H347.686H352.084L351.9 105.846ZM384.507 112.668C386.746 111.825 388.063 111.009 389.459 109.507C392.093 106.689 393.147 103.291 393.199 97.4706C393.226 93.1247 392.91 91.439 391.54 88.5154C390.565 86.4083 388.248 83.9324 386.272 82.8788C383.48 81.4039 381.294 81.0088 375.658 81.0088H370.706V97.2335V113.458L376.843 113.353C382.295 113.248 383.112 113.169 384.507 112.668Z" fill="#FEFEFE"/>
<path d="M120.486 170.561V168.112L121.54 168.296C123.805 168.665 124.832 169.797 124.2 171.299C123.805 172.22 123.147 172.642 121.672 172.852L120.486 173.011V170.561Z" fill="#FEFEFE"/>
<path d="M178.169 176.514V174.248H179.433C180.197 174.248 180.987 174.459 181.54 174.775C182.33 175.276 182.409 175.407 182.33 176.408C182.225 177.778 181.461 178.384 179.565 178.621L178.169 178.805V176.514Z" fill="#FEFEFE"/>
<path d="M178.169 170.298C178.169 167.953 178.248 167.874 179.986 168.48C182.225 169.27 181.566 172.405 179.143 172.405H178.169V170.298Z" fill="#FEFEFE"/>
<path d="M245.491 174.064C245.728 173.511 246.149 172.51 246.439 171.825C246.755 171.114 247.071 170.561 247.176 170.561C247.387 170.561 249.02 174.222 249.02 174.723C249.02 174.933 248.441 175.039 247.045 175.039H245.069L245.491 174.064Z" fill="#FEFEFE"/>
<path d="M277.993 173.327V168.164L279.389 168.349C281.443 168.586 283.524 169.692 284.13 170.877C286.026 174.67 283.55 178.463 279.126 178.463H277.993V173.327Z" fill="#FEFEFE"/>
<path d="M332.778 174.881C332.778 174.802 333.226 173.722 333.752 172.457L334.727 170.192L335.57 172.036C337.018 175.249 337.071 175.039 334.78 175.039C333.673 175.039 332.778 174.96 332.778 174.881Z" fill="#FEFEFE"/>
<path d="M263.059 146.277C263.48 143.485 263.902 140.982 264.007 140.719C264.086 140.482 264.455 142.747 264.824 145.802L265.508 151.334H263.902H262.295L263.059 146.277Z" fill="#FEFEFE"/>
<path d="M120.381 159.025C120.118 158.577 120.223 147.383 120.513 146.672C120.96 145.592 122.435 142.536 122.593 142.378C122.672 142.299 122.91 141.904 123.12 141.483C123.331 141.061 123.647 140.666 123.831 140.614C124.174 140.482 127.071 141.852 127.071 142.141C127.071 142.247 127.44 142.457 127.861 142.642C128.309 142.826 128.651 143.063 128.651 143.195C128.651 143.327 128.888 143.432 129.178 143.432C129.468 143.432 129.705 143.564 129.705 143.695C129.705 143.853 129.889 143.959 130.1 143.959C130.495 143.959 132.26 144.854 132.734 145.302C132.866 145.434 133.182 145.539 133.445 145.539C133.708 145.539 133.919 145.644 133.919 145.776C133.919 145.908 134.183 146.119 134.525 146.224C135.5 146.514 139.398 148.41 139.556 148.647C139.714 148.91 136.079 156.154 134.551 158.656C134.183 159.235 134.13 159.235 127.334 159.235C123.594 159.235 120.46 159.156 120.381 159.025Z" fill="#FEFEFE"/>
<path d="M141.663 147.883C140.004 146.803 138.976 146.224 136.685 144.986C135.684 144.459 134.13 143.616 133.261 143.142C132.392 142.694 130.969 141.931 130.1 141.483C129.231 141.035 128.467 140.614 128.388 140.535C128.309 140.456 126.913 139.745 125.306 138.954C123.673 138.164 122.33 137.479 122.33 137.453C122.33 137.321 122.962 136.215 123.12 136.057C123.199 135.978 123.41 135.636 123.621 135.267C124.938 132.975 124.964 132.528 123.673 132.291C123.068 132.159 122.857 131.975 122.857 131.579C122.857 131.105 126.913 122.703 127.308 122.361C127.624 122.097 128.125 121.044 128.125 120.675C128.125 120.464 128.23 120.254 128.362 120.201C128.467 120.175 129.126 119.016 129.837 117.673C131.18 115.012 131.707 114.512 132.497 115.118C133.419 115.829 133.814 115.565 134.736 113.748C135.21 112.747 135.684 111.904 135.763 111.825C135.842 111.746 136.263 111.009 136.685 110.14C137.133 109.297 137.633 108.533 137.844 108.454C138.239 108.296 139.793 109.033 140.636 109.745C140.925 110.008 141.663 110.403 142.295 110.64C142.901 110.903 143.401 111.193 143.401 111.325C143.401 111.457 143.586 111.562 143.796 111.562C144.27 111.562 148.853 113.853 149.064 114.196C149.143 114.354 149.459 114.459 149.749 114.459C150.012 114.459 150.249 114.591 150.249 114.723C150.249 114.881 150.486 114.986 150.75 114.986C151.04 114.986 151.303 115.091 151.356 115.197C151.408 115.328 152.514 115.934 153.805 116.566C155.122 117.172 156.465 117.857 156.834 118.068C157.203 118.252 157.993 118.673 158.599 118.963C159.205 119.253 159.731 119.648 159.784 119.806C159.837 119.99 159.81 121.202 159.731 122.493C159.547 125.337 159.916 127.26 161.127 129.709C162.076 131.632 162.286 131.948 163.84 133.555C165.421 135.162 166.685 136.057 167.317 136.057C168.107 136.057 168.028 135.636 167.08 134.793C165.974 133.818 164.42 132.291 163.946 131.685C163.392 131.026 162.365 128.788 162.365 128.313C162.365 128.103 162.26 127.866 162.128 127.787C161.707 127.523 161.496 123.572 161.838 121.939C162.207 120.017 162.866 118.147 163.155 118.147C163.445 118.147 164.815 118.726 164.999 118.937C165.078 119.016 165.737 119.358 166.448 119.701C169.819 121.307 172.111 122.493 172.111 122.677C172.111 122.809 172.269 122.888 172.453 122.888C172.927 122.888 174.218 123.52 174.218 123.757C174.218 123.862 174.455 123.941 174.718 123.941C175.008 123.941 175.271 124.047 175.324 124.152C175.377 124.284 177.115 125.258 179.222 126.312C181.329 127.365 183.226 128.313 183.436 128.445C183.647 128.577 184.648 129.051 185.622 129.499C186.623 129.973 187.493 130.5 187.572 130.684C187.756 131.211 184.806 135.925 183.068 137.822C180.802 140.298 177.141 142.484 174.086 143.169C170.82 143.88 165.5 143.458 162.76 142.273C162.26 142.036 161.443 141.694 160.996 141.483C160.522 141.299 159.652 140.93 159.073 140.666C154.964 138.902 152.567 138.717 150.118 139.955C149.38 140.324 146.562 142.958 146.562 143.274C146.562 143.353 146.114 144.117 145.561 144.986C144.982 145.829 144.376 146.935 144.191 147.435C143.849 148.252 143.48 148.673 143.111 148.7C143.032 148.7 142.4 148.331 141.663 147.883ZM130.969 134.161C131.733 133.397 131.127 132.501 129.126 131.474C128.493 131.132 127.545 130.631 127.018 130.315C125.754 129.578 124.727 129.472 124.358 130.025C123.937 130.684 124.648 131.579 126.176 132.37C126.887 132.712 127.519 133.107 127.624 133.212C127.835 133.529 129.784 134.45 130.258 134.477C130.469 134.477 130.785 134.345 130.969 134.161ZM132.181 131.158C133.103 130.263 132.655 129.788 129.468 128.208C127.045 126.996 125.754 126.786 125.754 127.576C125.754 128.261 126.465 128.998 127.861 129.762C128.52 130.104 129.099 130.447 129.178 130.526C129.415 130.789 131.127 131.579 131.47 131.579C131.628 131.579 131.97 131.395 132.181 131.158ZM133.34 128.788C133.735 128.682 133.919 128.419 133.919 127.971C133.919 127.26 133.577 126.838 132.602 126.417C130.601 125.522 129.31 124.837 129.231 124.679C129.047 124.284 127.124 124.442 126.992 124.837C126.808 125.284 127.756 126.575 128.256 126.575C128.441 126.575 128.651 126.654 128.704 126.786C128.783 126.97 132.313 128.919 132.602 128.946C132.681 128.946 132.997 128.867 133.34 128.788ZM135.394 125.363C135.605 124.521 135.447 124.336 133.709 123.52C132.892 123.125 131.759 122.572 131.206 122.308C130.258 121.808 128.809 121.597 128.493 121.913C128.098 122.308 128.73 123.335 129.705 123.941C130.284 124.31 130.759 124.679 130.759 124.784C130.759 124.916 130.943 124.995 131.18 124.995C131.417 124.995 131.917 125.205 132.286 125.495C133.629 126.417 135.157 126.364 135.394 125.363ZM136.579 123.177C136.764 121.729 136.5 121.281 135.236 120.912C134.867 120.807 133.761 120.306 132.76 119.806C130.68 118.752 129.705 118.779 129.705 119.859C129.705 120.227 129.81 120.517 129.942 120.517C130.074 120.517 130.363 120.675 130.548 120.86C130.732 121.044 131.601 121.597 132.471 122.071C133.34 122.545 134.183 123.019 134.314 123.151C134.867 123.599 136.527 123.625 136.579 123.177ZM138.107 120.201C138.423 119.306 138.186 118.831 137.264 118.436C136.79 118.252 135.5 117.699 134.393 117.172C132.023 116.119 131.443 116.119 131.338 117.225C131.285 117.804 131.417 118.12 131.838 118.357C135.868 120.86 137.659 121.386 138.107 120.201Z" fill="#FEFEFE"/>
<path d="M189.494 122.176C187.097 120.833 182.014 118.173 178.432 116.382C176.773 115.565 175.35 114.802 175.271 114.723C175.192 114.644 174.244 114.117 173.164 113.59C172.084 113.063 170.82 112.405 170.399 112.141C169.951 111.904 169.029 111.457 168.344 111.167C167.659 110.903 167.106 110.561 167.106 110.456C167.106 110.35 166.869 110.245 166.579 110.245C166.29 110.245 166.053 110.166 166.053 110.034C166.053 109.718 163.761 108.612 163.234 108.717C162.971 108.77 162.444 109.428 162.023 110.245C161.601 111.035 160.917 112.326 160.469 113.142C160.021 113.932 159.468 114.933 159.257 115.328C159.047 115.75 158.73 116.145 158.546 116.224C158.151 116.356 156.623 115.697 154.727 114.565C154.068 114.169 151.698 112.905 149.459 111.746C141.373 107.558 141.294 107.532 141.294 107.058C141.294 106.795 141.373 106.558 141.505 106.505C141.61 106.478 142.111 105.636 142.611 104.661C143.111 103.66 143.612 102.87 143.691 102.87C143.796 102.87 144.007 102.475 144.218 102.027C144.402 101.553 144.876 100.658 145.298 100.052C145.693 99.446 146.035 98.8929 146.035 98.7875C146.035 98.6032 147.984 95.7059 148.643 94.8894C149.723 93.5988 152.567 90.7542 152.804 90.7542C152.962 90.7542 153.252 90.5698 153.436 90.3327C153.831 89.8586 156.228 88.6471 156.755 88.6471C156.939 88.6471 157.097 88.5154 157.097 88.3573C157.097 88.1993 157.255 88.1203 157.44 88.1993C157.598 88.252 158.362 88.1466 159.073 87.9622C159.81 87.7515 160.969 87.5935 161.654 87.5935C163.234 87.5935 166.632 88.1203 166.975 88.41C167.106 88.5417 167.58 88.6471 168.054 88.6471C168.529 88.6471 169.345 88.8578 169.924 89.1475C170.478 89.4109 172.005 90.1484 173.296 90.7542C174.613 91.3863 175.719 91.9921 175.745 92.1238C175.798 92.2291 176.009 92.3345 176.219 92.3345C176.43 92.3345 176.588 92.4399 176.588 92.5715C176.588 92.7032 176.852 92.8876 177.194 92.9666C177.51 93.0456 178.195 93.4934 178.695 93.9412C179.196 94.3889 180.039 95.0737 180.539 95.4688C182.725 97.1282 186.544 100.789 187.651 102.317C188.019 102.817 188.572 103.529 188.862 103.897C189.916 105.162 191.786 108.717 192.128 110.061C192.26 110.535 192.55 111.562 192.76 112.352C193.261 114.064 193.313 118.12 192.892 119.911C192.392 121.939 191.944 123.019 191.575 123.072C191.364 123.125 190.442 122.703 189.494 122.176Z" fill="#FEFEFE"/>
<path d="M287.528 122.44C287.817 121.07 288.265 120.333 288.265 121.202C288.265 121.465 288.344 122.15 288.423 122.703C288.581 123.625 288.555 123.678 287.949 123.678C287.291 123.678 287.291 123.651 287.528 122.44Z" fill="#FEFEFE"/>
<path d="M311.707 122.097C311.707 119.279 311.917 118.91 312.918 120.017C313.287 120.438 313.419 120.965 313.419 122.097C313.419 123.23 313.287 123.757 312.918 124.178C311.917 125.284 311.707 124.916 311.707 122.097Z" fill="#FEFEFE"/>
<path d="M256.395 91.9394C256.395 87.6989 256.369 87.7779 258.107 88.489C259.845 89.2265 260.583 91.6497 259.714 93.7568C259.24 94.863 258.107 95.7586 257.159 95.7586H256.395V91.9394Z" fill="#FEFEFE"/>
<path d="M327.141 99.9201C327.352 98.7085 327.747 96.0746 328.063 94.0465C328.643 90.2274 328.827 89.4899 328.827 91.0439C328.827 91.8867 329.696 99.3143 330.012 101.237L330.17 102.08H328.485H326.799L327.141 99.9201Z" fill="#FEFEFE"/>
<path d="M379.661 97.3126V89.1475L380.267 89.3055C383.085 90.1484 384.35 93.2037 384.06 98.3925C383.902 101.237 383.375 102.949 382.374 104.029C381.795 104.661 380.32 105.504 379.793 105.504C379.714 105.504 379.661 101.817 379.661 97.3126Z" fill="#FEFEFE"/>
</g>
<defs>
<clipPath id="clip0">
<rect width="300" height="114.574" fill="white" transform="translate(106 71)"/>
</clipPath>
</defs>
</svg>
