<svg width="512" height="256" viewBox="0 0 512 256" fill="none" xmlns="http://www.w3.org/2000/svg">
<g clip-path="url(#clip0)">
<path fill-rule="evenodd" clip-rule="evenodd" d="M145.952 159.082C145.816 159.167 145.577 159.325 145.236 159.555C144.895 159.785 144.444 160.015 143.882 160.245C143.319 160.475 142.651 160.679 141.875 160.858C141.1 161.037 140.218 161.127 139.23 161.127C138.02 161.127 136.913 160.956 135.907 160.615C134.902 160.275 134.033 159.797 133.3 159.184C132.568 158.571 132.001 157.83 131.601 156.961C131.2 156.092 131 155.129 131 154.072C131 153.05 131.205 152.109 131.613 151.248C132.022 150.388 132.585 149.646 133.3 149.025C134.016 148.403 134.855 147.921 135.818 147.58C136.781 147.24 137.816 147.069 138.923 147.069C139.843 147.069 140.67 147.159 141.402 147.338C142.135 147.517 142.783 147.738 143.345 148.002C143.907 148.266 144.388 148.539 144.789 148.82C145.189 149.101 145.526 149.344 145.798 149.549L144.597 151.44C144.239 151.201 143.869 150.959 143.485 150.711C143.102 150.464 142.689 150.239 142.246 150.034C141.803 149.83 141.309 149.659 140.763 149.523C140.218 149.387 139.605 149.318 138.923 149.318C138.054 149.318 137.266 149.446 136.559 149.702C135.852 149.957 135.256 150.307 134.77 150.75C134.284 151.193 133.909 151.712 133.645 152.309C133.381 152.905 133.249 153.544 133.249 154.226C133.249 154.805 133.368 155.376 133.607 155.938C133.846 156.501 134.212 156.999 134.706 157.433C135.2 157.868 135.822 158.217 136.572 158.481C137.322 158.745 138.199 158.877 139.204 158.877C139.971 158.877 140.67 158.801 141.3 158.647C141.931 158.494 142.489 158.315 142.974 158.111C143.46 157.906 143.869 157.702 144.201 157.497C144.533 157.293 144.785 157.131 144.955 157.012L145.952 159.082Z" fill="#1D2961"/>
<path fill-rule="evenodd" clip-rule="evenodd" d="M162.36 158.877C163.281 158.877 164.103 158.75 164.827 158.494C165.551 158.238 166.165 157.889 166.667 157.446C167.17 157.003 167.553 156.496 167.817 155.925C168.081 155.355 168.214 154.745 168.214 154.098C168.214 153.467 168.081 152.863 167.817 152.283C167.553 151.704 167.17 151.193 166.667 150.75C166.165 150.307 165.551 149.957 164.827 149.702C164.103 149.446 163.281 149.318 162.36 149.318C161.44 149.318 160.618 149.446 159.894 149.702C159.17 149.957 158.557 150.307 158.054 150.75C157.551 151.193 157.168 151.704 156.904 152.283C156.64 152.863 156.508 153.467 156.508 154.098C156.508 154.745 156.64 155.355 156.904 155.925C157.168 156.496 157.551 157.003 158.054 157.446C158.557 157.889 159.17 158.238 159.894 158.494C160.618 158.75 161.44 158.877 162.36 158.877ZM170.463 154.098C170.463 155.052 170.279 155.955 169.913 156.807C169.547 157.659 169.014 158.405 168.316 159.044C167.617 159.683 166.769 160.189 165.773 160.564C164.776 160.939 163.639 161.127 162.36 161.127C161.1 161.127 159.971 160.939 158.974 160.564C157.977 160.189 157.129 159.683 156.431 159.044C155.732 158.405 155.196 157.659 154.821 156.807C154.446 155.955 154.258 155.052 154.258 154.098C154.258 153.144 154.442 152.241 154.808 151.389C155.174 150.537 155.707 149.791 156.405 149.152C157.104 148.513 157.952 148.007 158.948 147.632C159.945 147.257 161.083 147.069 162.36 147.069C163.639 147.069 164.776 147.257 165.773 147.632C166.769 148.007 167.617 148.513 168.316 149.152C169.014 149.791 169.547 150.537 169.913 151.389C170.279 152.241 170.463 153.144 170.463 154.098Z" fill="#1D2961"/>
<path fill-rule="evenodd" clip-rule="evenodd" d="M182.577 160.718H180.328V147.478H187.715C188.243 147.478 188.818 147.512 189.44 147.581C190.062 147.649 190.645 147.823 191.191 148.105C191.736 148.386 192.192 148.812 192.558 149.382C192.924 149.953 193.107 150.733 193.107 151.721C193.107 152.556 192.975 153.242 192.711 153.778C192.447 154.315 192.081 154.741 191.612 155.057C191.144 155.372 190.577 155.593 189.913 155.721C189.248 155.849 188.515 155.913 187.715 155.913H182.577V160.718ZM187.715 153.663C188.243 153.663 188.703 153.646 189.095 153.612C189.487 153.578 189.815 153.493 190.079 153.357C190.343 153.221 190.539 153.025 190.667 152.769C190.794 152.513 190.858 152.164 190.858 151.721C190.858 151.227 190.782 150.843 190.628 150.571C190.475 150.298 190.258 150.098 189.977 149.97C189.695 149.843 189.363 149.77 188.98 149.753C188.596 149.736 188.175 149.727 187.715 149.727H182.577V153.663H187.715Z" fill="#1D2961"/>
<path fill-rule="evenodd" clip-rule="evenodd" d="M204.27 160.718H202.021V147.478H209.407C209.936 147.478 210.511 147.512 211.133 147.581C211.755 147.649 212.338 147.823 212.884 148.105C213.429 148.386 213.885 148.812 214.251 149.382C214.617 149.953 214.8 150.733 214.8 151.721C214.8 152.556 214.668 153.242 214.404 153.778C214.14 154.315 213.774 154.741 213.305 155.057C212.837 155.372 212.27 155.593 211.606 155.721C210.941 155.849 210.208 155.913 209.407 155.913H204.27V160.718ZM209.407 153.663C209.936 153.663 210.396 153.646 210.788 153.612C211.18 153.578 211.508 153.493 211.772 153.357C212.036 153.221 212.232 153.025 212.36 152.769C212.487 152.513 212.551 152.164 212.551 151.721C212.551 151.227 212.475 150.843 212.321 150.571C212.168 150.298 211.951 150.098 211.669 149.97C211.388 149.843 211.056 149.77 210.673 149.753C210.289 149.736 209.868 149.727 209.407 149.727H204.27V153.663H209.407Z" fill="#1D2961"/>
<path fill-rule="evenodd" clip-rule="evenodd" d="M235.893 160.718H223.982V147.478H235.637V149.727H226.232V152.769H231.394V155.018H226.232V158.469H235.893V160.718Z" fill="#1D2961"/>
<path fill-rule="evenodd" clip-rule="evenodd" d="M288.63 150.443C288.358 150.29 288.055 150.124 287.723 149.945C287.39 149.766 287.008 149.6 286.573 149.446C286.138 149.293 285.644 149.165 285.09 149.063C284.536 148.961 283.893 148.91 283.16 148.91C281.934 148.91 281.009 149.063 280.388 149.37C279.766 149.676 279.454 150.111 279.454 150.673C279.454 150.997 279.497 151.265 279.583 151.478C279.668 151.691 279.86 151.862 280.157 151.989C280.456 152.117 280.886 152.211 281.449 152.271C282.01 152.33 282.769 152.36 283.723 152.36C285.222 152.36 286.411 152.466 287.289 152.679C288.166 152.893 288.834 153.178 289.295 153.536C289.755 153.894 290.053 154.307 290.189 154.775C290.326 155.244 290.393 155.734 290.393 156.245C290.393 157.199 290.193 157.97 289.793 158.558C289.392 159.146 288.877 159.597 288.246 159.913C287.616 160.228 286.912 160.441 286.138 160.552C285.362 160.662 284.609 160.718 283.876 160.718C282.751 160.718 281.754 160.628 280.886 160.449C280.016 160.27 279.263 160.062 278.623 159.823C277.984 159.585 277.461 159.337 277.052 159.082C276.643 158.826 276.328 158.622 276.106 158.469L277.18 156.501C277.554 156.739 277.947 156.973 278.356 157.203C278.765 157.433 279.225 157.642 279.736 157.83C280.246 158.017 280.839 158.17 281.511 158.29C282.184 158.409 282.99 158.469 283.927 158.469C284.524 158.469 285.069 158.434 285.562 158.366C286.058 158.298 286.483 158.187 286.841 158.034C287.199 157.881 287.477 157.676 287.672 157.421C287.867 157.165 287.966 156.85 287.966 156.475C287.966 156.049 287.893 155.721 287.748 155.491C287.603 155.261 287.323 155.086 286.905 154.967C286.488 154.848 285.9 154.767 285.142 154.724C284.384 154.682 283.382 154.643 282.138 154.609C281.389 154.592 280.699 154.52 280.069 154.392C279.438 154.264 278.896 154.06 278.445 153.778C277.993 153.497 277.645 153.127 277.396 152.667C277.15 152.207 277.026 151.627 277.026 150.929C277.026 150.366 277.137 149.83 277.359 149.319C277.58 148.807 277.934 148.356 278.42 147.964C278.905 147.572 279.536 147.257 280.311 147.018C281.086 146.78 282.027 146.66 283.135 146.66C283.936 146.66 284.685 146.733 285.385 146.878C286.082 147.023 286.712 147.189 287.277 147.376C287.838 147.564 288.324 147.755 288.732 147.951C289.142 148.147 289.457 148.305 289.678 148.424L288.63 150.443Z" fill="#1D2961"/>
<path fill-rule="evenodd" clip-rule="evenodd" d="M311.275 160.309H299.364V147.069H311.02V149.318H301.614V152.36H306.776V154.609H301.614V158.06H311.275V160.309Z" fill="#1D2961"/>
<path fill-rule="evenodd" clip-rule="evenodd" d="M336.604 160.309H333.945L332.26 157.216H324.182L322.547 160.309H319.991L327.147 147.069H329.397L336.604 160.309ZM328.246 149.6L325.358 154.967H331.134L328.246 149.6Z" fill="#1D2961"/>
<path fill-rule="evenodd" clip-rule="evenodd" d="M359.907 160.309H357.095L353.287 154.89H348.636V160.309H346.387V147.069H354.565C355.23 147.069 355.864 147.133 356.47 147.261C357.074 147.389 357.611 147.598 358.08 147.887C358.548 148.177 358.918 148.565 359.191 149.05C359.464 149.536 359.6 150.145 359.6 150.878C359.6 151.61 359.489 152.219 359.269 152.705C359.046 153.191 358.761 153.578 358.412 153.868C358.062 154.158 357.68 154.375 357.262 154.52C356.845 154.665 356.438 154.771 356.047 154.839L359.907 160.309ZM354.796 152.641C355.545 152.641 356.158 152.518 356.635 152.27C357.112 152.024 357.351 151.576 357.351 150.929C357.351 150.554 357.292 150.26 357.173 150.047C357.053 149.834 356.878 149.672 356.649 149.561C356.418 149.45 356.137 149.382 355.804 149.357C355.473 149.331 355.093 149.318 354.668 149.318H348.636V152.641H354.796Z" fill="#1D2961"/>
<path fill-rule="evenodd" clip-rule="evenodd" d="M379.236 150.443C378.963 150.29 378.66 150.124 378.328 149.945C377.996 149.766 377.612 149.6 377.178 149.446C376.744 149.293 376.249 149.165 375.696 149.063C375.142 148.961 374.499 148.91 373.766 148.91C372.538 148.91 371.615 149.063 370.993 149.37C370.371 149.676 370.06 150.111 370.06 150.673C370.06 150.997 370.102 151.265 370.187 151.478C370.273 151.691 370.465 151.862 370.763 151.989C371.061 152.117 371.491 152.211 372.053 152.271C372.616 152.33 373.374 152.36 374.328 152.36C375.828 152.36 377.016 152.466 377.893 152.679C378.772 152.893 379.44 153.178 379.9 153.536C380.361 153.894 380.658 154.307 380.795 154.775C380.931 155.244 381 155.734 381 156.245C381 157.199 380.8 157.97 380.4 158.558C379.998 159.146 379.482 159.597 378.853 159.913C378.222 160.228 377.519 160.441 376.744 160.552C375.969 160.662 375.215 160.718 374.482 160.718C373.357 160.718 372.361 160.628 371.491 160.449C370.623 160.27 369.868 160.062 369.229 159.823C368.591 159.585 368.067 159.337 367.658 159.082C367.249 158.826 366.933 158.622 366.712 158.469L367.787 156.501C368.161 156.739 368.552 156.973 368.961 157.203C369.369 157.433 369.83 157.642 370.341 157.83C370.853 158.017 371.445 158.17 372.118 158.29C372.791 158.409 373.596 158.469 374.533 158.469C375.13 158.469 375.674 158.434 376.169 158.366C376.662 158.298 377.089 158.187 377.447 158.034C377.805 157.881 378.081 157.676 378.278 157.421C378.473 157.165 378.57 156.85 378.57 156.475C378.57 156.049 378.499 155.721 378.354 155.491C378.209 155.261 377.927 155.086 377.511 154.967C377.093 154.848 376.505 154.767 375.746 154.724C374.988 154.682 373.987 154.643 372.745 154.609C371.994 154.592 371.304 154.52 370.673 154.392C370.042 154.264 369.502 154.06 369.05 153.778C368.599 153.497 368.249 153.127 368.003 152.667C367.756 152.207 367.633 151.627 367.633 150.929C367.633 150.366 367.743 149.83 367.964 149.319C368.187 148.807 368.54 148.356 369.025 147.964C369.511 147.572 370.141 147.257 370.916 147.018C371.691 146.78 372.634 146.66 373.741 146.66C374.542 146.66 375.291 146.733 375.989 146.878C376.689 147.023 377.319 147.189 377.881 147.376C378.443 147.564 378.928 147.755 379.339 147.951C379.746 148.147 380.062 148.305 380.284 148.424L379.236 150.443Z" fill="#1D2961"/>
<path fill-rule="evenodd" clip-rule="evenodd" d="M252.571 153.169H255.275V150.465H256.724V153.169H259.429V154.618H256.724V157.322H255.275V154.618H252.571V153.169Z" fill="#94C6B6"/>
<path fill-rule="evenodd" clip-rule="evenodd" d="M252.571 153.169H255.275V150.465H256.724V153.169H259.429V154.618H256.724V157.322H255.275V154.618H252.571V153.169Z" fill="#B9D4E2"/>
<path fill-rule="evenodd" clip-rule="evenodd" d="M246.645 63C246.661 63.0025 246.677 63.0038 246.692 63.0088C246.756 63.0263 246.812 63.0651 246.849 63.1189C246.874 63.1551 246.875 63.1664 246.89 63.2064L253.052 86.5898C253.055 86.6053 253.059 86.621 253.06 86.6375C253.065 86.7029 253.048 86.7682 253.009 86.821C252.912 86.9609 252.705 86.978 252.584 86.8574C252.548 86.82 252.529 86.7796 252.513 86.7319L246.35 63.3491C246.343 63.3065 246.338 63.2953 246.342 63.2515C246.351 63.1551 246.413 63.0663 246.503 63.025C246.542 63.0063 246.555 63.0075 246.596 63C246.613 63 246.629 63 246.645 63Z" fill="#5696B9"/>
<path fill-rule="evenodd" clip-rule="evenodd" d="M230.176 72.4293C230.212 72.4387 230.222 72.4397 230.255 72.4573C230.288 72.474 230.294 72.4822 230.322 72.5061L247.45 89.6354C247.497 89.69 247.529 89.7487 247.532 89.8222C247.539 89.9984 247.375 90.1393 247.202 90.1065C247.145 90.0956 247.1 90.0672 247.056 90.0298L229.927 72.9001C229.899 72.868 229.876 72.8369 229.861 72.7954C229.819 72.674 229.867 72.5362 229.976 72.4677C230.013 72.4438 230.051 72.4346 230.093 72.4262C230.135 72.4252 230.135 72.4252 230.176 72.4293Z" fill="#5696B9"/>
<path fill-rule="evenodd" clip-rule="evenodd" d="M220.634 88.8299L220.682 88.8384L244.064 95.1828C244.08 95.1885 244.095 95.1927 244.11 95.1996C244.169 95.2273 244.217 95.2758 244.245 95.335C244.316 95.4899 244.227 95.6778 244.062 95.7215C244.013 95.7347 243.968 95.73 243.918 95.7211L220.536 89.3767C220.472 89.3534 220.419 89.3238 220.38 89.2668C220.293 89.1421 220.325 88.9654 220.449 88.8787C220.492 88.8492 220.535 88.8384 220.585 88.8298C220.601 88.8299 220.617 88.8299 220.634 88.8299Z" fill="#5696B9"/>
<path fill-rule="evenodd" clip-rule="evenodd" d="M244.016 101.518C244.065 101.527 244.109 101.538 244.151 101.568C244.276 101.655 244.307 101.832 244.22 101.956C244.179 102.013 244.127 102.042 244.063 102.065L220.68 108.319C220.665 108.322 220.649 108.326 220.633 108.328C220.568 108.333 220.502 108.315 220.448 108.278C220.309 108.18 220.291 107.973 220.411 107.853C220.448 107.816 220.489 107.798 220.536 107.78L243.919 101.527L243.967 101.518C243.983 101.518 244 101.518 244.016 101.518Z" fill="#5696B9"/>
<path fill-rule="evenodd" clip-rule="evenodd" d="M247.195 107.138C247.238 107.147 247.275 107.156 247.313 107.18C247.421 107.248 247.469 107.387 247.427 107.508C247.412 107.549 247.388 107.58 247.36 107.613L230.231 124.652C230.176 124.698 230.118 124.73 230.044 124.733C229.868 124.739 229.727 124.574 229.761 124.401C229.772 124.344 229.8 124.3 229.838 124.256L246.967 107.218C246.995 107.194 247.001 107.186 247.034 107.169C247.067 107.151 247.077 107.151 247.112 107.141C247.154 107.137 247.154 107.137 247.195 107.138Z" fill="#5696B9"/>
<path fill-rule="evenodd" clip-rule="evenodd" d="M252.807 110.31C252.849 110.317 252.861 110.317 252.9 110.335C252.989 110.377 253.052 110.466 253.06 110.564C253.063 110.607 253.059 110.618 253.051 110.66L246.708 134.043C246.702 134.058 246.697 134.074 246.69 134.089C246.663 134.148 246.614 134.196 246.555 134.223C246.4 134.295 246.212 134.206 246.169 134.041C246.155 133.991 246.16 133.947 246.17 133.897L252.512 110.514C252.528 110.474 252.529 110.462 252.554 110.427C252.591 110.373 252.647 110.335 252.71 110.318C252.726 110.314 252.743 110.312 252.758 110.31C252.775 110.31 252.791 110.31 252.807 110.31Z" fill="#5696B9"/>
<path fill-rule="evenodd" clip-rule="evenodd" d="M259.15 110.31C259.168 110.313 259.183 110.314 259.199 110.318C259.262 110.335 259.318 110.374 259.356 110.428C259.381 110.463 259.381 110.475 259.396 110.516L265.649 133.989C265.658 134.039 265.663 134.083 265.649 134.133C265.605 134.298 265.416 134.386 265.261 134.313C265.202 134.286 265.155 134.237 265.127 134.178C265.121 134.164 265.116 134.148 265.11 134.133L258.858 110.659C258.85 110.617 258.845 110.606 258.849 110.563C258.858 110.464 258.92 110.376 259.009 110.335C259.048 110.316 259.06 110.317 259.102 110.31C259.119 110.31 259.135 110.31 259.15 110.31Z" fill="#5696B9"/>
<path fill-rule="evenodd" clip-rule="evenodd" d="M264.8 107.142C264.835 107.151 264.845 107.152 264.877 107.17C264.91 107.187 264.916 107.195 264.945 107.219L281.983 124.439C282.021 124.483 282.048 124.527 282.058 124.585C282.091 124.758 281.948 124.921 281.773 124.914C281.7 124.911 281.64 124.879 281.586 124.831L264.547 107.611C264.519 107.579 264.497 107.547 264.482 107.506C264.44 107.384 264.489 107.246 264.599 107.178C264.636 107.155 264.673 107.146 264.716 107.138C264.758 107.137 264.758 107.137 264.8 107.142Z" fill="#5696B9"/>
<path fill-rule="evenodd" clip-rule="evenodd" d="M267.942 101.609L267.991 101.617L291.374 107.962C291.389 107.967 291.404 107.972 291.419 107.979C291.478 108.006 291.525 108.055 291.554 108.114C291.626 108.269 291.537 108.457 291.372 108.5C291.322 108.514 291.277 108.509 291.228 108.5L267.845 102.156C267.782 102.132 267.728 102.103 267.688 102.046C267.602 101.921 267.633 101.744 267.758 101.658C267.801 101.628 267.843 101.617 267.895 101.609C267.91 101.609 267.927 101.609 267.942 101.609Z" fill="#5696B9"/>
<path fill-rule="evenodd" clip-rule="evenodd" d="M291.417 89.0115C291.483 89.0235 291.541 89.0438 291.589 89.093C291.696 89.2009 291.696 89.3804 291.587 89.4872C291.549 89.5237 291.509 89.5416 291.462 89.5588L267.989 95.7217C267.972 95.7244 267.957 95.7286 267.94 95.7299C267.875 95.7353 267.81 95.7172 267.757 95.6796C267.617 95.581 267.601 95.3741 267.722 95.2539C267.759 95.2175 267.8 95.1994 267.847 95.1824L291.319 89.0194L291.368 89.0111C291.384 89.0113 291.401 89.0114 291.417 89.0115Z" fill="#5696B9"/>
<path fill-rule="evenodd" clip-rule="evenodd" d="M281.997 72.5175C282.039 72.5258 282.077 72.5351 282.114 72.5589C282.223 72.6274 282.271 72.7664 282.228 72.8867C282.214 72.9281 282.191 72.9593 282.162 72.9924L264.942 90.121C264.887 90.1678 264.83 90.1994 264.756 90.2021C264.579 90.2082 264.438 90.0439 264.472 89.8708C264.483 89.8132 264.512 89.7692 264.549 89.7258L281.769 72.5963C281.797 72.5724 281.803 72.5652 281.835 72.5475C281.869 72.5299 281.879 72.5299 281.914 72.5206C281.955 72.5154 281.955 72.5154 281.997 72.5175Z" fill="#5696B9"/>
<path fill-rule="evenodd" clip-rule="evenodd" d="M265.587 63C265.629 63.0075 265.64 63.0075 265.679 63.0263C265.769 63.0676 265.83 63.1551 265.838 63.254C265.843 63.2978 265.837 63.3078 265.83 63.3503L259.486 86.7339C259.481 86.7485 259.477 86.7641 259.47 86.7796C259.442 86.8377 259.393 86.8863 259.334 86.9137C259.179 86.9853 258.992 86.897 258.948 86.7319C258.934 86.6821 258.939 86.6375 258.948 86.5877L265.291 63.2039C265.306 63.1652 265.309 63.1526 265.334 63.1176C265.37 63.0638 265.426 63.025 265.49 63.0088C265.505 63.0038 265.521 63.0025 265.538 63C265.554 63 265.57 63 265.587 63Z" fill="#5696B9"/>
<path fill-rule="evenodd" clip-rule="evenodd" d="M256.34 69.624C256.379 69.6365 256.39 69.6385 256.424 69.6602C256.477 69.6945 256.515 69.7453 256.535 69.8034C256.549 69.8428 256.548 69.8532 256.55 69.8936V90.8297C256.547 90.8775 256.54 90.9195 256.517 90.9624C256.432 91.1198 256.215 91.156 256.083 91.0349C256.038 90.9931 256.007 90.9364 255.997 90.8757C255.994 90.8606 255.994 90.8451 255.993 90.8297V69.8936C255.996 69.8532 255.995 69.8428 256.009 69.8034C256.039 69.7153 256.113 69.6469 256.204 69.624C256.243 69.6136 256.254 69.6157 256.295 69.6157C256.31 69.6188 256.325 69.6208 256.34 69.624Z" fill="#A7C7D9"/>
<path fill-rule="evenodd" clip-rule="evenodd" d="M241.936 73.2424C241.974 73.2486 241.985 73.2486 242.02 73.2641C242.077 73.29 242.114 73.3304 242.149 73.3802L252.57 91.5063C252.604 91.5747 252.618 91.643 252.598 91.7179C252.559 91.8646 252.404 91.954 252.256 91.9146C252.228 91.9068 252.201 91.8948 252.176 91.8788C252.138 91.8537 252.113 91.8218 252.087 91.7842L241.664 73.6582C241.646 73.6167 241.63 73.5794 241.628 73.5328C241.623 73.43 241.678 73.3294 241.767 73.2776C241.808 73.2547 241.847 73.2465 241.892 73.2402C241.907 73.2412 241.922 73.2412 241.936 73.2424Z" fill="#A7C7D9"/>
<path fill-rule="evenodd" clip-rule="evenodd" d="M231.271 83.6694C231.313 83.6818 231.313 83.6818 231.352 83.7005L249.478 94.2138C249.54 94.2567 249.588 94.3083 249.608 94.3834C249.647 94.5301 249.557 94.6854 249.409 94.7244C249.382 94.7319 249.352 94.7351 249.323 94.7333C249.277 94.7308 249.239 94.7158 249.198 94.6961L231.072 84.1827C231.035 84.1568 231.003 84.132 230.978 84.0935C230.896 83.966 230.933 83.7898 231.061 83.7078C231.113 83.6745 231.167 83.6653 231.227 83.6631C231.242 83.6653 231.256 83.6673 231.271 83.6694Z" fill="#A7C7D9"/>
<path fill-rule="evenodd" clip-rule="evenodd" d="M249.004 101.972C249.049 101.98 249.088 101.99 249.128 102.015C249.241 102.089 249.286 102.238 249.231 102.362C249.206 102.419 249.166 102.456 249.116 102.49L230.99 113.003C230.949 113.023 230.911 113.038 230.865 113.041C230.836 113.042 230.806 113.039 230.778 113.032C230.631 112.993 230.541 112.837 230.58 112.691C230.6 112.616 230.648 112.564 230.71 112.521L248.836 102.008C248.879 101.988 248.914 101.977 248.961 101.971C248.975 101.971 248.99 101.971 249.004 101.972Z" fill="#A7C7D9"/>
<path fill-rule="evenodd" clip-rule="evenodd" d="M251.844 104.967C251.881 104.979 251.891 104.979 251.926 104.999C252.015 105.051 252.07 105.151 252.063 105.255C252.061 105.301 252.046 105.339 252.026 105.38L241.513 123.506C241.487 123.543 241.462 123.575 241.424 123.6C241.296 123.683 241.12 123.645 241.038 123.518C241.023 123.493 241.01 123.466 241.003 123.438C240.983 123.363 240.999 123.295 241.031 123.226L251.544 105.1C251.567 105.068 251.57 105.058 251.599 105.032C251.657 104.981 251.725 104.963 251.8 104.962C251.815 104.964 251.829 104.965 251.844 104.967Z" fill="#A7C7D9"/>
<path fill-rule="evenodd" clip-rule="evenodd" d="M256.34 106.238C256.379 106.252 256.39 106.253 256.424 106.275C256.477 106.309 256.515 106.36 256.535 106.418C256.549 106.457 256.548 106.468 256.55 106.509V127.445C256.547 127.492 256.54 127.534 256.517 127.577C256.432 127.735 256.215 127.771 256.083 127.65C256.038 127.608 256.007 127.551 255.997 127.49C255.994 127.475 255.994 127.46 255.993 127.445V106.509C255.996 106.468 255.995 106.457 256.009 106.418C256.039 106.33 256.113 106.261 256.204 106.238C256.243 106.228 256.254 106.231 256.295 106.231C256.31 106.233 256.325 106.236 256.34 106.238Z" fill="#A7C7D9"/>
<path fill-rule="evenodd" clip-rule="evenodd" d="M285.317 98.7373C285.303 98.7758 285.302 98.7868 285.281 98.8212C285.246 98.8729 285.196 98.9126 285.137 98.9326C285.098 98.946 285.088 98.9442 285.047 98.9476H264.111C264.064 98.9436 264.021 98.9372 263.979 98.914C263.821 98.829 263.785 98.6115 263.906 98.4799C263.947 98.4345 264.005 98.404 264.065 98.3938C264.08 98.3913 264.096 98.3913 264.111 98.39H285.047C285.088 98.3933 285.098 98.3917 285.137 98.4051C285.226 98.4354 285.295 98.51 285.317 98.6004C285.327 98.6403 285.325 98.6511 285.325 98.6919C285.322 98.707 285.32 98.7222 285.317 98.7373Z" fill="#A7C7D9"/>
<path fill-rule="evenodd" clip-rule="evenodd" d="M248.702 98.7373C248.689 98.7758 248.688 98.7868 248.666 98.8212C248.632 98.8729 248.581 98.9126 248.523 98.9326C248.483 98.946 248.473 98.9442 248.431 98.9476H227.496C227.448 98.9436 227.406 98.9372 227.363 98.914C227.206 98.829 227.17 98.6115 227.291 98.4799C227.333 98.4345 227.389 98.404 227.45 98.3938C227.465 98.3913 227.481 98.3913 227.496 98.39H248.431C248.473 98.3933 248.483 98.3917 248.523 98.4051C248.611 98.4354 248.679 98.51 248.702 98.6004C248.712 98.6403 248.709 98.6511 248.709 98.6919C248.707 98.707 248.705 98.7222 248.702 98.7373Z" fill="#A7C7D9"/>
<path fill-rule="evenodd" clip-rule="evenodd" d="M259.608 105.325C259.667 105.336 259.72 105.354 259.766 105.395C259.795 105.421 259.8 105.431 259.821 105.463L270.335 123.589C270.367 123.657 270.383 123.725 270.362 123.8C270.323 123.947 270.168 124.037 270.021 123.998C269.993 123.991 269.966 123.979 269.941 123.963C269.903 123.938 269.878 123.906 269.852 123.869L259.338 105.742C259.319 105.702 259.303 105.664 259.302 105.618C259.296 105.514 259.351 105.413 259.44 105.361C259.48 105.338 259.52 105.33 259.565 105.324C259.58 105.325 259.593 105.325 259.608 105.325Z" fill="#A7C7D9"/>
<path fill-rule="evenodd" clip-rule="evenodd" d="M262.629 102.611C262.67 102.623 262.67 102.623 262.709 102.642L280.835 113.064C280.898 113.107 280.946 113.159 280.966 113.234C281.006 113.38 280.916 113.536 280.769 113.575C280.742 113.583 280.712 113.586 280.682 113.585C280.637 113.582 280.599 113.567 280.558 113.548L262.431 103.125C262.393 103.1 262.362 103.075 262.337 103.036C262.254 102.909 262.291 102.733 262.418 102.65C262.47 102.616 262.523 102.607 262.585 102.605C262.6 102.607 262.614 102.609 262.629 102.611Z" fill="#A7C7D9"/>
<path fill-rule="evenodd" clip-rule="evenodd" d="M281.088 84.2989C281.148 84.3104 281.201 84.328 281.246 84.3694C281.347 84.4597 281.366 84.6153 281.294 84.7283C281.267 84.7667 281.236 84.7926 281.198 84.8175L263.073 95.2406C263.03 95.2601 262.994 95.275 262.946 95.2772C262.795 95.2849 262.662 95.1646 262.654 95.0128C262.654 94.9837 262.656 94.9544 262.664 94.9261C262.685 94.8512 262.733 94.7998 262.794 94.757L280.921 84.3342C280.963 84.3145 280.998 84.3041 281.045 84.2979C281.06 84.2979 281.075 84.2989 281.088 84.2989Z" fill="#A7C7D9"/>
<path fill-rule="evenodd" clip-rule="evenodd" d="M270.694 73.6085C270.731 73.6199 270.741 73.6209 270.776 73.6395C270.866 73.6915 270.92 73.792 270.915 73.8958C270.913 73.9424 270.898 73.9797 270.879 74.0203L260.456 92.1469C260.413 92.2092 260.362 92.2568 260.287 92.2771C260.259 92.2847 260.23 92.2879 260.199 92.2864C260.048 92.2787 259.928 92.1455 259.936 91.9938C259.939 91.9477 259.953 91.9099 259.973 91.8689L270.395 73.7422C270.417 73.7111 270.421 73.7008 270.45 73.6748C270.507 73.623 270.576 73.6054 270.65 73.6032C270.665 73.6054 270.68 73.6075 270.694 73.6085Z" fill="#A7C7D9"/>
<path fill-rule="evenodd" clip-rule="evenodd" d="M256.349 92.5616C256.599 92.5664 256.847 92.5833 257.094 92.618C257.669 92.6984 258.231 92.8651 258.756 93.1112C259.485 93.4516 260.138 93.9403 260.672 94.5397C261.386 95.3423 261.873 96.3438 262.061 97.4018C262.176 98.0392 262.182 98.6959 262.084 99.3359C261.997 99.9085 261.824 100.47 261.571 100.992C261.272 101.608 260.87 102.171 260.379 102.649C259.854 103.16 259.236 103.573 258.561 103.859C257.863 104.155 257.106 104.312 256.348 104.321C255.563 104.331 254.777 104.185 254.05 103.886C253.437 103.634 252.867 103.28 252.372 102.841C251.789 102.324 251.313 101.692 250.973 100.992C250.655 100.336 250.467 99.6204 250.409 98.8945C250.388 98.6174 250.384 98.3377 250.404 98.0604C250.447 97.4522 250.576 96.8523 250.8 96.2849C251.071 95.6023 251.468 94.9784 251.966 94.4387C252.462 93.9009 253.065 93.4588 253.724 93.1415C254.224 92.9008 254.758 92.7308 255.306 92.6403C255.575 92.5956 255.848 92.5716 256.12 92.5631C256.198 92.5614 256.273 92.5609 256.349 92.5616ZM256.204 93.1505C255.957 93.1554 255.711 93.1738 255.467 93.2112C254.973 93.2867 254.49 93.4331 254.037 93.6447C253.016 94.1223 252.159 94.929 251.621 95.9201C251.373 96.3757 251.192 96.8676 251.089 97.3755C250.972 97.9464 250.95 98.5369 251.023 99.1149C251.093 99.6548 251.245 100.183 251.475 100.676C251.745 101.254 252.121 101.781 252.577 102.227C253.049 102.687 253.607 103.059 254.213 103.317C254.842 103.583 255.521 103.724 256.204 103.732C256.89 103.741 257.575 103.617 258.211 103.365C258.826 103.123 259.393 102.764 259.876 102.314C260.343 101.88 260.729 101.363 261.013 100.792C261.255 100.306 261.42 99.7832 261.503 99.2467C261.588 98.6921 261.584 98.124 261.491 97.5706C261.411 97.0781 261.259 96.5978 261.042 96.1483C260.533 95.0933 259.672 94.222 258.624 93.7005C258.177 93.4785 257.699 93.3206 257.209 93.2329C256.967 93.1895 256.722 93.165 256.477 93.1541C256.387 93.1511 256.295 93.15 256.204 93.1505Z" fill="#5696B9"/>
<path fill-rule="evenodd" clip-rule="evenodd" d="M179.795 173.802C179.795 172.739 178.933 171.851 177.494 171.851H174.791V178.107H176.152V175.752H177.494C178.933 175.752 179.795 174.865 179.795 173.802ZM178.434 173.802C178.434 174.311 178.042 174.654 177.425 174.654H176.152V172.941H177.425C178.042 172.941 178.434 173.292 178.434 173.802Z" fill="#1D2961"/>
<path fill-rule="evenodd" clip-rule="evenodd" d="M187.302 178.107V177.018H184.661V175.497H186.91V174.408H184.661V172.941H187.302V171.851H183.549V178.107H187.302Z" fill="#1D2961"/>
<path fill-rule="evenodd" clip-rule="evenodd" d="M198.561 174.953C198.561 174.013 198.638 173.152 197.864 172.449C197.409 172.036 196.761 171.851 196.045 171.851H193.558V178.107H196.045C196.761 178.107 197.409 177.923 197.864 177.51C198.638 176.807 198.561 175.893 198.561 174.953ZM197.216 174.953C197.216 175.902 197.177 176.35 196.926 176.631C196.693 176.886 196.384 177.018 195.919 177.018H194.903V172.941H195.919C196.384 172.941 196.693 173.073 196.926 173.327C197.177 173.609 197.216 174.004 197.216 174.953Z" fill="#1D2961"/>
<path fill-rule="evenodd" clip-rule="evenodd" d="M203.567 178.107H204.541V171.851H203.567V178.107Z" fill="#1D2961"/>
<path fill-rule="evenodd" clip-rule="evenodd" d="M214.828 178.107L212.756 171.851H211.887L209.823 178.107H210.979L211.322 177H213.338L213.672 178.107H214.828ZM213.043 175.972H211.632L212.35 173.696L213.043 175.972Z" fill="#1D2961"/>
<path fill-rule="evenodd" clip-rule="evenodd" d="M223.586 172.941V171.851H218.581V172.941H220.403V178.107H221.764V172.941H223.586Z" fill="#1D2961"/>
<path fill-rule="evenodd" clip-rule="evenodd" d="M233.595 178.107L232.119 175.41C232.76 175.19 233.326 174.645 233.326 173.767C233.326 172.721 232.528 171.851 231.181 171.851H228.591V178.107H229.881V175.612H230.81L232.101 178.107H233.595ZM232.035 173.767C232.035 174.25 231.664 174.593 231.098 174.593H229.881V172.941H231.098C231.664 172.941 232.035 173.283 232.035 173.767Z" fill="#1D2961"/>
<path fill-rule="evenodd" clip-rule="evenodd" d="M238.6 178.107H239.574V171.851H238.6V178.107Z" fill="#1D2961"/>
<path fill-rule="evenodd" clip-rule="evenodd" d="M249.861 176.163H248.513C248.38 176.655 248.036 177.036 247.368 177.036C247.004 177.036 246.709 176.915 246.518 176.716C246.259 176.457 246.182 176.163 246.182 174.979C246.182 173.795 246.259 173.502 246.518 173.242C246.709 173.044 247.004 172.923 247.368 172.923C248.036 172.923 248.38 173.303 248.513 173.795H249.861C249.622 172.508 248.627 171.851 247.358 171.851C246.612 171.851 246.001 172.093 245.523 172.525C244.836 173.147 244.856 173.916 244.856 174.979C244.856 176.042 244.836 176.811 245.523 177.433C246.001 177.865 246.612 178.107 247.358 178.107C248.619 178.107 249.622 177.45 249.861 176.163Z" fill="#1D2961"/>
<path fill-rule="evenodd" clip-rule="evenodd" d="M266.123 174.953C266.123 174.013 266.201 173.152 265.428 172.449C264.972 172.036 264.324 171.851 263.608 171.851H261.121V178.107H263.608C264.324 178.107 264.972 177.923 265.428 177.51C266.201 176.807 266.123 175.893 266.123 174.953ZM264.778 174.953C264.778 175.902 264.739 176.35 264.488 176.631C264.255 176.886 263.946 177.018 263.482 177.018H262.466V172.941H263.482C263.946 172.941 264.255 173.073 264.488 173.327C264.739 173.609 264.778 174.004 264.778 174.953Z" fill="#1D2961"/>
<path fill-rule="evenodd" clip-rule="evenodd" d="M273.633 178.107V177.018H270.991V175.497H273.241V174.408H270.991V172.941H273.633V171.851H269.879V178.107H273.633Z" fill="#1D2961"/>
<path fill-rule="evenodd" clip-rule="evenodd" d="M284.893 178.107V171.851H283.617V175.682L281.028 171.851H279.888V178.107H281.165V174.267L283.753 178.107H284.893Z" fill="#1D2961"/>
<path fill-rule="evenodd" clip-rule="evenodd" d="M294.902 172.941V171.851H289.898V172.941H291.719V178.107H293.081V172.941H294.902Z" fill="#1D2961"/>
<path fill-rule="evenodd" clip-rule="evenodd" d="M298.656 178.107H299.629V171.851H298.656V178.107Z" fill="#1D2961"/>
<path fill-rule="evenodd" clip-rule="evenodd" d="M309.916 176.241C309.916 175.696 309.754 175.247 309.391 174.936C309.104 174.694 308.713 174.539 308.092 174.461L307.29 174.357C307.014 174.323 306.792 174.227 306.66 174.115C306.516 173.994 306.459 173.83 306.459 173.674C306.459 173.251 306.802 172.897 307.509 172.897C307.958 172.897 308.474 172.949 308.904 173.32L309.744 172.568C309.161 172.059 308.484 171.851 307.548 171.851C306.077 171.851 305.179 172.62 305.179 173.718C305.179 174.236 305.342 174.633 305.665 174.927C305.971 175.195 306.401 175.359 306.984 175.437L307.806 175.541C308.121 175.584 308.274 175.645 308.408 175.757C308.55 175.878 308.616 176.059 308.616 176.275C308.616 176.768 308.197 177.036 307.413 177.036C306.783 177.036 306.202 176.906 305.771 176.517L304.912 177.295C305.581 177.908 306.363 178.107 307.395 178.107C308.818 178.107 309.916 177.433 309.916 176.241Z" fill="#1D2961"/>
<path fill-rule="evenodd" clip-rule="evenodd" d="M319.926 172.941V171.851H314.921V172.941H316.743V178.107H318.104V172.941H319.926Z" fill="#1D2961"/>
<path fill-rule="evenodd" clip-rule="evenodd" d="M328.684 178.107L327.207 175.41C327.848 175.19 328.415 174.645 328.415 173.767C328.415 172.721 327.615 171.851 326.269 171.851H323.679V178.107H324.97V175.612H325.897L327.189 178.107H328.684ZM327.124 173.767C327.124 174.25 326.752 174.593 326.187 174.593H324.97V172.941H326.187C326.752 172.941 327.124 173.283 327.124 173.767Z" fill="#1D2961"/>
<path fill-rule="evenodd" clip-rule="evenodd" d="M337.442 171.851H336.107L334.95 174.373L333.772 171.851H332.437L334.33 175.542V178.107H335.55V175.542L337.442 171.851Z" fill="#1D2961"/>
<path fill-rule="evenodd" clip-rule="evenodd" d="M207.321 189.993C207.321 188.93 207.33 188.161 206.645 187.539C206.17 187.107 205.589 186.865 204.819 186.865C204.048 186.865 203.458 187.107 202.982 187.539C202.297 188.161 202.316 188.93 202.316 189.993C202.316 191.056 202.297 191.825 202.982 192.447C203.458 192.879 204.048 193.121 204.819 193.121C205.589 193.121 206.17 192.879 206.645 192.447C207.33 191.825 207.321 191.056 207.321 189.993ZM205.998 189.993C205.998 191.177 205.922 191.462 205.665 191.721C205.475 191.92 205.18 192.05 204.819 192.05C204.457 192.05 204.153 191.92 203.962 191.721C203.706 191.462 203.639 191.177 203.639 189.993C203.639 188.809 203.706 188.524 203.962 188.265C204.153 188.066 204.457 187.937 204.819 187.937C205.18 187.937 205.475 188.066 205.665 188.265C205.922 188.524 205.998 188.809 205.998 189.993Z" fill="#1D2961"/>
<path fill-rule="evenodd" clip-rule="evenodd" d="M217.33 193.121L215.854 190.424C216.495 190.204 217.061 189.659 217.061 188.781C217.061 187.735 216.263 186.865 214.916 186.865H212.326V193.121H213.616V190.626H214.545L215.835 193.121H217.33ZM215.77 188.781C215.77 189.264 215.399 189.606 214.833 189.606H213.616V187.955H214.833C215.399 187.955 215.77 188.297 215.77 188.781Z" fill="#1D2961"/>
<path fill-rule="evenodd" clip-rule="evenodd" d="M226.088 187.955V186.865H221.084V187.955H222.905V193.121H224.267V187.955H226.088Z" fill="#1D2961"/>
<path fill-rule="evenodd" clip-rule="evenodd" d="M236.098 193.121V186.865H234.757V189.422H232.433V186.865H231.093V193.121H232.433V190.503H234.757V193.121H236.098Z" fill="#1D2961"/>
<path fill-rule="evenodd" clip-rule="evenodd" d="M246.107 189.993C246.107 188.93 246.117 188.161 245.431 187.539C244.956 187.107 244.376 186.865 243.604 186.865C242.834 186.865 242.245 187.107 241.769 187.539C241.084 188.161 241.102 188.93 241.102 189.993C241.102 191.056 241.084 191.825 241.769 192.447C242.245 192.879 242.834 193.121 243.604 193.121C244.376 193.121 244.956 192.879 245.431 192.447C246.117 191.825 246.107 191.056 246.107 189.993ZM244.784 189.993C244.784 191.177 244.708 191.462 244.452 191.721C244.262 191.92 243.966 192.05 243.604 192.05C243.243 192.05 242.939 191.92 242.749 191.721C242.491 191.462 242.425 191.177 242.425 189.993C242.425 188.809 242.491 188.524 242.749 188.265C242.939 188.066 243.243 187.937 243.604 187.937C243.966 187.937 244.262 188.066 244.452 188.265C244.708 188.524 244.784 188.809 244.784 189.993Z" fill="#1D2961"/>
<path fill-rule="evenodd" clip-rule="evenodd" d="M256.114 189.967C256.114 189.027 256.191 188.166 255.418 187.463C254.962 187.05 254.315 186.865 253.599 186.865H251.112V193.121H253.599C254.315 193.121 254.962 192.936 255.418 192.524C256.191 191.821 256.114 190.907 256.114 189.967ZM254.769 189.967C254.769 190.916 254.73 191.364 254.48 191.645C254.248 191.9 253.938 192.032 253.473 192.032H252.457V187.955H253.473C253.938 187.955 254.248 188.086 254.48 188.341C254.73 188.622 254.769 189.018 254.769 189.967Z" fill="#1D2961"/>
<path fill-rule="evenodd" clip-rule="evenodd" d="M264.875 189.993C264.875 188.93 264.885 188.161 264.2 187.539C263.723 187.107 263.143 186.865 262.372 186.865C261.602 186.865 261.011 187.107 260.536 187.539C259.85 188.161 259.87 188.93 259.87 189.993C259.87 191.056 259.85 191.825 260.536 192.447C261.011 192.879 261.602 193.121 262.372 193.121C263.143 193.121 263.723 192.879 264.2 192.447C264.885 191.825 264.875 191.056 264.875 189.993ZM263.552 189.993C263.552 191.177 263.476 191.462 263.219 191.721C263.029 191.92 262.734 192.05 262.372 192.05C262.011 192.05 261.705 191.92 261.515 191.721C261.259 191.462 261.191 191.177 261.191 189.993C261.191 188.809 261.259 188.524 261.515 188.265C261.705 188.066 262.011 187.937 262.372 187.937C262.734 187.937 263.029 188.066 263.219 188.265C263.476 188.524 263.552 188.809 263.552 189.993Z" fill="#1D2961"/>
<path fill-rule="evenodd" clip-rule="evenodd" d="M274.884 193.121V186.865H273.608V190.696L271.018 186.865H269.879V193.121H271.155V189.281L273.744 193.121H274.884Z" fill="#1D2961"/>
<path fill-rule="evenodd" clip-rule="evenodd" d="M284.893 187.955V186.865H279.888V187.955H281.711V193.121H283.07V187.955H284.893Z" fill="#1D2961"/>
<path fill-rule="evenodd" clip-rule="evenodd" d="M289.898 193.121H290.871V186.865H289.898V193.121Z" fill="#1D2961"/>
<path fill-rule="evenodd" clip-rule="evenodd" d="M301.158 191.177H299.811C299.678 191.669 299.334 192.05 298.665 192.05C298.302 192.05 298.007 191.929 297.815 191.73C297.556 191.471 297.48 191.177 297.48 189.993C297.48 188.809 297.556 188.515 297.815 188.256C298.007 188.058 298.302 187.937 298.665 187.937C299.334 187.937 299.678 188.317 299.811 188.809H301.158C300.919 187.522 299.927 186.865 298.655 186.865C297.91 186.865 297.3 187.107 296.822 187.539C296.134 188.161 296.154 188.93 296.154 189.993C296.154 191.056 296.134 191.825 296.822 192.447C297.3 192.879 297.91 193.121 298.655 193.121C299.917 193.121 300.919 192.464 301.158 191.177Z" fill="#1D2961"/>
<path fill-rule="evenodd" clip-rule="evenodd" d="M309.916 191.255C309.916 190.71 309.754 190.261 309.391 189.95C309.104 189.708 308.713 189.552 308.092 189.475L307.29 189.371C307.012 189.336 306.793 189.241 306.66 189.129C306.516 189.008 306.459 188.844 306.459 188.688C306.459 188.265 306.803 187.911 307.51 187.911C307.958 187.911 308.474 187.963 308.904 188.334L309.744 187.582C309.162 187.073 308.483 186.865 307.548 186.865C306.077 186.865 305.181 187.634 305.181 188.732C305.181 189.25 305.342 189.647 305.666 189.941C305.971 190.209 306.402 190.373 306.984 190.451L307.806 190.555C308.121 190.598 308.274 190.658 308.406 190.771C308.55 190.892 308.618 191.073 308.618 191.289C308.618 191.782 308.197 192.05 307.414 192.05C306.783 192.05 306.202 191.92 305.771 191.531L304.912 192.309C305.58 192.922 306.363 193.121 307.395 193.121C308.818 193.121 309.916 192.447 309.916 191.255Z" fill="#1D2961"/>
</g>
<defs>
<clipPath id="clip0">
<rect width="250" height="130" fill="white" transform="translate(131 63)"/>
</clipPath>
</defs>
</svg>
