<svg width="5385" height="513" viewBox="0 0 5385 513" fill="none" xmlns="http://www.w3.org/2000/svg">
<path d="M0.381775 505.824H90.6633V337.428H186.055C301.158 337.428 362.968 268.318 362.968 172.439C362.968 77.2907 301.888 7.45029 187.272 7.45029H0.381775V505.824ZM90.6633 263.207V82.8876H173.401C241.051 82.8876 270.983 119.389 270.983 172.439C270.983 225.489 241.051 263.207 173.888 263.207H90.6633ZM441.386 505.824H531.667V323.314H623.652L721.48 505.824H822.225L714.421 308.226C773.068 284.622 803.974 234.492 803.974 166.842C803.974 71.6938 742.648 7.45029 628.278 7.45029H441.386V505.824ZM531.667 248.363V82.8876H614.407C681.814 82.8876 711.989 113.792 711.989 166.842C711.989 219.892 681.814 248.363 614.892 248.363H531.667ZM1332.4 256.637C1332.4 95.5415 1234.09 0.636475 1103.41 0.636475C972.492 0.636475 874.419 95.5415 874.419 256.637C874.419 417.488 972.492 512.636 1103.41 512.636C1234.09 512.636 1332.4 417.733 1332.4 256.637ZM1241.63 256.637C1241.63 370.037 1184.69 431.604 1103.41 431.604C1022.38 431.604 965.188 370.037 965.188 256.637C965.188 143.238 1022.38 81.6706 1103.41 81.6706C1184.69 81.6706 1241.63 143.238 1241.63 256.637ZM1614.38 7.45029V357.869C1614.13 410.429 1589.8 438.417 1546.49 438.417C1506.09 438.417 1479.08 413.839 1478.35 373.443H1388.55C1388.55 465.428 1455.72 512.636 1543.08 512.636C1639.2 512.636 1703.69 454.235 1703.93 357.869V7.45029H1614.38ZM1801.88 505.824H2127.96V430.142H1892.16V294.112H2109.22V218.432H1892.16V83.1308H2126.01V7.45029H1801.88V505.824ZM2644.71 175.603C2629.37 64.88 2544.21 0.636475 2433.73 0.636475C2303.54 0.636475 2205.46 95.5415 2205.46 256.637C2205.46 417.488 2302.32 512.636 2433.73 512.636C2552.24 512.636 2630.84 435.984 2644.71 340.835L2553.7 340.348C2542.26 398.751 2494.56 431.604 2434.94 431.604C2354.15 431.604 2296.23 371.01 2296.23 256.637C2296.23 144.211 2353.66 81.6706 2435.19 81.6706C2495.78 81.6706 2543.23 115.983 2553.7 175.603H2644.71ZM2705.48 83.1308H2859.52V505.824H2949.07V83.1308H3103.11V7.45029H2705.48V83.1308ZM3349.74 505.824H3551.48C3665.61 505.824 3721.58 447.662 3721.58 370.037C3721.58 294.599 3668.04 250.31 3614.99 247.633V242.766C3663.66 231.329 3702.11 197.26 3702.11 136.667C3702.11 62.4467 3648.57 7.45029 3540.52 7.45029H3349.74V505.824ZM3440.02 430.388V284.379H3539.55C3595.28 284.379 3629.84 318.447 3629.84 362.979C3629.84 402.646 3602.58 430.388 3537.12 430.388H3440.02ZM3440.02 219.405V81.9139H3531.28C3584.33 81.9139 3611.83 109.899 3611.83 148.348C3611.83 192.15 3576.3 219.405 3529.33 219.405H3440.02ZM4245.44 256.637C4245.44 95.5415 4147.13 0.636475 4016.45 0.636475C3885.53 0.636475 3787.46 95.5415 3787.46 256.637C3787.46 417.488 3885.53 512.636 4016.45 512.636C4147.13 512.636 4245.44 417.733 4245.44 256.637ZM4154.67 256.637C4154.67 370.037 4097.73 431.604 4016.45 431.604C3935.42 431.604 3878.23 370.037 3878.23 256.637C3878.23 143.238 3935.42 81.6706 4016.45 81.6706C4097.73 81.6706 4154.67 143.238 4154.67 256.637ZM4776.12 256.637C4776.12 95.5415 4677.8 0.636475 4547.13 0.636475C4416.21 0.636475 4318.14 95.5415 4318.14 256.637C4318.14 417.488 4416.21 512.636 4547.13 512.636C4677.8 512.636 4776.12 417.733 4776.12 256.637ZM4685.35 256.637C4685.35 370.037 4628.41 431.604 4547.13 431.604C4466.09 431.604 4408.91 370.037 4408.91 256.637C4408.91 143.238 4466.09 81.6706 4547.13 81.6706C4628.41 81.6706 4685.35 143.238 4685.35 256.637ZM4861.47 7.45029V505.824H4948.1V162.705H4952.73L5090.46 504.362H5155.19L5292.93 163.435H5297.55V505.824H5384.18V7.45029H5273.7L5125.74 368.576H5119.91L4971.95 7.45029H4861.47Z" fill="#2347A9"/>
</svg>
