<svg width="96" height="15" viewBox="0 0 96 15" fill="none" xmlns="http://www.w3.org/2000/svg">
<path d="M0.860795 12H2.44176V9.05114H4.11222C6.12784 9.05114 7.21023 7.84091 7.21023 6.16193C7.21023 4.49574 6.14062 3.27273 4.13352 3.27273H0.860795V12ZM2.44176 7.75142V4.59375H3.89062C5.07528 4.59375 5.59943 5.23295 5.59943 6.16193C5.59943 7.09091 5.07528 7.75142 3.89915 7.75142H2.44176ZM8.58345 12H10.1644V8.80398H11.7752L13.4883 12H15.2525L13.3647 8.53977C14.3917 8.12642 14.9329 7.24858 14.9329 6.06392C14.9329 4.39773 13.859 3.27273 11.8562 3.27273H8.58345V12ZM10.1644 7.49148V4.59375H11.6133C12.7937 4.59375 13.3221 5.13494 13.3221 6.06392C13.3221 6.9929 12.7937 7.49148 11.6218 7.49148H10.1644ZM24.1864 7.63636C24.1864 4.81534 22.4648 3.15341 20.1765 3.15341C17.8839 3.15341 16.1665 4.81534 16.1665 7.63636C16.1665 10.4531 17.8839 12.1193 20.1765 12.1193C22.4648 12.1193 24.1864 10.4574 24.1864 7.63636ZM22.5969 7.63636C22.5969 9.62216 21.5998 10.7003 20.1765 10.7003C18.7575 10.7003 17.756 9.62216 17.756 7.63636C17.756 5.65057 18.7575 4.57244 20.1765 4.57244C21.5998 4.57244 22.5969 5.65057 22.5969 7.63636ZM29.1243 3.27273V9.40909C29.12 10.3295 28.6939 10.8196 27.9354 10.8196C27.228 10.8196 26.755 10.3892 26.7422 9.68182H25.1697C25.1697 11.2926 26.3459 12.1193 27.8757 12.1193C29.5589 12.1193 30.6882 11.0966 30.6925 9.40909V3.27273H29.1243ZM32.4077 12H38.1179V10.6747H33.9886V8.29261H37.7898V6.96733H33.9886V4.59801H38.0838V3.27273H32.4077V12ZM47.1669 6.21733C46.8984 4.27841 45.407 3.15341 43.4723 3.15341C41.1925 3.15341 39.4751 4.81534 39.4751 7.63636C39.4751 10.4531 41.1712 12.1193 43.4723 12.1193C45.5476 12.1193 46.924 10.777 47.1669 9.1108L45.5732 9.10227C45.3729 10.125 44.5376 10.7003 43.4936 10.7003C42.0788 10.7003 41.0646 9.6392 41.0646 7.63636C41.0646 5.66761 42.0703 4.57244 43.4979 4.57244C44.5589 4.57244 45.3899 5.1733 45.5732 6.21733H47.1669ZM48.2312 4.59801H50.9286V12H52.4968V4.59801H55.1942V3.27273H48.2312V4.59801ZM59.5131 12H63.0458C65.0444 12 66.0245 10.9815 66.0245 9.62216C66.0245 8.30114 65.087 7.52557 64.158 7.47869V7.39347C65.0103 7.19318 65.6836 6.59659 65.6836 5.53551C65.6836 4.2358 64.7461 3.27273 62.854 3.27273H59.5131V12ZM61.0941 10.679V8.12216H62.837C63.8129 8.12216 64.418 8.71875 64.418 9.49858C64.418 10.1932 63.9407 10.679 62.7944 10.679H61.0941ZM61.0941 6.98438V4.5767H62.6921C63.6211 4.5767 64.1026 5.06676 64.1026 5.74006C64.1026 6.5071 63.4805 6.98438 62.658 6.98438H61.0941ZM75.1982 7.63636C75.1982 4.81534 73.4766 3.15341 71.1882 3.15341C68.8956 3.15341 67.1783 4.81534 67.1783 7.63636C67.1783 10.4531 68.8956 12.1193 71.1882 12.1193C73.4766 12.1193 75.1982 10.4574 75.1982 7.63636ZM73.6087 7.63636C73.6087 9.62216 72.6115 10.7003 71.1882 10.7003C69.7692 10.7003 68.7678 9.62216 68.7678 7.63636C68.7678 5.65057 69.7692 4.57244 71.1882 4.57244C72.6115 4.57244 73.6087 5.65057 73.6087 7.63636ZM84.4911 7.63636C84.4911 4.81534 82.7695 3.15341 80.4812 3.15341C78.1886 3.15341 76.4712 4.81534 76.4712 7.63636C76.4712 10.4531 78.1886 12.1193 80.4812 12.1193C82.7695 12.1193 84.4911 10.4574 84.4911 7.63636ZM82.9016 7.63636C82.9016 9.62216 81.9045 10.7003 80.4812 10.7003C79.0621 10.7003 78.0607 9.62216 78.0607 7.63636C78.0607 5.65057 79.0621 4.57244 80.4812 4.57244C81.9045 4.57244 82.9016 5.65057 82.9016 7.63636ZM85.9858 3.27273V12H87.5028V5.99148H87.5838L89.9957 11.9744H91.1293L93.5412 6.00426H93.6222V12H95.1392V3.27273H93.2045L90.6136 9.59659H90.5114L87.9205 3.27273H85.9858Z" fill="#2347A9"/>
</svg>
