<?xml version="1.0" encoding="utf-8"?>
<!-- Generator: Adobe Illustrator 23.0.2, SVG Export Plug-In . SVG Version: 6.00 Build 0)  -->
<svg version="1.1" xmlns="http://www.w3.org/2000/svg" xmlns:xlink="http://www.w3.org/1999/xlink" x="0px" y="0px" width="200px" height="75px"
	 viewBox="0 0 286 107" style="enable-background:new 0 0 286 107;" xml:space="preserve">
<style type="text/css">
	.st0{fill:#D6D6D6;}
	.st1{opacity:0.8;}
	.st2{fill:url(#SVGID_3_);}
	.st3{fill:url(#SVGID_4_);}
	.st4{fill:url(#SVGID_5_);}
	.st5{opacity:0.84;}
	.st6{fill:#254548;}
	.st7{fill:#222943;}
	.st8{opacity:0.9;clip-path:url(#SVGID_7_);}
	.st9{opacity:0.08;}
	.st10{opacity:0.04;}
	.st11{opacity:0.03;}
	.st12{fill:#027468;}
	.st13{opacity:0.03;clip-path:url(#SVGID_9_);}
	.st14{fill:url(#SVGID_12_);}
	.st15{opacity:0.9;clip-path:url(#SVGID_14_);}
	.st16{fill:url(#SVGID_17_);}
	.st17{opacity:0.9;clip-path:url(#SVGID_19_);}
	.st18{fill:url(#SVGID_24_);}
	.st19{opacity:0.9;clip-path:url(#SVGID_26_);}
	.st20{fill:none;stroke:#999999;stroke-width:0.972;stroke-miterlimit:10;}
	.st21{fill:none;stroke:#999999;stroke-width:1.0743;stroke-miterlimit:10;}
	.st22{fill:#264649;}
	.st23{clip-path:url(#SVGID_28_);}
	.st24{fill:#FFFFFF;}
	.st25{fill:#9B9A9A;}
	.st26{fill:#EE464C;}
	.st27{fill:#B4FF00;}
	.st28{fill:#B7D333;}
	.st29{fill:none;stroke:#AEBE37;stroke-width:1.7992;stroke-miterlimit:10;}
	.st30{opacity:0.1;fill:url(#SVGID_53_);}
	.st31{filter:url(#Adobe_OpacityMaskFilter);}
	.st32{filter:url(#Adobe_OpacityMaskFilter_1_);}
	.st33{mask:url(#SVGID_54_);fill:url(#SVGID_55_);}
	.st34{fill:url(#SVGID_56_);}
	.st35{fill:url(#SVGID_57_);}
	.st36{filter:url(#Adobe_OpacityMaskFilter_2_);}
	.st37{filter:url(#Adobe_OpacityMaskFilter_3_);}
	.st38{mask:url(#SVGID_58_);fill:url(#SVGID_59_);}
	.st39{fill:url(#SVGID_60_);}
	.st40{filter:url(#Adobe_OpacityMaskFilter_4_);}
	.st41{filter:url(#Adobe_OpacityMaskFilter_5_);}
	.st42{mask:url(#SVGID_61_);fill:url(#SVGID_62_);}
	.st43{fill:url(#SVGID_63_);}
	.st44{opacity:0.5;fill:#FFFFFF;}
	.st45{fill:url(#SVGID_64_);}
	.st46{fill:url(#SVGID_65_);}
	.st47{opacity:0.18;fill:#D6D6D6;}
	.st48{fill:#D6D5D5;}
	.st49{fill:none;stroke:#D6D5D5;stroke-width:7.5824;stroke-linecap:round;stroke-linejoin:round;stroke-miterlimit:10;}
	.st50{fill:#D5D6D5;}
	.st51{opacity:0.1;fill:url(#SVGID_68_);}
	.st52{filter:url(#Adobe_OpacityMaskFilter_6_);}
	.st53{filter:url(#Adobe_OpacityMaskFilter_7_);}
	.st54{mask:url(#SVGID_69_);fill:url(#SVGID_70_);}
	.st55{fill:url(#SVGID_71_);}
	.st56{fill:url(#SVGID_72_);}
	.st57{filter:url(#Adobe_OpacityMaskFilter_8_);}
	.st58{filter:url(#Adobe_OpacityMaskFilter_9_);}
	.st59{mask:url(#SVGID_73_);fill:url(#SVGID_74_);}
	.st60{fill:url(#SVGID_75_);}
	.st61{filter:url(#Adobe_OpacityMaskFilter_10_);}
	.st62{filter:url(#Adobe_OpacityMaskFilter_11_);}
	.st63{mask:url(#SVGID_76_);fill:url(#SVGID_77_);}
	.st64{fill:url(#SVGID_78_);}
	.st65{fill:url(#SVGID_79_);}
	.st66{fill:url(#SVGID_80_);}
	.st67{opacity:0.1;fill:url(#SVGID_83_);}
	.st68{filter:url(#Adobe_OpacityMaskFilter_12_);}
	.st69{filter:url(#Adobe_OpacityMaskFilter_13_);}
	.st70{mask:url(#SVGID_84_);fill:url(#SVGID_85_);}
	.st71{fill:url(#SVGID_86_);}
	.st72{fill:url(#SVGID_87_);}
	.st73{filter:url(#Adobe_OpacityMaskFilter_14_);}
	.st74{filter:url(#Adobe_OpacityMaskFilter_15_);}
	.st75{mask:url(#SVGID_88_);fill:url(#SVGID_89_);}
	.st76{fill:url(#SVGID_90_);}
	.st77{filter:url(#Adobe_OpacityMaskFilter_16_);}
	.st78{filter:url(#Adobe_OpacityMaskFilter_17_);}
	.st79{mask:url(#SVGID_91_);fill:url(#SVGID_92_);}
	.st80{fill:url(#SVGID_93_);}
	.st81{fill:url(#SVGID_94_);}
	.st82{fill:url(#SVGID_95_);}
	.st83{opacity:0.1;fill:url(#SVGID_98_);}
	.st84{filter:url(#Adobe_OpacityMaskFilter_18_);}
	.st85{filter:url(#Adobe_OpacityMaskFilter_19_);}
	.st86{mask:url(#SVGID_99_);fill:url(#SVGID_100_);}
	.st87{fill:url(#SVGID_101_);}
	.st88{fill:url(#SVGID_102_);}
	.st89{filter:url(#Adobe_OpacityMaskFilter_20_);}
	.st90{filter:url(#Adobe_OpacityMaskFilter_21_);}
	.st91{mask:url(#SVGID_103_);fill:url(#SVGID_104_);}
	.st92{fill:url(#SVGID_105_);}
	.st93{filter:url(#Adobe_OpacityMaskFilter_22_);}
	.st94{filter:url(#Adobe_OpacityMaskFilter_23_);}
	.st95{mask:url(#SVGID_106_);fill:url(#SVGID_107_);}
	.st96{fill:url(#SVGID_108_);}
	.st97{fill:url(#SVGID_109_);}
	.st98{fill:url(#SVGID_110_);}
	.st99{fill:none;stroke:#B3B3B3;stroke-width:0.7229;stroke-miterlimit:10;}
	.st100{opacity:0.8;fill:#FDEF33;}
	.st101{fill:none;stroke:#EE474D;stroke-miterlimit:10;stroke-dasharray:12;}
	.st102{fill:none;stroke:#FDEF33;stroke-miterlimit:10;stroke-dasharray:12;}
	.st103{opacity:0.1;fill:url(#SVGID_113_);}
	.st104{filter:url(#Adobe_OpacityMaskFilter_24_);}
	.st105{filter:url(#Adobe_OpacityMaskFilter_25_);}
	.st106{mask:url(#SVGID_114_);fill:url(#SVGID_115_);}
	.st107{fill:url(#SVGID_116_);}
	.st108{fill:url(#SVGID_117_);}
	.st109{filter:url(#Adobe_OpacityMaskFilter_26_);}
	.st110{filter:url(#Adobe_OpacityMaskFilter_27_);}
	.st111{mask:url(#SVGID_118_);fill:url(#SVGID_119_);}
	.st112{fill:url(#SVGID_120_);}
	.st113{filter:url(#Adobe_OpacityMaskFilter_28_);}
	.st114{filter:url(#Adobe_OpacityMaskFilter_29_);}
	.st115{mask:url(#SVGID_121_);fill:url(#SVGID_122_);}
	.st116{fill:url(#SVGID_123_);}
	.st117{fill:url(#SVGID_124_);}
	.st118{fill:url(#SVGID_125_);}
	.st119{opacity:0.14;}
	.st120{fill:#E6E6E6;}
	.st121{fill:none;stroke:#EB005B;stroke-width:2.2446;stroke-miterlimit:10;}
	.st122{fill:none;stroke:#FDEF33;stroke-width:1.5;stroke-miterlimit:10;}
	.st123{fill:none;stroke:#FDEF33;stroke-width:0.8724;stroke-miterlimit:10;}
	.st124{fill:none;stroke:#FDEF33;stroke-width:0.8631;stroke-miterlimit:10;}
	.st125{fill:none;stroke:#EB005B;stroke-width:1.9224;stroke-miterlimit:10;}
	.st126{fill:none;stroke:#EB005B;stroke-width:1.9283;stroke-miterlimit:10;}
	.st127{fill:none;stroke:#EB005B;stroke-width:2.2452;stroke-miterlimit:10;}
	.st128{fill:none;stroke:#EB005B;stroke-width:1.955;stroke-miterlimit:10;}
	.st129{fill:none;stroke:#EB005B;stroke-width:2.242;stroke-miterlimit:10;}
	.st130{fill:none;stroke:#EB005B;stroke-width:2.0031;stroke-miterlimit:10;}
	.st131{fill:none;stroke:#FDEF33;stroke-width:1.0662;stroke-miterlimit:10;}
	.st132{fill:none;stroke:#EB005B;stroke-width:2.2446;stroke-miterlimit:10;stroke-dasharray:11.949,11.949;}
	.st133{fill:none;stroke:#EB005B;stroke-width:2.2446;stroke-miterlimit:10;stroke-dasharray:12;}
	.st134{opacity:0.3;}
	.st135{fill:#FDEF33;}
	.st136{fill:none;stroke:#FDEF33;stroke-width:2.2446;stroke-miterlimit:10;stroke-dasharray:12;}
	.st137{fill:#D3D3D3;}
	.st138{fill:#B1FF00;}
	.st139{fill:#F94349;}
	.st140{fill:#222944;}
	.st141{fill:#254547;}
	.st142{fill:#027267;}
	.st143{fill:#333333;}
</style>
<g id="BaseImages">
	<g>
		<defs>
			<polygon id="SVGID_22_" points="5107,1981.44 3191,1987 3191,977 5107,977 			"/>
		</defs>
		<clipPath id="SVGID_2_">
			<use xlink:href="#SVGID_22_"  style="overflow:visible;"/>
		</clipPath>
	</g>
	<g>
		<g>
			<g>
				<path class="st24" d="M74.37,22.91l-4.15-0.6v-2.42h19.25c9.96,0,21.06,2.04,21.06,14.04c0,6.57-6.11,11.17-12,12.15
					l12.45,23.63l4.15,0.6v2.42h-12.83L88.78,46.61h-5.21v23.1l4.15,0.6v2.42H70.21v-2.42l4.15-0.6V22.91z M83.57,44.2h3.4
					c9.89,0,13.59-3.77,13.59-11.02c0-8-5.66-10.87-12-10.87c-1.43,0-3.25,0.23-4.98,0.38V44.2z"/>
				<path class="st24" d="M113.77,54.69c0-10.19,6.49-19.17,16.23-19.17s16.23,8.98,16.23,19.17c0,8.68-6.27,19.1-16.23,19.1
					S113.77,65.64,113.77,54.69z M137.62,54.69c0-10.79-2.11-16.53-7.62-16.53c-5.51,0-7.62,5.59-7.62,16.53
					c0,10.19,1.59,16.45,7.62,16.45C136.03,71.15,137.62,61.26,137.62,54.69z"/>
				<path class="st24" d="M177.63,66.84c-4.08,4.68-8.15,6.94-12.3,6.94c-9.81,0-15.93-7.4-15.93-17.44
					c0-11.93,7.17-20.83,17.66-20.83c3.4,0,8.53,1.36,8.53,6.19c0,2.19-2.04,3.7-4.15,3.7c-5.59,0-4-7.25-6.34-7.25
					c-4.15,0-8.15,4.38-8.15,14.34c0,6.79,4.08,15.63,11.78,15.63c2.79,0,4.76-1.06,6.79-2.94L177.63,66.84z"/>
				<path class="st24" d="M199.14,72.73v-2.04l4.15-0.75l-9.06-15.93l-3.47,5.59v10.34l3.62,0.75v2.04h-15.32v-2.04l4.15-0.75V24.87
					c0-2.49-1.43-3.25-4.15-3.25v-2.04l11.7-4.53v39.02h0.15l4.15-6.57c3.7-5.89,8.91-12,12.83-12c2.11,0,4.3,1.74,4.3,4.15
					c0,3.47-2.79,4.76-4.6,4.76c-1.81,0-3.25-1.66-4.53-1.66c-1.43,0-3.7,3.47-4.3,4.6l12.83,22.57l3.62,0.75v2.04H199.14z"/>
				<path class="st24" d="M222.31,55.45c0.23,6.04,3.55,12.68,10.49,12.68c4.6,0,5.89-2.26,8.3-4.98l2.04,1.59
					c-3.7,5.36-7.55,9.06-14.49,9.06c-8.83,0-13.89-8.6-13.89-17.51c0-9.44,4.83-20.76,15.17-20.76c8,0,13.06,7.1,13.13,14.34
					L222.31,55.45z M230.31,50.01c3.02-0.75,4.15-2.42,4.15-6.04c0-3.77-2.26-5.81-5.66-5.81c-5.21,0-7.25,6.57-7.25,14.11
					L230.31,50.01z"/>
				<path class="st24" d="M245.18,39.97v-3.4h4.15V26.16l7.55-4.3v14.72h8.53v3.4h-8.53v25.36c0,2.42,1.89,3.55,4,3.55
					c1.96,0,3.62-1.13,5.36-2.49l1.13,2.04c-2.26,2.64-6.19,5.36-9.81,5.36c-6.64,0-8.23-5.06-8.23-8.53V39.97H245.18z"/>
			</g>
			<g>
				<path class="st24" d="M275.54,67.17c0.43,0.18,0.8,0.43,1.11,0.74c0.31,0.32,0.56,0.69,0.74,1.12c0.18,0.43,0.27,0.89,0.27,1.38
					c0,0.5-0.09,0.96-0.27,1.38c-0.18,0.42-0.43,0.79-0.74,1.11s-0.68,0.56-1.11,0.74c-0.43,0.18-0.89,0.27-1.39,0.27
					c-0.5,0-0.96-0.09-1.39-0.27c-0.43-0.18-0.8-0.43-1.11-0.74c-0.31-0.31-0.56-0.68-0.74-1.11c-0.18-0.42-0.27-0.88-0.27-1.38
					c0-0.49,0.09-0.95,0.27-1.38c0.18-0.43,0.43-0.8,0.74-1.12c0.31-0.32,0.68-0.57,1.11-0.74c0.43-0.18,0.89-0.27,1.39-0.27
					C274.65,66.9,275.11,66.99,275.54,67.17z M272.97,67.64c-0.36,0.16-0.67,0.37-0.94,0.64c-0.26,0.27-0.47,0.59-0.62,0.95
					c-0.15,0.36-0.22,0.76-0.22,1.18c0,0.42,0.07,0.81,0.22,1.18c0.15,0.36,0.35,0.68,0.62,0.95c0.26,0.27,0.58,0.48,0.94,0.64
					c0.36,0.16,0.76,0.24,1.18,0.24c0.42,0,0.81-0.08,1.17-0.24c0.36-0.16,0.67-0.37,0.94-0.64c0.26-0.27,0.47-0.59,0.62-0.95
					c0.15-0.36,0.23-0.76,0.23-1.18c0-0.42-0.08-0.81-0.23-1.18c-0.15-0.36-0.36-0.68-0.62-0.95c-0.26-0.27-0.58-0.48-0.94-0.64
					c-0.36-0.16-0.75-0.24-1.17-0.24C273.72,67.4,273.33,67.48,272.97,67.64z M272.88,72.44v-4.05h1.55c0.46,0,0.79,0.1,1,0.29
					c0.21,0.19,0.32,0.47,0.32,0.83c0,0.18-0.03,0.33-0.08,0.46c-0.05,0.13-0.13,0.24-0.22,0.33c-0.09,0.09-0.2,0.16-0.33,0.22
					c-0.12,0.05-0.25,0.09-0.39,0.12l1.21,1.8h-0.58l-1.14-1.8h-0.84v1.8H272.88z M274.48,70.2c0.15-0.01,0.28-0.04,0.39-0.08
					c0.11-0.04,0.2-0.12,0.27-0.21c0.07-0.1,0.1-0.23,0.1-0.4c0-0.14-0.03-0.26-0.08-0.35c-0.05-0.09-0.13-0.16-0.22-0.21
					c-0.09-0.05-0.19-0.09-0.31-0.11c-0.11-0.02-0.23-0.03-0.36-0.03h-0.91v1.4h0.66C274.19,70.21,274.34,70.21,274.48,70.2z"/>
			</g>
			<g>
				<polygon class="st24" points="34.72,19.85 29.12,46.44 14.65,40.56 27.76,19.85 6.26,19.85 6.26,72.75 59.74,72.75 59.74,19.85 
									"/>
				<path class="st24" d="M35.77,14.75l2.43-11.52l-6.33,10C33.36,13.25,34.72,13.82,35.77,14.75z"/>
			</g>
		</g>
		<g>
			<path class="st24" d="M7.55,99.73c-0.04-0.04-0.06-0.09-0.06-0.14V88.21c0-0.06,0.02-0.1,0.06-0.14
				c0.04-0.04,0.09-0.06,0.14-0.06h1.55c0.06,0,0.1,0.02,0.14,0.06c0.04,0.04,0.06,0.09,0.06,0.14v9.81c0,0.06,0.03,0.08,0.08,0.08
				h5.64c0.06,0,0.1,0.02,0.14,0.06c0.04,0.04,0.06,0.09,0.06,0.14v1.28c0,0.06-0.02,0.1-0.06,0.14c-0.04,0.04-0.09,0.06-0.14,0.06
				H7.69C7.63,99.79,7.59,99.77,7.55,99.73z"/>
			<path class="st24" d="M26.7,89.63c-0.04,0.04-0.09,0.06-0.14,0.06h-5.74c-0.06,0-0.08,0.03-0.08,0.08v3.15
				c0,0.06,0.03,0.08,0.08,0.08h3.85c0.06,0,0.1,0.02,0.14,0.06c0.04,0.04,0.06,0.09,0.06,0.14v1.28c0,0.06-0.02,0.1-0.06,0.14
				c-0.04,0.04-0.09,0.06-0.14,0.06h-3.85c-0.06,0-0.08,0.03-0.08,0.08v3.25c0,0.06,0.03,0.08,0.08,0.08h5.74
				c0.06,0,0.1,0.02,0.14,0.06c0.04,0.04,0.06,0.09,0.06,0.14v1.28c0,0.06-0.02,0.1-0.06,0.14c-0.04,0.04-0.09,0.06-0.14,0.06h-7.57
				c-0.06,0-0.1-0.02-0.14-0.06c-0.04-0.04-0.06-0.09-0.06-0.14V88.21c0-0.06,0.02-0.1,0.06-0.14c0.04-0.04,0.09-0.06,0.14-0.06
				h7.57c0.06,0,0.1,0.02,0.14,0.06c0.04,0.04,0.06,0.09,0.06,0.14v1.28C26.75,89.54,26.73,89.59,26.7,89.63z"/>
			<path class="st24" d="M32.14,99.42c-0.64-0.33-1.13-0.8-1.48-1.4c-0.35-0.61-0.52-1.3-0.52-2.09v-4.07c0-0.8,0.17-1.5,0.52-2.09
				c0.35-0.6,0.84-1.07,1.48-1.4c0.64-0.33,1.38-0.5,2.22-0.5c0.83,0,1.56,0.16,2.2,0.49c0.63,0.33,1.12,0.77,1.47,1.33
				c0.35,0.56,0.52,1.2,0.52,1.9v0.13c0,0.06-0.02,0.1-0.06,0.14c-0.04,0.04-0.09,0.06-0.14,0.06h-1.53c-0.06,0-0.1-0.02-0.14-0.06
				c-0.04-0.04-0.06-0.09-0.06-0.14v-0.08c0-0.61-0.2-1.11-0.61-1.5c-0.41-0.39-0.96-0.59-1.64-0.59c-0.68,0-1.23,0.2-1.65,0.61
				c-0.42,0.41-0.62,0.95-0.62,1.62V96c0,0.67,0.22,1.21,0.66,1.62c0.44,0.41,1,0.61,1.7,0.61c0.67,0,1.2-0.18,1.59-0.53
				c0.39-0.35,0.58-0.84,0.58-1.45v-1.04c0-0.06-0.03-0.08-0.08-0.08h-2.07c-0.06,0-0.1-0.02-0.14-0.06
				c-0.04-0.04-0.06-0.09-0.06-0.14v-1.24c0-0.06,0.02-0.1,0.06-0.14c0.04-0.04,0.09-0.06,0.14-0.06h3.89c0.06,0,0.1,0.02,0.14,0.06
				c0.04,0.04,0.06,0.09,0.06,0.14v2.15c0,1.29-0.38,2.29-1.14,3.01c-0.76,0.72-1.78,1.08-3.05,1.08
				C33.52,99.92,32.78,99.75,32.14,99.42z"/>
			<path class="st24" d="M49.33,99.62l-0.56-1.8c-0.02-0.04-0.05-0.07-0.08-0.07h-4.44c-0.03,0-0.06,0.02-0.08,0.07l-0.56,1.8
				c-0.03,0.11-0.11,0.17-0.22,0.17h-1.68c-0.07,0-0.12-0.02-0.15-0.06c-0.03-0.04-0.04-0.1-0.02-0.18l3.65-11.37
				c0.03-0.11,0.11-0.17,0.22-0.17h2.1c0.11,0,0.19,0.06,0.22,0.17l3.67,11.37c0.01,0.02,0.02,0.05,0.02,0.08
				c0,0.1-0.06,0.15-0.19,0.15h-1.68C49.44,99.79,49.37,99.73,49.33,99.62z M44.76,96.22h3.42c0.07,0,0.09-0.03,0.07-0.1l-1.73-5.64
				c-0.01-0.04-0.03-0.07-0.05-0.07c-0.02,0-0.04,0.02-0.05,0.07l-1.72,5.64C44.68,96.18,44.7,96.22,44.76,96.22z"/>
			<path class="st24" d="M56.25,99.42c-0.64-0.33-1.13-0.79-1.48-1.39c-0.35-0.59-0.52-1.28-0.52-2.07v-4.16
				c0-0.78,0.17-1.47,0.52-2.07c0.35-0.59,0.84-1.05,1.48-1.38c0.64-0.33,1.38-0.49,2.22-0.49c0.83,0,1.56,0.16,2.2,0.47
				c0.64,0.31,1.13,0.76,1.48,1.33c0.35,0.57,0.52,1.23,0.52,1.99c0,0.06-0.02,0.1-0.06,0.14c-0.04,0.04-0.09,0.06-0.14,0.06
				l-1.55,0.08c-0.13,0-0.2-0.06-0.2-0.18c0-0.66-0.2-1.19-0.61-1.6c-0.41-0.4-0.96-0.61-1.64-0.61c-0.68,0-1.23,0.2-1.65,0.61
				c-0.42,0.4-0.62,0.94-0.62,1.6v4.29c0,0.65,0.21,1.18,0.62,1.58c0.41,0.4,0.96,0.61,1.65,0.61c0.68,0,1.23-0.2,1.64-0.6
				c0.41-0.4,0.61-0.93,0.61-1.59c0-0.12,0.07-0.18,0.2-0.18l1.55,0.07c0.06,0,0.1,0.02,0.14,0.05c0.04,0.03,0.06,0.07,0.06,0.12
				c0,0.76-0.17,1.43-0.52,2.01c-0.35,0.58-0.84,1.02-1.48,1.34c-0.64,0.31-1.37,0.47-2.2,0.47C57.63,99.92,56.89,99.75,56.25,99.42
				z"/>
			<path class="st24" d="M68.96,99.71c-0.04-0.04-0.06-0.09-0.06-0.14v-4.51c0-0.04-0.01-0.08-0.02-0.1l-3.47-6.71
				c-0.02-0.04-0.03-0.08-0.03-0.1c0-0.09,0.06-0.13,0.19-0.13h1.67c0.11,0,0.19,0.05,0.24,0.15l2.36,4.69
				c0.03,0.04,0.07,0.04,0.1,0l2.37-4.69c0.06-0.1,0.13-0.15,0.24-0.15h1.68c0.08,0,0.13,0.02,0.16,0.07
				c0.03,0.04,0.03,0.1-0.01,0.17l-3.48,6.71c-0.02,0.05-0.03,0.08-0.03,0.1v4.51c0,0.06-0.02,0.1-0.06,0.14
				c-0.04,0.04-0.09,0.06-0.14,0.06h-1.55C69.05,99.77,69,99.75,68.96,99.71z"/>
			<path class="st24" d="M89.48,88.43c0.54,0.29,0.96,0.7,1.25,1.24c0.3,0.53,0.45,1.15,0.45,1.84c0,0.68-0.15,1.29-0.45,1.82
				c-0.3,0.53-0.73,0.93-1.29,1.22c-0.56,0.29-1.2,0.43-1.93,0.43h-2.69c-0.06,0-0.08,0.03-0.08,0.08v4.53
				c0,0.06-0.02,0.1-0.06,0.14c-0.04,0.04-0.09,0.06-0.14,0.06h-1.55c-0.06,0-0.1-0.02-0.14-0.06c-0.04-0.04-0.06-0.09-0.06-0.14
				V88.19c0-0.06,0.02-0.1,0.06-0.14c0.04-0.04,0.09-0.06,0.14-0.06h4.63C88.32,87.99,88.94,88.14,89.48,88.43z M88.71,92.89
				c0.35-0.34,0.52-0.78,0.52-1.33c0-0.56-0.17-1.02-0.52-1.36c-0.35-0.35-0.81-0.52-1.38-0.52h-2.51c-0.06,0-0.08,0.03-0.08,0.08
				v3.55c0,0.06,0.03,0.08,0.08,0.08h2.51C87.9,93.39,88.36,93.22,88.71,92.89z"/>
			<path class="st24" d="M96.33,99.44c-0.65-0.34-1.15-0.83-1.51-1.46c-0.35-0.63-0.53-1.35-0.53-2.17v-3.84
				c0-0.81,0.18-1.52,0.54-2.15c0.36-0.62,0.86-1.1,1.51-1.45c0.64-0.34,1.39-0.51,2.23-0.51c0.85,0,1.6,0.17,2.25,0.51
				c0.64,0.34,1.15,0.82,1.51,1.45c0.36,0.62,0.54,1.34,0.54,2.15v3.84c0,0.82-0.18,1.54-0.54,2.17c-0.36,0.63-0.86,1.11-1.51,1.46
				c-0.65,0.34-1.39,0.51-2.25,0.51C97.73,99.95,96.98,99.78,96.33,99.44z M100.27,97.62c0.43-0.44,0.64-1.02,0.64-1.73v-3.92
				c0-0.73-0.21-1.31-0.64-1.75c-0.43-0.44-0.99-0.66-1.7-0.66c-0.7,0-1.26,0.22-1.68,0.66c-0.43,0.44-0.64,1.02-0.64,1.75v3.92
				c0,0.72,0.21,1.29,0.64,1.73c0.43,0.44,0.99,0.66,1.68,0.66C99.27,98.27,99.84,98.05,100.27,97.62z"/>
			<path class="st24" d="M108.78,99.62l-3.06-11.39l-0.02-0.07c0-0.1,0.06-0.15,0.19-0.15h1.65c0.12,0,0.2,0.06,0.24,0.17l1.92,7.67
				c0.01,0.03,0.03,0.05,0.05,0.05c0.02,0,0.04-0.02,0.05-0.05l1.83-7.67c0.03-0.11,0.11-0.17,0.22-0.17h1.62
				c0.12,0,0.2,0.06,0.24,0.17l1.95,7.69c0.01,0.03,0.03,0.05,0.05,0.05c0.02,0,0.04-0.02,0.05-0.05l1.88-7.69
				c0.03-0.11,0.11-0.17,0.24-0.17h1.56c0.16,0,0.22,0.07,0.18,0.22l-2.91,11.39c-0.03,0.11-0.11,0.17-0.24,0.17h-1.56
				c-0.12,0-0.2-0.06-0.24-0.17l-1.97-8.03c-0.01-0.03-0.03-0.05-0.05-0.06c-0.02-0.01-0.04,0.01-0.05,0.06l-1.88,8.03
				c-0.03,0.11-0.11,0.17-0.22,0.17h-1.48C108.89,99.79,108.81,99.73,108.78,99.62z"/>
			<path class="st24" d="M130.73,89.63c-0.04,0.04-0.09,0.06-0.14,0.06h-5.74c-0.06,0-0.08,0.03-0.08,0.08v3.15
				c0,0.06,0.03,0.08,0.08,0.08h3.85c0.06,0,0.1,0.02,0.14,0.06c0.04,0.04,0.06,0.09,0.06,0.14v1.28c0,0.06-0.02,0.1-0.06,0.14
				c-0.04,0.04-0.09,0.06-0.14,0.06h-3.85c-0.06,0-0.08,0.03-0.08,0.08v3.25c0,0.06,0.03,0.08,0.08,0.08h5.74
				c0.06,0,0.1,0.02,0.14,0.06c0.04,0.04,0.06,0.09,0.06,0.14v1.28c0,0.06-0.02,0.1-0.06,0.14c-0.04,0.04-0.09,0.06-0.14,0.06h-7.57
				c-0.06,0-0.1-0.02-0.14-0.06c-0.04-0.04-0.06-0.09-0.06-0.14V88.21c0-0.06,0.02-0.1,0.06-0.14c0.04-0.04,0.09-0.06,0.14-0.06
				h7.57c0.06,0,0.1,0.02,0.14,0.06c0.04,0.04,0.06,0.09,0.06,0.14v1.28C130.79,89.54,130.77,89.59,130.73,89.63z"/>
			<path class="st24" d="M140.83,99.63l-2.22-4.85c-0.02-0.04-0.06-0.07-0.1-0.07h-2.02c-0.06,0-0.08,0.03-0.08,0.08v4.78
				c0,0.06-0.02,0.1-0.06,0.14c-0.04,0.04-0.09,0.06-0.14,0.06h-1.55c-0.06,0-0.1-0.02-0.14-0.06c-0.04-0.04-0.06-0.09-0.06-0.14
				V88.21c0-0.06,0.02-0.1,0.06-0.14c0.04-0.04,0.09-0.06,0.14-0.06h4.63c0.68,0,1.29,0.14,1.82,0.43c0.53,0.29,0.94,0.69,1.23,1.21
				c0.29,0.52,0.44,1.12,0.44,1.79c0,0.77-0.2,1.43-0.6,1.98c-0.4,0.54-0.95,0.92-1.66,1.14c-0.02,0-0.04,0.01-0.05,0.03
				s-0.01,0.04,0,0.07l2.37,4.9c0.02,0.04,0.03,0.08,0.03,0.1c0,0.09-0.06,0.13-0.18,0.13h-1.62
				C140.96,99.79,140.88,99.74,140.83,99.63z M136.41,89.77v3.35c0,0.06,0.03,0.08,0.08,0.08h2.52c0.54,0,0.97-0.16,1.3-0.48
				c0.33-0.32,0.5-0.74,0.5-1.27c0-0.53-0.17-0.95-0.5-1.28c-0.33-0.32-0.77-0.49-1.3-0.49h-2.52
				C136.44,89.69,136.41,89.72,136.41,89.77z"/>
			<path class="st24" d="M147.97,99.5c-0.65-0.28-1.15-0.67-1.51-1.18c-0.35-0.51-0.53-1.1-0.53-1.78v-0.42
				c0-0.06,0.02-0.1,0.06-0.14c0.04-0.04,0.09-0.06,0.14-0.06h1.5c0.06,0,0.1,0.02,0.14,0.06c0.04,0.04,0.06,0.09,0.06,0.14v0.32
				c0,0.52,0.23,0.95,0.69,1.29c0.46,0.34,1.09,0.51,1.88,0.51c0.68,0,1.2-0.15,1.55-0.44c0.35-0.29,0.52-0.67,0.52-1.13
				c0-0.31-0.1-0.58-0.29-0.8c-0.19-0.22-0.46-0.42-0.82-0.6c-0.35-0.18-0.88-0.4-1.59-0.67c-0.8-0.29-1.44-0.57-1.94-0.82
				c-0.49-0.26-0.91-0.61-1.24-1.05c-0.33-0.44-0.5-0.99-0.5-1.66c0-0.99,0.36-1.77,1.08-2.34c0.72-0.57,1.68-0.86,2.88-0.86
				c0.84,0,1.58,0.15,2.23,0.44c0.65,0.29,1.15,0.7,1.51,1.22c0.36,0.52,0.54,1.13,0.54,1.81v0.29c0,0.06-0.02,0.1-0.06,0.14
				c-0.04,0.04-0.09,0.06-0.14,0.06h-1.51c-0.06,0-0.1-0.02-0.14-0.06c-0.04-0.04-0.06-0.09-0.06-0.14v-0.18
				c0-0.53-0.22-0.97-0.65-1.34c-0.43-0.36-1.03-0.55-1.79-0.55c-0.62,0-1.1,0.13-1.44,0.39c-0.34,0.26-0.51,0.62-0.51,1.09
				c0,0.34,0.09,0.61,0.27,0.83c0.18,0.21,0.45,0.41,0.81,0.58c0.36,0.17,0.91,0.4,1.67,0.66c0.8,0.3,1.43,0.58,1.91,0.82
				c0.48,0.25,0.89,0.59,1.23,1.04c0.34,0.44,0.51,1,0.51,1.66c0,1.01-0.37,1.81-1.12,2.41c-0.75,0.59-1.76,0.89-3.05,0.89
				C149.38,99.92,148.62,99.78,147.97,99.5z"/>
			<path class="st24" d="M163.19,99.73c-0.04-0.04-0.06-0.09-0.06-0.14V88.21c0-0.06,0.02-0.1,0.06-0.14
				c0.04-0.04,0.09-0.06,0.14-0.06h1.55c0.06,0,0.1,0.02,0.14,0.06c0.04,0.04,0.06,0.09,0.06,0.14v9.81c0,0.06,0.03,0.08,0.08,0.08
				h5.64c0.06,0,0.1,0.02,0.14,0.06c0.04,0.04,0.06,0.09,0.06,0.14v1.28c0,0.06-0.02,0.1-0.06,0.14c-0.04,0.04-0.09,0.06-0.14,0.06
				h-7.47C163.27,99.79,163.23,99.77,163.19,99.73z"/>
			<path class="st24" d="M182.33,89.63c-0.04,0.04-0.09,0.06-0.14,0.06h-5.74c-0.06,0-0.08,0.03-0.08,0.08v3.15
				c0,0.06,0.03,0.08,0.08,0.08h3.85c0.06,0,0.1,0.02,0.14,0.06c0.04,0.04,0.06,0.09,0.06,0.14v1.28c0,0.06-0.02,0.1-0.06,0.14
				c-0.04,0.04-0.09,0.06-0.14,0.06h-3.85c-0.06,0-0.08,0.03-0.08,0.08v3.25c0,0.06,0.03,0.08,0.08,0.08h5.74
				c0.06,0,0.1,0.02,0.14,0.06c0.04,0.04,0.06,0.09,0.06,0.14v1.28c0,0.06-0.02,0.1-0.06,0.14c-0.04,0.04-0.09,0.06-0.14,0.06h-7.57
				c-0.06,0-0.1-0.02-0.14-0.06c-0.04-0.04-0.06-0.09-0.06-0.14V88.21c0-0.06,0.02-0.1,0.06-0.14c0.04-0.04,0.09-0.06,0.14-0.06
				h7.57c0.06,0,0.1,0.02,0.14,0.06c0.04,0.04,0.06,0.09,0.06,0.14v1.28C182.39,89.54,182.37,89.59,182.33,89.63z"/>
			<path class="st24" d="M187.78,99.42c-0.64-0.33-1.13-0.8-1.48-1.4c-0.35-0.61-0.52-1.3-0.52-2.09v-4.07c0-0.8,0.17-1.5,0.52-2.09
				c0.35-0.6,0.84-1.07,1.48-1.4c0.64-0.33,1.38-0.5,2.22-0.5c0.83,0,1.56,0.16,2.2,0.49c0.63,0.33,1.12,0.77,1.47,1.33
				c0.35,0.56,0.52,1.2,0.52,1.9v0.13c0,0.06-0.02,0.1-0.06,0.14c-0.04,0.04-0.09,0.06-0.14,0.06h-1.53c-0.06,0-0.1-0.02-0.14-0.06
				c-0.04-0.04-0.06-0.09-0.06-0.14v-0.08c0-0.61-0.2-1.11-0.61-1.5c-0.41-0.39-0.96-0.59-1.64-0.59c-0.68,0-1.23,0.2-1.65,0.61
				c-0.42,0.41-0.62,0.95-0.62,1.62V96c0,0.67,0.22,1.21,0.66,1.62c0.44,0.41,1,0.61,1.7,0.61c0.67,0,1.2-0.18,1.59-0.53
				c0.39-0.35,0.58-0.84,0.58-1.45v-1.04c0-0.06-0.03-0.08-0.08-0.08h-2.07c-0.06,0-0.1-0.02-0.14-0.06
				c-0.04-0.04-0.06-0.09-0.06-0.14v-1.24c0-0.06,0.02-0.1,0.06-0.14c0.04-0.04,0.09-0.06,0.14-0.06h3.89c0.06,0,0.1,0.02,0.14,0.06
				c0.04,0.04,0.06,0.09,0.06,0.14v2.15c0,1.29-0.38,2.29-1.14,3.01c-0.76,0.72-1.78,1.08-3.05,1.08
				C189.16,99.92,188.42,99.75,187.78,99.42z"/>
			<path class="st24" d="M205.97,89.63c-0.04,0.04-0.09,0.06-0.14,0.06h-5.74c-0.06,0-0.08,0.03-0.08,0.08v3.15
				c0,0.06,0.03,0.08,0.08,0.08h3.85c0.06,0,0.1,0.02,0.14,0.06c0.04,0.04,0.06,0.09,0.06,0.14v1.28c0,0.06-0.02,0.1-0.06,0.14
				c-0.04,0.04-0.09,0.06-0.14,0.06h-3.85c-0.06,0-0.08,0.03-0.08,0.08v3.25c0,0.06,0.03,0.08,0.08,0.08h5.74
				c0.06,0,0.1,0.02,0.14,0.06c0.04,0.04,0.06,0.09,0.06,0.14v1.28c0,0.06-0.02,0.1-0.06,0.14c-0.04,0.04-0.09,0.06-0.14,0.06h-7.57
				c-0.06,0-0.1-0.02-0.14-0.06c-0.04-0.04-0.06-0.09-0.06-0.14V88.21c0-0.06,0.02-0.1,0.06-0.14c0.04-0.04,0.09-0.06,0.14-0.06
				h7.57c0.06,0,0.1,0.02,0.14,0.06c0.04,0.04,0.06,0.09,0.06,0.14v1.28C206.03,89.54,206.01,89.59,205.97,89.63z"/>
			<path class="st24" d="M216.61,88.07c0.04-0.04,0.09-0.06,0.14-0.06h1.55c0.06,0,0.1,0.02,0.14,0.06
				c0.04,0.04,0.06,0.09,0.06,0.14v11.37c0,0.06-0.02,0.1-0.06,0.14c-0.04,0.04-0.09,0.06-0.14,0.06h-1.5
				c-0.11,0-0.19-0.04-0.24-0.13l-4.85-7.94c-0.02-0.03-0.04-0.05-0.07-0.04c-0.02,0.01-0.03,0.03-0.03,0.08l0.03,7.84
				c0,0.06-0.02,0.1-0.06,0.14c-0.04,0.04-0.09,0.06-0.14,0.06h-1.55c-0.06,0-0.1-0.02-0.14-0.06c-0.04-0.04-0.06-0.09-0.06-0.14
				V88.21c0-0.06,0.02-0.1,0.06-0.14c0.04-0.04,0.09-0.06,0.14-0.06h1.5c0.11,0,0.19,0.05,0.24,0.13l4.83,7.94
				c0.02,0.03,0.04,0.05,0.07,0.04c0.02,0,0.03-0.03,0.03-0.08l-0.02-7.84C216.55,88.15,216.57,88.11,216.61,88.07z"/>
			<path class="st24" d="M222.55,99.73c-0.04-0.04-0.06-0.09-0.06-0.14V88.21c0-0.06,0.02-0.1,0.06-0.14
				c0.04-0.04,0.09-0.06,0.14-0.06h4.11c0.8,0,1.5,0.14,2.1,0.42c0.61,0.28,1.07,0.68,1.41,1.2c0.33,0.52,0.5,1.13,0.5,1.83v4.88
				c0,0.7-0.17,1.3-0.5,1.83c-0.33,0.52-0.8,0.92-1.41,1.2c-0.61,0.28-1.31,0.42-2.1,0.42h-4.11
				C222.63,99.79,222.59,99.77,222.55,99.73z M224.53,98.1h2.36c0.59,0,1.07-0.19,1.42-0.56c0.35-0.38,0.54-0.88,0.55-1.51v-4.26
				c0-0.64-0.18-1.15-0.54-1.52c-0.36-0.37-0.84-0.56-1.45-0.56h-2.34c-0.06,0-0.08,0.03-0.08,0.08v8.25
				C224.44,98.08,224.47,98.1,224.53,98.1z"/>
			<path class="st24" d="M241.1,99.62l-0.56-1.8c-0.02-0.04-0.05-0.07-0.08-0.07h-4.44c-0.03,0-0.06,0.02-0.08,0.07l-0.56,1.8
				c-0.03,0.11-0.11,0.17-0.22,0.17h-1.68c-0.07,0-0.12-0.02-0.15-0.06c-0.03-0.04-0.04-0.1-0.02-0.18l3.65-11.37
				c0.03-0.11,0.11-0.17,0.22-0.17h2.1c0.11,0,0.18,0.06,0.22,0.17l3.67,11.37c0.01,0.02,0.02,0.05,0.02,0.08
				c0,0.1-0.06,0.15-0.18,0.15h-1.68C241.21,99.79,241.13,99.73,241.1,99.62z M236.52,96.22h3.42c0.07,0,0.09-0.03,0.07-0.1
				l-1.73-5.64c-0.01-0.04-0.03-0.07-0.05-0.07c-0.02,0-0.04,0.02-0.05,0.07l-1.72,5.64C236.44,96.18,236.47,96.22,236.52,96.22z"/>
			<path class="st24" d="M252.98,99.63l-2.22-4.85c-0.02-0.04-0.06-0.07-0.1-0.07h-2.02c-0.06,0-0.08,0.03-0.08,0.08v4.78
				c0,0.06-0.02,0.1-0.06,0.14c-0.04,0.04-0.09,0.06-0.14,0.06h-1.55c-0.06,0-0.1-0.02-0.14-0.06c-0.04-0.04-0.06-0.09-0.06-0.14
				V88.21c0-0.06,0.02-0.1,0.06-0.14c0.04-0.04,0.09-0.06,0.14-0.06h4.63c0.68,0,1.29,0.14,1.82,0.43c0.53,0.29,0.94,0.69,1.23,1.21
				c0.29,0.52,0.44,1.12,0.44,1.79c0,0.77-0.2,1.43-0.6,1.98c-0.4,0.54-0.95,0.92-1.66,1.14c-0.02,0-0.04,0.01-0.05,0.03
				s-0.01,0.04,0,0.07l2.37,4.9c0.02,0.04,0.03,0.08,0.03,0.1c0,0.09-0.06,0.13-0.18,0.13h-1.62
				C253.1,99.79,253.02,99.74,252.98,99.63z M248.55,89.77v3.35c0,0.06,0.03,0.08,0.08,0.08h2.52c0.54,0,0.97-0.16,1.3-0.48
				c0.33-0.32,0.5-0.74,0.5-1.27c0-0.53-0.17-0.95-0.5-1.28c-0.33-0.32-0.77-0.49-1.3-0.49h-2.52
				C248.58,89.69,248.55,89.72,248.55,89.77z"/>
			<path class="st24" d="M261.1,99.71c-0.04-0.04-0.06-0.09-0.06-0.14v-4.51c0-0.04-0.01-0.08-0.02-0.1l-3.47-6.71
				c-0.02-0.04-0.03-0.08-0.03-0.1c0-0.09,0.06-0.13,0.18-0.13h1.67c0.11,0,0.19,0.05,0.24,0.15l2.36,4.69
				c0.03,0.04,0.07,0.04,0.1,0l2.37-4.69c0.06-0.1,0.13-0.15,0.24-0.15h1.68c0.08,0,0.13,0.02,0.16,0.07
				c0.03,0.04,0.03,0.1-0.01,0.17l-3.48,6.71c-0.02,0.05-0.03,0.08-0.03,0.1v4.51c0,0.06-0.02,0.1-0.06,0.14
				c-0.04,0.04-0.09,0.06-0.14,0.06h-1.55C261.18,99.77,261.14,99.75,261.1,99.71z"/>
		</g>
	</g>
</g>
<g id="top_layer_graphics">
</g>
<g id="Text">
</g>
<g id="Bootstrap">
</g>
<g id="Layout_annotations">
</g>
<g id="Text_annotations">
</g>
</svg>
