<?xml version="1.0" encoding="utf-8"?>
<!-- Generator: Adobe Illustrator 24.0.3, SVG Export Plug-In . SVG Version: 6.00 Build 0)  -->
<svg version="1.1" id="Layer_1" xmlns="http://www.w3.org/2000/svg" xmlns:xlink="http://www.w3.org/1999/xlink" x="0px" y="0px"
	 viewBox="0 0 1800 720" style="enable-background:new 0 0 1800 720;" xml:space="preserve">
<style type="text/css">
	.st0{fill:#FFFFFF;}
	.st1{fill:#6333FF;}
	.st2{fill:#1D053D;}
</style>
<g>
	<g>
		<g>
			<path class="st1" d="M406.42,257.84c-28.13,0-53.53,11.65-71.65,30.38c27.4,11.1,46.73,37.94,46.73,69.32
				s-19.33,58.22-46.73,69.32c18.13,18.73,43.53,30.38,71.65,30.38c55.06,0,99.7-44.64,99.7-99.7S461.49,257.84,406.42,257.84z"/>
		</g>
		<g>
			<path class="st1" d="M334.77,288.22c-8.66-3.51-18.12-5.46-28.05-5.46c-41.3,0-74.77,33.48-74.77,74.77s33.48,74.77,74.77,74.77
				c9.92,0,19.38-1.95,28.05-5.46c-17.36-17.94-28.05-42.38-28.05-69.32C306.73,330.6,317.41,306.16,334.77,288.22z"/>
		</g>
	</g>
	<g>
		<path class="st2" d="M640.24,291.16c-38.04,0-65.74,26.78-65.74,69.25c0,34.35,21.42,64.08,62.42,64.08
			c38.23,0,65.74-26.78,65.74-69.25C702.65,320.89,681.23,291.16,640.24,291.16z M639.5,415.63c-19.39,0-26.78-27.15-26.78-60.02
			c0-27.15,6.28-55.59,24.93-55.59c19.39,0,26.78,27.15,26.78,60.02C664.43,387.19,658.15,415.63,639.5,415.63z"/>
		<path class="st2" d="M778.8,321.26c-15.7,0-25.85,9.6-31.02,17.91l0.74-17.91h-6.46h-28.44v140.9h34.16v-41.55
			c3.14,2.59,9.05,3.88,16.07,3.88c29.18,0,52.26-19.95,52.26-57.8C816.11,336.4,800.6,321.26,778.8,321.26z M760.89,415.81
			c-9.79,0-13.11-7.39-13.11-19.39v-51.89c3.33-2.21,7.02-3.14,10.9-3.14c14.04,0,22.71,11.26,22.71,35.64
			C781.39,398.82,774.19,415.81,760.89,415.81z"/>
		<path class="st2" d="M882.37,401.96c-16.81,0-28.99-13.67-28.62-35.64h58.91v-4.62c0-23.45-13.67-40.44-40.44-40.44
			c-26.59,0-49.31,21.05-49.31,53.92c0,31.03,20.68,49.31,48.01,49.31c23.27,0,37.49-13.48,42.47-33.8l-3.51-2.22
			C902.87,397.71,894.19,401.96,882.37,401.96z M870,329.02c9.97,0,13.48,10.9,13.48,28.81h-29.55
			C854.85,340.65,859.84,329.02,870,329.02z"/>
		<path class="st2" d="M992.68,321.26c-16.62,0-27.33,9.6-34.35,18.47l0.74-18.47h-6.28h-28.44v101.38h33.98v-77.19
			c4.8-2.4,9.97-4.06,15.88-4.06c9.6,0,12.37,4.8,12.37,12.93v68.33h34.16v-71.1C1020.75,331.23,1010.59,321.26,992.68,321.26z"/>
		<path class="st2" d="M1086.28,293.01h-50.42v129.64h36.2V372.6h12.74c36.57,0,54.11-14.96,54.11-40.44
			C1138.91,309.81,1122.29,293.01,1086.28,293.01z M1076.31,362.99h-4.25v-61.31h4.25c16.62,0,27.15,11.45,27.15,30.47
			C1103.46,351.18,1094.04,362.99,1076.31,362.99z"/>
		<path class="st2" d="M1217.25,321.26c-16.8,0-27.33,9.6-34.35,18.47v-46.72h-5.72h-28.44v129.64h34.16v-77.19
			c4.62-2.4,9.79-4.06,15.7-4.06c9.6,0,12.37,4.8,12.37,12.93v68.33h34.16v-71.1C1245.14,331.42,1234.98,321.26,1217.25,321.26z"/>
		<path class="st2" d="M1307.81,321.26c-30.29,0-51.71,22.53-51.71,53.55c0,30.29,21.05,49.68,51.52,49.68
			c30.29,0,51.71-22.53,51.71-53.55C1359.33,340.65,1338.28,321.26,1307.81,321.26z M1308.55,416.73
			c-11.82,0-16.25-19.76-16.25-50.04c0-23.45,3.51-37.67,14.59-37.67c12,0,16.25,19.76,16.25,50.05
			C1323.14,402.51,1319.63,416.73,1308.55,416.73z"/>
		<path class="st2" d="M1438.62,321.26c-16.62,0-27.33,9.6-34.35,18.47l0.74-18.47h-6.28h-28.44v101.38h33.98v-77.19
			c4.8-2.4,9.97-4.06,15.88-4.06c9.6,0,12.37,4.8,12.37,12.93v68.33h34.16v-71.1C1466.69,331.23,1456.53,321.26,1438.62,321.26z"/>
		<path class="st2" d="M1564.54,388.48c-7.02,9.23-15.7,13.48-27.52,13.48c-16.8,0-28.99-13.67-28.62-35.64h58.91v-4.62
			c0-23.45-13.67-40.44-40.44-40.44c-26.59,0-49.31,21.05-49.31,53.92c0,31.03,20.68,49.31,48.01,49.31
			c23.27,0,37.49-13.48,42.47-33.8L1564.54,388.48z M1524.65,329.02c9.97,0,13.48,10.9,13.48,28.81h-29.55
			C1509.51,340.65,1514.5,329.02,1524.65,329.02z"/>
	</g>
</g>
</svg>
