<svg width="5384" height="512" viewBox="0 0 5384 512" fill="none" xmlns="http://www.w3.org/2000/svg">
<path d="M0 505.187H90.2815V336.792H185.674C300.776 336.792 362.587 267.681 362.587 171.803C362.587 76.6542 301.506 6.81382 186.89 6.81382H0V505.187ZM90.2815 262.571V82.2511H173.019C240.67 82.2511 270.601 118.753 270.601 171.803C270.601 224.852 240.67 262.571 173.506 262.571H90.2815ZM441.005 505.187H531.285V322.678H623.271L721.098 505.187H821.843L714.039 307.59C772.687 283.985 803.592 233.856 803.592 166.206C803.592 71.0573 742.267 6.81382 627.896 6.81382H441.005V505.187ZM531.285 247.727V82.2511H614.025C681.432 82.2511 711.607 113.156 711.607 166.206C711.607 219.255 681.432 247.727 614.511 247.727H531.285ZM1332.02 256C1332.02 94.9051 1233.7 0 1103.03 0C972.11 0 874.037 94.9051 874.037 256C874.037 416.851 972.11 512 1103.03 512C1233.7 512 1332.02 417.097 1332.02 256ZM1241.25 256C1241.25 369.4 1184.31 430.968 1103.03 430.968C1022 430.968 964.806 369.4 964.806 256C964.806 142.601 1022 81.0342 1103.03 81.0342C1184.31 81.0342 1241.25 142.601 1241.25 256ZM1614 6.81382V357.233C1613.75 409.793 1589.42 437.78 1546.1 437.78C1505.71 437.78 1478.7 413.202 1477.97 372.807H1388.17C1388.17 464.791 1455.33 512 1542.69 512C1638.81 512 1703.3 453.598 1703.55 357.233V6.81382H1614ZM1801.5 505.187H2127.58V429.506H1891.77V293.476H2108.84V217.795H1891.77V82.4944H2125.63V6.81382H1801.5V505.187ZM2644.32 174.966C2628.99 64.2435 2543.83 0 2433.34 0C2303.16 0 2205.08 94.9051 2205.08 256C2205.08 416.851 2301.94 512 2433.34 512C2551.85 512 2630.45 435.348 2644.32 340.199L2553.32 339.712C2541.88 398.115 2494.18 430.968 2434.56 430.968C2353.77 430.968 2295.85 370.373 2295.85 256C2295.85 143.574 2353.28 81.0342 2434.81 81.0342C2495.39 81.0342 2542.85 115.346 2553.32 174.966H2644.32ZM2705.1 82.4944H2859.14V505.187H2948.69V82.4944H3102.73V6.81382H2705.1V82.4944ZM3349.36 505.187H3551.09C3665.23 505.187 3721.19 447.026 3721.19 369.4C3721.19 293.963 3667.66 249.674 3614.61 246.997V242.13C3663.28 230.692 3701.73 196.624 3701.73 136.031C3701.73 61.8102 3648.19 6.81382 3540.14 6.81382H3349.36V505.187ZM3439.64 429.751V283.742H3539.17C3594.9 283.742 3629.45 317.811 3629.45 362.343C3629.45 402.009 3602.2 429.751 3536.74 429.751H3439.64ZM3439.64 218.769V81.2774H3530.9C3583.95 81.2774 3611.44 109.262 3611.44 147.711C3611.44 191.514 3575.92 218.769 3528.95 218.769H3439.64ZM4245.06 256C4245.06 94.9051 4146.75 0 4016.07 0C3885.15 0 3787.08 94.9051 3787.08 256C3787.08 416.851 3885.15 512 4016.07 512C4146.75 512 4245.06 417.097 4245.06 256ZM4154.29 256C4154.29 369.4 4097.35 430.968 4016.07 430.968C3935.04 430.968 3877.85 369.4 3877.85 256C3877.85 142.601 3935.04 81.0342 4016.07 81.0342C4097.35 81.0342 4154.29 142.601 4154.29 256ZM4775.74 256C4775.74 94.9051 4677.42 0 4546.75 0C4415.83 0 4317.76 94.9051 4317.76 256C4317.76 416.851 4415.83 512 4546.75 512C4677.42 512 4775.74 417.097 4775.74 256ZM4684.97 256C4684.97 369.4 4628.03 430.968 4546.75 430.968C4465.71 430.968 4408.53 369.4 4408.53 256C4408.53 142.601 4465.71 81.0342 4546.75 81.0342C4628.03 81.0342 4684.97 142.601 4684.97 256ZM4861.09 6.81382V505.187H4947.72V162.069H4952.35L5090.08 503.725H5154.81L5292.54 162.799H5297.17V505.187H5383.8V6.81382H5273.32L5125.36 367.94H5119.53L4971.57 6.81382H4861.09Z" fill="#2347A9"/>
</svg>
