<svg width="512" height="256" viewBox="0 0 512 256" fill="none" xmlns="http://www.w3.org/2000/svg">
<path d="M178.132 154.872C177.855 153.848 177.439 152.889 176.885 151.994C176.33 151.098 175.675 150.32 174.919 149.659C174.162 148.999 173.309 148.476 172.36 148.092C171.411 147.708 170.404 147.516 169.338 147.516C167.867 147.516 166.556 147.847 165.405 148.508C164.253 149.169 163.288 150.042 162.511 151.13C161.732 152.217 161.136 153.449 160.72 154.824C160.304 156.199 160.096 157.612 160.096 159.061C160.096 160.595 160.315 162.034 160.752 163.378C161.188 164.721 161.812 165.888 162.622 166.88C163.432 167.871 164.413 168.655 165.565 169.23C166.716 169.806 167.995 170.094 169.402 170.094C170.51 170.094 171.55 169.891 172.52 169.486C173.49 169.081 174.353 168.548 175.11 167.887C175.867 167.227 176.506 166.464 177.029 165.601C177.551 164.738 177.909 163.847 178.1 162.93H178.484L178.388 169.966H178.005C177.749 169.603 177.482 169.273 177.205 168.975C176.928 168.677 176.736 168.527 176.63 168.527C176.587 168.527 176.394 168.638 176.054 168.863C175.713 169.086 175.222 169.332 174.583 169.598C173.943 169.864 173.165 170.099 172.248 170.302C171.331 170.504 170.276 170.605 169.083 170.605C167.1 170.605 165.309 170.323 163.71 169.758C162.111 169.193 160.752 168.394 159.632 167.359C158.513 166.326 157.655 165.089 157.058 163.65C156.461 162.211 156.163 160.628 156.163 158.901C156.163 158.517 156.189 158.081 156.243 157.59C156.296 157.1 156.392 156.577 156.531 156.023C156.669 155.469 156.861 154.887 157.106 154.28C157.351 153.673 157.666 153.06 158.05 152.441C158.497 151.717 159.052 151.023 159.712 150.362C160.373 149.702 161.152 149.12 162.047 148.62C162.943 148.119 163.955 147.719 165.085 147.42C166.215 147.123 167.483 146.973 168.89 146.973C170.17 146.973 171.289 147.089 172.248 147.324C173.208 147.56 174.007 147.815 174.647 148.092C175.286 148.37 175.776 148.625 176.118 148.86C176.459 149.094 176.651 149.212 176.694 149.212C176.736 149.212 176.816 149.164 176.933 149.067C177.05 148.971 177.178 148.854 177.317 148.715C177.456 148.577 177.599 148.417 177.749 148.236C177.898 148.055 178.036 147.868 178.165 147.676H178.516V154.84L178.132 154.872Z" fill="#231F20"/>
<path d="M191.979 151.098C191.851 151.375 191.664 151.812 191.419 152.409C191.174 153.006 190.87 153.732 190.508 154.584C190.145 155.437 189.746 156.401 189.309 157.478C188.871 158.554 188.397 159.721 187.885 160.98H195.848C195.486 160.02 195.118 159.061 194.745 158.102C194.372 157.142 194.01 156.219 193.658 155.335C193.306 154.451 192.986 153.64 192.698 152.905C192.411 152.169 192.171 151.567 191.979 151.098ZM196.168 170.478V170.157C196.232 170.157 196.386 170.136 196.632 170.093C196.877 170.051 197.133 169.976 197.399 169.87C197.666 169.764 197.9 169.614 198.103 169.421C198.305 169.23 198.406 168.986 198.406 168.687C198.406 168.495 198.348 168.18 198.231 167.743C198.114 167.306 197.948 166.773 197.735 166.144C197.522 165.516 197.277 164.817 197 164.05C196.723 163.282 196.424 162.483 196.104 161.651H187.598C187.278 162.462 186.969 163.234 186.671 163.97C186.372 164.706 186.073 165.446 185.775 166.192C185.327 167.343 185.103 168.154 185.103 168.622C185.103 168.9 185.188 169.129 185.359 169.31C185.53 169.492 185.748 169.641 186.015 169.758C186.281 169.876 186.569 169.961 186.878 170.014C187.187 170.067 187.481 170.115 187.758 170.157V170.478H180.946V170.125C181.501 170.062 181.975 169.913 182.369 169.678C182.764 169.444 182.993 169.284 183.057 169.198C183.206 169.049 183.451 168.697 183.792 168.142C184.133 167.589 184.549 166.768 185.04 165.681C185.487 164.679 185.988 163.538 186.543 162.259C187.097 160.98 187.667 159.663 188.253 158.309C188.84 156.956 189.421 155.591 189.997 154.216C190.572 152.84 191.115 151.557 191.627 150.362L191.307 149.659C191.691 149.489 192.038 149.286 192.347 149.052C192.656 148.817 192.927 148.572 193.162 148.316C193.397 148.06 193.594 147.815 193.754 147.581C193.914 147.346 194.036 147.154 194.121 147.004H194.378C195.038 148.774 195.667 150.453 196.264 152.041C196.861 153.63 197.432 155.159 197.975 156.631C198.519 158.102 199.047 159.524 199.558 160.9C200.07 162.274 200.581 163.634 201.093 164.977C201.328 165.638 201.546 166.187 201.748 166.623C201.951 167.061 202.18 167.557 202.436 168.111C202.479 168.197 202.575 168.346 202.724 168.558C202.873 168.772 203.071 168.99 203.316 169.214C203.56 169.439 203.864 169.635 204.227 169.806C204.59 169.976 205.015 170.072 205.506 170.093V170.478H196.168Z" fill="#231F20"/>
<path d="M222.311 150.65C221.682 149.691 220.856 148.966 219.833 148.476C219.321 148.242 218.777 148.082 218.202 147.996C217.626 147.912 217.029 147.868 216.411 147.868C215.963 147.868 215.617 147.884 215.371 147.916C215.126 147.948 214.929 147.975 214.78 147.996C214.759 148.124 214.732 148.236 214.7 148.332C214.668 148.428 214.641 148.551 214.62 148.7C214.599 148.849 214.577 149.057 214.556 149.323C214.535 149.59 214.513 149.968 214.492 150.459C214.471 151.205 214.455 152.111 214.444 153.177C214.433 154.242 214.428 155.287 214.428 156.311V158.997V160.404C215.302 160.404 216.123 160.378 216.891 160.323C217.658 160.271 218.372 160.127 219.034 159.893C220.398 159.423 221.442 158.651 222.167 157.573C222.892 156.498 223.254 155.287 223.254 153.944C223.254 152.708 222.94 151.61 222.311 150.65ZM226.325 156.246C226.068 156.887 225.733 157.452 225.317 157.942C224.902 158.433 224.416 158.853 223.862 159.204C223.308 159.556 222.743 159.839 222.167 160.052C221.57 160.266 220.931 160.425 220.248 160.532C219.566 160.639 218.879 160.719 218.186 160.772C217.493 160.825 216.816 160.852 216.155 160.852H214.428V162.611V163.857C214.428 164.221 214.433 164.556 214.444 164.865C214.455 165.175 214.46 165.51 214.46 165.873C214.481 166.554 214.503 167.141 214.524 167.631C214.545 168.122 214.662 168.526 214.876 168.847C215.047 169.124 215.377 169.401 215.867 169.678C216.357 169.956 217.04 170.115 217.914 170.157V170.478H207.681V170.157C208.213 170.072 208.725 169.945 209.215 169.774C209.706 169.604 210.09 169.348 210.367 169.007C210.473 168.878 210.559 168.687 210.623 168.431C210.687 168.175 210.735 167.888 210.767 167.568C210.799 167.248 210.825 166.906 210.847 166.544C210.867 166.182 210.879 165.83 210.879 165.488C210.879 165.19 210.884 164.785 210.895 164.274C210.905 163.762 210.915 163.202 210.927 162.595C210.937 161.987 210.942 161.364 210.942 160.724V158.869V152.634C210.942 152.249 210.937 151.861 210.927 151.466C210.915 151.072 210.895 150.698 210.863 150.346C210.831 149.994 210.777 149.675 210.703 149.387C210.628 149.099 210.527 148.892 210.399 148.763C210.079 148.423 209.668 148.193 209.168 148.076C208.667 147.959 208.128 147.858 207.553 147.772V147.452H208.32C208.725 147.452 209.2 147.447 209.743 147.436C210.287 147.426 210.879 147.42 211.518 147.42C212.158 147.42 212.792 147.415 213.421 147.404C214.05 147.394 214.641 147.389 215.196 147.389H216.635C218.042 147.389 219.289 147.458 220.377 147.596C221.464 147.735 222.487 148.071 223.447 148.603C224.385 149.115 225.163 149.841 225.781 150.778C226.4 151.717 226.709 152.825 226.709 154.104C226.709 154.893 226.581 155.607 226.325 156.246Z" fill="#231F20"/>
<path d="M246.455 166.927C246.039 167.738 245.464 168.431 244.728 169.007C243.992 169.582 243.114 170.009 242.09 170.285C241.066 170.562 239.947 170.701 238.732 170.701C237.687 170.701 236.791 170.637 236.046 170.509C235.299 170.381 234.682 170.228 234.191 170.046C233.7 169.864 233.332 169.699 233.088 169.55C232.842 169.401 232.688 169.326 232.624 169.326C232.56 169.326 232.421 169.453 232.208 169.71C231.995 169.966 231.803 170.211 231.632 170.445H231.345L231.249 164.082H231.569C231.761 164.657 232.005 165.217 232.304 165.76C232.602 166.303 232.928 166.816 233.28 167.295C233.631 167.775 234.004 168.197 234.399 168.558C234.793 168.922 235.172 169.198 235.534 169.39C235.896 169.582 236.376 169.773 236.973 169.966C237.57 170.157 238.145 170.254 238.7 170.254C240.277 170.254 241.556 169.822 242.537 168.958C243.518 168.095 244.009 166.927 244.009 165.456C244.009 164.86 243.913 164.337 243.721 163.89C243.529 163.442 243.267 163.053 242.937 162.723C242.606 162.392 242.218 162.109 241.77 161.875C241.322 161.64 240.842 161.427 240.331 161.235C239.819 161.044 239.372 160.884 238.988 160.755C238.604 160.628 238.247 160.505 237.916 160.388C237.586 160.271 237.245 160.153 236.893 160.036C236.542 159.919 236.12 159.764 235.63 159.573C235.075 159.36 234.542 159.066 234.03 158.693C233.519 158.32 233.071 157.883 232.688 157.381C232.304 156.881 231.995 156.326 231.761 155.719C231.526 155.112 231.409 154.467 231.409 153.784C231.409 152.634 231.618 151.642 232.039 150.81C232.459 149.979 233.025 149.286 233.734 148.732C234.444 148.177 235.262 147.766 236.189 147.501C237.117 147.234 238.093 147.1 239.116 147.1C240.075 147.1 240.895 147.181 241.578 147.34C242.26 147.501 242.82 147.676 243.257 147.868C243.693 148.06 244.025 148.236 244.248 148.396C244.472 148.556 244.594 148.635 244.616 148.635C244.68 148.635 244.813 148.508 245.016 148.252C245.218 147.996 245.404 147.74 245.575 147.484H245.927V153.401H245.575C245.32 152.697 244.989 151.999 244.584 151.306C244.179 150.613 243.71 149.994 243.177 149.45C242.644 148.907 242.036 148.465 241.354 148.124C240.672 147.784 239.915 147.612 239.084 147.612C238.423 147.612 237.799 147.708 237.213 147.9C236.626 148.092 236.114 148.38 235.678 148.763C235.241 149.147 234.9 149.622 234.654 150.187C234.41 150.752 234.287 151.397 234.287 152.121C234.287 153.252 234.627 154.157 235.308 154.839C235.989 155.522 236.871 156.066 237.956 156.47C238.38 156.642 238.779 156.789 239.151 156.918C239.524 157.046 239.89 157.169 240.252 157.286C240.613 157.403 240.98 157.526 241.352 157.654C241.725 157.782 242.113 157.921 242.517 158.07C243.963 158.602 245.085 159.375 245.882 160.388C246.68 161.401 247.078 162.663 247.078 164.177C247.078 165.201 246.871 166.118 246.455 166.927Z" fill="#231F20"/>
<path d="M274.166 153.464C273.995 153.081 273.792 152.681 273.558 152.265C273.323 151.85 273.083 151.46 272.838 151.098C272.593 150.736 272.353 150.4 272.119 150.091C271.884 149.782 271.682 149.552 271.511 149.403C271.064 148.977 270.578 148.694 270.057 148.555C269.534 148.417 268.867 148.337 268.058 148.316C267.652 148.316 267.3 148.31 267.002 148.3C266.704 148.29 266.405 148.283 266.106 148.283H265.179H263.997C263.997 148.817 263.991 149.542 263.98 150.459C263.969 151.375 263.964 152.334 263.964 153.337V156.311V158.741V165.84C263.964 166.458 263.98 167.051 264.012 167.615C264.044 168.18 264.144 168.58 264.316 168.815C264.636 169.283 265.089 169.604 265.675 169.773C266.261 169.945 266.789 170.072 267.258 170.157V170.477H256.865V170.157C257.419 170.094 257.952 169.987 258.463 169.837C258.976 169.689 259.476 169.337 259.967 168.782C260.073 168.676 260.153 168.5 260.206 168.255C260.259 168.01 260.303 167.732 260.335 167.424C260.366 167.114 260.387 166.779 260.398 166.416C260.409 166.054 260.415 165.701 260.415 165.36C260.415 165.063 260.419 164.668 260.43 164.177C260.441 163.687 260.452 163.144 260.463 162.546C260.473 161.95 260.478 161.331 260.478 160.692V158.869V148.283H259.296H258.368C258.091 148.283 257.797 148.29 257.488 148.3C257.179 148.31 256.822 148.316 256.417 148.316C255.606 148.337 254.941 148.433 254.418 148.603C253.895 148.774 253.411 149.072 252.963 149.499C252.793 149.649 252.595 149.872 252.372 150.171C252.148 150.47 251.912 150.794 251.668 151.146C251.423 151.498 251.188 151.876 250.964 152.282C250.741 152.686 250.565 153.081 250.437 153.464L250.149 153.368L251.109 147.292C251.599 147.399 252.052 147.484 252.468 147.548C252.884 147.613 253.485 147.655 254.275 147.676C255.085 147.698 255.809 147.714 256.449 147.724C257.089 147.735 257.707 147.74 258.304 147.74H260.126H262.269H264.38C265.019 147.74 265.637 147.735 266.235 147.724C266.831 147.714 267.45 147.703 268.089 147.692C268.729 147.681 269.454 147.676 270.264 147.676C270.967 147.655 271.548 147.596 272.007 147.501C272.465 147.404 272.939 147.282 273.43 147.132L274.453 153.368L274.166 153.464Z" fill="#231F20"/>
<path d="M296.375 154.903C296.043 153.582 295.543 152.382 294.872 151.306C294.2 150.23 293.363 149.355 292.362 148.683C291.359 148.011 290.176 147.676 288.812 147.676C287.425 147.676 286.226 148.011 285.214 148.683C284.201 149.355 283.37 150.224 282.72 151.29C282.069 152.356 281.59 153.566 281.281 154.92C280.972 156.273 280.817 157.643 280.817 159.029C280.817 160.479 280.987 161.875 281.329 163.218C281.669 164.561 282.176 165.745 282.848 166.768C283.519 167.791 284.361 168.612 285.374 169.23C286.386 169.849 287.564 170.158 288.908 170.158C290.25 170.158 291.418 169.816 292.409 169.135C293.4 168.452 294.227 167.573 294.888 166.496C295.548 165.42 296.043 164.209 296.375 162.867C296.705 161.524 296.87 160.18 296.87 158.837C296.87 157.537 296.705 156.225 296.375 154.903ZM299.876 163.538C299.237 164.988 298.368 166.245 297.27 167.312C296.172 168.378 294.893 169.198 293.433 169.773C291.972 170.349 290.42 170.637 288.78 170.637C287.159 170.637 285.624 170.355 284.175 169.79C282.724 169.225 281.457 168.426 280.37 167.391C279.282 166.357 278.423 165.121 277.795 163.682C277.166 162.242 276.851 160.66 276.851 158.933C276.851 157.1 277.181 155.453 277.844 153.993C278.503 152.532 279.394 151.295 280.513 150.283C281.632 149.27 282.943 148.492 284.447 147.948C285.95 147.404 287.533 147.132 289.195 147.132C291.007 147.132 292.633 147.452 294.072 148.092C295.512 148.732 296.732 149.59 297.733 150.666C298.736 151.743 299.504 152.985 300.036 154.391C300.569 155.799 300.836 157.27 300.836 158.805C300.836 160.51 300.516 162.088 299.876 163.538Z" fill="#231F20"/>
<path d="M328.802 148.38C328.323 148.679 327.955 149.138 327.699 149.755C327.549 150.074 327.454 150.666 327.411 151.53C327.368 152.394 327.326 153.315 327.283 154.297C327.24 155.213 327.204 156.294 327.171 157.541C327.14 158.789 327.124 160.127 327.124 161.555V163.602C327.124 164.348 327.129 165.11 327.14 165.888C327.15 166.667 327.156 167.439 327.156 168.207V170.285C327.156 170.371 327.129 170.44 327.075 170.493C327.022 170.547 326.942 170.574 326.836 170.574C326.665 170.574 326.473 170.467 326.26 170.254C324.448 168.164 322.796 166.245 321.303 164.497C319.811 162.749 318.388 161.081 317.034 159.493C315.68 157.905 314.353 156.354 313.053 154.84C311.752 153.326 310.377 151.759 308.927 150.138V163.634C308.927 164.721 308.953 165.702 309.007 166.576C309.06 167.45 309.194 168.1 309.407 168.527C309.641 169.017 310.009 169.386 310.51 169.63C311.011 169.876 311.698 170.051 312.573 170.158V170.477H304.706V170.158C305.218 170.094 305.729 169.961 306.241 169.758C306.753 169.556 307.158 169.22 307.456 168.75C307.755 168.302 307.947 167.642 308.032 166.768C308.117 165.894 308.181 164.849 308.223 163.634C308.266 162.718 308.298 161.636 308.32 160.388C308.341 159.141 308.351 157.803 308.351 156.375V154.84V153.656V152.473C308.351 152.047 308.341 151.525 308.32 150.906C308.256 150.288 308.107 149.782 307.871 149.387C307.638 148.993 307.36 148.683 307.041 148.46C306.721 148.236 306.374 148.076 306.001 147.98C305.628 147.884 305.271 147.815 304.93 147.772V147.452H311.422L326.58 165.169V154.297C326.58 153.443 326.568 152.628 326.548 151.85C326.527 151.072 326.43 150.459 326.26 150.011C326.046 149.414 325.669 148.929 325.125 148.556C324.581 148.183 323.797 147.922 322.775 147.772V147.452H330.705V147.772C329.916 147.878 329.282 148.082 328.802 148.38Z" fill="#231F20"/>
<path d="M354.401 170.477H334.829V170.157C335.362 170.072 335.858 169.934 336.317 169.741C336.775 169.55 337.153 169.283 337.452 168.942C337.559 168.815 337.644 168.628 337.708 168.383C337.771 168.138 337.83 167.855 337.884 167.536C337.937 167.216 337.974 166.88 337.996 166.528C338.017 166.176 338.028 165.83 338.028 165.488C338.028 165.19 338.033 164.785 338.043 164.274C338.054 163.762 338.064 163.202 338.076 162.594C338.086 161.987 338.091 161.364 338.091 160.724V158.869V152.634C338.091 152.249 338.086 151.855 338.076 151.45C338.064 151.045 338.043 150.661 338.012 150.299C337.979 149.936 337.926 149.61 337.852 149.323C337.777 149.035 337.676 148.827 337.548 148.7C337.228 148.359 336.887 148.14 336.525 148.044C336.162 147.948 335.693 147.858 335.118 147.772V147.452H352.77L354.944 152.729L354.625 152.889C352.898 150.736 351.277 149.286 349.764 148.54C349.402 148.37 348.73 148.219 347.75 148.092C346.769 147.964 345.575 147.899 344.168 147.899C343.72 147.899 343.256 147.916 342.777 147.948C342.297 147.98 341.95 148.018 341.737 148.06C341.694 148.401 341.657 149.105 341.625 150.171C341.593 151.237 341.577 152.473 341.577 153.88V155.927C341.577 156.481 341.582 156.934 341.593 157.286C341.604 157.638 341.61 157.91 341.61 158.101V158.453H342.249C342.568 158.453 342.936 158.443 343.352 158.421C343.768 158.4 344.183 158.374 344.6 158.342C345.015 158.309 345.362 158.262 345.639 158.197C346.278 158.048 346.811 157.845 347.238 157.59C347.665 157.334 348.01 157.025 348.277 156.663C348.543 156.3 348.757 155.879 348.916 155.399C349.076 154.919 349.221 154.382 349.348 153.784H349.732V163.857H349.348C349.177 163.176 348.916 162.472 348.565 161.747C348.213 161.023 347.845 160.479 347.461 160.116C347.121 159.818 346.709 159.573 346.23 159.381C345.751 159.189 345.191 159.071 344.551 159.029C344.232 159.008 343.965 158.991 343.751 158.981C343.539 158.971 343.325 158.965 343.112 158.965H342.472H341.641C341.599 159.263 341.577 159.701 341.577 160.276V162.067V163.026V164.113C341.577 164.455 341.582 164.78 341.593 165.089C341.604 165.398 341.61 165.659 341.61 165.873C341.631 166.554 341.668 167.199 341.721 167.807C341.775 168.415 341.896 168.868 342.089 169.166C342.281 169.465 342.739 169.678 343.464 169.806C344.189 169.934 344.978 169.997 345.831 169.997C346.193 169.997 346.656 169.987 347.221 169.966C347.786 169.945 348.378 169.891 348.996 169.806C349.679 169.72 350.308 169.556 350.883 169.31C351.459 169.066 352.013 168.718 352.546 168.271C353.079 167.823 353.596 167.274 354.097 166.623C354.598 165.974 355.115 165.19 355.648 164.274L356 164.369L354.401 170.477Z" fill="#231F20"/>
<path d="M173.321 205.647V205.324C174.161 205.287 174.864 205.11 175.431 204.798C175.998 204.484 176.379 204.123 176.574 203.713C176.692 203.46 176.779 203.141 176.838 202.76C176.897 202.379 176.935 201.994 176.955 201.603C176.994 200.313 177.014 199.083 177.014 197.909V194.276V185.982C176.369 187.427 175.778 188.756 175.241 189.967C174.703 191.179 174.171 192.362 173.643 193.514C173.116 194.667 172.583 195.844 172.046 197.046C171.509 198.246 170.918 199.571 170.273 201.017C170.175 201.212 170.039 201.52 169.863 201.94C169.687 202.361 169.511 202.79 169.335 203.229C169.159 203.669 168.993 204.07 168.837 204.431C168.68 204.793 168.583 205.032 168.544 205.149H168.368C167.742 203.703 167.122 202.268 166.507 200.841C165.892 199.415 165.291 198.042 164.705 196.723C164.118 195.405 163.571 194.168 163.063 193.015C162.555 191.863 162.096 190.837 161.686 189.938C161.275 189.039 160.938 188.287 160.675 187.682C160.411 187.076 160.23 186.665 160.133 186.451C160.133 187.74 160.128 188.879 160.118 189.865C160.108 190.852 160.098 191.828 160.089 192.795C160.079 193.763 160.074 194.784 160.074 195.858V199.61C160.074 200.528 160.103 201.325 160.162 201.998C160.22 202.672 160.367 203.24 160.601 203.698C160.836 204.157 161.192 204.519 161.671 204.783C162.149 205.046 162.809 205.237 163.65 205.354V205.647H156V205.354C156.684 205.218 157.241 205.018 157.671 204.753C158.1 204.489 158.442 204.123 158.696 203.654C158.95 203.185 159.136 202.604 159.253 201.911C159.37 201.217 159.439 200.372 159.458 199.375C159.497 198.536 159.527 197.544 159.546 196.401C159.566 195.257 159.576 194.032 159.576 192.723V191.286V190.173V189.03C159.576 188.639 159.566 188.161 159.546 187.594C159.527 187.047 159.41 186.602 159.195 186.26C158.979 185.918 158.726 185.65 158.433 185.454C158.139 185.259 157.827 185.117 157.495 185.029C157.162 184.941 156.879 184.878 156.645 184.839V184.545H162.887L169.892 200.489C170.752 198.633 171.592 196.787 172.412 194.95C173.233 193.114 173.97 191.453 174.625 189.967C175.28 188.482 175.817 187.247 176.237 186.26C176.657 185.274 176.897 184.702 176.955 184.545H183.198V184.839C182.396 184.858 181.786 185.025 181.366 185.337C180.946 185.65 180.658 186.021 180.501 186.451C180.384 186.783 180.306 187.301 180.267 188.003C180.228 188.707 180.199 189.401 180.179 190.085C180.159 191.022 180.15 191.931 180.15 192.811V195.478V198.643C180.15 199.679 180.159 200.773 180.179 201.925C180.179 202.297 180.203 202.672 180.252 203.053C180.301 203.435 180.384 203.732 180.501 203.947C180.521 203.987 180.594 204.079 180.721 204.226C180.848 204.372 181.029 204.529 181.264 204.695C181.498 204.862 181.791 205.008 182.143 205.135C182.495 205.263 182.905 205.335 183.374 205.354V205.647H173.321Z" fill="#231F20"/>
<path d="M204.783 191.374C204.48 190.163 204.021 189.064 203.406 188.078C202.791 187.091 202.023 186.29 201.105 185.674C200.187 185.059 199.102 184.75 197.852 184.75C196.582 184.75 195.482 185.059 194.555 185.674C193.627 186.29 192.865 187.085 192.269 188.063C191.672 189.039 191.233 190.149 190.95 191.389C190.667 192.63 190.525 193.885 190.525 195.154C190.525 196.484 190.681 197.763 190.994 198.994C191.306 200.225 191.771 201.31 192.386 202.247C193.001 203.185 193.773 203.938 194.701 204.504C195.629 205.071 196.709 205.354 197.94 205.354C199.17 205.354 200.24 205.042 201.149 204.416C202.058 203.791 202.814 202.985 203.42 201.998C204.026 201.012 204.48 199.903 204.783 198.672C205.086 197.441 205.238 196.211 205.238 194.98C205.238 193.787 205.086 192.586 204.783 191.374ZM207.992 199.288C207.406 200.616 206.61 201.769 205.604 202.746C204.597 203.723 203.425 204.475 202.087 205.003C200.748 205.53 199.327 205.794 197.823 205.794C196.337 205.794 194.93 205.535 193.602 205.018C192.273 204.499 191.111 203.767 190.114 202.819C189.118 201.872 188.331 200.738 187.755 199.42C187.179 198.1 186.891 196.65 186.891 195.067C186.891 193.387 187.193 191.877 187.799 190.539C188.404 189.201 189.221 188.067 190.247 187.139C191.272 186.211 192.474 185.499 193.852 184.999C195.229 184.502 196.679 184.253 198.204 184.253C199.864 184.253 201.354 184.545 202.673 185.132C203.992 185.718 205.11 186.505 206.029 187.491C206.947 188.478 207.65 189.616 208.139 190.905C208.627 192.195 208.872 193.543 208.872 194.95C208.872 196.513 208.579 197.958 207.992 199.288Z" fill="#231F20"/>
<path d="M225.899 187.389C225.411 186.627 224.698 186.021 223.761 185.571C223.291 185.357 222.798 185.2 222.28 185.102C221.762 185.005 221.22 184.956 220.653 184.956C220.243 184.956 219.911 184.966 219.657 184.985C219.403 185.005 219.207 185.025 219.071 185.044C219.051 185.162 219.032 185.264 219.012 185.351C218.993 185.439 218.978 185.552 218.969 185.689C218.958 185.825 218.949 186.016 218.939 186.26C218.929 186.505 218.914 186.851 218.895 187.301C218.875 187.985 218.86 188.757 218.851 189.616C218.841 190.476 218.837 191.306 218.837 192.107V194.217V195.331C219.637 195.331 220.385 195.297 221.078 195.228C221.772 195.16 222.442 195.018 223.086 194.803C223.711 194.608 224.248 194.344 224.698 194.012C225.148 193.68 225.513 193.305 225.797 192.883C226.08 192.464 226.29 192.01 226.428 191.521C226.564 191.033 226.632 190.525 226.632 189.997C226.632 189.021 226.388 188.151 225.899 187.389ZM228.801 205.647C228.625 205.472 228.498 205.34 228.421 205.252C228.342 205.164 228.254 205.061 228.156 204.943C228.058 204.827 227.937 204.655 227.79 204.431C227.644 204.207 227.414 203.87 227.102 203.42C226.73 202.874 226.403 202.379 226.119 201.94C225.836 201.5 225.548 201.066 225.254 200.635C224.962 200.206 224.644 199.771 224.302 199.332C223.961 198.892 223.555 198.399 223.086 197.852C222.695 197.402 222.27 196.983 221.811 196.591C221.352 196.2 220.868 195.957 220.36 195.859C219.989 195.781 219.706 195.741 219.51 195.741C219.335 195.741 219.11 195.731 218.837 195.712V199.023C218.837 199.961 218.846 200.753 218.866 201.398C218.885 202.023 218.904 202.56 218.925 203.01C218.943 203.46 219.051 203.83 219.247 204.123C219.403 204.378 219.706 204.636 220.155 204.9C220.605 205.164 221.229 205.316 222.031 205.354V205.647H212.652V205.354C213.141 205.276 213.61 205.159 214.059 205.003C214.509 204.847 214.86 204.612 215.114 204.299C215.212 204.181 215.29 204.006 215.349 203.772C215.407 203.537 215.451 203.273 215.481 202.981C215.51 202.688 215.534 202.375 215.554 202.042C215.573 201.711 215.583 201.389 215.583 201.075C215.583 200.802 215.588 200.431 215.598 199.961C215.607 199.492 215.617 198.98 215.627 198.423C215.637 197.866 215.642 197.294 215.642 196.709V195.009V189.294C215.642 188.942 215.637 188.585 215.627 188.223C215.617 187.863 215.598 187.521 215.568 187.198C215.54 186.875 215.49 186.582 215.422 186.319C215.354 186.056 215.261 185.864 215.144 185.747C214.851 185.435 214.523 185.225 214.162 185.117C213.8 185.01 213.356 184.917 212.828 184.839V184.546H214.03C214.694 184.546 215.446 184.541 216.286 184.531C217.126 184.522 217.967 184.516 218.807 184.516H220.859C222.168 184.516 223.33 184.556 224.346 184.633C225.362 184.711 226.29 184.975 227.13 185.424C227.99 185.874 228.683 186.485 229.212 187.257C229.739 188.028 230.003 189 230.003 190.173C230.003 190.896 229.871 191.546 229.607 192.122C229.343 192.699 228.992 193.207 228.552 193.646C228.113 194.086 227.6 194.462 227.013 194.774C226.428 195.087 225.812 195.351 225.167 195.565V195.654C225.499 195.829 225.822 196.083 226.134 196.415C226.446 196.748 226.75 197.119 227.043 197.529C227.55 198.272 228.102 199.073 228.698 199.932C229.294 200.793 229.827 201.555 230.296 202.218C231.018 203.235 231.722 203.977 232.406 204.446C233.09 204.915 233.891 205.218 234.809 205.354V205.647H228.801Z" fill="#231F20"/>
<path d="M257.229 190.056C257.073 189.704 256.887 189.337 256.672 188.957C256.456 188.576 256.237 188.219 256.013 187.886C255.788 187.555 255.568 187.247 255.353 186.964C255.138 186.68 254.953 186.471 254.797 186.333C254.387 185.942 253.941 185.684 253.463 185.557C252.984 185.43 252.373 185.357 251.631 185.337C251.26 185.337 250.937 185.332 250.664 185.322C250.39 185.313 250.116 185.307 249.843 185.307H248.993H247.909C247.909 185.796 247.904 186.46 247.895 187.301C247.884 188.141 247.879 189.02 247.879 189.938V192.663V194.891V201.398C247.879 201.964 247.895 202.507 247.924 203.024C247.953 203.542 248.046 203.909 248.202 204.123C248.495 204.553 248.91 204.847 249.448 205.003C249.985 205.159 250.468 205.276 250.899 205.354V205.647H241.373V205.354C241.881 205.296 242.369 205.198 242.838 205.061C243.308 204.925 243.767 204.602 244.216 204.094C244.314 203.996 244.387 203.835 244.436 203.61C244.484 203.386 244.524 203.132 244.553 202.848C244.583 202.565 244.602 202.257 244.611 201.925C244.621 201.593 244.626 201.271 244.626 200.958C244.626 200.685 244.631 200.323 244.641 199.874C244.651 199.424 244.661 198.926 244.671 198.379C244.68 197.832 244.685 197.265 244.685 196.678V195.009V185.307H243.6H242.751C242.497 185.307 242.228 185.313 241.945 185.322C241.661 185.332 241.334 185.337 240.963 185.337C240.22 185.357 239.61 185.444 239.132 185.601C238.652 185.757 238.208 186.03 237.797 186.421C237.641 186.558 237.461 186.763 237.255 187.036C237.05 187.311 236.835 187.608 236.611 187.93C236.386 188.253 236.171 188.6 235.966 188.971C235.761 189.342 235.6 189.704 235.482 190.056L235.219 189.967L236.098 184.399C236.547 184.497 236.962 184.575 237.344 184.633C237.724 184.693 238.277 184.732 239 184.75C239.742 184.771 240.406 184.785 240.992 184.794C241.579 184.805 242.145 184.809 242.692 184.809H244.363H246.327H248.261C248.847 184.809 249.413 184.805 249.96 184.794C250.507 184.785 251.074 184.775 251.661 184.765C252.247 184.756 252.911 184.75 253.653 184.75C254.298 184.732 254.831 184.677 255.251 184.59C255.67 184.502 256.105 184.39 256.555 184.253L257.493 189.967L257.229 190.056Z" fill="#231F20"/>
<path d="M280.939 196.137C280.548 196.264 280.265 196.464 280.089 196.738C279.952 196.953 279.874 197.285 279.855 197.734C279.835 198.184 279.826 198.633 279.826 199.083V203.362C279.689 203.478 279.351 203.674 278.815 203.947C278.277 204.221 277.622 204.499 276.85 204.783C276.078 205.066 275.224 205.306 274.286 205.501C273.349 205.696 272.411 205.794 271.473 205.794C269.616 205.794 267.956 205.555 266.49 205.075C265.025 204.597 263.789 203.893 262.783 202.966C261.777 202.038 261.005 200.904 260.467 199.566C259.93 198.228 259.662 196.728 259.662 195.067C259.662 194.579 259.71 194.017 259.808 193.382C259.906 192.747 260.077 192.078 260.321 191.374C260.565 190.671 260.907 189.957 261.348 189.234C261.787 188.512 262.338 187.828 263.003 187.184C263.94 186.265 265.093 185.527 266.461 184.97C267.828 184.413 269.49 184.135 271.443 184.135C272.615 184.135 273.652 184.238 274.55 184.443C275.449 184.648 276.206 184.873 276.822 185.117C277.437 185.361 277.911 185.586 278.243 185.791C278.574 185.996 278.76 186.099 278.8 186.099C278.839 186.099 278.947 185.982 279.122 185.747C279.298 185.513 279.513 185.23 279.767 184.897H280.031V191.286H279.679C279.464 190.407 279.142 189.577 278.712 188.795C278.282 188.014 277.823 187.369 277.334 186.861C276.709 186.197 275.907 185.659 274.932 185.249C273.954 184.838 272.86 184.633 271.649 184.633C270.359 184.633 269.197 184.922 268.16 185.498C267.126 186.074 266.246 186.846 265.523 187.813C264.8 188.78 264.243 189.894 263.853 191.154C263.461 192.415 263.266 193.738 263.266 195.125C263.266 196.65 263.452 198.041 263.823 199.302C264.194 200.562 264.732 201.642 265.436 202.541C266.139 203.439 266.998 204.138 268.015 204.636C269.031 205.135 270.193 205.383 271.502 205.383C272.44 205.383 273.315 205.222 274.125 204.9C274.936 204.578 275.576 204.055 276.045 203.332C276.201 203.078 276.319 202.629 276.397 201.984C276.475 201.339 276.513 200.675 276.513 199.991C276.513 199.307 276.479 198.692 276.411 198.144C276.343 197.597 276.142 197.148 275.81 196.796C275.361 196.288 274.569 195.986 273.436 195.888V195.594H282.024V195.888C281.691 195.927 281.33 196.01 280.939 196.137Z" fill="#231F20"/>
<path d="M293.923 187.887C293.805 188.142 293.634 188.542 293.409 189.088C293.185 189.635 292.906 190.3 292.574 191.081C292.242 191.862 291.875 192.747 291.475 193.734C291.074 194.721 290.64 195.791 290.17 196.943H297.469C297.136 196.063 296.799 195.185 296.457 194.305C296.116 193.426 295.783 192.581 295.461 191.77C295.139 190.959 294.845 190.216 294.582 189.543C294.318 188.869 294.098 188.317 293.923 187.887ZM297.761 205.647V205.354C297.821 205.354 297.962 205.335 298.186 205.295C298.411 205.257 298.645 205.188 298.89 205.09C299.134 204.993 299.349 204.856 299.535 204.681C299.72 204.504 299.813 204.28 299.813 204.006C299.813 203.83 299.759 203.542 299.652 203.141C299.545 202.741 299.393 202.253 299.198 201.677C299.002 201.1 298.777 200.46 298.523 199.757C298.27 199.052 297.996 198.321 297.703 197.559H289.907C289.614 198.301 289.33 199.009 289.057 199.683C288.783 200.357 288.51 201.036 288.237 201.72C287.826 202.775 287.621 203.518 287.621 203.947C287.621 204.201 287.699 204.412 287.856 204.578C288.012 204.744 288.212 204.881 288.457 204.988C288.7 205.095 288.964 205.174 289.248 205.222C289.531 205.271 289.8 205.316 290.053 205.354V205.647H283.811V205.325C284.319 205.267 284.754 205.13 285.116 204.915C285.477 204.7 285.687 204.553 285.745 204.475C285.882 204.338 286.107 204.017 286.42 203.508C286.732 203 287.113 202.247 287.563 201.251C287.973 200.333 288.431 199.288 288.94 198.115C289.448 196.943 289.97 195.737 290.508 194.496C291.045 193.256 291.578 192.004 292.105 190.744C292.633 189.484 293.131 188.307 293.6 187.212L293.307 186.568C293.659 186.411 293.976 186.226 294.26 186.011C294.542 185.796 294.792 185.571 295.007 185.337C295.222 185.102 295.402 184.878 295.549 184.662C295.695 184.449 295.807 184.272 295.886 184.135H296.121C296.727 185.757 297.302 187.296 297.849 188.751C298.396 190.207 298.919 191.609 299.417 192.957C299.916 194.305 300.4 195.609 300.868 196.869C301.337 198.129 301.806 199.375 302.275 200.607C302.49 201.212 302.69 201.716 302.876 202.116C303.061 202.517 303.272 202.971 303.506 203.478C303.545 203.557 303.633 203.694 303.77 203.889C303.906 204.085 304.087 204.284 304.312 204.49C304.536 204.695 304.815 204.875 305.148 205.032C305.48 205.188 305.869 205.276 306.32 205.295V205.647H297.761Z" fill="#231F20"/>
<path d="M329.21 196.137C328.818 196.264 328.536 196.464 328.359 196.738C328.223 196.953 328.144 197.285 328.126 197.734C328.105 198.184 328.096 198.633 328.096 199.083V203.362C327.959 203.478 327.622 203.674 327.085 203.947C326.548 204.221 325.893 204.499 325.121 204.783C324.349 205.066 323.494 205.306 322.556 205.501C321.619 205.696 320.681 205.794 319.743 205.794C317.886 205.794 316.226 205.555 314.76 205.075C313.296 204.597 312.059 203.893 311.054 202.966C310.047 202.038 309.275 200.904 308.738 199.566C308.2 198.228 307.932 196.728 307.932 195.067C307.932 194.579 307.98 194.017 308.078 193.382C308.176 192.747 308.347 192.078 308.591 191.374C308.835 190.671 309.177 189.957 309.618 189.234C310.057 188.512 310.609 187.828 311.273 187.184C312.211 186.265 313.363 185.527 314.732 184.97C316.099 184.413 317.76 184.135 319.714 184.135C320.886 184.135 321.922 184.238 322.82 184.443C323.719 184.648 324.476 184.873 325.092 185.117C325.707 185.361 326.181 185.586 326.514 185.791C326.845 185.996 327.031 186.099 327.07 186.099C327.109 186.099 327.217 185.982 327.392 185.747C327.568 185.513 327.783 185.23 328.037 184.897H328.301V191.286H327.949C327.734 190.407 327.412 189.577 326.983 188.795C326.552 188.014 326.093 187.369 325.605 186.861C324.98 186.197 324.178 185.659 323.202 185.249C322.224 184.838 321.13 184.633 319.919 184.633C318.63 184.633 317.467 184.922 316.431 185.498C315.396 186.074 314.516 186.846 313.793 187.813C313.07 188.78 312.514 189.894 312.123 191.154C311.732 192.415 311.536 193.738 311.536 195.125C311.536 196.65 311.722 198.041 312.093 199.302C312.465 200.562 313.002 201.642 313.706 202.541C314.409 203.439 315.269 204.138 316.285 204.636C317.301 205.135 318.463 205.383 319.772 205.383C320.71 205.383 321.585 205.222 322.395 204.9C323.206 204.578 323.846 204.055 324.315 203.332C324.471 203.078 324.589 202.629 324.667 201.984C324.745 201.339 324.784 200.675 324.784 199.991C324.784 199.307 324.749 198.692 324.681 198.144C324.613 197.597 324.412 197.148 324.081 196.796C323.631 196.288 322.84 195.986 321.707 195.888V195.594H330.294V195.888C329.961 195.927 329.6 196.01 329.21 196.137Z" fill="#231F20"/>
<path d="M352.157 205.647H334.221V205.354C334.709 205.276 335.163 205.149 335.584 204.973C336.004 204.798 336.35 204.553 336.624 204.241C336.721 204.123 336.8 203.953 336.859 203.727C336.917 203.503 336.971 203.244 337.019 202.951C337.069 202.658 337.103 202.351 337.122 202.027C337.142 201.705 337.152 201.389 337.152 201.075C337.152 200.802 337.156 200.431 337.166 199.961C337.176 199.492 337.186 198.98 337.196 198.423C337.205 197.866 337.21 197.294 337.21 196.708V195.009V189.294C337.21 188.942 337.205 188.581 337.196 188.209C337.186 187.838 337.166 187.486 337.137 187.154C337.108 186.822 337.059 186.524 336.99 186.26C336.922 185.996 336.829 185.805 336.712 185.688C336.419 185.376 336.106 185.176 335.774 185.087C335.441 184.999 335.012 184.917 334.485 184.839V184.545H350.663L352.656 189.382L352.362 189.528C350.78 187.555 349.294 186.226 347.907 185.542C347.575 185.386 346.96 185.249 346.061 185.132C345.162 185.014 344.068 184.956 342.778 184.956C342.368 184.956 341.944 184.97 341.504 184.999C341.064 185.029 340.747 185.063 340.551 185.102C340.512 185.415 340.478 186.06 340.448 187.036C340.42 188.014 340.405 189.147 340.405 190.436V192.313C340.405 192.82 340.41 193.235 340.42 193.557C340.429 193.88 340.434 194.129 340.434 194.305V194.627H341.02C341.314 194.627 341.651 194.617 342.031 194.598C342.413 194.579 342.793 194.554 343.175 194.525C343.555 194.496 343.873 194.451 344.127 194.393C344.713 194.257 345.202 194.071 345.592 193.836C345.983 193.602 346.3 193.319 346.545 192.987C346.789 192.654 346.985 192.268 347.131 191.828C347.278 191.389 347.41 190.896 347.527 190.348H347.879V199.58H347.527C347.37 198.956 347.131 198.31 346.808 197.646C346.486 196.982 346.149 196.484 345.797 196.151C345.485 195.878 345.109 195.654 344.669 195.478C344.229 195.302 343.717 195.195 343.13 195.155C342.838 195.135 342.593 195.12 342.398 195.111C342.202 195.102 342.006 195.096 341.812 195.096H341.225H340.463C340.424 195.37 340.405 195.771 340.405 196.298V197.939V198.818V199.815C340.405 200.128 340.41 200.426 340.42 200.709C340.429 200.992 340.434 201.232 340.434 201.427C340.453 202.052 340.487 202.644 340.537 203.2C340.585 203.757 340.698 204.172 340.874 204.446C341.05 204.719 341.47 204.915 342.134 205.032C342.798 205.149 343.521 205.208 344.303 205.208C344.635 205.208 345.059 205.198 345.577 205.178C346.095 205.159 346.638 205.11 347.204 205.032C347.83 204.954 348.406 204.802 348.933 204.578C349.461 204.354 349.968 204.035 350.458 203.625C350.945 203.215 351.42 202.712 351.879 202.116C352.338 201.52 352.812 200.802 353.3 199.961L353.623 200.049L352.157 205.647Z" fill="#231F20"/>
<path d="M303.705 133.655H201.015V58.0263H303.705V133.655Z" fill="#A7A9AC"/>
<path d="M303.704 59.3786H201.015V51H303.704V59.3786Z" fill="#A30134"/>
<path d="M292.047 81.8649C292.047 79.455 289.101 78.2493 283.212 78.2493C281.371 78.2493 279.181 78.4549 276.642 78.8662C281.022 81.2772 284.648 84.0846 287.519 87.2886C290.536 85.2316 292.047 83.4233 292.047 81.8649ZM286.691 87.7296C283.856 84.4666 280.046 81.571 275.261 79.0429C268.378 80.5421 261.66 83.1216 255.108 86.7816C248.556 90.4415 243.181 94.6085 238.985 99.2828C246.678 99.2828 255.191 98.1581 264.522 95.9094C273.853 93.6602 281.242 90.9337 286.691 87.7296ZM273.715 78.2493C262.525 73.075 250.617 70.4881 237.992 70.4881C230.187 70.4881 223.368 71.9584 217.534 74.8975C211.699 77.8375 208.782 81.2772 208.782 85.2158C208.782 92.2424 216.255 96.7842 231.2 98.8415C240.476 88.5232 254.647 81.6592 273.715 78.2493ZM292.93 81.8649C292.93 83.7759 291.274 85.7602 287.96 87.8176C290.979 91.375 292.488 94.6523 292.488 97.6507C292.488 98.3859 292.212 98.7533 291.66 98.7533C291.218 98.7533 290.998 98.2685 290.998 97.2985C290.998 94.3591 289.708 91.375 287.132 88.3468C281.795 91.5219 274.534 94.2633 265.35 96.5707C256.166 98.8786 248.021 100.032 240.918 100.032C239.924 100.032 239.059 100.004 238.322 99.9438C232.432 106.5 229.488 112.82 229.488 118.905C229.488 123.05 231.098 126.328 234.319 128.739C237.54 131.148 241.93 132.354 247.488 132.354C257.979 132.354 267.328 128.342 275.537 120.316C280.507 115.466 282.991 110.866 282.991 106.514C282.991 104.221 282.128 102.399 280.401 101.046C278.673 99.6944 276.377 99.0176 273.511 99.0176C268.917 99.0176 263.983 100.951 258.711 104.816C253.437 108.683 250.801 112.291 250.801 115.642C250.801 115.936 250.911 116.083 251.13 116.083C251.312 116.054 251.458 115.995 251.567 115.907C252.552 115.201 253.464 114.848 254.304 114.848C256.165 114.848 257.095 115.657 257.095 117.274C257.095 119.449 255.77 120.537 253.12 120.537C250.69 120.537 249.476 119.361 249.476 117.009C249.476 112.806 252.144 108.638 257.482 104.508C262.819 100.378 268.23 98.3129 273.715 98.3129C280.783 98.3129 284.316 101.414 284.316 107.617C284.316 114.026 280.479 119.868 272.804 125.145C265.13 130.422 256.617 133.06 247.267 133.06C240.752 133.06 235.277 131.311 230.841 127.812C226.405 124.315 224.188 119.993 224.188 114.848C224.188 109.851 226.377 104.721 230.758 99.4592C214.819 97.1075 206.85 92.0806 206.85 84.3781C206.85 79.7923 209.812 75.956 215.74 72.8693C221.665 69.7824 229.046 68.2394 237.88 68.2394C250.212 68.2394 262.672 71.5176 275.261 78.0726C277.433 77.7198 279.659 77.5434 281.942 77.5434C289.267 77.5434 292.93 78.9842 292.93 81.8649Z" fill="#231F20"/>
</svg>
