<!DOCTYPE svg PUBLIC "-//W3C//DTD SVG 20010904//EN" "http://www.w3.org/TR/2001/REC-SVG-20010904/DTD/svg10.dtd">
<svg version="1.0" xmlns="http://www.w3.org/2000/svg" width="401px" height="132px" viewBox="0 0 4010 1320" preserveAspectRatio="xMidYMid meet">
<g id="layer101" fill="#000000" fill-rule="evenodd">
<path d="M2220 850 C2165 837,2134 814,2113 771 C2096 738,2095 706,2095 435 C2095 100,2098 78,2161 40 C2235 -4,2383 6,2435 60 C2461 87,2465 99,2468 165 L2472 239 2416 239 L2360 240 2360 196 C2360 137,2330 99,2284 99 C2208 100,2198 144,2202 459 C2204 694,2206 710,2226 736 C2244 761,2254 765,2303 767 L2360 770 2360 645 L2360 520 2325 520 C2290 520,2290 519,2290 475 L2290 430 2380 430 L2470 430 2470 634 L2470 838 2415 844 C2384 847,2337 852,2310 855 C2282 857,2242 855,2220 850 " />
<path d="M3070 850 C3015 837,2984 814,2963 771 C2947 739,2944 702,2941 472 C2938 194,2944 129,2980 78 C3012 33,3055 16,3135 15 C3225 15,3272 37,3302 93 C3324 133,3325 145,3325 425 C3325 709,3324 715,3301 762 C3284 796,3266 816,3238 830 C3190 854,3122 862,3070 850 M3077 744 C3055 719,3054 712,3052 446 C3049 202,3051 171,3067 140 C3082 109,3090 104,3125 102 C3158 99,3170 103,3190 125 L3215 151 3215 435 C3215 714,3214 718,3192 744 C3161 779,3108 779,3077 744 " />
<path d="M190 435 L190 20 244 20 L299 20 302 387 L305 755 397 757 L490 760 490 805 L490 850 340 850 L190 850 190 435 " />
<path d="M560 435 L560 20 715 20 L870 20 870 65 L870 110 770 110 L670 110 670 245 L670 380 765 380 L860 380 860 425 L860 470 764 470 L669 470 672 612 L675 755 772 757 L870 760 870 805 L870 850 715 850 L560 850 560 435 " />
<path d="M900 841 C900 836,938 739,985 625 L1071 418 990 225 C946 118,910 28,910 25 C910 21,935 20,966 22 L1023 25 1074 161 C1102 237,1127 300,1130 303 C1133 306,1159 243,1188 164 L1241 19 1295 19 L1348 20 1269 217 C1225 325,1190 419,1190 426 C1190 433,1226 527,1270 634 C1314 742,1350 835,1350 840 C1350 845,1325 850,1295 850 L1241 850 1216 782 C1202 745,1178 680,1162 638 C1147 596,1130 562,1125 562 C1119 562,1089 624,1057 701 L1000 840 950 845 C922 847,900 846,900 841 " />
<path d="M1400 435 L1400 20 1455 20 L1510 20 1510 435 L1510 850 1455 850 L1400 850 1400 435 " />
<path d="M1600 435 L1600 20 1678 20 L1757 20 1827 367 L1897 715 1898 367 L1900 20 1950 20 L2000 20 2000 435 L2000 850 1922 850 L1844 850 1780 527 C1746 350,1714 191,1709 175 C1705 158,1701 299,1700 497 L1700 850 1650 850 L1600 850 1600 435 " />
<path d="M2657 482 L2655 115 2587 112 L2520 109 2520 64 L2520 20 2710 20 L2900 20 2900 65 L2900 110 2835 110 L2770 110 2770 480 L2770 850 2715 850 L2660 850 2657 482 " />
<path d="M3410 435 L3410 20 3488 20 L3567 20 3637 367 L3707 715 3708 367 L3710 20 3760 20 L3810 20 3810 435 L3810 850 3732 850 L3654 850 3590 527 C3556 350,3524 191,3519 175 C3515 158,3511 299,3510 497 L3510 850 3460 850 L3410 850 3410 435 " />
</g>
<g id="layer102" fill="#ec221e" fill-rule="evenodd">
<path d="M919 1265 C903 1257,884 1238,878 1222 C862 1186,862 983,878 947 C893 909,950 885,997 896 C1054 910,1072 945,1078 1045 C1083 1156,1067 1235,1034 1255 C997 1277,953 1281,919 1265 M937 1247 C900 1225,890 1191,890 1082 C889 935,918 893,997 920 C1039 935,1050 966,1050 1085 C1050 1202,1039 1234,998 1249 C963 1262,964 1262,937 1247 " />
<path d="M2299 1265 C2283 1257,2264 1238,2258 1222 C2242 1186,2242 983,2258 947 C2273 909,2330 885,2377 896 C2434 910,2452 945,2458 1045 C2463 1156,2447 1235,2414 1255 C2377 1277,2333 1281,2299 1265 M2317 1247 C2280 1225,2270 1191,2270 1082 C2269 935,2298 893,2377 920 C2419 935,2430 966,2430 1085 C2430 1202,2419 1234,2378 1249 C2343 1262,2344 1262,2317 1247 " />
<path d="M277 1097 L275 925 232 921 C209 920,190 914,190 909 C190 904,235 900,295 900 C358 900,400 903,400 910 C400 915,379 920,355 920 L310 920 310 1095 C310 1243,307 1270,295 1270 C282 1270,279 1243,277 1097 " />
<path d="M1637 1182 C1634 1101,1630 1087,1587 997 C1553 926,1544 900,1555 900 C1563 900,1587 937,1613 992 L1656 1085 1703 992 C1729 941,1754 900,1759 900 C1770 900,1752 945,1703 1042 C1673 1101,1670 1118,1670 1189 C1670 1254,1667 1270,1655 1270 C1643 1270,1639 1252,1637 1182 " />
<path d="M3007 1097 L3005 925 2962 921 C2939 920,2920 914,2920 909 C2920 904,2965 900,3025 900 C3088 900,3130 903,3130 910 C3130 915,3109 920,3085 920 L3040 920 3040 1095 C3040 1243,3037 1270,3025 1270 C3012 1270,3009 1243,3007 1097 " />
<path d="M3550 1257 C3550 1250,3574 1168,3603 1075 C3647 936,3660 905,3675 905 C3690 905,3703 936,3746 1075 C3775 1168,3799 1251,3799 1258 C3800 1288,3774 1260,3761 1216 L3748 1169 3672 1172 L3595 1175 3582 1222 C3571 1265,3549 1288,3550 1257 M3615 1141 C3609 1131,3657 958,3669 946 C3677 938,3727 1086,3729 1122 C3729 1136,3719 1140,3675 1145 C3644 1147,3617 1146,3615 1141 " />
</g>

</svg>