<svg width="512" height="256" viewBox="0 0 512 256" fill="none" xmlns="http://www.w3.org/2000/svg">
<path fill-rule="evenodd" clip-rule="evenodd" d="M374.778 83.8312V89.7973H375.53V84.8341H375.545L377.41 89.7973H378.087L379.95 84.8341H379.966V89.7973H380.718V83.8312H379.632L377.744 88.845L375.864 83.8312H374.778ZM372.797 85.5775H373.549C373.538 85.2487 373.475 84.9663 373.362 84.7297C373.134 84.258 372.698 83.9348 372.205 83.7977C371.672 83.65 371.087 83.65 370.554 83.7937C369.789 83.9993 369.188 84.613 369.188 85.4356C369.188 85.8991 369.394 86.3112 369.785 86.5592C370.242 86.8506 370.825 86.964 371.349 87.0807C371.957 87.217 373.026 87.35 373.016 88.1897C373.012 88.5284 372.822 88.8825 372.521 89.0498C371.726 89.4929 370.365 89.3428 369.902 88.481C369.805 88.3007 369.756 88.0844 369.756 87.8339H369.004C369.004 88.1962 369.069 88.5088 369.2 88.774C369.463 89.3036 369.959 89.648 370.52 89.8055C371.752 90.149 373.801 89.7826 373.801 88.1595C373.801 87.6691 373.61 87.2276 373.203 86.9395C372.653 86.5511 371.902 86.4466 371.256 86.3152C370.756 86.2141 369.982 86.0174 369.982 85.3768C369.982 84.2376 371.614 84.1242 372.334 84.6464C372.598 84.8382 372.753 85.1483 372.797 85.5775ZM158.215 149.609V147.042L132 173.186H138.68L162.285 149.609H158.215ZM169.245 107.268C182.193 107.268 186.202 115.997 187.284 123.32L187.454 124.471L207.9 104.048L207.674 103.658C206.981 102.463 206.315 101.422 205.637 100.477C199.892 92.5417 192.936 87.7752 183.745 85.4755L183.424 85.3956L161.551 107.268H169.245ZM158.215 106.94L180.4 84.7558L179.264 84.5779C175.481 83.9838 171.226 83.6966 166.257 83.6966H132V163.645L158.215 137.427V106.94ZM314.324 82.896H310.655L288.901 104.349C283.223 95.0029 274.298 87.8217 263.671 84.3339L240.204 107.658C242.839 106.259 245.776 105.454 248.889 105.454C256.672 105.454 263.42 110.353 266.813 117.529H288.897L288.928 139.144H266.523C265.359 141.44 263.839 143.478 262.056 145.186L262.262 145.119L235.425 172.044C239.745 173.358 244.331 174.068 249.086 174.068C267.243 174.068 282.932 163.739 290.582 148.708C290.587 148.726 314.324 125.179 314.324 125.179V82.896ZM242.506 149.472L224.666 167.203C226.258 168.178 227.916 169.057 229.629 169.84L248.828 150.631C246.618 150.624 244.496 150.21 242.506 149.472ZM365.329 137.889L365.312 82.896H358.954L339.896 101.854V135.667C339.896 147.737 333.371 150.408 326.913 150.381C326.211 150.378 325.51 150.342 324.817 150.274L305.915 169.029C311.183 172.039 318.067 174.013 327.11 174.013C365.896 174.013 365.329 137.889 365.329 137.889ZM314.541 139.271L295.043 158.65C297.268 162.123 300.311 165.445 304.444 168.116L322.771 149.94C318.747 149.001 315.384 146.256 314.541 139.271ZM339.896 82.896V99.4821L356.573 82.896H339.896ZM314.324 136.269V128.148L291.172 151.169C291.902 153.309 292.86 155.557 294.134 157.783L314.37 137.676C314.35 137.214 314.324 136.763 314.324 136.269ZM228.846 131.175C228.718 130.149 228.629 129.109 228.629 128.045C228.629 123.649 229.773 119.56 231.72 116.09L210.224 137.455V135.082L261.857 83.7806C257.799 82.63 253.519 82 249.086 82C231.412 82 216.045 91.7689 208.183 106.15C208.179 106.131 208.173 106.113 208.169 106.095C208.148 106.135 208.123 106.17 208.102 106.21L187.615 126.666L187.626 126.922C187.648 127.486 187.66 128.034 187.66 128.556C187.66 142.527 181.425 149.611 169.13 149.611H164.638L141.025 173.186H167.868C188.37 173.186 202.772 165.343 209.53 150.5L211.293 148.737C211.293 148.736 211.293 148.736 211.294 148.735L228.846 131.175ZM230.5 137.484L212.114 155.927C215.213 159.948 218.96 163.453 223.209 166.278L240.833 148.767C236.264 146.556 232.582 142.518 230.5 137.484ZM307.648 82.896L288.902 101.368L288.906 82.896H307.648Z" fill="#006759"/>
</svg>
