<?xml version="1.0" encoding="utf-8"?>
<!-- Generator: Adobe Illustrator 23.0.1, SVG Export Plug-In . SVG Version: 6.00 Build 0)  -->
<svg version="1.1" id="Logo" xmlns="http://www.w3.org/2000/svg" xmlns:xlink="http://www.w3.org/1999/xlink" x="0px" y="0px"
	 viewBox="0 0 821 527" style="enable-background:new 0 0 821 527;" xml:space="preserve">
<style type="text/css">
	.st0{fill:#F2F2F2;stroke:#000000;stroke-miterlimit:10;}
	.st1{fill:#1A1A1A;}
	.st2{fill:#666666;}
	.st3{fill:#FFFFFF;}
	.st4{fill:#FBB03B;}
	.st5{fill:#FF00FF;}
	.st6{fill:#F7931E;}
	.st7{fill:none;stroke:#FFFFFF;stroke-miterlimit:10;}
	.st8{fill:none;stroke:#000000;stroke-miterlimit:10;}
</style>
<g>
	<g>
		<polygon class="st2" points="578.29,303.27 558.37,285.51 575.8,309.89 		"/>
		<polygon class="st2" points="574.93,309.41 548.68,305.29 572.52,313.79 		"/>
		<path d="M584.24,323.63c-1.64,0.01-5.78-0.21-9.73-3.05c-2.18-1.57-3.52-3.38-4.3-4.64c2.56-4.68,5.12-9.35,7.69-14.03
			c1.09-0.24,4.18-0.78,7.58,0.73c4.52,2.01,6.15,6.14,6.45,6.96C589.36,314.27,586.8,318.95,584.24,323.63z"/>
		<path d="M590.92,336.41c-2.67,0.61-11.2,2.22-20.51-2.11c-10.79-5.02-15-14.46-15.93-16.71c1.36-1.2,4.52-3.64,9.11-4.13
			c1.74-0.19,3.26-0.05,4.47,0.17c0.56,1.62,1.93,4.79,5.09,7.35c5.9,4.78,13.1,3.44,14.2,3.22c0.86,0.97,2.12,2.64,2.94,5.03
			C591.36,332.34,591.13,335.04,590.92,336.41z"/>
		<path d="M594.61,369.22c0.7-2.51,1.22-4.89,1.61-7.1c-10.76-1.37-24.73-4.15-39.01-9.97c0,0-8.83-3.6-20.96-13.77
			c-1.7-1.43-4.24-3.69-5.09-7.35c-0.75-3.2,0.11-6.03,0.73-7.58c-0.39,0.07-5.79,1.07-7.83,5.97c-1.26,3.03-0.53,5.81-0.25,6.7
			c4.72,6.23,11.97,14.26,22.47,21.43c18.57,12.68,37.11,15.68,46.82,16.53C593.62,372.57,594.13,370.94,594.61,369.22z
			 M561.43,359.02c-9.09-4.37-16.04-9.5-20.96-13.77c-0.93,1.01-1.87,2.02-2.8,3.03c-2.23-1.27-5.16-3.33-7.81-6.56
			c-1.04-1.27-1.88-2.52-2.55-3.68c0.24-0.54,0.56-1.14,0.96-1.75c0.92-1.39,1.96-2.37,2.8-3.03c5.62,6.35,15.24,15.64,29.57,23.04
			c12.09,6.24,23.2,8.9,30.95,10.11c0.13,0.45,0.26,0.9,0.4,1.36C584.42,366.93,573.45,364.8,561.43,359.02z"/>
		<path d="M552.41,360.92c-14.14-8.21-23.35-18.15-28.61-24.79c-19.54,35.67-39.08,71.33-58.61,107
			c4.93,6.43,14.08,16.65,28.61,24.79c16.5,9.25,31.91,11.3,40.28,11.81c19.67-35.21,39.34-70.43,59.01-105.64
			C584.21,373.18,568.83,370.45,552.41,360.92z M479.45,456.64c-3.74-3.57-7.49-7.14-11.23-10.71
			c19.22-35.08,38.44-70.16,57.65-105.24c3.58,3.86,7.17,7.73,10.75,11.59C517.56,387.06,498.5,421.85,479.45,456.64z"/>
		<path d="M536.48,475.34c-9.83-0.47-25.3-2.21-40.85-8.69c-7.81-3.26-15.21-8.09-18.81-11.45c-1.2-1.12-2-2.1-5.18-5.12
			c-2.98-2.83-3.75-3.35-4.3-4.64c-0.53-1.22-1.18-3.87,1.21-8.46c-0.81,0.3-4.94,1.93-6.96,6.45c-1.51,3.4-0.97,6.5-0.73,7.58
			c4.73,6.49,15.82,20.14,33.39,28.55c3.81,1.83,11.98,5.66,23.45,7.15c5.39,0.7,10,0.69,13.41,0.5c0.92-0.41,2.77-1.38,4.16-3.42
			C537.76,480.1,536.66,475.98,536.48,475.34z M499.85,473.52c-9.73-4.48-16.97-9.94-21.84-14.25l-3.36,6.14l-10.75-11.59
			c1.28-2.34,2.56-4.68,3.84-7.02c5.11,6.57,15.54,18.1,32.59,25.84c10.93,4.96,20.9,6.69,27.92,7.31c0.13,0.45,0.26,0.9,0.4,1.36
			C521.62,480.62,511.27,478.78,499.85,473.52z"/>
		<path d="M526.77,328.63c5.41,6.19,14.73,15.31,28.69,22.56c16.68,8.66,32.03,10.52,40.76,10.93c1.07-5.16,1.82-13.33-1.88-21.55
			c-0.51-1.14-1.08-2.21-1.67-3.2c-1.89,0.61-13.94,4.27-25.85-2.76c-3.14-1.85-5.61-4.06-7.56-6.29c-0.99,0.18-1.98,0.35-2.96,0.53
			c-2.31,1.39-5.35,3.57-8.31,6.85c-2.42,2.68-4.08,5.3-5.2,7.41c-3.45-3.41-6.9-6.82-10.36-10.23c1.18-1.88,3.11-4.48,6.08-6.93
			c2.53-2.09,5-3.4,6.87-4.22c1.14-0.14,2.34-0.24,3.59-0.31c2-0.11,3.9-0.11,5.67-0.04c-1.07-2.16-1.66-3.91-1.91-4.74
			c-0.87,0.05-2.11,0.13-3.59,0.31c-4.39,0.54-9.87,1.2-14.93,4.36C532.31,322.48,529.4,324.68,526.77,328.63z"/>
	</g>
	<g>
		<g>
			<path d="M227,141c-0.03,0.09-0.29,0.76-1,1c-0.46,0.15-0.85,0.05-1,0c-4.83-8.78-7.47-16.45-9-22c-1.74-6.32-2.6-11.92-4-21
				c-1.24-8.07-1.32-10.46-2-15c-1.03-6.91-3.14-16.86-8-29c0.67,0,1.33,0,2,0c2.14,4.07,5.28,10.6,8,19c4.79,14.81,4.35,23.33,8,41
				C221.27,121.13,223.4,130.14,227,141z"/>
			<path d="M238,99c-4.37-0.89-10.17-1.29-14,2c-5.09,4.37-4.01,12.96-5,13c-0.74,0.03-1.95-4.71-4-26c0.88-0.86,4.2-3.93,9-4
				c0.74-0.01,2.82-0.19,5,1c1.96,1.07,3.25,2.19,4,3C236.57,91.83,237.65,96.87,238,99z"/>
			<path d="M242,149c-2.67-3.33-5.33-6.67-8-10c-0.21-1.47-0.36-3.55,0-6c0.31-2.16,0.89-3.7,1-4c0.94-2.66,1.33-10.97,0-32
				c1,0.33,2,0.67,3,1c1.63,5.75,3.1,12.46,4,20C243.44,130.06,243,140.63,242,149z"/>
		</g>
		<g>
			<path d="M209,142c-5.33,5-10.67,10-16,15c-2.57-10.18-4.1-18.52-5-24c-3.4-20.7-2.73-30.88-7-51c-1.49-7.01-3.02-12.61-4-16
				c2.2,0.27,4.96,0.83,8,2c4.56,1.75,7.88,4.17,10,6c1.71,15.44,4.54,32.22,9,50C205.56,130.23,207.24,136.23,209,142z"/>
			<path d="M241,67c-21.13,5.4-38.06,11.36-50,16c-24.78,9.62-45.55,20.35-72,34c-8.01,4.13-14.58,7.63-19,10c4-4.33,8-8.67,12-13
				c1.68-0.28,4.17-0.82,7-2c3.01-1.25,4.86-2.58,7-4c3.86-2.56,8.01-4.64,12-7c5.54-3.27,23.58-12.84,45-22
				c28.86-12.34,55.86-20.52,72-25C250.33,58.33,245.67,62.67,241,67z"/>
			<path d="M209,140c-0.33-0.67-0.67-1.33-1-2c-3-19.33-6-38.67-9-58c0.67-0.33,1.33-0.67,2-1C203.67,99.33,206.33,119.67,209,140z"
				/>
		</g>
		<g>
			<path d="M268,120c3.33,3.67,6.67,7.33,10,11c-1.05,1.32-2.98,3.39-6,5c-2.34,1.24-4.5,1.76-6,2c-3,0-6,0-9,0
				c-2.34-1.14-5.11-2.75-8-5c-3.56-2.77-6.17-5.65-8-8c-1.33-7.67-2.67-15.33-4-23c2.67,4.67,5.33,9.33,8,14c0,2.67,0,5.33,0,8
				c0.74,0.57,6,4.5,13,3C264.28,125.65,267.43,120.9,268,120z"/>
			<path d="M271,97c-0.36-1.7-1.14-4.32-3-7c-3.08-4.43-7.22-6.32-9-7c-2.33,0-4.67,0-7,0c-2.29,1.09-6.43,3.44-10,8
				c-3.02,3.85-4.37,7.66-5,10c1,3.49,2.97,8.7,7,14c2.75,3.61,5.65,6.21,8,8c2,0,4,0,6,0c2.2-0.75,5.28-2.18,8-5
				C273.69,110.01,271.29,98.29,271,97z M245,113c-1.54-1.59,2.77-8.54,7-13c3.37-3.55,9.34-8.31,11-7c1.69,1.33-1.06,8.91-6,14
				C252.81,111.31,246.43,114.47,245,113z"/>
		</g>
		<circle cx="166" cy="73" r="3"/>
		<circle cx="154" cy="82" r="2"/>
	</g>
	<g>
		<path d="M96,288c-4.67,4.67-9.33,9.33-14,14c0.07-15.26-1.88-38.96-13-65c-5.81-13.59-12.72-24.57-19-33
			c4.67-4.33,9.33-8.67,14-13c6.97,9.22,15.48,22.56,22,40C94.65,254.14,96.12,274.67,96,288z"/>
		<path d="M64,191h13c4.4,0.42,12.5,1.78,21,7c7.09,4.36,11.55,9.61,14,13c0,2.33,0,4.67,0,7c0.01,1.09-0.11,2.94-1,5
			c-1.18,2.73-3.07,4.32-4,5c4.31-2.11,9.67-4.3,16-6c8.54-2.29,16.13-2.94,22-3c7,0,14,0,21,0c4.15,0.65,19.12,3.52,31,17
			c12.34,14,12.96,29.93,13,34c0,4,0,8,0,12c-1.78,8.78-6.76,27.04-22,44c-21.15,23.54-47.8,28.73-56,30c-5,0-10,0-15,0
			c-5.78-0.27-19.06-1.7-32-11c-19.13-13.75-23.21-34.43-24-39c0-4.33,0-8.67,0-13c0.71-2.98,2.45-8.55,7-14
			c5.12-6.14,11.09-8.88,14-10c-1.47,1.64-3.51,4.29-5,8c-0.55,1.36-0.84,2.43-1,3c-1.49,5.44-1.32,11.28-1,15
			c1.4,5.67,5.56,19.23,18,31c14.66,13.86,31.46,16.4,37,17c5,0,10,0,15,0c3.45-0.05,23.6-0.65,38-17c9.24-10.49,11.39-22.1,12-27
			c0.33-6.33,0.67-12.67,1-19c-0.27-3.8-1.95-21.51-17-35c-12.44-11.15-26.5-12.69-31-13c-5.67,0-11.33,0-17,0
			c-6.04,0.63-13.17,1.81-21,4c-7.37,2.06-13.73,4.56-19,7c1.26-1.48,2.72-3.47,4-6c0.92-1.82,1.56-3.53,2-5c0-2.33,0-4.67,0-7
			c0.13-0.72,0.23-1.78,0-3c-0.46-2.46-2.1-4.82-7-8c-3.08-2-8.08-4.74-15.12-6.59C71.25,201.94,67.63,196.47,64,191z"/>
		<path d="M97,226c-1.14-2.11-3.54-5.89-8-9c-3.48-2.43-6.84-3.5-9-4c0.67-0.33,1.33-0.67,2-1c2.38,0.96,5.11,2.25,8,4
			c2.77,1.67,5.1,3.41,7,5C97,222.67,97,224.33,97,226z"/>
		<g>
			<path d="M109.71,241.59c3.78-2.64,8.02-4.59,12.48-5.76c2.23-0.59,4.5-0.97,6.79-1.16l6.82-0.37c4.54-0.29,9.17-0.22,13.69,0.5
				c4.52,0.63,9.02,1.63,13.31,3.25c8.59,3.18,16.2,9.07,21.25,16.72c5.27,7.48,8.72,16.18,10.18,25.19l0,0.02l0,0.02l-0.06,23
				l0,0.02l0,0.02c-1.11,5.63-3.14,11.08-6.07,16.01c-2.92,4.93-6.74,9.32-11.22,12.9c-4.51,3.53-9.62,6.29-15.04,8.11
				c-5.42,1.83-11.12,2.85-16.83,2.95c5.72-0.14,11.4-1.18,16.8-3.04c5.41-1.85,10.49-4.62,14.96-8.16
				c4.44-3.58,8.23-7.97,11.11-12.89c2.89-4.92,4.88-10.35,5.96-15.94l0,0.03l-0.06-23l0,0.04c-1.49-8.94-4.96-17.55-10.21-24.93
				c-5.04-7.54-12.54-13.27-21.02-16.38c-4.23-1.58-8.67-2.55-13.16-3.15c-4.48-0.69-9-0.74-13.53-0.43l-6.8,0.4
				c-2.24,0.2-4.46,0.58-6.63,1.17c-4.34,1.16-8.47,3.09-12.14,5.68L109.71,241.59z"/>
		</g>
		<g>
			<path d="M59.5,286.5l-0.97,2.02l0-0.01c-0.69,3.69-0.96,7.45-0.81,11.18c0.08,1.87,0.26,3.73,0.54,5.57
				c0.14,0.92,0.31,1.84,0.5,2.75c0.2,0.89,0.48,1.78,0.75,2.68c2.15,7.15,5.52,13.93,9.87,19.99
				c8.69,12.18,21.74,20.98,36.05,25.18c7.18,2.02,14.7,2.9,22.15,2.34c7.44-0.63,14.83-2.13,21.93-4.47
				c7.11-2.33,13.93-5.52,20.28-9.46c6.41-3.85,12.36-8.49,17.7-13.77c-5.16,5.45-10.98,10.31-17.31,14.4
				c-6.4,3.99-13.28,7.19-20.44,9.54c-7.16,2.36-14.59,3.87-22.11,4.5c-7.53,0.57-15.15-0.32-22.41-2.36
				c-14.46-4.24-27.66-13.14-36.45-25.47c-4.41-6.13-7.79-12.99-9.99-20.21c-0.26-0.91-0.55-1.81-0.73-2.75
				c-0.17-0.94-0.3-1.87-0.42-2.81c-0.23-1.88-0.35-3.76-0.36-5.65c-0.03-3.77,0.37-7.54,1.18-11.21l0-0.01l0,0L59.5,286.5z"/>
		</g>
		<ellipse cx="66" cy="256.25" rx="4.5" ry="4.25"/>
		<circle cx="61.5" cy="241.5" r="3.5"/>
		<circle cx="55" cy="227" r="2"/>
	</g>
	<g>
		<path d="M240,313c-5,4.67-10,9.33-15,14c-9.67-52.67-19.33-105.33-29-158c5-3.67,10-7.33,15-11
			C220.67,209.67,230.33,261.33,240,313z"/>
		<polyline class="st8" points="217,163 217,186 225,238 		"/>
	</g>
	<g>
		<path d="M327,236c-7.49-9.89-16.39-14.83-21-17h-14c-9.8,1.82-17.57,4.65-23,7c-7.9,3.42-14.57,6.39-21,13
			c-4.63,4.76-7.39,9.62-9,13c0,8.67,0,17.33,0,26c0.52,4.11,2.23,13.11,9,22c7.21,9.47,16.14,13.51,20,15c12-0.33,24-0.67,36-1
			c2.38-0.99,5.93-2.61,10-5c6.21-3.65,12.88-7.57,18-15c1.84-2.67,4.51-7.28,6-14c0-5.67,0-11.33,0-17
			C337.35,257.9,335.25,246.89,327,236z M317.24,297.99c-3.17,5.95-7.4,9.81-10.24,12.01c0,0,0,0-4,0c-0.67,0-1.33,0-2,0
			c-1,0-2,0-3,0c-3,0-3,0-3,0c-2.08,0-20.66-3.78-32-22c-2.08-3.35-6.24-10.19-7-20c-0.21-2.74-0.63-8.88,2-16
			c2.6-7.06,6.99-11.82,9-14c1.94-2.11,1.98-1.74,4-4c0,0,6.72-5.88,8-7c0.1-0.09,0.68,0.07,2,0c0.63-0.04,1.81-0.01,3,0
			c1.56,0.01,2.79,0.01,3.45,0c0.32,0,0.54,0,0.55,0c0.94,0,11.28,1.53,21,14c8.11,10.4,10.14,21.17,11,26
			C321.37,274.75,323.44,286.38,317.24,297.99z"/>
		<path class="st8" d="M302,237c2.72,3.01,5.71,6.82,8.5,11.5c4.84,8.13,7.24,15.82,8.5,21.5c0,4.67,0,9.33,0,14
			c-0.13,2.66-0.53,5.91-1.5,9.5c-1.45,5.38-3.65,9.59-5.5,12.5"/>
		<circle cx="284" cy="296" r="5.5"/>
		<circle cx="295" cy="301" r="3"/>
		<circle cx="272" cy="288" r="3"/>
	</g>
	<g>
		<path d="M401,187l-14,10c-0.59-0.34-1.25-0.68-2-1c-1.09-0.47-2.11-0.78-3-1c-3.67,0-7.33,0-11,0c-0.94,0.06-2.39,0.27-4,1
			c-1.37,0.63-2.36,1.41-3,2c-1.33,1.23-3.44,3.39-6,8c-0.96,1.73-2.6,4.71-4,9c-1.13,3.47-1.7,6.57-2,9c0,3.33,0,6.67,0,10
			c1.47,4.08,4.13,9.98,9,16c4.22,5.22,8.66,8.75,12,11c3,0,6,0,9,0c2.87-3.84,6.26-9.17,9-16c2.1-5.23,3.3-10.04,4-14
			c0-4.67,0-9.33,0-14c-0.01-0.57-0.13-1.83-1-3c-0.33-0.44-0.69-0.77-1-1c4.67-3.33,9.33-6.67,14-10c5.91,20.93,12.36,37.26,17,48
			c10.2,23.62,18.44,36.19,53,97c5.64,9.92,10.19,18,13,23c-4.67,3.67-9.33,7.33-14,11c-6.66-3.89-15.46-8.78-26-14
			c-9.75-4.83-28.05-13.43-53-22c-27.33-9.39-55.47-19.05-92-21c-2.21-0.12,0.37,0.05-35,0c-17.63-0.02-28.31-0.08-42,4
			c-4.73,1.41-8.52,2.93-11,4c-0.56,0.36-1.36,0.99-2,2c-0.78,1.23-0.93,2.4-1,3c-0.08,0.71-0.02,0.99,0,2
			c0.03,1.82-0.14,2.96-0.18,3.59c-0.08,1.32,0.25,3.36,2.18,6.41c-4.33,3-8.67,6-13,9c-0.59-0.64-1.37-1.63-2-3
			c-0.73-1.61-0.94-3.06-1-4c0-2,0-4,0-6c0.85-1.56,2.14-3.69,4-6c3.69-4.6,7.46-7.24,10-9c1.81-1.25,5.16-3.42,11-6
			c10.89-4.82,20.3-6.59,28-8c3.37-0.62,8.25-1.41,14.23-2c14.59-0.33,29.18-0.67,43.77-1c16.33,1.78,34.11,4.62,53,9
			c39.06,9.06,71.92,22.17,98,35c-8.22-14.64-14.57-25.91-18-32c-17.9-31.77-22.84-40.42-29-54c-5.74-12.65-9.65-23.25-12-30
			c-2.59,4.49-6.98,10.89-14,17c-7.52,6.55-15.01,10.09-20,12c-3,0-6,0-9,0c-3.02-1.25-10.44-4.8-16-13c-4.68-6.92-5.72-13.72-6-17
			c0-2.33,0-4.67,0-7c0.94-5.63,3.57-16.52,12-27c13.09-16.27,30.93-20.1,36-21c2.67,0,5.33,0,8,0L401,187z"/>
		<g>
			<path d="M374.29,201.96c-3.46,1-6.75,2.64-9.64,4.82c-2.89,2.19-5.38,4.92-7.31,8.02c-1.93,3.1-3.26,6.57-4.02,10.18
				c-0.75,3.6-0.8,7.35-0.15,11l0-0.02l1.4,4.46l1.7,4.36l-1.86-4.3l-1.57-4.42l0,0l0-0.01c-0.79-3.66-0.89-7.48-0.26-11.2
				c0.64-3.7,1.87-7.34,3.76-10.64c1.88-3.29,4.38-6.25,7.34-8.67c2.97-2.41,6.38-4.28,10.03-5.48L374.29,201.96z"/>
		</g>
		<path class="st8" d="M411.5,203.5c1.75,3.29,4.35,8.46,7,15c5.35,13.19,6.4,20.77,10,32c3.24,10.09,6.49,16.74,12,28
			c10.88,22.24,18.41,30.4,38,62c6.66,10.73,11.84,19.55,15,25"/>
		<path class="st8" d="M223.5,345.5c0.16-0.75,0.44-1.81,1-3c1.58-3.35,4.91-6.71,15-10c13.2-4.31,24-4,24-4
			c16.05-0.08,30.16-0.09,44,0c3.35-0.18,8.19-0.31,14,0c13.98,0.75,25.24,3.64,42,9c22.65,7.24,37,13,37,13
			c18.6,7.48,44.04,18.07,75,32c4.33-1.33,8.67-2.67,13-4"/>
		<circle cx="290" cy="343" r="3"/>
	</g>
	<g>
		<path d="M474.5,104.5c4.37,4.93,9.09,11.06,13.5,18.5c8.41,14.17,12.44,27.61,14.5,37.5c0,1.67,0,3.33,0,5
			c0.33,0.72,0.81,1.59,1.5,2.5c0.86,1.14,1.77,1.95,2.5,2.5c-6,0-12,0-18,0c-1.18-2.22-3.2-5.4-6.5-8.5c-3.34-3.14-6.69-4.96-9-6
			c-1.33,0-2.67,0-4,0c-4.63,1.33-10.72,3.68-17,8c-12.67,8.73-18.58,20.31-21,26c0,2.33,0,4.67,0,7c0.06,0.94,0.27,2.39,1,4
			c0.63,1.37,1.41,2.36,2,3c1.13-0.99,2.83-2.42,5-4c7.14-5.21,13.28-7.67,22-11c17.03-6.49,25.67-9.77,32-11
			c7.04-1.37,12.97-1.83,17-2c8,0,16,0,24,0l12,1v3c-0.65,2.86-1.82,7.13-4,12c-3,6.68-6.21,10.72-10,16c-2.31,3.21-5.87,8.81-13,20
			c-7.46,11.71-13.12,22.25-16,28c-5.36,10.69-12.21,26.93-17,49c-5.67,0-11.33,0-17,0c-2.19-12.58-5.38-22.29-8-29
			c-1.98-5.08-1.59-3.21-8-18c-2.47-5.69-3.98-9.34-7-14c-2.59-4-5.16-7.02-7-9c-3,0-6,0-9,0v-2l4-1c6,0,12,0,18,0
			c1.8,1.51,4.34,3.83,7,7c3.73,4.45,5.96,8.52,10,17c2.59,5.43,5.67,12.16,9,20c4.65-18.35,11.48-31.37,17-40
			c8.08-12.62,17.58-22.44,29-44c2.21-4.17,3.9-7.67,5-10c0-1.33,0-2.67,0-4h-15c-4.2,1.1-10.07,2.73-17,5
			c-12.69,4.15-19.05,6.18-26,10c-0.94,0.52-6.89,3.81-14,8c-2.18,1.28-5.38,3.19-10,5c-2.46,0.96-4.55,1.6-6,2
			c-5.33,0-10.67,0-16,0l-4-1c-1.02-0.48-2.58-1.38-4-3c-2.4-2.74-2.88-5.79-3-7c0-2.33,0-4.67,0-7c1.75-4.77,4.75-10.98,10-17
			c13.63-15.62,32.29-18.38,38-19c4.33,0,8.67,0,13,0c2.39-0.03,5.49,0.16,9,1c4.3,1.02,7.67,2.65,10,4c-0.32-15.32-3.77-24.43-7-30
			c-1.41-2.43-6.08-9.87-11-21C475.35,106.53,474.84,105.31,474.5,104.5z"/>
		<path class="st8" d="M485,171c-0.85-1.33-2.56-3.63-5.5-5.5c-2.57-1.63-5.01-2.24-6.5-2.5c-1.95-0.34-3.33-0.45-5.5-0.5
			c-2.57-0.06-5.91-0.12-10,1c-0.25,0.07-1.44,0.4-3,1c-2.53,0.98-6.38,2.81-10.69,6.35"/>
		<path class="st8" d="M515,182c0.21-0.22,1.47-1.5,3.5-1.5s3.29,1.28,3.5,1.5c0.21,0.5,0.5,1.38,0.5,2.5c0,0.54-0.07,1.46-0.5,2.5
			c-1.01,1.96-2.55,4.93-4.5,8.5c-7.24,13.31-12.85,21.88-16,27c-4.5,7.33-10.55,18.32-16.5,33.5"/>
	</g>
	<g>
		<path d="M544.5,235.5c2.5-20.8,4.29-38.04,5.5-50.5c0,0,0.8-8.27,4.5-49.5c1.23,2.61,2.5,5.79,3.5,9.5c0.74,2.72,1.2,5.25,1.5,7.5
			c0.64,17.91,2.04,37.15,4.5,57.5c1.81,14.94,4.02,29.12,6.5,42.5c1.86-3.63,4.31-8.9,6.5-15.5c1.43-4.31,4.08-13.16,6-35
			c0.75-8.49,1.44-19.51,1.5-32.5c1.18,2.11,2.4,4.61,3.5,7.5c1.19,3.12,1.97,6,2.5,8.5c3,39.67,6,79.33,9,119
			c-0.21,0.14-1.23,0.78-2.5,0.5c-1.2-0.26-2.17-1.23-2.5-2.5c-0.39-5.09-0.91-12.1-1.5-20.5c-0.56-8.03-0.64-9.57-1-14
			c-0.17-2.17-0.84-10.29-2-21c-0.66-6.05-1.48-12.93-2.5-20.5c-0.27,7.72-1.51,18.04-5.5,29.5c-2.25,6.45-4.92,11.96-7.5,16.5
			c-0.91-1.95-2.19-4.88-3.5-8.5c-3.31-9.13-4.53-16.4-6-26c-2.71-17.69-4-28-4-28c-0.96-7.72-2.2-18.11-3.5-30.5
			c-2.43,17.77-4.61,35.94-6.5,54.5c-0.53,5.19-1.03,10.36-1.5,15.5c-0.52-2.52-1.3-5.4-2.5-8.5
			C546.21,238.96,545.35,237.12,544.5,235.5z"/>
		<line class="st8" x1="588.5" y1="225.5" x2="592" y2="283"/>
	</g>
	<g>
		<path d="M620,209c-4.33-3.67-8.67-7.33-13-11c-0.98-9.69-1.69-20.05-2-31c-0.23-8.36-0.21-16.37,0-24c2.1,1.25,4.51,2.89,7,5
			c2.45,2.08,4.44,4.15,6,6c0.03,4.06,0.06,10.31,0,18c-0.08,9.41-0.22,12.68,0,18C618.19,194.5,618.67,201.04,620,209z"/>
		<path d="M621,317c-3-4.33-6-8.67-9-13c0.24-9.33,0.26-19,0-29c-0.57-22.25-2.41-42.98-5-62c3,4,6,8,9,12
			c1.73,14.75,3.12,30.45,4,47C620.83,287.76,621.12,302.79,621,317z"/>
		<path class="st8" d="M622,157c-1.06,2.61-2.11,5.62-3,9c-1.06,4.05-1.67,7.77-2,11"/>
		<line class="st8" x1="618" y1="226" x2="622" y2="310"/>
	</g>
	<g>
		<path d="M629,85c4,4,8,8,12,12c1.21,12.86,2.78,31.48,4,54c1,18.34,2.92,55.08,2,102c-0.58,29.77-1.79,37.06-1,61
			c0.72,21.92,2.53,39.92,4,52c-19.61-23.06-36.01-41.14-48-54c-9.83-10.55-18.51-19.53-30-30c-8.35-7.61-15.65-13.69-21-18
			c0.99,1.21,2,2.54,3,4c2.17,3.18,3.79,6.26,5,9c-3.32-3.57-6.65-7.24-10-11c-4.5-5.05-8.83-10.05-13-15
			c5.61,4.34,14.41,11.23,25,20c13.62,11.27,22.32,19.1,37,32c8.76,7.7,21.77,19.06,38,33c-1.9-40.2-2.13-72.79-2-95
			c0.25-41.94,1.97-74.8-2-125C630.95,102.76,629.8,91.94,629,85z"/>
		<path class="st8" d="M644,95l3.14,149.31c-0.57,20.18-0.06,42.74,2.36,67.19c1.61,16.26,3.87,31.46,6.5,45.5"/>
	</g>
	<g>
		<path d="M660.5,160.5c2.44,1.19,5.43,2.94,8.5,5.5c2.28,1.89,4.09,3.8,5.5,5.5c-1.51,3.77-3.61,9.44-5.5,16.5
			c-3.38,12.63-4.7,24.38-5,39c-0.71,33.92,4.23,72.07,5.5,81.5c2.03-2.23,4.9-5.74,7.5-10.5c3.94-7.2,4.34-11.91,7-19
			c1.71-4.56,4.66-10.9,10-18c5.33,1.67,10.67,3.33,16,5c2.84,4,6.89,10.13,11,18c5.67,10.86,7.7,17.88,13,33
			c7.67,21.9,11.51,32.85,16,41c4.36,7.92,11.06,18,21.5,28.5c-22.97-3.71-41.28-8.19-53.5-11.5c-27.5-7.45-39.87-13.25-90-30
			c-22.28-7.44-33.42-11.16-40-13c-55.13-15.38-98.33-15.95-107-16c-13.98-0.08-44.21,0.53-81,9c-42.89,9.87-59.6,22.32-70,34
			c-4.94,5.54-8.33,10.77-10.5,14.5c-5.33-2-10.67-4-16-6c3.92-5.75,10.18-13.77,19.5-21.5c15.41-12.78,30.38-17.47,48-23
			c20.97-6.58,38.01-8.56,51-10c3.63-0.4,17.16-1.85,36-2c9.43-0.08,38.93,0.01,79,7c25.9,4.52,44.95,9.95,59,14
			c39.58,11.41,50.48,18.48,87,30c16.36,5.16,40.56,12.06,71,18c-3.33-3.06-8.24-8.03-13-15c-4.28-6.25-7.58-14.25-14-30
			c-5.45-13.36-8.17-20.03-10-26c-1.84-6.01-2.97-10.76-6-18c-2.55-6.1-5.17-10.88-7-14c-2.01,3.2-3.68,6.54-5,10
			c-1.44,3.78-1.44,5.01-3,9c-0.66,1.68-2.25,5.53-5,10c-2.94,4.78-5.01,8.14-9,11c-3.42,2.45-6.82,3.51-9,4c-1.33,0-2.67,0-4,0
			c-2.24-1.47-4.59-3.13-7-5c-2.18-1.69-4.18-3.37-6-5c-1.89-15.15-3.15-28.04-4-38c-1.58-18.38-1.9-28.23-2-32
			c-0.23-8.91-0.14-16.44,0-22c0.27-8.5,1.11-18.29,3-29C654.98,178.76,657.69,168.87,660.5,160.5z"/>
		<path class="st8" d="M677,182c-3.36,9.42-6.59,20.48-9,33c-3.37,17.51-4.21,33.17-4,46"/>
		<circle cx="680.5" cy="207.5" r="7"/>
		<circle cx="675.5" cy="221.5" r="2.5"/>
		<path class="st8" d="M331,367c2.75-2.84,6.79-6.76,12-11c6.2-5.05,28.49-22.27,72.5-31.5c32.24-6.76,57.59-5.35,79-4
			c9.11,0.57,49.81,3.46,100,19c19.75,6.12,25.96,9.54,68,23c27.8,8.9,37.98,11.53,44,13c26.65,6.51,49.11,9.23,64.5,10.5"/>
	</g>
	<path class="st8" d="M355,138c-2.05-1.75-3.52-3.34-4.5-4.5l0,0c-1.26-1.73-2.59-3.4-4-5c0.15-0.96,0.43-2.37,1-4
		c2.59-7.36,8.46-11.6,14-15c13.28-8.15,19.92-12.23,32-16c7.35-2.29,14.51-3.78,24-5c27.38-3.51,49.78-1.6,56-1
		c33.89,3.25,62.45,12.91,82.5,21.5"/>
	<g>
		<path d="M400,155l16,7c-1.22,2.26-3.64,5.99-8,9c-1.86,1.28-5.64,3.9-10,4c-0.14,0-0.15,0-4,0c-3.14,0-4.88,0-5,0
			c-11.38-0.03-35-18-35-18c-11.77-8.96-15.78-13.57-17-15c-8.21-9.65-9.59-16.08-10-19c-0.55-3.93-0.12-7.2,0-8
			c0.58-2.83,1.68-6.78,4-11c4.66-8.5,13.22-16.26,36-24c25.37-8.62,46.55-9.79,51-10c0,0,46.82-2.25,95,17
			c4.13,1.65,12.26,5.07,21,9c16.59,7.46,27.15,13.04,35,17c22.26,11.23,39.87,18.05,63,27c0,0,21.53,8.33,48,15
			c4.17,1.05,13.21,3.26,25,3c10.46-0.23,17.5-2.27,22-4c5.78-2.22,9.26-4.67,11-6c2.97-2.28,4.66-4.26,7-7c0.17-0.2,1.12-1.32,2-3
			c0.76-1.44,1.15-2.18,1-3c-0.3-1.64-2.55-2.48-4-3c-1.93-0.69-3.98-0.81-8-1c-4.01-0.19-6.16-0.29-9,0c-0.55,0.06-2.13,0.23-4,1
			c-1.53,0.63-2.53,1.04-3,2c-0.28,0.57-0.43,1.46,1,5c1.49,3.66,2.37,4.49,2,5c-0.83,1.14-6.29-1.49-9-3c-3.73-2.08-6.49-3.66-8-7
			c-0.72-1.58-0.9-4.12-1-5c-0.15-1.27-0.11-1.66,0-2c0.68-2.21,4.13-2.86,5-3c1.43-0.37,3.49-0.8,6-1c5.2-0.41,9.28,0.42,12,1
			c2.63,0.56,4.45,1.16,7,2c8.5,2.81,14.11,5.86,18,8c1.54,0.85,3.03,1.9,6,4c2.86,2.02,3.74,2.81,4,4c0.45,2-1.1,3.93-2,5
			c-7.63,9.05-15,13-15,13c-3,1.61-10.63,5.32-20,6c-3.76,0.27-7.9,0.06-9,0c-3.14-0.18-5.38-0.49-9-1c-8.91-1.26-13.36-1.89-14-2
			c-7.16-1.24-13.23-2.9-20-5c-35.11-10.89-57-20-57-20c-22.94-9.55-43.36-19.51-71-33c-5.64-2.75-16.69-8.18-32-14
			c-17.87-6.8-28.81-9.3-32-10c-14.51-3.2-25.37-3.83-29-4c-1.74-0.08-7.63-0.33-15,0c-8.12,0.36-25.63,1.26-46,8
			c-11.24,3.72-47.56,15.81-50,35c-0.79,6.25,1,13,1,13c1.88,7.08,5.5,11.8,8,15c2.62,3.35,4.8,5.28,9,9c6.63,5.87,10.05,8.83,15,10
			c1.68,0.4,5.5,1.08,10,0C394.35,164.76,399.02,156.77,400,155z"/>
		<path class="st8" d="M746.5,127.5c3.64,0.75,9.45,2.51,15,7c2.07,1.67,3.71,3.41,5,5c-0.33,3-0.67,6-1,9
			c-5.75,7.5-16.92,19.35-33,22c-6.64,1.1-13.37,0.5-19,0c-10.51-0.93-19.07-3.13-25-5"/>
		<circle cx="672.5" cy="117.5" r="5"/>
		<circle cx="325" cy="148" r="3"/>
	</g>
</g>
</svg>
