<svg width="512" height="256" viewBox="0 0 512 256" fill="none" xmlns="http://www.w3.org/2000/svg">
<g clip-path="url(#clip0)">
<path fill-rule="evenodd" clip-rule="evenodd" d="M56 127.722V107H256H456V127.722V148.445H256H56V127.722ZM66.9125 139.548C65.7719 138.939 65.0494 138.141 64.365 136.81C63.4144 134.985 63.4144 134.757 63.4144 126.772C63.4144 118.749 63.4144 118.521 64.365 116.696C65.5437 114.376 67.749 113.046 70.5247 113.084C72.616 113.084 73.9468 113.654 75.4297 115.213C76.3802 116.202 77.673 119.662 77.2548 120.042C77.1787 120.156 76.2281 120.27 75.2015 120.346C73.3764 120.46 73.3384 120.422 72.8821 119.129C72.3118 117.38 70.8669 116.544 69.4981 117.152C68.9658 117.418 68.3194 118.103 68.0532 118.673C67.5209 119.966 67.4829 132.894 68.0152 134.567C68.2053 135.175 68.8517 135.935 69.4221 136.278C70.8669 137.076 72.3878 136.202 72.8441 134.262L73.1483 132.856H75.2776H77.3688L77.1787 134.376C76.4943 139.433 71.3992 142.019 66.9125 139.548ZM82.2357 126.772V113.084H84.327H86.4182V118.977V124.871H89.0798H91.7414V118.977V113.084H93.8327H95.924V126.772V140.46H93.8327H91.7414V134.567V128.673H89.0798H86.4182V134.567V140.46H84.327H82.2357V126.772ZM100.639 136.924C101.133 134.985 102.616 129.129 103.871 123.92C105.163 118.673 106.304 114.11 106.418 113.73C106.57 113.198 107.027 113.084 108.624 113.084H110.677L111.247 115.061C111.551 116.163 111.932 117.646 112.084 118.407C112.198 119.129 113.338 123.844 114.555 128.863C115.734 133.882 116.836 138.521 116.989 139.205L117.255 140.46H115.011H112.768L112.312 138.521C112.084 137.456 111.894 136.24 111.894 135.859C111.894 135.175 111.589 135.137 108.662 135.137H105.468L105.049 137.038C104.821 138.103 104.669 139.281 104.669 139.7C104.669 140.346 104.365 140.46 102.198 140.46H99.7262L100.639 136.924ZM106.57 130.65C106.57 129.966 107.825 123.73 108.395 121.639C108.624 120.688 108.852 121.335 109.726 125.631C110.259 128.445 110.753 130.878 110.753 131.03C110.753 131.183 109.802 131.335 108.662 131.335C106.875 131.335 106.57 131.221 106.57 130.65ZM121.019 126.772V113.084H125.582C129.46 113.084 130.411 113.198 131.703 113.844C133.909 114.985 134.669 116.886 134.669 121.144C134.707 124.681 134.289 125.973 132.844 127.304C132.388 127.684 132.046 128.293 132.046 128.635C132.046 128.977 132.806 131.563 133.757 134.376C134.669 137.152 135.468 139.662 135.468 139.966C135.468 140.308 134.783 140.422 133.262 140.422H131.095L129.346 134.833C127.635 129.243 127.635 129.243 126.494 129.243H125.392L125.278 134.833L125.202 140.46H123.11H121.019V126.772ZM125.202 121.068V116.886L126.836 116.848C127.939 116.848 128.852 117.114 129.422 117.608C130.183 118.217 130.297 118.635 130.297 120.954C130.335 124.452 129.726 125.251 127.103 125.251H125.202V121.068ZM140.411 126.772V113.084H142.502H144.593V124.871V136.658H148.205H151.817V138.559V140.46H146.114H140.411V126.772ZM156.38 126.772V113.084H162.084H167.787V114.985V116.886H164.175H160.563V120.878V124.871H163.605H166.646V126.772V128.673H163.567H160.525L160.639 132.551L160.753 136.468L164.251 136.544L167.787 136.658V138.559V140.46H162.084H156.38V126.772ZM174.897 139.586C173.034 138.597 172.122 137.152 171.779 134.643L171.513 132.856H173.833C176.114 132.856 176.152 132.856 176.152 133.92C176.152 135.365 176.836 136.202 178.281 136.468C180.144 136.848 181.475 135.365 181.437 132.932C181.437 130.156 180.867 129.433 177.711 128.065C173.871 126.392 172.806 125.555 172.312 123.616C171.703 121.335 172.046 117.57 173.072 115.973C174.289 113.958 176.76 112.894 179.65 113.16C183.186 113.502 184.935 115.213 185.468 118.863L185.734 120.65L183.414 120.688H181.095V119.548C181.095 118.255 179.916 116.848 178.852 116.886C178.433 116.886 177.711 117.19 177.217 117.608C176.494 118.179 176.342 118.673 176.342 120.232C176.342 122.589 176.989 123.35 179.878 124.414C184.935 126.278 185.81 127.608 185.582 133.16C185.468 135.479 185.202 137.152 184.859 137.722C183.909 139.205 182.046 140.042 179.194 140.27C176.913 140.422 176.266 140.308 174.897 139.586ZM198.966 126.772V113.084H203.414C210.943 113.084 212.616 114.529 212.616 120.954C212.654 124.414 212.122 126.049 210.639 127.456C209.688 128.331 209.65 128.407 210.221 129.928C210.525 130.802 211.437 133.54 212.236 135.973L213.719 140.46L211.361 140.346L209.042 140.27L207.293 134.757C205.582 129.281 205.544 129.243 204.441 129.243H203.338L203.224 134.833L203.148 140.46H201.057H198.966V126.772ZM203.148 121.068V116.886L204.783 116.848C205.886 116.848 206.798 117.114 207.369 117.608C208.129 118.217 208.243 118.635 208.243 120.954C208.281 124.452 207.673 125.251 205.049 125.251H203.148V121.068ZM221.285 139.586C220.106 138.939 219.422 138.217 218.738 136.848C217.787 134.985 217.787 134.719 217.787 126.734C217.787 118.749 217.787 118.521 218.738 116.658C221.171 111.829 228.433 111.829 230.867 116.658C231.817 118.521 231.856 118.711 231.856 126.924V135.327L230.753 137.152C228.852 140.384 224.745 141.411 221.285 139.586ZM223.262 135.973C222.692 135.479 222.388 134.529 222.084 132.475C221.627 129.205 221.894 120.232 222.464 118.711C223.338 116.506 225.848 116.392 226.989 118.483C227.521 119.51 227.635 120.764 227.635 126.582C227.635 131.563 227.521 133.73 227.141 134.643C226.304 136.62 224.669 137.19 223.262 135.973ZM239.536 139.586C237.673 138.597 236.76 137.152 236.418 134.643L236.152 132.856H238.471C240.753 132.856 240.791 132.856 240.791 133.958C240.791 134.681 241.095 135.327 241.779 135.859C243.11 136.886 244.023 136.848 245.202 135.669C246.076 134.795 246.152 134.452 246 132.361C245.81 129.662 245.354 129.129 242.008 127.875C237.521 126.24 236.304 124.338 236.684 119.662C237.065 115.175 239.764 112.817 244.213 113.122C247.749 113.388 249.574 115.175 250.106 118.863L250.373 120.65L248.053 120.688H245.734V119.548C245.734 118.255 244.555 116.848 243.49 116.886C243.072 116.886 242.35 117.19 241.894 117.57C241.209 118.141 241.019 118.673 240.981 120.232C240.943 122.627 241.437 123.16 245.43 124.833C249.688 126.658 250.106 127.304 250.106 132.665C250.106 136.125 249.954 137 249.384 137.913C248.357 139.395 246.875 140.042 243.833 140.27C241.551 140.422 240.905 140.308 239.536 139.586ZM255.62 126.772V113.084H261.323H267.027V114.985V116.886H263.414H259.802V120.878V124.871H262.844H265.886V126.772V128.673H262.844H259.802V132.665V136.658H263.414H267.027V138.559V140.46H261.323H255.62V126.772ZM280.715 128.179C282.388 121.449 283.947 115.289 284.137 114.49C284.517 113.084 284.517 113.084 286.57 113.084H288.624L289.156 115.061C289.84 117.456 295.163 139.814 295.163 140.194C295.163 140.308 294.137 140.46 292.92 140.46H290.715L290.183 137.875L289.65 135.327L286.57 135.213L283.49 135.099L283.034 137.038C282.806 138.103 282.616 139.319 282.616 139.7C282.616 140.346 282.312 140.46 280.144 140.46H277.673L280.715 128.179ZM284.517 130.65C284.517 129.966 285.772 123.73 286.342 121.639C286.57 120.688 286.798 121.335 287.673 125.631C288.205 128.445 288.7 130.878 288.7 131.03C288.7 131.183 287.749 131.335 286.608 131.335C284.821 131.335 284.517 131.221 284.517 130.65ZM298.966 126.772V113.084H303.414C310.943 113.084 312.616 114.529 312.616 120.954C312.654 124.49 312.046 126.392 310.563 127.57L309.65 128.293L311.703 134.376L313.719 140.46H311.361H309.004L308.129 137.494C305.62 129.053 305.658 129.243 304.441 129.243H303.338L303.224 134.833L303.148 140.46H301.057H298.966V126.772ZM303.224 121.144L303.338 117.076L305.049 116.962C307.559 116.772 308.243 117.684 308.243 121.03C308.281 124.452 307.673 125.251 305.049 125.251H303.148L303.224 121.144ZM321.665 139.548C320.525 138.939 319.802 138.141 319.118 136.81C318.167 134.985 318.167 134.757 318.167 126.772C318.167 118.749 318.167 118.521 319.118 116.658C320.715 113.502 324.593 112.209 328.129 113.654C329.916 114.414 331.095 115.897 331.703 118.141C332.236 120.118 332.16 120.308 330.639 120.384C328.167 120.46 327.825 120.346 327.597 119.129C327.103 116.62 324.251 116.202 322.996 118.483C322.426 119.548 322.35 120.726 322.388 126.582C322.388 130.346 322.578 133.92 322.768 134.567C322.958 135.175 323.605 135.935 324.175 136.278C325.62 137.076 327.141 136.202 327.635 134.262L327.977 132.856H330.068H332.122L331.894 134.605C331.741 135.555 331.285 136.962 330.829 137.684C329.156 140.384 324.821 141.297 321.665 139.548ZM336.989 126.772V113.084H339.08H341.171V118.977V124.871H343.833H346.494V118.977V113.084H348.586H350.677V126.772V140.46H348.586H346.494V134.567V128.673H343.833H341.171V134.567V140.46H339.08H336.989V126.772ZM356.76 126.772V113.084H358.852H360.943V126.772V140.46H358.852H356.76V126.772ZM369.688 128.673V116.886H367.407H365.125V114.985V113.084H371.779H378.433V114.985V116.886H376.152H373.871V128.673V140.46H371.779H369.688V128.673ZM382.996 126.772V113.084H388.7H394.403V114.947V116.848L390.867 116.962L387.369 117.076L387.255 120.954L387.141 124.871H390.297H393.452V126.772V128.673H390.297H387.141L387.255 132.551L387.369 136.468L390.867 136.544L394.403 136.658V138.559V140.46H388.7H382.996V126.772ZM402.274 139.548C401.133 138.939 400.411 138.141 399.726 136.81C398.776 134.985 398.776 134.757 398.776 126.772C398.776 118.749 398.776 118.521 399.726 116.696C400.943 114.338 403.11 113.046 405.962 113.084C409.498 113.084 412.502 115.935 412.616 119.433C412.616 120.232 412.464 120.308 410.563 120.308C408.509 120.308 408.471 120.27 408.167 119.053C407.977 118.331 407.407 117.57 406.798 117.266C405.886 116.734 405.696 116.734 404.783 117.266C403.414 117.989 403.11 119.205 402.882 124.871C402.502 133.008 403.452 136.658 406 136.658C406.989 136.658 408.471 134.871 408.471 133.616C408.471 132.932 408.662 132.856 410.601 132.856H412.73L412.502 134.605C412.16 137.038 411.209 138.521 409.308 139.548C407.141 140.726 404.441 140.726 402.274 139.548ZM420.639 128.673V116.886H418.357H416.076V114.985V113.084H422.73H429.384V114.947V116.848L427.179 116.962L425.011 117.076L424.897 128.749L424.821 140.46H422.73H420.639V128.673ZM436.114 139.586C434.251 138.597 433.338 137.152 433.034 134.643L432.806 132.856H435.087C437.331 132.856 437.369 132.856 437.369 133.92C437.369 135.327 438.053 136.202 439.46 136.468C441.323 136.848 442.388 135.707 442.54 133.198C442.768 130.27 442.236 129.471 438.928 128.065C435.087 126.392 434.023 125.555 433.529 123.616C432.92 121.335 433.262 117.57 434.289 115.973C435.81 113.502 439.726 112.399 443.034 113.578C444.897 114.224 446.38 116.278 446.684 118.673L446.951 120.688H444.631H442.312V119.548C442.312 118.255 441.133 116.848 440.068 116.886C439.65 116.886 438.928 117.19 438.471 117.57C437.787 118.141 437.597 118.673 437.559 120.27C437.521 122.665 438.167 123.312 442.274 124.985C446.19 126.544 446.684 127.342 446.684 132.665C446.684 136.087 446.532 137 445.962 137.875C444.289 140.346 439.194 141.221 436.114 139.586Z" fill="#333333"/>
<path fill-rule="evenodd" clip-rule="evenodd" d="M66.9126 139.548C65.772 138.939 65.0495 138.141 64.3651 136.81C63.4146 134.985 63.4146 134.757 63.4146 126.772C63.4146 118.749 63.4146 118.521 64.3651 116.696C65.5438 114.376 67.7492 113.046 70.5248 113.084C72.6161 113.084 73.9469 113.654 75.4298 115.213C76.3803 116.202 77.6731 119.662 77.2549 120.042C77.1788 120.156 76.2282 120.27 75.2016 120.346C73.3765 120.46 73.3385 120.422 72.8822 119.129C72.3119 117.38 70.867 116.544 69.4982 117.152C68.9659 117.418 68.3195 118.103 68.0533 118.673C67.521 119.966 67.483 132.894 68.0153 134.567C68.2054 135.175 68.8518 135.935 69.4222 136.278C70.867 137.076 72.3879 136.202 72.8442 134.262L73.1484 132.856H75.2777H77.3689L77.1788 134.376C76.4944 139.433 71.3993 142.019 66.9126 139.548Z" fill="#FACA32"/>
<path fill-rule="evenodd" clip-rule="evenodd" d="M82.2358 126.772V113.084H84.3271H86.4183V118.977V124.871H89.0799H91.7415V118.977V113.084H93.8328H95.924V126.772V140.46H93.8328H91.7415V134.567V128.673H89.0799H86.4183V134.567V140.46H84.3271H82.2358V126.772Z" fill="#FACA32"/>
<path fill-rule="evenodd" clip-rule="evenodd" d="M100.639 136.924C101.133 134.985 102.616 129.129 103.871 123.92C105.164 118.673 106.304 114.11 106.418 113.73C106.57 113.198 107.027 113.084 108.624 113.084H110.677L111.247 115.061C111.551 116.164 111.932 117.646 112.084 118.407C112.198 119.129 113.339 123.844 114.555 128.863C115.734 133.882 116.837 138.521 116.989 139.205L117.255 140.46H115.012H112.768L112.312 138.521C112.084 137.456 111.894 136.24 111.894 135.859C111.894 135.175 111.589 135.137 108.662 135.137H105.468L105.05 137.038C104.821 138.103 104.669 139.281 104.669 139.7C104.669 140.346 104.365 140.46 102.198 140.46H99.7263L100.639 136.924ZM106.57 130.65C106.57 129.966 107.825 123.73 108.396 121.639C108.624 120.688 108.852 121.335 109.726 125.631C110.259 128.445 110.753 130.878 110.753 131.03C110.753 131.183 109.802 131.335 108.662 131.335C106.875 131.335 106.57 131.221 106.57 130.65Z" fill="#FACA32"/>
<path fill-rule="evenodd" clip-rule="evenodd" d="M121.019 126.772V113.084H125.582C129.46 113.084 130.411 113.198 131.703 113.844C133.909 114.985 134.669 116.886 134.669 121.144C134.707 124.681 134.289 125.973 132.844 127.304C132.388 127.684 132.046 128.293 132.046 128.635C132.046 128.977 132.806 131.563 133.757 134.376C134.669 137.152 135.468 139.662 135.468 139.966C135.468 140.308 134.783 140.422 133.262 140.422H131.095L129.346 134.833C127.635 129.243 127.635 129.243 126.494 129.243H125.392L125.278 134.833L125.202 140.46H123.11H121.019V126.772ZM125.202 121.068V116.886L126.837 116.848C127.939 116.848 128.852 117.114 129.422 117.608C130.183 118.217 130.297 118.635 130.297 120.954C130.335 124.452 129.726 125.251 127.103 125.251H125.202V121.068Z" fill="#FACA32"/>
<path fill-rule="evenodd" clip-rule="evenodd" d="M140.411 126.772V113.084H142.502H144.593V124.871V136.658H148.205H151.818V138.559V140.46H146.114H140.411V126.772Z" fill="#FACA32"/>
<path fill-rule="evenodd" clip-rule="evenodd" d="M156.38 126.772V113.084H162.084H167.787V114.985V116.886H164.175H160.563V120.878V124.871H163.605H166.647V126.772V128.673H163.567H160.525L160.639 132.551L160.753 136.468L164.251 136.544L167.787 136.658V138.559V140.46H162.084H156.38V126.772Z" fill="#FACA32"/>
<path fill-rule="evenodd" clip-rule="evenodd" d="M174.897 139.586C173.034 138.597 172.122 137.152 171.78 134.643L171.513 132.856H173.833C176.114 132.856 176.152 132.856 176.152 133.92C176.152 135.365 176.837 136.202 178.282 136.468C180.145 136.848 181.475 135.365 181.437 132.932C181.437 130.156 180.867 129.433 177.711 128.065C173.871 126.392 172.806 125.555 172.312 123.616C171.704 121.335 172.046 117.57 173.072 115.973C174.289 113.958 176.761 112.894 179.65 113.16C183.186 113.502 184.936 115.213 185.468 118.863L185.734 120.65L183.415 120.688H181.095V119.548C181.095 118.255 179.917 116.848 178.852 116.886C178.434 116.886 177.711 117.19 177.217 117.608C176.494 118.179 176.342 118.673 176.342 120.232C176.342 122.589 176.989 123.35 179.878 124.414C184.936 126.278 185.81 127.608 185.582 133.16C185.468 135.479 185.202 137.152 184.859 137.722C183.909 139.205 182.046 140.042 179.194 140.27C176.913 140.422 176.266 140.308 174.897 139.586Z" fill="#FACA32"/>
<path fill-rule="evenodd" clip-rule="evenodd" d="M198.966 126.772V113.084H203.415C210.943 113.084 212.616 114.529 212.616 120.954C212.654 124.414 212.122 126.049 210.639 127.456C209.688 128.331 209.65 128.407 210.221 129.928C210.525 130.802 211.437 133.54 212.236 135.973L213.719 140.46L211.361 140.346L209.042 140.27L207.293 134.757C205.582 129.281 205.544 129.243 204.441 129.243H203.338L203.224 134.833L203.148 140.46H201.057H198.966V126.772ZM203.148 121.068V116.886L204.783 116.848C205.886 116.848 206.799 117.114 207.369 117.608C208.129 118.217 208.243 118.635 208.243 120.954C208.281 124.452 207.673 125.251 205.049 125.251H203.148V121.068Z" fill="#FACA32"/>
<path fill-rule="evenodd" clip-rule="evenodd" d="M221.285 139.586C220.107 138.939 219.422 138.217 218.738 136.848C217.787 134.985 217.787 134.719 217.787 126.734C217.787 118.749 217.787 118.521 218.738 116.658C221.171 111.829 228.434 111.829 230.867 116.658C231.818 118.521 231.856 118.711 231.856 126.924V135.327L230.753 137.152C228.852 140.384 224.745 141.411 221.285 139.586ZM223.262 135.973C222.692 135.479 222.388 134.529 222.084 132.475C221.627 129.205 221.894 120.232 222.464 118.711C223.338 116.506 225.848 116.392 226.989 118.483C227.521 119.51 227.635 120.764 227.635 126.582C227.635 131.563 227.521 133.73 227.141 134.643C226.304 136.62 224.669 137.19 223.262 135.973Z" fill="#FACA32"/>
<path fill-rule="evenodd" clip-rule="evenodd" d="M239.536 139.586C237.673 138.597 236.76 137.152 236.418 134.643L236.152 132.856H238.472C240.753 132.856 240.791 132.856 240.791 133.958C240.791 134.681 241.095 135.327 241.78 135.859C243.11 136.886 244.023 136.848 245.202 135.669C246.076 134.795 246.152 134.452 246 132.361C245.81 129.662 245.354 129.129 242.008 127.875C237.521 126.24 236.304 124.338 236.684 119.662C237.065 115.175 239.764 112.818 244.213 113.122C247.749 113.388 249.574 115.175 250.107 118.863L250.373 120.65L248.053 120.688H245.734V119.548C245.734 118.255 244.555 116.848 243.491 116.886C243.072 116.886 242.35 117.19 241.894 117.57C241.209 118.141 241.019 118.673 240.981 120.232C240.943 122.627 241.437 123.16 245.43 124.833C249.688 126.658 250.107 127.304 250.107 132.665C250.107 136.125 249.954 137 249.384 137.913C248.357 139.395 246.875 140.042 243.833 140.27C241.551 140.422 240.905 140.308 239.536 139.586Z" fill="#FACA32"/>
<path fill-rule="evenodd" clip-rule="evenodd" d="M255.62 126.772V113.084H261.323H267.027V114.985V116.886H263.415H259.802V120.878V124.871H262.844H265.886V126.772V128.673H262.844H259.802V132.665V136.658H263.415H267.027V138.559V140.46H261.323H255.62V126.772Z" fill="#FACA32"/>
<path fill-rule="evenodd" clip-rule="evenodd" d="M280.715 128.179C282.388 121.449 283.947 115.289 284.137 114.491C284.517 113.084 284.517 113.084 286.57 113.084H288.624L289.156 115.061C289.84 117.456 295.164 139.814 295.164 140.194C295.164 140.308 294.137 140.46 292.92 140.46H290.715L290.183 137.875L289.65 135.327L286.57 135.213L283.491 135.099L283.034 137.038C282.806 138.103 282.616 139.319 282.616 139.7C282.616 140.346 282.312 140.46 280.145 140.46H277.673L280.715 128.179ZM284.517 130.65C284.517 129.966 285.772 123.73 286.342 121.639C286.57 120.688 286.799 121.335 287.673 125.631C288.205 128.445 288.7 130.878 288.7 131.03C288.7 131.183 287.749 131.335 286.608 131.335C284.821 131.335 284.517 131.221 284.517 130.65Z" fill="#FACA32"/>
<path fill-rule="evenodd" clip-rule="evenodd" d="M298.966 126.772V113.084H303.415C310.943 113.084 312.616 114.529 312.616 120.954C312.654 124.491 312.046 126.392 310.563 127.57L309.65 128.293L311.704 134.376L313.719 140.46H311.361H309.004L308.129 137.494C305.62 129.053 305.658 129.243 304.441 129.243H303.338L303.224 134.833L303.148 140.46H301.057H298.966V126.772ZM303.224 121.144L303.338 117.076L305.049 116.962C307.559 116.772 308.243 117.684 308.243 121.03C308.281 124.452 307.673 125.251 305.049 125.251H303.148L303.224 121.144Z" fill="#FACA32"/>
<path fill-rule="evenodd" clip-rule="evenodd" d="M321.665 139.548C320.525 138.939 319.802 138.141 319.118 136.81C318.167 134.985 318.167 134.757 318.167 126.772C318.167 118.749 318.167 118.521 319.118 116.658C320.715 113.502 324.593 112.209 328.129 113.654C329.916 114.414 331.095 115.897 331.703 118.141C332.236 120.118 332.16 120.308 330.639 120.384C328.167 120.46 327.825 120.346 327.597 119.129C327.103 116.62 324.251 116.202 322.996 118.483C322.426 119.548 322.35 120.726 322.388 126.582C322.388 130.346 322.578 133.92 322.768 134.567C322.958 135.175 323.605 135.935 324.175 136.278C325.62 137.076 327.141 136.202 327.635 134.262L327.977 132.856H330.068H332.122L331.894 134.605C331.741 135.555 331.285 136.962 330.829 137.684C329.156 140.384 324.821 141.297 321.665 139.548Z" fill="#FACA32"/>
<path fill-rule="evenodd" clip-rule="evenodd" d="M336.989 126.772V113.084H339.08H341.171V118.977V124.871H343.833H346.494V118.977V113.084H348.586H350.677V126.772V140.46H348.586H346.494V134.567V128.673H343.833H341.171V134.567V140.46H339.08H336.989V126.772Z" fill="#FACA32"/>
<path fill-rule="evenodd" clip-rule="evenodd" d="M356.761 126.772V113.084H358.852H360.943V126.772V140.46H358.852H356.761V126.772Z" fill="#FACA32"/>
<path fill-rule="evenodd" clip-rule="evenodd" d="M369.688 128.673V116.886H367.407H365.126V114.985V113.084H371.78H378.434V114.985V116.886H376.152H373.871V128.673V140.46H371.78H369.688V128.673Z" fill="#FACA32"/>
<path fill-rule="evenodd" clip-rule="evenodd" d="M382.996 126.772V113.084H388.7H394.403V114.947V116.848L390.867 116.962L387.369 117.076L387.255 120.954L387.141 124.871H390.297H393.453V126.772V128.673H390.297H387.141L387.255 132.551L387.369 136.468L390.867 136.544L394.403 136.658V138.559V140.46H388.7H382.996V126.772Z" fill="#FACA32"/>
<path fill-rule="evenodd" clip-rule="evenodd" d="M402.274 139.548C401.133 138.939 400.411 138.141 399.726 136.81C398.776 134.985 398.776 134.757 398.776 126.772C398.776 118.749 398.776 118.521 399.726 116.696C400.943 114.338 403.11 113.046 405.962 113.084C409.498 113.084 412.502 115.935 412.616 119.433C412.616 120.232 412.464 120.308 410.563 120.308C408.51 120.308 408.472 120.27 408.167 119.053C407.977 118.331 407.407 117.57 406.799 117.266C405.886 116.734 405.696 116.734 404.783 117.266C403.414 117.989 403.11 119.205 402.882 124.871C402.502 133.008 403.453 136.658 406 136.658C406.989 136.658 408.472 134.871 408.472 133.616C408.472 132.932 408.662 132.856 410.601 132.856H412.73L412.502 134.605C412.16 137.038 411.209 138.521 409.308 139.548C407.141 140.726 404.441 140.726 402.274 139.548Z" fill="#FACA32"/>
<path fill-rule="evenodd" clip-rule="evenodd" d="M420.639 128.673V116.886H418.358H416.076V114.985V113.084H422.73H429.384V114.947V116.848L427.179 116.962L425.011 117.076L424.897 128.749L424.821 140.46H422.73H420.639V128.673Z" fill="#FACA32"/>
<path fill-rule="evenodd" clip-rule="evenodd" d="M436.114 139.586C434.251 138.597 433.339 137.152 433.034 134.643L432.806 132.856H435.088C437.331 132.856 437.369 132.856 437.369 133.92C437.369 135.327 438.053 136.202 439.46 136.468C441.323 136.848 442.388 135.707 442.54 133.198C442.768 130.27 442.236 129.471 438.928 128.065C435.088 126.392 434.023 125.555 433.529 123.616C432.92 121.335 433.262 117.57 434.289 115.973C435.81 113.502 439.726 112.399 443.034 113.578C444.897 114.224 446.38 116.278 446.685 118.673L446.951 120.688H444.631H442.312V119.548C442.312 118.255 441.133 116.848 440.069 116.886C439.65 116.886 438.928 117.19 438.472 117.57C437.787 118.141 437.597 118.673 437.559 120.27C437.521 122.665 438.167 123.312 442.274 124.985C446.19 126.544 446.685 127.342 446.685 132.665C446.685 136.087 446.532 137 445.962 137.875C444.289 140.346 439.194 141.221 436.114 139.586Z" fill="#FACA32"/>
</g>
<defs>
<clipPath id="clip0">
<rect width="400" height="41.4449" fill="white" transform="translate(56 107)"/>
</clipPath>
</defs>
</svg>
