<svg id="Layer_1" data-name="Layer 1" xmlns="http://www.w3.org/2000/svg" viewBox="0 0 432 288"><defs><style>.cls-1{fill:#2f2f2e;}.cls-2{fill:#fff;}</style></defs><title>Artboard 1</title><path class="cls-1" d="M15.57,37.17V216.53H83.25l0-179.35Z"/><polygon class="cls-1" points="263.01 37.18 262.97 216.75 416.4 216.78 416.43 37.17 263.01 37.18"/><path class="cls-2" d="M65.48,197.11H33.36V56.61H65.48Z"/><path class="cls-2" d="M282.29,197.53V56.42h32.46V110l46.77-53.62h37.9l.6,2-59.87,66.33,64.11,70.76-.81,2H366l-51.2-58.06v58.06Z"/><polygon class="cls-1" points="96.43 37.17 96.4 216.72 249.77 216.75 249.81 37.18 96.43 37.17"/><path class="cls-2" d="M116.72,55.4l82.5,72.86v-71h32.11v140.9l-1.61.8-82.49-73.46v72.26H114.92V56Z"/><path class="cls-1" d="M27.41,230.17a9.7,9.7,0,0,1,6.94,2.67.54.54,0,0,1,0,.81l-1.75,1.8a.46.46,0,0,1-.72,0,6.78,6.78,0,0,0-4.42-1.69,6.66,6.66,0,0,0,0,13.31,6.9,6.9,0,0,0,4.39-1.63.51.51,0,0,1,.72,0l1.78,1.83a.55.55,0,0,1,0,.78,9.86,9.86,0,0,1-7,2.78,10.33,10.33,0,1,1,0-20.66Z"/><path class="cls-1" d="M54.09,230.17A10.33,10.33,0,1,1,43.8,240.53,10.31,10.31,0,0,1,54.09,230.17Zm0,16.93a6.6,6.6,0,1,0-6.57-6.57A6.61,6.61,0,0,0,54.09,247.1Z"/><path class="cls-1" d="M77.45,230.6a.48.48,0,0,1,.52-.43h.46a.51.51,0,0,1,.48.29L85.23,244h.08l6.31-13.54a.51.51,0,0,1,.49-.29h.46a.49.49,0,0,1,.52.43l3.38,19.28a.5.5,0,0,1-.52.66H93.34a.63.63,0,0,1-.54-.43l-1.69-10.87H91l-5,11.27a.49.49,0,0,1-.49.32H85a.5.5,0,0,1-.49-.32l-5.08-11.27h-.09l-1.66,10.87a.56.56,0,0,1-.51.43H74.58a.52.52,0,0,1-.54-.66Z"/><path class="cls-1" d="M109.67,230.6a.48.48,0,0,1,.52-.43h.46a.54.54,0,0,1,.49.29L117.45,244h.08l6.31-13.54a.51.51,0,0,1,.49-.29h.46a.48.48,0,0,1,.52.43l3.38,19.28a.49.49,0,0,1-.51.66h-2.61a.63.63,0,0,1-.55-.43l-1.69-10.87h-.09l-5,11.27a.48.48,0,0,1-.49.32h-.51a.51.51,0,0,1-.49-.32l-5.08-11.27h-.08l-1.67,10.87a.55.55,0,0,1-.51.43h-2.58a.53.53,0,0,1-.55-.66Z"/><path class="cls-1" d="M139.52,231a.56.56,0,0,1,.54-.55h2.73a.55.55,0,0,1,.54.55v11.73a4.18,4.18,0,1,0,8.35,0V231a.55.55,0,0,1,.54-.55H155a.56.56,0,0,1,.54.55v11.93a8,8,0,0,1-16,0Z"/><path class="cls-1" d="M167.61,230.69a.53.53,0,0,1,.54-.52h.72l11.93,12.68h0V231a.55.55,0,0,1,.55-.55H184a.57.57,0,0,1,.54.55v19.3a.54.54,0,0,1-.54.52h-.69l-12-13.17h0V250a.55.55,0,0,1-.55.54h-2.61a.56.56,0,0,1-.54-.54Z"/><path class="cls-1" d="M197,231a.57.57,0,0,1,.54-.55h2.67a.57.57,0,0,1,.55.55v19a.57.57,0,0,1-.55.54H197.5A.57.57,0,0,1,197,250Z"/><path class="cls-1" d="M222,230.17a9.72,9.72,0,0,1,6.94,2.67.54.54,0,0,1,0,.81l-1.75,1.8a.46.46,0,0,1-.72,0,6.78,6.78,0,0,0-4.42-1.69,6.66,6.66,0,0,0,0,13.31,6.9,6.9,0,0,0,4.39-1.63.51.51,0,0,1,.72,0l1.78,1.83a.55.55,0,0,1,0,.78,9.86,9.86,0,0,1-7,2.78,10.33,10.33,0,1,1,0-20.66Z"/><path class="cls-1" d="M235.87,249.8l8.92-19.31a.53.53,0,0,1,.49-.32h.28a.49.49,0,0,1,.49.32l8.84,19.31a.5.5,0,0,1-.49.74h-2.5a.82.82,0,0,1-.83-.57l-1.4-3.1h-8.58l-1.41,3.1a.86.86,0,0,1-.83.57h-2.49A.5.5,0,0,1,235.87,249.8Zm12.39-6.11-2.87-6.32h-.08l-2.81,6.32Z"/><path class="cls-1" d="M264.88,233.9h-4.39a.54.54,0,0,1-.55-.54V231a.55.55,0,0,1,.55-.55H273a.55.55,0,0,1,.55.55v2.35a.54.54,0,0,1-.55.54h-4.39V250a.56.56,0,0,1-.54.54h-2.67a.56.56,0,0,1-.54-.54Z"/><path class="cls-1" d="M283.73,231a.57.57,0,0,1,.54-.55h2.67a.57.57,0,0,1,.55.55v19a.57.57,0,0,1-.55.54h-2.67a.57.57,0,0,1-.54-.54Z"/><path class="cls-1" d="M308.75,230.17a10.33,10.33,0,1,1-10.3,10.36A10.31,10.31,0,0,1,308.75,230.17Zm0,16.93a6.6,6.6,0,1,0-6.57-6.57A6.61,6.61,0,0,0,308.75,247.1Z"/><path class="cls-1" d="M329.72,230.69a.54.54,0,0,1,.55-.52H331l11.93,12.68h0V231a.55.55,0,0,1,.54-.55h2.64a.57.57,0,0,1,.55.55v19.3a.54.54,0,0,1-.55.52h-.69l-12-13.17h0V250a.54.54,0,0,1-.54.54h-2.61a.57.57,0,0,1-.55-.54Z"/><path class="cls-1" d="M357.9,247.73l1-1.78a.67.67,0,0,1,1-.2c.14.09,2.47,1.78,4.33,1.78a2.4,2.4,0,0,0,2.61-2.21c0-1.46-1.23-2.47-3.64-3.44-2.7-1.09-5.39-2.81-5.39-6.2,0-2.55,1.89-5.51,6.45-5.51A10.11,10.11,0,0,1,370,232.1a.71.71,0,0,1,.17.94l-1.09,1.64a.76.76,0,0,1-1,.34c-.22-.14-2.41-1.58-4-1.58a2.29,2.29,0,0,0-2.53,2c0,1.35,1.06,2.27,3.39,3.22,2.78,1.11,6,2.78,6,6.48,0,2.95-2.55,5.68-6.59,5.68a9.23,9.23,0,0,1-6.32-2.24C357.79,248.33,357.64,248.19,357.9,247.73Z"/><path class="cls-1" d="M390.58,230.19a6.63,6.63,0,0,1,4.77,1.83.38.38,0,0,1,0,.55l-1.54,1.6a.36.36,0,0,1-.49,0,4,4,0,0,0-2.66-1,4,4,0,0,0,0,8.06,4.19,4.19,0,0,0,2.64-.95.38.38,0,0,1,.51,0l1.54,1.64a.41.41,0,0,1,0,.53,6.77,6.77,0,0,1-4.79,1.91,7.09,7.09,0,1,1,0-14.18Z"/><path class="cls-1" d="M406.69,230.19a7.09,7.09,0,1,1-7.07,7.11A7.08,7.08,0,0,1,406.69,230.19Zm0,11a3.94,3.94,0,1,0-3.92-3.92A4,4,0,0,0,406.69,241.22Z"/><rect class="cls-1" x="383.42" y="247.99" width="30.46" height="2.75" rx="0.38" ry="0.38"/></svg>