<!DOCTYPE svg PUBLIC "-//W3C//DTD SVG 20010904//EN" "http://www.w3.org/TR/2001/REC-SVG-20010904/DTD/svg10.dtd">
<svg version="1.0" xmlns="http://www.w3.org/2000/svg" width="1139px" height="435px" viewBox="0 0 11390 4350" preserveAspectRatio="xMidYMid meet">
<g id="layer101" fill="#010101" stroke="none">
<path d="M0 2175 l0 -2175 5695 0 5695 0 0 2175 0 2175 -5695 0 -5695 0 0 -2175z"/>
</g>
<g id="layer102" fill="#282828" stroke="none">
<path d="M0 2175 l0 -2175 5695 0 5695 0 0 2175 0 2175 -5695 0 -5695 0 0 -2175z m3930 1725 l0 -270 -35 0 -35 0 0 183 -1 182 -194 -200 -194 -200 -1 278 0 277 35 0 35 0 2 -186 3 -186 185 195 c102 108 188 196 193 196 4 1 7 -120 7 -269z m2310 0 l0 -270 -35 0 -35 0 0 185 0 185 -117 -123 c-65 -67 -153 -158 -195 -202 l-78 -80 0 278 0 277 35 0 35 0 2 -185 3 -186 185 196 c102 107 188 195 192 195 5 0 8 -121 8 -270z m4070 0 l0 -270 -35 0 -35 0 0 183 -1 182 -194 -200 -194 -200 -1 278 0 277 35 0 35 0 2 -186 3 -186 185 195 c102 108 188 196 193 196 4 1 7 -120 7 -269z m-8664 235 c28 -16 49 -39 63 -68 19 -39 21 -61 21 -240 l0 -197 -35 0 -35 0 0 175 c0 236 -20 285 -120 285 -56 0 -78 -14 -101 -63 -16 -36 -19 -67 -19 -219 l0 -178 -35 0 -35 0 0 197 c0 230 9 263 83 308 59 35 153 35 213 0z m629 -132 c38 -87 71 -162 75 -166 4 -4 10 13 14 39 3 27 16 99 27 161 l21 113 39 0 c36 0 39 -2 35 -22 -3 -13 -26 -129 -51 -258 -25 -129 -49 -243 -53 -253 -6 -14 -30 33 -92 177 -47 108 -87 196 -90 196 -3 0 -43 -88 -90 -195 -46 -107 -87 -191 -91 -187 -3 4 -27 117 -53 252 -26 135 -50 255 -53 268 -5 20 -2 22 35 22 l40 0 17 -97 c9 -54 22 -127 29 -163 l11 -64 74 167 c41 92 77 167 81 167 4 0 38 -71 75 -157z m2213 141 c84 -35 141 -120 142 -211 l0 -53 -105 0 -105 0 0 35 0 35 65 0 c74 0 79 7 42 61 -35 52 -82 79 -139 79 -57 0 -91 -15 -135 -62 -111 -115 -57 -297 100 -339 54 -14 120 4 168 48 l37 34 29 -25 28 -24 -29 -31 c-68 -71 -212 -97 -306 -54 -177 81 -216 319 -74 455 22 20 55 44 74 52 46 20 160 20 208 0z m6387 -3 c79 -37 126 -107 140 -208 l7 -53 -111 0 -111 0 0 35 0 35 66 0 66 0 -7 28 c-8 32 -49 78 -87 98 -32 17 -111 18 -141 3 -79 -40 -136 -146 -121 -223 10 -54 58 -123 101 -144 86 -44 157 -36 224 25 l40 36 27 -26 26 -27 -28 -29 c-63 -65 -197 -94 -290 -62 -54 19 -124 86 -152 146 -33 69 -33 161 0 230 25 54 89 119 140 141 46 20 163 17 211 -5z m-10325 -95 l0 -104 60 -7 c107 -12 165 -75 157 -168 -9 -99 -65 -137 -204 -137 l-93 0 0 260 0 260 40 0 40 0 0 -104z m630 69 l0 -35 -75 0 -75 0 0 -225 0 -225 -40 0 -40 0 0 260 0 260 115 0 115 0 0 -35z m1719 17 c97 -49 108 -179 21 -244 -28 -20 -29 -23 -13 -40 9 -10 18 -41 20 -71 8 -102 -48 -147 -182 -147 l-75 0 0 260 0 260 98 0 c73 0 106 -4 131 -18z m351 -242 l0 -260 -35 0 -35 0 0 260 0 260 35 0 35 0 0 -260z m1969 195 l30 -65 111 0 111 0 30 65 c30 64 31 65 71 65 34 0 39 -3 34 -17 -19 -50 -242 -532 -246 -533 -4 0 -229 486 -246 533 -5 14 0 17 34 17 40 0 41 -1 71 -65z m1470 49 c67 -19 141 -90 159 -150 30 -102 8 -217 -54 -278 -57 -56 -98 -70 -226 -74 l-118 -4 0 261 0 261 93 0 c56 0 115 -6 146 -16z m771 -109 l0 -125 120 0 120 0 0 125 0 125 35 0 35 0 0 -260 0 -260 -35 0 -35 0 0 100 0 100 -120 0 -120 0 0 -100 0 -100 -35 0 -35 0 0 260 0 260 35 0 35 0 0 -125z m820 90 l0 -35 -105 0 -105 0 0 -90 0 -90 100 0 100 0 0 -35 0 -35 -100 0 -100 0 0 -70 0 -70 105 0 105 0 0 -30 0 -30 -145 0 -145 0 0 260 0 260 145 0 145 0 0 -35z m264 -30 l29 -65 112 0 112 0 29 65 c29 64 29 64 71 65 l42 0 -14 -32 c-43 -103 -233 -509 -239 -511 -5 -2 -186 381 -241 511 l-14 32 42 0 c42 -1 42 -1 71 -65z m716 -165 l0 -230 60 0 60 0 0 -30 0 -30 -160 0 -160 0 0 30 0 30 60 0 60 0 0 230 0 230 40 0 40 0 0 -230z m370 -30 l0 -260 -35 0 -35 0 0 260 0 260 35 0 35 0 0 -260z m-5346 -439 c206 -101 279 -393 146 -586 -17 -24 -69 -74 -115 -110 -96 -75 -125 -108 -125 -141 0 -28 44 -64 78 -64 42 0 109 39 152 87 l40 46 0 -190 0 -191 -49 -21 c-106 -45 -246 -46 -345 -2 -119 52 -205 206 -206 367 0 131 55 228 194 338 91 72 106 90 106 128 0 101 -140 99 -243 -4 -26 -26 -50 -48 -52 -48 -10 0 -5 379 5 385 5 3 42 15 82 25 56 15 96 19 170 17 85 -3 105 -8 162 -36z m6187 14 l46 -16 6 -127 c4 -70 7 -149 7 -176 l0 -49 -22 21 c-55 51 -146 74 -205 51 -135 -51 -187 -322 -97 -507 56 -114 195 -137 292 -49 l22 20 0 -181 0 -181 -42 -12 c-55 -14 -189 -14 -253 1 -140 32 -266 132 -329 261 -58 119 -71 183 -71 354 0 172 13 235 72 355 61 125 167 212 298 247 64 16 215 10 276 -12z m470 -10 c92 -60 107 -198 31 -278 -92 -97 -246 -78 -302 38 -50 104 2 231 108 266 44 14 121 2 163 -26z m-5981 -225 l0 -240 70 0 70 0 0 240 0 240 170 0 170 0 0 -600 0 -600 -170 0 -170 0 0 210 0 210 -70 0 -70 0 0 -210 0 -210 -165 0 -165 0 0 600 0 600 165 0 165 0 0 -240z m903 223 c3 -10 8 -36 12 -58 12 -79 5 -75 119 -75 l103 0 7 53 c14 107 -5 97 187 97 139 0 169 -3 169 -14 0 -14 -236 -1136 -246 -1168 -5 -16 -24 -18 -207 -18 l-202 0 -139 578 c-75 317 -140 587 -143 600 l-5 22 170 0 c154 0 171 -2 175 -17z m1177 14 c0 -2 18 -133 40 -291 22 -158 40 -304 40 -326 0 -68 17 -52 24 23 4 39 28 189 54 332 l47 260 163 3 c89 1 162 1 162 0 0 -7 229 -1145 235 -1170 l7 -28 -166 0 c-91 0 -166 3 -166 8 0 4 -18 138 -41 297 -22 160 -43 310 -46 335 l-6 45 -8 -55 c-5 -30 -30 -184 -56 -342 l-48 -288 -145 0 -145 0 -48 283 c-26 155 -49 308 -53 340 -3 31 -9 57 -13 57 -5 0 -6 -10 -4 -23 4 -17 -46 -388 -83 -614 l-7 -43 -164 0 c-152 0 -165 1 -161 18 2 9 62 279 134 599 l129 583 163 0 c89 0 162 -2 162 -3z m1630 -597 l0 -600 -165 0 -165 0 0 600 0 600 165 0 165 0 0 -600z m487 308 c-4 -161 -9 -309 -12 -328 -3 -19 35 80 85 220 49 140 102 288 116 328 l26 72 159 0 159 0 0 -600 0 -600 -160 0 -160 0 0 193 c0 105 7 252 15 326 8 74 14 136 12 137 -3 3 -24 -56 -178 -483 l-61 -173 -159 0 -159 0 0 600 0 600 161 0 162 0 -6 -292z m-5657 -1233 l0 -1505 -1525 0 -1525 0 0 1505 0 1505 1525 0 1525 0 0 -1505z m3354 179 c6 -23 10 -25 54 -22 40 3 47 6 50 26 3 21 8 22 88 22 46 0 84 -3 84 -7 0 -5 -26 -100 -59 -213 l-58 -205 -99 0 -98 0 -63 195 c-35 107 -66 203 -69 213 -5 15 3 17 79 17 83 0 85 -1 91 -26z m467 -71 l1 -98 46 98 46 97 78 0 78 0 0 -215 0 -215 -76 0 -76 0 4 111 3 111 -52 -111 -52 -111 -76 0 -75 0 0 215 0 215 75 0 75 0 1 -97z m590 86 c125 -38 176 -192 104 -315 -40 -68 -107 -95 -250 -102 l-115 -5 0 217 0 216 111 0 c62 0 129 -5 150 -11z m-1534 -131 c78 -43 97 -122 42 -177 -16 -17 -47 -35 -69 -41 -26 -7 -441 -9 -1272 -8 -1218 3 -1233 3 -1268 23 -104 61 -77 185 46 214 23 5 550 9 1264 8 1141 -2 1227 -3 1257 -19z m4613 -2 c51 -27 70 -54 70 -104 0 -53 -36 -94 -96 -111 -55 -15 -2453 -15 -2508 0 -60 17 -96 58 -96 111 1 62 36 100 115 119 17 4 581 6 1255 6 1173 -2 1226 -3 1260 -21z m-6808 -661 l3 -266 94 258 c52 142 97 261 101 266 3 4 88 6 187 5 l180 -3 -145 -310 c-79 -170 -145 -314 -145 -320 0 -8 78 -187 232 -528 l30 -67 -182 0 -182 0 -85 244 -85 245 -3 -245 -2 -244 -170 0 -170 0 0 615 0 615 170 0 170 0 2 -265z m1018 -350 l0 -615 -175 0 -175 0 0 615 0 615 175 0 175 0 0 -615z m508 375 c-2 -132 0 -232 3 -222 4 9 41 114 83 232 43 118 81 218 85 223 4 4 89 6 188 5 l181 -3 -120 -250 -121 -249 24 -16 c101 -65 148 -147 156 -271 10 -143 -28 -262 -107 -333 -95 -86 -188 -106 -492 -106 l-228 0 0 615 0 615 176 0 176 0 -4 -240z m962 -32 l0 -273 30 85 c17 47 61 168 99 270 l68 185 187 3 187 2 -15 -27 c-56 -110 -279 -601 -278 -613 0 -8 57 -140 126 -293 70 -154 126 -283 126 -288 0 -5 -79 -9 -178 -9 l-179 0 -84 243 -84 242 -3 -243 -2 -242 -170 0 -170 0 0 615 0 615 170 0 170 0 0 -272z m1260 122 l0 -150 -120 0 -120 0 0 -465 0 -465 -175 0 -175 0 0 615 0 615 295 0 295 0 0 -150z m385 118 c3 -18 9 -53 13 -78 l8 -45 106 -3 106 -3 5 33 c3 18 9 54 13 81 l6 47 178 0 c165 0 178 -1 174 -17 -13 -58 -254 -1199 -254 -1205 0 -5 -94 -8 -210 -8 -115 0 -210 1 -210 3 0 2 -65 275 -145 606 -80 332 -145 607 -145 612 0 5 79 9 175 9 l174 0 6 -32z m1022 -250 c-4 -156 -9 -308 -13 -338 -6 -55 2 -33 188 503 l41 117 164 0 163 0 0 -615 0 -615 -167 0 -166 0 6 237 c4 131 13 288 21 348 8 61 14 111 13 112 -1 0 -58 -156 -127 -348 l-125 -349 -162 0 -163 0 0 615 0 615 166 0 167 0 -6 -282z m1237 254 c85 -32 135 -63 188 -120 100 -107 140 -236 142 -457 1 -165 -11 -229 -63 -340 -37 -80 -125 -174 -200 -214 -106 -56 -189 -71 -403 -71 l-188 0 0 616 0 616 233 -4 c207 -4 238 -7 291 -26z"/>
<path d="M5962 2868 c16 -101 31 -198 34 -215 3 -18 8 -33 12 -33 5 0 6 15 5 33 -2 17 7 114 20 215 l23 182 -61 0 -61 0 28 -182z"/>
</g>
<g id="layer103" fill="#d8d8d8" stroke="none">
<path d="M0 2175 l0 -2175 5695 0 5695 0 0 2175 0 2175 -5695 0 -5695 0 0 -2175z m3930 1725 l0 -270 -35 0 -35 0 0 183 -1 182 -194 -200 -194 -200 -1 278 0 277 35 0 35 0 2 -186 3 -186 185 195 c102 108 188 196 193 196 4 1 7 -120 7 -269z m2310 0 l0 -270 -35 0 -35 0 0 185 0 185 -117 -123 c-65 -67 -153 -158 -195 -202 l-78 -80 0 278 0 277 35 0 35 0 2 -185 3 -186 185 196 c102 107 188 195 192 195 5 0 8 -121 8 -270z m4070 0 l0 -270 -35 0 -35 0 0 183 -1 182 -194 -200 -194 -200 -1 278 0 277 35 0 35 0 2 -186 3 -186 185 195 c102 108 188 196 193 196 4 1 7 -120 7 -269z m-8664 235 c28 -16 49 -39 63 -68 19 -39 21 -61 21 -240 l0 -197 -35 0 -35 0 0 175 c0 236 -20 285 -120 285 -56 0 -78 -14 -101 -63 -16 -36 -19 -67 -19 -219 l0 -178 -35 0 -35 0 0 197 c0 230 9 263 83 308 59 35 153 35 213 0z m629 -132 c38 -87 71 -162 75 -166 4 -4 10 13 14 39 3 27 16 99 27 161 l21 113 39 0 c36 0 39 -2 35 -22 -3 -13 -26 -129 -51 -258 -25 -129 -49 -243 -53 -253 -6 -14 -30 33 -92 177 -47 108 -87 196 -90 196 -3 0 -43 -88 -90 -195 -46 -107 -87 -191 -91 -187 -3 4 -27 117 -53 252 -26 135 -50 255 -53 268 -5 20 -2 22 35 22 l40 0 17 -97 c9 -54 22 -127 29 -163 l11 -64 74 167 c41 92 77 167 81 167 4 0 38 -71 75 -157z m2213 141 c84 -35 141 -120 142 -211 l0 -53 -105 0 -105 0 0 35 0 35 65 0 c74 0 79 7 42 61 -35 52 -82 79 -139 79 -57 0 -91 -15 -135 -62 -111 -115 -57 -297 100 -339 54 -14 120 4 168 48 l37 34 29 -25 28 -24 -29 -31 c-68 -71 -212 -97 -306 -54 -177 81 -216 319 -74 455 22 20 55 44 74 52 46 20 160 20 208 0z m6387 -3 c79 -37 126 -107 140 -208 l7 -53 -111 0 -111 0 0 35 0 35 66 0 66 0 -7 28 c-8 32 -49 78 -87 98 -32 17 -111 18 -141 3 -79 -40 -136 -146 -121 -223 10 -54 58 -123 101 -144 86 -44 157 -36 224 25 l40 36 27 -26 26 -27 -28 -29 c-63 -65 -197 -94 -290 -62 -54 19 -124 86 -152 146 -33 69 -33 161 0 230 25 54 89 119 140 141 46 20 163 17 211 -5z m-10325 -95 l0 -104 60 -7 c107 -12 165 -75 157 -168 -9 -99 -65 -137 -204 -137 l-93 0 0 260 0 260 40 0 40 0 0 -104z m630 69 l0 -35 -75 0 -75 0 0 -225 0 -225 -40 0 -40 0 0 260 0 260 115 0 115 0 0 -35z m1719 17 c97 -49 108 -179 21 -244 -28 -20 -29 -23 -13 -40 9 -10 18 -41 20 -71 8 -102 -48 -147 -182 -147 l-75 0 0 260 0 260 98 0 c73 0 106 -4 131 -18z m351 -242 l0 -260 -35 0 -35 0 0 260 0 260 35 0 35 0 0 -260z m1969 195 l30 -65 111 0 111 0 30 65 c30 64 31 65 71 65 34 0 39 -3 34 -17 -19 -50 -242 -532 -246 -533 -4 0 -229 486 -246 533 -5 14 0 17 34 17 40 0 41 -1 71 -65z m1470 49 c67 -19 141 -90 159 -150 30 -102 8 -217 -54 -278 -57 -56 -98 -70 -226 -74 l-118 -4 0 261 0 261 93 0 c56 0 115 -6 146 -16z m771 -109 l0 -125 120 0 120 0 0 125 0 125 35 0 35 0 0 -260 0 -260 -35 0 -35 0 0 100 0 100 -120 0 -120 0 0 -100 0 -100 -35 0 -35 0 0 260 0 260 35 0 35 0 0 -125z m820 90 l0 -35 -105 0 -105 0 0 -90 0 -90 100 0 100 0 0 -35 0 -35 -100 0 -100 0 0 -70 0 -70 105 0 105 0 0 -30 0 -30 -145 0 -145 0 0 260 0 260 145 0 145 0 0 -35z m264 -30 l29 -65 112 0 112 0 29 65 c29 64 29 64 71 65 l42 0 -14 -32 c-43 -103 -233 -509 -239 -511 -5 -2 -186 381 -241 511 l-14 32 42 0 c42 -1 42 -1 71 -65z m716 -165 l0 -230 60 0 60 0 0 -30 0 -30 -160 0 -160 0 0 30 0 30 60 0 60 0 0 230 0 230 40 0 40 0 0 -230z m370 -30 l0 -260 -35 0 -35 0 0 260 0 260 35 0 35 0 0 -260z m-5346 -439 c206 -101 279 -393 146 -586 -17 -24 -69 -74 -115 -110 -96 -75 -125 -108 -125 -141 0 -28 44 -64 78 -64 42 0 109 39 152 87 l40 46 0 -190 0 -191 -49 -21 c-106 -45 -246 -46 -345 -2 -119 52 -205 206 -206 367 0 131 55 228 194 338 91 72 106 90 106 128 0 101 -140 99 -243 -4 -26 -26 -50 -48 -52 -48 -10 0 -5 379 5 385 5 3 42 15 82 25 56 15 96 19 170 17 85 -3 105 -8 162 -36z m6187 14 l46 -16 6 -127 c4 -70 7 -149 7 -176 l0 -49 -22 21 c-55 51 -146 74 -205 51 -135 -51 -187 -322 -97 -507 56 -114 195 -137 292 -49 l22 20 0 -181 0 -181 -42 -12 c-55 -14 -189 -14 -253 1 -140 32 -266 132 -329 261 -58 119 -71 183 -71 354 0 172 13 235 72 355 61 125 167 212 298 247 64 16 215 10 276 -12z m470 -10 c92 -60 107 -198 31 -278 -92 -97 -246 -78 -302 38 -50 104 2 231 108 266 44 14 121 2 163 -26z m-5981 -225 l0 -240 70 0 70 0 0 240 0 240 170 0 170 0 0 -600 0 -600 -170 0 -170 0 0 210 0 210 -70 0 -70 0 0 -210 0 -210 -165 0 -165 0 0 600 0 600 165 0 165 0 0 -240z m903 223 c3 -10 8 -36 12 -58 12 -79 5 -75 119 -75 l103 0 7 53 c14 107 -5 97 187 97 139 0 169 -3 169 -14 0 -14 -236 -1136 -246 -1168 -5 -16 -24 -18 -207 -18 l-202 0 -139 578 c-75 317 -140 587 -143 600 l-5 22 170 0 c154 0 171 -2 175 -17z m1177 14 c0 -2 18 -133 40 -291 22 -158 40 -304 40 -326 0 -68 17 -52 24 23 4 39 28 189 54 332 l47 260 163 3 c89 1 162 1 162 0 0 -7 229 -1145 235 -1170 l7 -28 -166 0 c-91 0 -166 3 -166 8 0 4 -18 138 -41 297 -22 160 -43 310 -46 335 l-6 45 -8 -55 c-5 -30 -30 -184 -56 -342 l-48 -288 -145 0 -145 0 -48 283 c-26 155 -50 309 -54 342 -5 41 -8 51 -10 30 -5 -35 -79 -550 -89 -612 l-7 -43 -164 0 c-152 0 -165 1 -161 18 2 9 62 279 134 599 l129 583 163 0 c89 0 162 -2 162 -3z m1630 -597 l0 -600 -165 0 -165 0 0 600 0 600 165 0 165 0 0 -600z m487 308 c-4 -161 -9 -309 -12 -328 -3 -19 35 80 85 220 49 140 102 288 116 328 l26 72 159 0 159 0 0 -600 0 -600 -160 0 -160 0 0 193 c0 105 7 252 15 326 8 74 14 136 12 137 -3 3 -24 -56 -178 -483 l-61 -173 -159 0 -159 0 0 600 0 600 161 0 162 0 -6 -292z m-5657 -1233 l0 -1505 -1525 0 -1525 0 0 1505 0 1505 1525 0 1525 0 0 -1505z m3354 179 c6 -23 10 -25 54 -22 40 3 47 6 50 26 3 21 8 22 88 22 46 0 84 -3 84 -7 0 -5 -26 -100 -59 -213 l-58 -205 -99 0 -98 0 -63 195 c-35 107 -66 203 -69 213 -5 15 3 17 79 17 83 0 85 -1 91 -26z m467 -71 l1 -98 46 98 46 97 78 0 78 0 0 -215 0 -215 -76 0 -76 0 4 111 3 111 -52 -111 -52 -111 -76 0 -75 0 0 215 0 215 75 0 75 0 1 -97z m590 86 c125 -38 176 -192 104 -315 -40 -68 -107 -95 -250 -102 l-115 -5 0 217 0 216 111 0 c62 0 129 -5 150 -11z m-1534 -131 c78 -43 97 -122 42 -177 -16 -17 -47 -35 -69 -41 -26 -7 -441 -9 -1272 -8 -1218 3 -1233 3 -1268 23 -104 61 -77 185 46 214 23 5 550 9 1264 8 1141 -2 1227 -3 1257 -19z m4613 -2 c51 -27 70 -54 70 -104 0 -53 -36 -94 -96 -111 -55 -15 -2453 -15 -2508 0 -60 17 -96 58 -96 111 1 62 36 100 115 119 17 4 581 6 1255 6 1173 -2 1226 -3 1260 -21z m-6808 -661 l3 -266 94 258 c52 142 97 261 101 266 3 4 88 6 187 5 l180 -3 -145 -310 c-79 -170 -145 -314 -145 -320 0 -8 78 -187 232 -528 l30 -67 -182 0 -182 0 -85 244 -85 245 -3 -245 -2 -244 -170 0 -170 0 0 615 0 615 170 0 170 0 2 -265z m1018 -350 l0 -615 -175 0 -175 0 0 615 0 615 175 0 175 0 0 -615z m508 375 c-2 -132 0 -232 3 -222 4 9 41 114 83 232 43 118 81 218 85 223 4 4 89 6 188 5 l181 -3 -120 -250 -121 -249 24 -16 c101 -65 148 -147 156 -271 10 -143 -28 -262 -107 -333 -95 -86 -188 -106 -492 -106 l-228 0 0 615 0 615 176 0 176 0 -4 -240z m964 -24 l3 -265 95 261 c52 143 100 262 105 264 6 3 90 3 186 2 l175 -3 -147 -315 c-111 -238 -145 -320 -139 -335 5 -11 63 -141 129 -289 67 -147 121 -272 121 -277 0 -5 -80 -9 -178 -9 l-179 0 -84 243 -84 242 -3 -243 -2 -242 -170 0 -170 0 0 615 0 615 170 0 170 0 2 -264z m1258 114 l0 -150 -120 0 -120 0 0 -465 0 -465 -175 0 -175 0 0 615 0 615 295 0 295 0 0 -150z m385 118 c3 -18 9 -53 13 -78 l8 -45 106 -3 106 -3 5 33 c3 18 9 54 13 81 l6 47 178 0 c165 0 178 -1 174 -17 -13 -58 -254 -1199 -254 -1205 0 -5 -94 -8 -210 -8 -115 0 -210 1 -210 3 0 2 -65 275 -145 606 -80 332 -145 607 -145 612 0 5 79 9 175 9 l174 0 6 -32z m1021 -255 c-4 -159 -9 -308 -12 -333 -2 -27 42 87 113 288 l116 332 164 0 163 0 0 -615 0 -615 -167 0 -166 0 6 237 c4 131 13 288 21 348 8 61 14 111 13 112 -1 0 -58 -156 -127 -348 l-125 -349 -162 0 -163 0 0 615 0 615 166 0 167 0 -7 -287z m1238 259 c85 -32 135 -63 188 -120 100 -107 140 -236 142 -457 1 -165 -11 -229 -63 -340 -37 -80 -125 -174 -200 -214 -106 -56 -189 -71 -403 -71 l-188 0 0 616 0 616 233 -4 c207 -4 238 -7 291 -26z"/>
<path d="M5296 3913 c9 -21 25 -59 36 -85 12 -27 24 -48 28 -48 4 0 16 21 28 48 11 26 27 64 36 85 l16 37 -80 0 -80 0 16 -37z"/>
<path d="M5962 2863 c16 -104 33 -201 38 -218 8 -30 8 -29 9 10 1 22 12 120 25 218 l22 177 -61 0 -61 0 28 -187z"/>
</g>
<g id="layer104" fill="#fefefe" stroke="none">
<path d="M0 2175 l0 -2175 5695 0 5695 0 0 2175 0 2175 -5695 0 -5695 0 0 -2175z m3930 1725 l0 -270 -35 0 -35 0 0 183 -1 182 -194 -200 -194 -200 -1 278 0 277 35 0 35 0 2 -186 3 -186 185 195 c102 108 188 196 193 196 4 1 7 -120 7 -269z m2310 0 l0 -270 -35 0 -35 0 0 185 0 185 -117 -123 c-65 -67 -153 -158 -195 -202 l-78 -80 0 278 0 277 35 0 35 0 2 -185 3 -186 185 196 c102 107 188 195 192 195 5 0 8 -121 8 -270z m4070 0 l0 -270 -35 0 -35 0 0 183 -1 182 -194 -200 -194 -200 -1 278 0 277 35 0 35 0 2 -186 3 -186 185 195 c102 108 188 196 193 196 4 1 7 -120 7 -269z m-8664 235 c28 -16 49 -39 63 -68 19 -39 21 -61 21 -240 l0 -197 -35 0 -35 0 0 175 c0 236 -20 285 -120 285 -56 0 -78 -14 -101 -63 -16 -36 -19 -67 -19 -219 l0 -178 -35 0 -35 0 0 197 c0 230 9 263 83 308 59 35 153 35 213 0z m629 -132 c38 -87 71 -162 75 -166 4 -4 10 13 14 39 3 27 16 99 27 161 l21 113 39 0 c36 0 39 -2 35 -22 -3 -13 -26 -129 -51 -258 -25 -129 -49 -243 -53 -253 -6 -14 -30 33 -92 177 -47 108 -87 196 -90 196 -3 0 -43 -88 -90 -195 -46 -107 -87 -191 -91 -187 -3 4 -27 117 -53 252 -26 135 -50 255 -53 268 -5 20 -2 22 35 22 l40 0 17 -97 c9 -54 22 -127 29 -163 l11 -64 74 167 c41 92 77 167 81 167 4 0 38 -71 75 -157z m2213 141 c84 -35 141 -120 142 -211 l0 -53 -105 0 -105 0 0 35 0 35 65 0 c74 0 79 7 42 61 -35 52 -82 79 -139 79 -57 0 -91 -15 -135 -62 -111 -115 -57 -297 100 -339 54 -14 120 4 168 48 l37 34 29 -25 28 -24 -29 -31 c-68 -71 -212 -97 -306 -54 -177 81 -216 319 -74 455 22 20 55 44 74 52 46 20 160 20 208 0z m6387 -3 c79 -37 126 -107 140 -208 l7 -53 -111 0 -111 0 0 35 0 35 66 0 66 0 -7 28 c-8 32 -49 78 -87 98 -32 17 -111 18 -141 3 -79 -40 -136 -146 -121 -223 10 -54 58 -123 101 -144 86 -44 157 -36 224 25 l40 36 27 -26 26 -27 -28 -29 c-63 -65 -197 -94 -290 -62 -54 19 -124 86 -152 146 -33 69 -33 161 0 230 25 54 89 119 140 141 46 20 163 17 211 -5z m-10325 -95 l0 -104 60 -7 c107 -12 165 -75 157 -168 -9 -99 -65 -137 -204 -137 l-93 0 0 260 0 260 40 0 40 0 0 -104z m630 69 l0 -35 -75 0 -75 0 0 -225 0 -225 -40 0 -40 0 0 260 0 260 115 0 115 0 0 -35z m1719 17 c97 -49 108 -179 21 -244 -28 -20 -29 -23 -13 -40 9 -10 18 -41 20 -71 8 -102 -48 -147 -182 -147 l-75 0 0 260 0 260 98 0 c73 0 106 -4 131 -18z m351 -242 l0 -260 -35 0 -35 0 0 260 0 260 35 0 35 0 0 -260z m1969 195 l30 -65 111 0 111 0 30 65 c30 64 31 65 71 65 34 0 39 -3 34 -17 -19 -50 -242 -532 -246 -533 -4 0 -229 486 -246 533 -5 14 0 17 34 17 40 0 41 -1 71 -65z m1470 49 c67 -19 141 -90 159 -150 30 -102 8 -217 -54 -278 -57 -56 -98 -70 -226 -74 l-118 -4 0 261 0 261 93 0 c56 0 115 -6 146 -16z m771 -109 l0 -125 120 0 120 0 0 125 0 125 35 0 35 0 0 -260 0 -260 -35 0 -35 0 0 100 0 100 -120 0 -120 0 0 -100 0 -100 -35 0 -35 0 0 260 0 260 35 0 35 0 0 -125z m820 90 l0 -35 -105 0 -105 0 0 -90 0 -90 100 0 100 0 0 -35 0 -35 -100 0 -100 0 0 -70 0 -70 105 0 105 0 0 -30 0 -30 -145 0 -145 0 0 260 0 260 145 0 145 0 0 -35z m264 -30 l29 -65 112 0 112 0 29 65 c29 64 29 64 71 65 l42 0 -14 -32 c-43 -103 -233 -509 -239 -511 -5 -2 -186 381 -241 511 l-14 32 42 0 c42 -1 42 -1 71 -65z m716 -165 l0 -230 60 0 60 0 0 -30 0 -30 -160 0 -160 0 0 30 0 30 60 0 60 0 0 230 0 230 40 0 40 0 0 -230z m370 -30 l0 -260 -35 0 -35 0 0 260 0 260 35 0 35 0 0 -260z m-5346 -439 c206 -101 279 -393 146 -586 -17 -24 -69 -74 -115 -110 -96 -75 -125 -108 -125 -141 0 -28 44 -64 78 -64 42 0 109 39 152 87 l40 46 0 -190 0 -191 -49 -21 c-106 -45 -246 -46 -345 -2 -119 52 -205 206 -206 367 0 131 55 228 194 338 91 72 106 90 106 128 0 101 -140 99 -243 -4 -26 -26 -50 -48 -52 -48 -10 0 -5 379 5 385 5 3 42 15 82 25 56 15 96 19 170 17 85 -3 105 -8 162 -36z m6187 14 l46 -16 6 -127 c4 -70 7 -149 7 -176 l0 -49 -22 21 c-55 51 -146 74 -205 51 -135 -51 -187 -322 -97 -507 56 -114 195 -137 292 -49 l22 20 0 -181 0 -181 -42 -12 c-55 -14 -189 -14 -253 1 -140 32 -266 132 -329 261 -58 119 -71 183 -71 354 0 172 13 235 72 355 61 125 167 212 298 247 64 16 215 10 276 -12z m470 -10 c92 -60 107 -198 31 -278 -92 -97 -246 -78 -302 38 -50 104 2 231 108 266 44 14 121 2 163 -26z m-5981 -225 l0 -240 70 0 70 0 0 240 0 240 170 0 170 0 0 -600 0 -600 -170 0 -170 0 0 210 0 210 -70 0 -70 0 0 -210 0 -210 -165 0 -165 0 0 600 0 600 165 0 165 0 0 -240z m903 223 c3 -10 8 -36 12 -58 12 -79 5 -75 119 -75 l103 0 7 53 c14 107 -5 97 187 97 139 0 169 -3 169 -14 0 -14 -236 -1136 -246 -1168 -5 -16 -24 -18 -207 -18 l-202 0 -139 578 c-75 317 -140 587 -143 600 l-5 22 170 0 c154 0 171 -2 175 -17z m1177 14 c0 -2 18 -133 40 -291 22 -158 40 -302 40 -321 0 -62 17 -46 24 23 4 37 28 184 54 327 l47 260 163 3 c89 1 162 1 162 0 0 -7 229 -1145 235 -1170 l7 -28 -166 0 c-91 0 -166 3 -166 8 0 4 -18 138 -41 297 -22 160 -43 310 -46 335 l-6 45 -8 -55 c-5 -30 -30 -184 -56 -342 l-48 -288 -145 0 -145 0 -48 278 c-26 152 -47 289 -47 303 0 15 -3 42 -7 60 -5 25 -15 -25 -40 -196 -18 -126 -40 -278 -49 -337 l-16 -108 -165 0 c-152 0 -165 1 -161 18 2 9 62 279 134 599 l129 583 163 0 c89 0 162 -2 162 -3z m1630 -597 l0 -600 -165 0 -165 0 0 600 0 600 165 0 165 0 0 -600z m487 308 c-4 -161 -9 -309 -12 -328 -3 -19 35 80 85 220 49 140 102 288 116 328 l26 72 159 0 159 0 0 -600 0 -600 -160 0 -160 0 0 193 c0 105 7 252 15 326 8 74 14 136 12 137 -3 3 -24 -56 -178 -483 l-61 -173 -159 0 -159 0 0 600 0 600 161 0 162 0 -6 -292z m-5657 -1233 l0 -1505 -1525 0 -1525 0 0 1505 0 1505 1525 0 1525 0 0 -1505z m3354 179 c6 -23 10 -25 54 -22 40 3 47 6 50 26 3 21 8 22 88 22 46 0 84 -3 84 -7 0 -5 -26 -100 -59 -213 l-58 -205 -99 0 -98 0 -63 195 c-35 107 -66 203 -69 213 -5 15 3 17 79 17 83 0 85 -1 91 -26z m467 -71 l1 -98 46 98 46 97 78 0 78 0 0 -215 0 -215 -76 0 -76 0 4 111 3 111 -52 -111 -52 -111 -76 0 -75 0 0 215 0 215 75 0 75 0 1 -97z m590 86 c125 -38 176 -192 104 -315 -40 -68 -107 -95 -250 -102 l-115 -5 0 217 0 216 111 0 c62 0 129 -5 150 -11z m-1534 -131 c78 -43 97 -122 42 -177 -16 -17 -47 -35 -69 -41 -26 -7 -441 -9 -1272 -8 -1218 3 -1233 3 -1268 23 -104 61 -77 185 46 214 23 5 550 9 1264 8 1141 -2 1227 -3 1257 -19z m4613 -2 c51 -27 70 -54 70 -104 0 -53 -36 -94 -96 -111 -55 -15 -2453 -15 -2508 0 -60 17 -96 58 -96 111 1 62 36 100 115 119 17 4 581 6 1255 6 1173 -2 1226 -3 1260 -21z m-6808 -661 l3 -266 94 258 c52 142 97 261 101 266 3 4 88 6 187 5 l180 -3 -145 -310 c-79 -170 -145 -314 -145 -320 0 -8 78 -187 232 -528 l30 -67 -182 0 -182 0 -85 244 -85 245 -3 -245 -2 -244 -170 0 -170 0 0 615 0 615 170 0 170 0 2 -265z m1018 -350 l0 -615 -175 0 -175 0 0 615 0 615 175 0 175 0 0 -615z m508 375 c-2 -132 0 -232 3 -222 4 9 41 114 83 232 43 118 81 218 85 223 4 4 89 6 188 5 l181 -3 -120 -250 -121 -249 24 -16 c101 -65 148 -147 156 -271 10 -143 -28 -262 -107 -333 -95 -86 -188 -106 -492 -106 l-228 0 0 615 0 615 176 0 176 0 -4 -240z m962 -22 c0 -144 2 -259 5 -256 3 2 47 119 98 259 l94 254 187 3 187 2 -15 -27 c-56 -110 -279 -601 -278 -613 0 -8 57 -140 126 -293 70 -154 126 -283 126 -288 0 -5 -79 -9 -178 -9 l-179 0 -84 243 -84 242 -3 -243 -2 -242 -170 0 -170 0 0 615 0 615 170 0 170 0 0 -262z m1260 112 l0 -150 -120 0 -120 0 0 -465 0 -465 -175 0 -175 0 0 615 0 615 295 0 295 0 0 -150z m385 118 c3 -18 9 -53 13 -78 l8 -45 106 -3 106 -3 5 33 c3 18 9 54 13 81 l6 47 178 0 c165 0 178 -1 174 -17 -13 -58 -254 -1199 -254 -1205 0 -5 -94 -8 -210 -8 -115 0 -210 1 -210 3 0 2 -65 275 -145 606 -80 332 -145 607 -145 612 0 5 79 9 175 9 l174 0 6 -32z m1021 -255 c-4 -159 -9 -308 -12 -333 -2 -27 42 87 113 288 l116 332 164 0 163 0 0 -615 0 -615 -167 0 -166 0 6 232 c3 128 11 272 17 320 6 48 10 95 8 103 -2 8 -57 -136 -123 -320 l-120 -335 -162 0 -163 0 0 615 0 615 166 0 167 0 -7 -287z m1238 259 c85 -32 135 -63 188 -120 100 -107 140 -236 142 -457 1 -165 -11 -229 -63 -340 -37 -80 -125 -174 -200 -214 -106 -56 -189 -71 -403 -71 l-188 0 0 616 0 616 233 -4 c207 -4 238 -7 291 -26z"/>
<path d="M550 3780 l0 -93 40 7 c86 14 125 57 101 114 -15 35 -40 51 -96 59 l-45 6 0 -93z"/>
<path d="M2740 4006 l0 -86 48 0 c29 0 59 8 80 20 30 19 33 24 30 62 -4 52 -33 75 -105 84 l-53 7 0 -87z"/>
<path d="M2740 3770 c0 -89 3 -92 69 -69 85 30 60 149 -32 149 l-37 0 0 -80z"/>
<path d="M5296 3913 c9 -21 25 -59 36 -85 12 -27 24 -48 28 -48 8 0 70 139 70 158 0 8 -22 12 -75 12 l-75 0 16 -37z"/>
<path d="M6530 3885 l0 -196 53 7 c78 9 157 51 180 96 72 144 -22 288 -190 288 l-43 0 0 -195z"/>
<path d="M8610 3944 c0 -3 17 -44 37 -92 l37 -86 32 70 c55 122 57 114 -30 114 -42 0 -76 -3 -76 -6z"/>
<path d="M5963 2858 c16 -106 32 -201 36 -211 3 -9 17 77 31 193 l26 210 -61 0 -61 0 29 -192z"/>
<path d="M546 3342 c-10 -17 -6 -442 5 -469 17 -41 73 -157 79 -163 3 -3 12 -18 20 -34 8 -16 20 -31 27 -33 13 -5 123 47 123 58 0 4 14 12 30 19 17 7 30 16 30 21 0 5 9 9 20 9 11 0 20 5 20 10 0 6 7 10 15 10 15 0 82 34 100 51 5 5 17 9 27 9 10 0 18 4 18 9 0 5 10 13 23 17 37 11 185 83 191 92 6 10 -132 285 -190 380 -14 22 -16 22 -274 22 -142 0 -261 -3 -264 -8z"/>
<path d="M1354 2919 c-63 -41 -102 -63 -189 -110 -38 -20 -97 -52 -130 -70 -33 -17 -87 -46 -120 -63 -33 -17 -62 -33 -65 -36 -3 -3 -56 -30 -117 -60 -62 -30 -113 -56 -113 -57 0 -5 24 -47 30 -53 3 -3 11 -16 19 -30 50 -87 51 -104 2 -113 -23 -5 -31 -12 -31 -27 0 -18 154 -337 169 -350 12 -10 31 -50 31 -64 0 -8 4 -16 9 -18 4 -1 29 -45 56 -96 51 -101 71 -120 101 -97 35 27 50 17 85 -52 18 -38 36 -70 39 -73 3 -3 19 -31 35 -64 17 -32 36 -61 44 -64 15 -6 74 22 106 49 11 10 39 25 63 34 23 10 42 21 42 26 0 5 7 9 15 9 18 0 192 87 200 100 3 6 15 10 26 10 10 0 19 5 19 10 0 6 9 10 19 10 11 0 21 4 23 8 2 5 44 28 93 52 50 23 101 49 115 57 14 7 44 23 67 34 23 11 43 26 45 32 2 7 1 53 -2 102 -7 108 7 181 53 274 36 73 44 85 103 146 60 61 108 95 132 95 30 0 27 -16 -9 -48 -42 -37 -101 -95 -119 -118 -21 -25 -60 -110 -60 -128 0 -8 -4 -17 -9 -20 -16 -10 -24 -160 -11 -222 14 -73 39 -144 50 -144 11 0 63 22 70 30 3 3 28 16 55 29 128 61 215 106 215 113 0 5 6 8 13 8 18 0 67 24 67 33 0 4 9 7 19 7 11 0 21 4 23 8 2 5 68 42 148 82 80 40 152 76 160 81 8 5 46 23 83 40 38 18 71 38 74 45 7 20 -105 199 -171 271 -86 94 -225 177 -341 203 -124 27 -326 11 -430 -34 -19 -9 -50 -22 -67 -30 -18 -7 -51 -21 -73 -31 -156 -67 -247 -74 -340 -27 -28 14 -135 114 -135 126 0 3 -17 32 -38 65 -22 32 -45 74 -52 93 -13 31 -27 47 -41 48 -3 0 -27 -14 -55 -31z m-406 -521 c29 -29 6 -63 -70 -102 -24 -13 -60 -32 -80 -44 -48 -28 -87 -32 -101 -11 -16 25 11 59 69 89 27 13 51 28 55 32 8 12 82 47 100 48 8 0 20 -5 27 -12z m46 -114 c35 -34 18 -52 -103 -112 -92 -46 -141 -54 -141 -24 0 26 27 54 80 83 25 13 47 26 50 29 9 10 74 40 87 40 6 0 19 -7 27 -16z m44 -90 c15 -4 22 -14 22 -31 0 -27 -13 -43 -50 -59 -76 -34 -125 -60 -128 -66 -7 -15 -80 -9 -85 6 -7 17 29 66 48 66 7 0 15 3 17 8 3 7 137 81 148 82 3 0 15 -3 28 -6z m78 -130 c8 -32 2 -39 -64 -70 -31 -15 -74 -36 -95 -46 -36 -19 -91 -27 -103 -15 -15 15 9 54 46 77 22 14 40 28 40 32 0 5 7 8 16 8 9 0 28 8 42 19 51 35 109 33 118 -5z m45 -83 c7 -55 -3 -72 -51 -86 -14 -4 -56 -23 -94 -42 -79 -40 -116 -39 -116 2 0 14 4 25 9 25 5 0 16 6 23 13 7 7 40 28 73 46 33 18 65 36 70 41 21 17 84 18 86 1z m58 -113 c12 -34 3 -52 -32 -67 -18 -7 -67 -28 -109 -48 -90 -40 -112 -40 -116 2 -2 22 3 34 19 43 153 95 221 115 238 70z"/>
<path d="M3170 1943 c-91 -51 -284 -152 -420 -220 -63 -31 -117 -60 -120 -63 -3 -3 -39 -23 -80 -43 -41 -20 -89 -45 -105 -55 -17 -9 -52 -26 -78 -37 -26 -10 -47 -23 -47 -27 0 -4 -9 -8 -20 -8 -11 0 -20 -3 -20 -8 0 -12 -87 -54 -107 -50 -10 2 -30 27 -46 58 -16 30 -42 79 -59 110 -17 30 -38 68 -46 83 -8 16 -20 31 -27 34 -15 5 -73 -20 -145 -63 -25 -15 -115 -63 -200 -107 -307 -159 -310 -160 -310 -178 0 -10 3 -19 8 -21 4 -1 23 -33 42 -70 19 -38 38 -68 41 -68 4 0 12 -15 20 -32 7 -18 25 -52 41 -75 15 -23 28 -44 28 -48 0 -7 74 -117 99 -148 41 -49 149 -157 158 -157 6 0 17 -7 24 -16 15 -18 106 -64 126 -64 7 0 13 -5 13 -11 0 -6 6 -9 13 -6 6 2 35 -2 62 -9 28 -8 72 -14 98 -14 60 0 189 20 202 31 5 5 23 9 41 9 18 0 49 8 71 19 21 10 79 38 128 61 50 24 92 47 93 52 2 4 10 8 18 8 8 0 14 4 14 9 0 5 10 12 23 15 12 3 38 20 57 37 19 17 51 43 70 58 83 63 228 202 270 260 14 19 35 46 46 60 40 48 111 183 124 234 5 18 16 57 24 87 19 65 21 219 5 287 -19 77 -36 118 -50 120 -8 2 -43 -14 -79 -34z"/>
<path d="M6892 1953 c11 -52 28 -80 28 -47 0 10 3 36 6 57 6 35 5 37 -18 37 -25 0 -25 -1 -16 -47z"/>
<path d="M7810 1940 c0 -107 8 -121 46 -79 14 16 19 36 19 79 0 43 -5 63 -19 79 -38 42 -46 28 -46 -79z"/>
<path d="M5710 795 c0 -161 -1 -158 65 -131 66 28 94 120 61 200 -18 42 -61 76 -97 76 l-29 0 0 -145z"/>
<path d="M8396 1098 c8 -46 23 -146 35 -223 22 -145 29 -173 29 -114 0 32 33 314 45 387 l6 32 -64 0 -64 0 13 -82z"/>
<path d="M10390 999 l0 -310 23 6 c107 32 155 148 144 345 -6 108 -26 173 -64 214 -22 24 -78 56 -98 56 -3 0 -5 -140 -5 -311z"/>
</g>


</svg>