<svg width="512" height="256" viewBox="0 0 512 256" fill="none" xmlns="http://www.w3.org/2000/svg">
<path d="M187.367 93.8601C198.663 93.8601 221.067 98.486 221.067 114.414V124.041H204.773V118.852C204.773 112.189 194.221 109.225 187.367 109.225C169.035 109.225 155.332 122.928 155.332 142.737C155.332 164.037 170.89 176.074 188.291 176.074C205.883 176.074 217.362 163.108 217.362 163.108L225.143 175.889C225.143 175.889 211.806 192 186.994 192C157.553 192 137 171.077 137 142.93C137 115.341 157.183 93.8601 187.367 93.8601Z" fill="#F68313"/>
<path d="M245.696 115.524C245.696 112.742 244.219 111.452 241.624 111.452H234.026V96.0846H251.618C259.952 96.0846 263.474 99.5969 263.474 107.93V170.326C263.474 173.108 264.951 174.404 267.546 174.404H275.137V189.773H257.545C249.211 189.773 245.696 186.257 245.696 177.924V115.524Z" fill="#F68313"/>
<path d="M336.98 93.86C348.278 93.86 370.682 98.4858 370.682 114.414V124.041H354.388V118.852C354.388 112.189 343.829 109.225 336.98 109.225C318.65 109.225 304.947 122.927 304.947 142.737C304.947 164.037 320.501 176.074 337.911 176.074C355.498 176.074 366.98 163.108 366.98 163.108L374.754 175.889C374.754 175.889 361.425 192 336.61 192C307.168 192 286.619 171.077 286.619 142.93C286.619 115.34 306.798 93.86 336.98 93.86" fill="#F68313"/>
<path d="M263.173 73.0514C263.173 78.047 259.114 82.0997 254.115 82.0997C249.122 82.0997 245.07 78.047 245.07 73.0514C245.07 68.0556 249.122 64 254.115 64C259.114 64 263.173 68.0556 263.173 73.0514Z" fill="#F68313"/>
<path d="M232.166 66.1557C235.976 66.1258 239.088 69.1954 239.111 73.002C239.137 76.8123 236.067 79.92 232.261 79.9536C228.451 79.9737 225.339 76.9133 225.31 73.1032C225.29 69.2874 228.353 66.1788 232.166 66.1557Z" fill="#F68313"/>
<path d="M213.153 66.9317C216.522 66.8898 219.301 69.5852 219.354 72.9661C219.396 76.3432 216.704 79.1148 213.323 79.1703C209.945 79.2099 207.171 76.5138 207.122 73.1329C207.076 69.7625 209.775 66.9872 213.153 66.9317" fill="#F68313"/>
<path d="M196.377 68.2817C199.01 68.275 201.156 70.4075 201.163 73.0416C201.166 75.6786 199.036 77.8179 196.395 77.8271C193.763 77.8339 191.616 75.7048 191.614 73.0653C191.61 70.4203 193.736 68.2817 196.377 68.2817" fill="#F68313"/>
</svg>
